ply
format ascii 1.0
element vertex 117
property float x
property float y
property float z
property float normal_x
property float normal_y
property float normal_z
property uchar red
property uchar green
property uchar blue
property uchar alpha
element face 39
property list uchar int vertex_indices
end_header
0.03 -0.100466 0.91 -0.0863559 -0.166463 0.982259 159 158 157 255
0.03 -0.11 0.908384 -0.0863559 -0.166463 0.982259 159 158 157 255
0.0483786 -0.11 0.91 -0.0863559 -0.166463 0.982259 152 151 151 255
0.0483786 -0.11 0.91 -0.0991507 -0.191127 0.976545 152 151 151 255
0.05 -0.11 0.910165 -0.0991507 -0.191127 0.976545 152 151 151 255
0.03 -0.100466 0.91 -0.0991507 -0.191127 0.976545 159 158 157 255
0.05 -0.11 0.910165 -0.0923984 -0.176905 0.979881 152 151 151 255
0.03 -0.09 0.911889 -0.0923984 -0.176905 0.979881 164 164 164 255
0.03 -0.100466 0.91 -0.0923984 -0.176905 0.979881 159 158 157 255
0.05 -0.11 0.910165 0.0673432 -0.0186879 0.997555 152 151 151 255
0.05 -0.09 0.910539 0.0673432 -0.0186879 0.997555 169 168 168 255
0.03 -0.09 0.911889 0.0673432 -0.0186879 0.997555 164 164 164 255
0.0465156 -0.07 0.91 -0.529671 0.543605 0.651109 175 174 174 255
0.03 -0.07 0.896565 -0.529671 0.543605 0.651109 176 175 169 255
0.03 -0.0860922 0.91 -0.529671 0.543605 0.651109 164 164 164 255
0.03 -0.0860922 0.91 -0.390473 0.400744 0.828816 164 164 164 255
0.03 -0.09 0.911889 -0.390473 0.400744 0.828816 164 164 164 255
0.0465156 -0.07 0.91 -0.390473 0.400744 0.828816 175 174 174 255
0.03 -0.09 0.911889 -0.383266 0.395354 0.834747 164 164 164 255
0.05 -0.07 0.9116 -0.383266 0.395354 0.834747 175 174 174 255
0.0465156 -0.07 0.91 -0.383266 0.395354 0.834747 175 174 174 255
0.03 -0.09 0.911889 0.0672609 -0.0528329 0.996336 164 164 164 255
0.05 -0.09 0.910539 0.0672609 -0.0528329 0.996336 169 168 168 255
0.05 -0.07 0.9116 0.0672609 -0.0528329 0.996336 175 174 174 255
0.0465156 -0.07 0.91 -0.221724 0.936243 0.272558 175 174 174 255
0.05 -0.0691748 0.91 -0.221724 0.936243 0.272558 175 174 174 255
0.03 -0.07 0.896565 -0.221724 0.936243 0.272558 176 175 169 255
0.05 -0.0691748 0.91 -0.174498 0.964018 0.200551 175 174 174 255
0.03 -0.0686343 0.89 -0.174498 0.964018 0.200551 176 175 169 255
0.03 -0.07 0.896565 -0.174498 0.964018 0.200551 176 175 169 255
0.05 -0.0691748 0.91 -0.295639 0.900122 0.319966 175 174 174 255
0.05 -0.0620654 0.89 -0.295639 0.900122 0.319966 175 174 174 255
0.03 -0.0686343 0.89 -0.295639 0.900122 0.319966 176 175 169 255
0.05 -0.07 0.9116 -0.205962 0.869686 0.448581 175 174 174 255
0.05 -0.0691748 0.91 -0.205962 0.869686 0.448581 175 174 174 255
0.0465156 -0.07 0.91 -0.205962 0.869686 0.448581 175 174 174 255
0.07 -0.11 0.909981 0.00648328 -0.650481 0.759495 159 159 158 255
0.0677935 -0.11 0.91 0.00648328 -0.650481 0.759495 159 159 158 255
0.05 -0.110177 0.91 0.00648328 -0.650481 0.759495 152 151 151 255
0.05 -0.13 0.897857 0.00543476 -0.522337 0.852722 154 153 149 255
0.07 -0.11 0.909981 0.00543476 -0.522337 0.852722 159 159 158 255
0.05 -0.110177 0.91 0.00543476 -0.522337 0.852722 152 151 151 255
0.07 -0.13 0.907262 -0.422361 -0.122089 0.898168 185 184 184 255
0.07 -0.11 0.909981 -0.422361 -0.122089 0.898168 159 159 158 255
0.05 -0.13 0.897857 -0.422361 -0.122089 0.898168 154 153 149 255
0.0677935 -0.11 0.91 0.00678071 -0.680323 0.732881 159 159 158 255
0.05 -0.11 0.910165 0.00678071 -0.680323 0.732881 152 151 151 255
0.05 -0.110177 0.91 0.00678071 -0.680323 0.732881 152 151 151 255
0.07 -0.109212 0.91 0.00853355 -0.0238977 0.999678 159 159 158 255
0.0677935 -0.11 0.91 0.00853355 -0.0238977 0.999678 159 159 158 255
0.07 -0.11 0.909981 0.00853355 -0.0238977 0.999678 159 159 158 255
0.07 -0.109212 0.91 0.00856528 -0.0239866 0.999676 159 159 158 255
0.07 -0.09 0.910461 0.00856528 -0.0239866 0.999676 163 163 162 255
0.0677935 -0.11 0.91 0.00856528 -0.0239866 0.999676 159 159 158 255
0.07 -0.09 0.910461 0.00924905 -0.0240618 0.999668 163 163 162 255
0.05 -0.11 0.910165 0.00924905 -0.0240618 0.999668 152 151 151 255
0.0677935 -0.11 0.91 0.00924905 -0.0240618 0.999668 159 159 158 255
0.07 -0.09 0.910461 0.00391531 -0.0187303 0.999817 163 163 162 255
0.05 -0.09 0.910539 0.00391531 -0.0187303 0.999817 169 168 168 255
0.05 -0.11 0.910165 0.00391531 -0.0187303 0.999817 152 151 151 255
0.07 -0.07 0.911297 0.00391258 -0.0417818 0.999119 170 169 169 255
0.05 -0.09 0.910539 0.00391258 -0.0417818 0.999119 169 168 168 255
0.07 -0.09 0.910461 0.00391258 -0.0417818 0.999119 163 163 162 255
0.05 -0.07 0.9116 0.0151017 -0.0529468 0.998483 175 174 174 255
0.05 -0.09 0.910539 0.0151017 -0.0529468 0.998483 169 168 168 255
0.07 -0.07 0.911297 0.0151017 -0.0529468 0.998483 170 169 169 255
0.05 -0.0550813 0.85 0.0572151 0.989079 0.135832 163 125 95 255
0.07 -0.0589849 0.87 0.0572151 0.989079 0.135832 129 121 99 255
0.07 -0.0562382 0.85 0.0572151 0.989079 0.135832 143 115 85 255
0.05 -0.0578707 0.87 0.0550898 0.98891 0.137924 164 141 120 255
0.07 -0.0589849 0.87 0.0550898 0.98891 0.137924 129 121 99 255
0.05 -0.0550813 0.85 0.0550898 0.98891 0.137924 163 125 95 255
0.05 -0.0578707 0.87 0.0546355 0.980754 0.187447 164 141 120 255
0.07 -0.0628074 0.89 0.0546355 0.980754 0.187447 164 164 164 255
0.07 -0.0589849 0.87 0.0546355 0.980754 0.187447 129 121 99 255
0.05 -0.0620654 0.89 0.0362839 0.978061 0.205134 175 174 174 255
0.07 -0.0628074 0.89 0.0362839 0.978061 0.205134 164 164 164 255
0.05 -0.0578707 0.87 0.0362839 0.978061 0.205134 164 141 120 255
0.05 -0.0620654 0.89 0.0352428 0.949998 0.31026 175 174 174 255
0.07 -0.0693392 0.91 0.0352428 0.949998 0.31026 170 169 169 255
0.07 -0.0628074 0.89 0.0352428 0.949998 0.31026 164 164 164 255
0.05 -0.0691748 0.91 0.00774379 0.942212 0.334928 175 174 174 255
0.07 -0.0693392 0.91 0.00774379 0.942212 0.334928 170 169 169 255
0.05 -0.0620654 0.89 0.00774379 0.942212 0.334928 175 174 174 255
0.05 -0.0691748 0.91 0.00730415 0.888719 0.458394 175 174 174 255
0.05 -0.07 0.9116 0.00730415 0.888719 0.458394 175 174 174 255
0.07 -0.0693392 0.91 0.00730415 0.888719 0.458394 170 169 169 255
0.07 -0.0693392 0.91 0.00686448 0.891047 0.453859 170 169 169 255
0.05 -0.07 0.9116 0.00686448 0.891047 0.453859 175 174 174 255
0.07 -0.07 0.911297 0.00686448 0.891047 0.453859 170 169 169 255
0.09 -0.118946 0.89 0.640252 -0.625178 0.446352 163 162 162 255
0.0792061 -0.13 0.89 0.640252 -0.625178 0.446352 161 160 160 255
0.09 -0.13 0.874517 0.640252 -0.625178 0.446352 157 143 113 255
0.09 -0.118946 0.89 0.679929 -0.663921 0.311296 163 162 162 255
0.09 -0.11 0.909079 0.679929 -0.663921 0.311296 172 170 169 255
0.0792061 -0.13 0.89 0.679929 -0.663921 0.311296 161 160 160 255
0.09 -0.11 0.909079 0.647707 -0.679087 0.345422 172 170 169 255
0.07 -0.13 0.907262 0.647707 -0.679087 0.345422 185 184 184 255
0.0792061 -0.13 0.89 0.647707 -0.679087 0.345422 161 160 160 255
0.09 -0.11 0.909079 0.0446325 -0.134558 0.9899 172 170 169 255
0.07 -0.11 0.909981 0.0446325 -0.134558 0.9899 159 159 158 255
0.07 -0.13 0.907262 0.0446325 -0.134558 0.9899 185 184 184 255
0.07 -0.109212 0.91 0.0450293 -0.0238744 0.9987 159 159 158 255
0.07 -0.11 0.909981 0.0450293 -0.0238744 0.9987 159 159 158 255
0.09 -0.11 0.909079 0.0450293 -0.0238744 0.9987 172 170 169 255
0.07 -0.109212 0.91 0.038984 -0.162431 0.985949 159 159 158 255
0.09 -0.11 0.909079 0.038984 -0.162431 0.985949 172 170 169 255
0.09 -0.104412 0.91 0.038984 -0.162431 0.985949 172 170 169 255
0.09 -0.104412 0.91 0.0360727 -0.150301 0.987982 172 170 169 255
0.09 -0.09 0.912192 0.0360727 -0.150301 0.987982 158 158 158 255
0.07 -0.109212 0.91 0.0360727 -0.150301 0.987982 159 159 158 255
0.07 -0.109212 0.91 -0.0862284 -0.0238981 0.995989 159 159 158 255
0.09 -0.09 0.912192 -0.0862284 -0.0238981 0.995989 158 158 158 255
0.07 -0.09 0.910461 -0.0862284 -0.0238981 0.995989 163 163 162 255
0.0729752 -0.07 0.91 0.401367 0.440033 0.80329 170 169 169 255
0.09 -0.0855289 0.91 0.401367 0.440033 0.80329 158 158 158 255
0.09 -0.07 0.901493 0.401367 0.440033 0.80329 186 164 146 255
3 0 1 2 
3 3 4 5 
3 6 7 8 
3 9 10 11 
3 12 13 14 
3 15 16 17 
3 18 19 20 
3 21 22 23 
3 24 25 26 
3 27 28 29 
3 30 31 32 
3 33 34 35 
3 36 37 38 
3 39 40 41 
3 42 43 44 
3 45 46 47 
3 48 49 50 
3 51 52 53 
3 54 55 56 
3 57 58 59 
3 60 61 62 
3 63 64 65 
3 66 67 68 
3 69 70 71 
3 72 73 74 
3 75 76 77 
3 78 79 80 
3 81 82 83 
3 84 85 86 
3 87 88 89 
3 90 91 92 
3 93 94 95 
3 96 97 98 
3 99 100 101 
3 102 103 104 
3 105 106 107 
3 108 109 110 
3 111 112 113 
3 114 115 116 
