ply
format ascii 1.0
element vertex 210
property float x
property float y
property float z
property float normal_x
property float normal_y
property float normal_z
property uchar red
property uchar green
property uchar blue
property uchar alpha
element face 70
property list uchar int vertex_indices
end_header
-0.134368 -0.19 0.85 0.682664 0.646237 0.341098 181 181 181 255
-0.13 -0.194614 0.85 0.682664 0.646237 0.341098 181 181 181 255
-0.13 -0.19 0.841258 0.682664 0.646237 0.341098 181 181 181 255
-0.141085 -0.19 0.87 0.68734 0.691788 0.221345 162 162 162 255
-0.13 -0.201013 0.87 0.68734 0.691788 0.221345 165 165 165 255
-0.13 -0.194614 0.85 0.68734 0.691788 0.221345 181 181 181 255
-0.141085 -0.19 0.87 0.705537 0.667889 0.236944 162 162 162 255
-0.13 -0.194614 0.85 0.705537 0.667889 0.236944 181 181 181 255
-0.134368 -0.19 0.85 0.705537 0.667889 0.236944 181 181 181 255
-0.14682 -0.19 0.89 0.674752 0.717651 0.172298 163 163 163 255
-0.13 -0.205815 0.89 0.674752 0.717651 0.172298 163 163 163 255
-0.13 -0.201013 0.87 0.674752 0.717651 0.172298 165 165 165 255
-0.14682 -0.19 0.89 0.690849 0.69532 0.198134 163 163 163 255
-0.13 -0.201013 0.87 0.690849 0.69532 0.198134 165 165 165 255
-0.141085 -0.19 0.87 0.690849 0.69532 0.198134 162 162 162 255
-0.14682 -0.19 0.89 0.657577 0.699384 0.280096 163 163 163 255
-0.15 -0.19 0.897464 0.657577 0.699384 0.280096 163 163 163 255
-0.13 -0.205815 0.89 0.657577 0.699384 0.280096 163 163 163 255
-0.15 -0.19 0.897464 0.656492 0.710136 0.254412 163 163 163 255
-0.13 -0.21 0.901681 0.656492 0.710136 0.254412 163 163 163 255
-0.13 -0.205815 0.89 0.656492 0.710136 0.254412 163 163 163 255
-0.15 -0.19 0.897464 -0.258485 -0.0551311 0.964441 163 163 163 255
-0.15 -0.21 0.896321 -0.258485 -0.0551311 0.964441 167 164 164 255
-0.13 -0.21 0.901681 -0.258485 -0.0551311 0.964441 163 163 163 255
-0.134368 -0.19 0.85 0.8916 0.0811357 0.445495 181 181 181 255
-0.13 -0.19 0.841258 0.8916 0.0811357 0.445495 181 181 181 255
-0.13 -0.17 0.837616 0.8916 0.0811357 0.445495 201 201 201 255
-0.134368 -0.19 0.85 0.781303 0.196249 0.592497 181 181 181 255
-0.13 -0.17 0.837616 0.781303 0.196249 0.592497 201 201 201 255
-0.139392 -0.17 0.85 0.781303 0.196249 0.592497 192 192 192 255
-0.139392 -0.17 0.85 0.922187 0.231637 0.309702 192 192 192 255
-0.141085 -0.19 0.87 0.922187 0.231637 0.309702 162 162 162 255
-0.134368 -0.19 0.85 0.922187 0.231637 0.309702 181 181 181 255
-0.139392 -0.17 0.85 0.897746 0.271166 0.347163 192 192 192 255
-0.147126 -0.17 0.87 0.897746 0.271166 0.347163 171 171 171 255
-0.141085 -0.19 0.87 0.897746 0.271166 0.347163 162 162 162 255
-0.15 -0.18113 0.89 0.887655 0.318186 0.332905 163 163 163 255
-0.14682 -0.19 0.89 0.887655 0.318186 0.332905 163 163 163 255
-0.15 -0.17 0.879362 0.887655 0.318186 0.332905 171 171 171 255
-0.14682 -0.19 0.89 0.913583 0.294431 0.280494 163 163 163 255
-0.147126 -0.17 0.87 0.913583 0.294431 0.280494 171 171 171 255
-0.15 -0.17 0.879362 0.913583 0.294431 0.280494 171 171 171 255
-0.14682 -0.19 0.89 0.923125 0.278832 0.26475 163 163 163 255
-0.141085 -0.19 0.87 0.923125 0.278832 0.26475 162 162 162 255
-0.147126 -0.17 0.87 0.923125 0.278832 0.26475 171 171 171 255
-0.15 -0.18113 0.89 0.873729 0.313194 0.372166 163 163 163 255
-0.15 -0.19 0.897464 0.873729 0.313194 0.372166 163 163 163 255
-0.14682 -0.19 0.89 0.873729 0.313194 0.372166 163 163 163 255
-0.11 -0.199108 0.85 0.162564 0.845359 0.508863 194 194 194 255
-0.11 -0.19 0.834869 0.162564 0.845359 0.508863 204 204 204 255
-0.13 -0.19 0.841258 0.162564 0.845359 0.508863 181 181 181 255
-0.11 -0.199108 0.85 0.194908 0.867408 0.457837 194 194 194 255
-0.13 -0.19 0.841258 0.194908 0.867408 0.457837 181 181 181 255
-0.13 -0.194614 0.85 0.194908 0.867408 0.457837 181 181 181 255
-0.13 -0.194614 0.85 0.211649 0.941908 0.260795 181 181 181 255
-0.11 -0.204646 0.87 0.211649 0.941908 0.260795 173 173 173 255
-0.11 -0.199108 0.85 0.211649 0.941908 0.260795 194 194 194 255
-0.13 -0.201013 0.87 0.170451 0.938497 0.300282 165 165 165 255
-0.11 -0.204646 0.87 0.170451 0.938497 0.300282 173 173 173 255
-0.13 -0.194614 0.85 0.170451 0.938497 0.300282 181 181 181 255
-0.13 -0.201013 0.87 0.175311 0.965257 0.193764 165 165 165 255
-0.11 -0.20866 0.89 0.175311 0.965257 0.193764 171 171 171 255
-0.11 -0.204646 0.87 0.175311 0.965257 0.193764 173 173 173 255
-0.13 -0.205815 0.89 0.137037 0.963195 0.23125 163 163 163 255
-0.11 -0.20866 0.89 0.137037 0.963195 0.23125 171 171 171 255
-0.13 -0.201013 0.87 0.137037 0.963195 0.23125 165 165 165 255
-0.13 -0.205815 0.89 0.132752 0.933077 0.334282 163 163 163 255
-0.13 -0.21 0.901681 0.132752 0.933077 0.334282 163 163 163 255
-0.11 -0.20866 0.89 0.132752 0.933077 0.334282 171 171 171 255
-0.11 -0.20866 0.89 0.103541 0.952471 0.286493 171 171 171 255
-0.13 -0.21 0.901681 0.103541 0.952471 0.286493 163 163 163 255
-0.11 -0.21 0.894453 0.103541 0.952471 0.286493 171 171 171 255
-0.11 -0.17 0.830869 0.298938 0.187141 0.935743 222 222 222 255
-0.13 -0.19 0.841258 0.298938 0.187141 0.935743 181 181 181 255
-0.11 -0.19 0.834869 0.298938 0.187141 0.935743 204 204 204 255
-0.13 -0.17 0.837616 0.31498 0.170057 0.933739 201 201 201 255
-0.13 -0.19 0.841258 0.31498 0.170057 0.933739 181 181 181 255
-0.11 -0.17 0.830869 0.31498 0.170057 0.933739 222 222 222 255
-0.09 -0.220411 0.85 0.622337 -0.492171 0.608658 172 131 96 255
-0.097583 -0.23 0.85 0.622337 -0.492171 0.608658 172 131 96 255
-0.09 -0.23 0.842246 0.622337 -0.492171 0.608658 172 131 96 255
-0.0914957 -0.19 0.85 -0.388571 0.78943 0.475197 194 194 191 255
-0.11 -0.19 0.834869 -0.388571 0.78943 0.475197 204 204 204 255
-0.11 -0.199108 0.85 -0.388571 0.78943 0.475197 194 194 194 255
-0.09 -0.201385 0.87 -0.421842 0.77403 0.472152 174 170 162 255
-0.09 -0.19 0.851336 -0.421842 0.77403 0.472152 194 194 191 255
-0.0914957 -0.19 0.85 -0.421842 0.77403 0.472152 194 194 191 255
-0.11 -0.199108 0.85 -0.387974 0.788216 0.477694 194 194 194 255
-0.09 -0.201385 0.87 -0.387974 0.788216 0.477694 174 170 162 255
-0.0914957 -0.19 0.85 -0.387974 0.788216 0.477694 194 194 191 255
-0.11 -0.204646 0.87 -0.155235 0.952058 0.263605 173 173 173 255
-0.09 -0.201385 0.87 -0.155235 0.952058 0.263605 174 170 162 255
-0.11 -0.199108 0.85 -0.155235 0.952058 0.263605 194 194 194 255
-0.09 -0.21 0.889167 0.112258 0.906334 0.407378 176 170 161 255
-0.09 -0.201385 0.87 0.112258 0.906334 0.407378 174 170 162 255
-0.0930215 -0.21 0.89 0.112258 0.906334 0.407378 176 170 161 255
-0.09 -0.201385 0.87 0.0719556 0.912037 0.403746 174 170 162 255
-0.11 -0.20866 0.89 0.0719556 0.912037 0.403746 171 171 171 255
-0.0930215 -0.21 0.89 0.0719556 0.912037 0.403746 176 170 161 255
-0.09 -0.201385 0.87 -0.157859 0.968148 0.194344 174 170 162 255
-0.11 -0.204646 0.87 -0.157859 0.968148 0.194344 173 173 173 255
-0.11 -0.20866 0.89 -0.157859 0.968148 0.194344 171 171 171 255
-0.11 -0.20866 0.89 0.075337 0.954897 0.287223 171 171 171 255
-0.11 -0.21 0.894453 0.075337 0.954897 0.287223 171 171 171 255
-0.0930215 -0.21 0.89 0.075337 0.954897 0.287223 176 170 161 255
-0.11 -0.19 0.834869 -0.617437 -0.220495 0.755085 204 204 204 255
-0.0914957 -0.19 0.85 -0.617437 -0.220495 0.755085 194 194 191 255
-0.098638 -0.17 0.85 -0.617437 -0.220495 0.755085 208 208 208 255
-0.11 -0.19 0.834869 -0.855345 0.101595 0.507999 204 204 204 255
-0.098638 -0.17 0.85 -0.855345 0.101595 0.507999 208 208 208 255
-0.11 -0.17 0.830869 -0.855345 0.101595 0.507999 222 222 222 255
-0.09 -0.17 0.859406 -0.710548 -0.263284 0.652535 208 208 208 255
-0.098638 -0.17 0.85 -0.710548 -0.263284 0.652535 208 208 208 255
-0.09 -0.19 0.851336 -0.710548 -0.263284 0.652535 194 194 191 255
-0.09 -0.19 0.851336 -0.648167 -0.231469 0.725466 194 194 191 255
-0.098638 -0.17 0.85 -0.648167 -0.231469 0.725466 208 208 208 255
-0.0914957 -0.19 0.85 -0.648167 -0.231469 0.725466 194 194 191 255
-0.07 -0.175822 0.89 -0.737996 -0.664398 0.118059 195 188 186 255
-0.0752413 -0.17 0.89 -0.737996 -0.664398 0.118059 195 188 186 255
-0.07 -0.179376 0.87 -0.737996 -0.664398 0.118059 203 197 195 255
-0.07 -0.179376 0.87 -0.601796 -0.772093 0.204239 203 197 195 255
-0.0752413 -0.17 0.89 -0.601796 -0.772093 0.204239 195 188 186 255
-0.082029 -0.17 0.87 -0.601796 -0.772093 0.204239 207 207 207 255
-0.07 -0.17 0.909903 -0.729355 -0.656619 0.192074 196 196 196 255
-0.0752413 -0.17 0.89 -0.729355 -0.656619 0.192074 195 188 186 255
-0.07 -0.175822 0.89 -0.729355 -0.656619 0.192074 195 188 186 255
-0.13 -0.17 0.837616 -0.300205 -0.697523 0.650645 201 201 201 255
-0.13 -0.158448 0.85 -0.300205 -0.697523 0.650645 168 168 168 255
-0.149629 -0.15 0.85 -0.300205 -0.697523 0.650645 191 184 173 255
-0.15 -0.15 0.849677 -0.438939 -0.743343 0.504751 191 184 173 255
-0.13 -0.17 0.837616 -0.438939 -0.743343 0.504751 201 201 201 255
-0.149629 -0.15 0.85 -0.438939 -0.743343 0.504751 191 184 173 255
-0.13 -0.17 0.837616 0.732573 0.39333 0.555543 201 201 201 255
-0.15 -0.150242 0.85 0.732573 0.39333 0.555543 191 184 173 255
-0.139392 -0.17 0.85 0.732573 0.39333 0.555543 192 192 192 255
-0.13 -0.17 0.837616 0.757936 0.522013 0.391197 201 201 201 255
-0.15 -0.15 0.849677 0.757936 0.522013 0.391197 191 184 173 255
-0.15 -0.150242 0.85 0.757936 0.522013 0.391197 191 184 173 255
-0.11 -0.15 0.835432 0.634451 -0.527092 0.565372 217 217 217 255
-0.122981 -0.15 0.85 0.634451 -0.527092 0.565372 168 168 168 255
-0.13 -0.158448 0.85 0.634451 -0.527092 0.565372 168 168 168 255
-0.13 -0.17 0.837616 0.627406 -0.56942 0.531152 201 201 201 255
-0.11 -0.15 0.835432 0.627406 -0.56942 0.531152 217 217 217 255
-0.13 -0.158448 0.85 0.627406 -0.56942 0.531152 168 168 168 255
-0.11 -0.17 0.830869 0.312418 -0.211312 0.926144 222 222 222 255
-0.11 -0.15 0.835432 0.312418 -0.211312 0.926144 217 217 217 255
-0.13 -0.17 0.837616 0.312418 -0.211312 0.926144 201 201 201 255
-0.11 -0.17 0.830869 -0.859259 -0.0352867 0.510323 222 222 222 255
-0.098638 -0.17 0.85 -0.859259 -0.0352867 0.510323 208 208 208 255
-0.0994593 -0.15 0.85 -0.859259 -0.0352867 0.510323 158 131 115 255
-0.11 -0.17 0.830869 -0.803009 -0.132571 0.581034 222 222 222 255
-0.0994593 -0.15 0.85 -0.803009 -0.132571 0.581034 158 131 115 255
-0.11 -0.15 0.835432 -0.803009 -0.132571 0.581034 217 217 217 255
-0.13 -0.15 0.862398 -0.335104 -0.778609 0.53054 182 182 182 255
-0.149629 -0.15 0.85 -0.335104 -0.778609 0.53054 191 184 173 255
-0.13 -0.158448 0.85 -0.335104 -0.778609 0.53054 168 168 168 255
-0.15 -0.15 0.850485 0.857508 0.46041 -0.229569 191 184 173 255
-0.139392 -0.17 0.85 0.857508 0.46041 -0.229569 192 192 192 255
-0.15 -0.150242 0.85 0.857508 0.46041 -0.229569 191 184 173 255
-0.15 -0.15 0.850485 0.786128 0.427799 -0.446084 191 184 173 255
-0.138926 -0.15 0.87 0.786128 0.427799 -0.446084 182 182 182 255
-0.139392 -0.17 0.85 0.786128 0.427799 -0.446084 192 192 192 255
-0.138926 -0.15 0.87 0.871177 -0.357152 0.336888 182 182 182 255
-0.147126 -0.17 0.87 0.871177 -0.357152 0.336888 171 171 171 255
-0.139392 -0.17 0.85 0.871177 -0.357152 0.336888 192 192 192 255
-0.122981 -0.15 0.85 0.705229 -0.585894 0.399224 168 168 168 255
-0.13 -0.15 0.862398 0.705229 -0.585894 0.399224 182 182 182 255
-0.13 -0.158448 0.85 0.705229 -0.585894 0.399224 168 168 168 255
-0.09 -0.161857 0.87 -0.768263 -0.507535 0.390103 207 207 207 255
-0.0978332 -0.15 0.87 -0.768263 -0.507535 0.390103 180 180 180 255
-0.09 -0.17 0.859406 -0.768263 -0.507535 0.390103 208 208 208 255
-0.0978332 -0.15 0.87 -0.618456 -0.543075 0.567962 180 180 180 255
-0.098638 -0.17 0.85 -0.618456 -0.543075 0.567962 208 208 208 255
-0.09 -0.17 0.859406 -0.618456 -0.543075 0.567962 208 208 208 255
-0.0978332 -0.15 0.87 -0.995877 -0.0408972 0.0809719 180 180 180 255
-0.0994593 -0.15 0.85 -0.995877 -0.0408972 0.0809719 158 131 115 255
-0.098638 -0.17 0.85 -0.995877 -0.0408972 0.0809719 208 208 208 255
-0.138926 -0.15 0.87 0.747312 -0.306371 0.589628 182 182 182 255
-0.15 -0.15 0.884035 0.747312 -0.306371 0.589628 183 181 178 255
-0.147126 -0.17 0.87 0.747312 -0.306371 0.589628 171 171 171 255
-0.147126 -0.17 0.87 0.953718 -0.0684174 0.292816 171 171 171 255
-0.15 -0.15 0.884035 0.953718 -0.0684174 0.292816 183 181 178 255
-0.15 -0.17 0.879362 0.953718 -0.0684174 0.292816 171 171 171 255
-0.09 -0.15 0.87822 -0.653089 -0.431448 0.622357 180 180 180 255
-0.0978332 -0.15 0.87 -0.653089 -0.431448 0.622357 180 180 180 255
-0.09 -0.161857 0.87 -0.653089 -0.431448 0.622357 207 207 207 255
-0.0752413 -0.17 0.89 -0.844107 0.453228 0.286476 195 188 186 255
-0.07 -0.160238 0.89 -0.844107 0.453228 0.286476 195 188 186 255
-0.082029 -0.17 0.87 -0.844107 0.453228 0.286476 207 207 207 255
-0.07 -0.160238 0.89 -0.643801 0.765068 0.0137985 195 188 186 255
-0.07 -0.159878 0.87 -0.643801 0.765068 0.0137985 172 127 93 255
-0.082029 -0.17 0.87 -0.643801 0.765068 0.0137985 207 207 207 255
-0.09 -0.15 0.87822 0.561948 -0.471267 0.679795 180 180 180 255
-0.09 -0.161857 0.87 0.561948 -0.471267 0.679795 207 207 207 255
-0.0800562 -0.15 0.87 0.561948 -0.471267 0.679795 180 180 180 255
-0.07 -0.17 0.909903 -0.858236 0.460814 0.226014 196 196 196 255
-0.07 -0.160238 0.89 -0.858236 0.460814 0.226014 195 188 186 255
-0.0752413 -0.17 0.89 -0.858236 0.460814 0.226014 195 188 186 255
-0.07 -0.160238 0.89 0.316623 0.851632 0.417699 195 188 186 255
-0.07 -0.17 0.909903 0.316623 0.851632 0.417699 196 196 196 255
-0.05 -0.167674 0.89 0.316623 0.851632 0.417699 199 182 168 255
-0.05 -0.167674 0.89 0.23715 0.908352 0.344466 199 182 168 255
-0.07 -0.17 0.909903 0.23715 0.908352 0.344466 196 196 196 255
-0.05 -0.17 0.896133 0.23715 0.908352 0.344466 199 182 168 255
-0.17 -0.201107 0.85 -0.900592 -0.291021 0.322864 212 206 196 255
-0.17 -0.21 0.841984 -0.900592 -0.291021 0.322864 212 206 196 255
-0.167126 -0.21 0.85 -0.900592 -0.291021 0.322864 212 206 196 255
-0.167091 -0.17 0.85 -0.637567 0.434579 0.636121 212 206 196 255
-0.17 -0.17 0.847084 -0.637567 0.434579 0.636121 212 206 196 255
-0.17 -0.174268 0.85 -0.637567 0.434579 0.636121 212 206 196 255
3 0 1 2 
3 3 4 5 
3 6 7 8 
3 9 10 11 
3 12 13 14 
3 15 16 17 
3 18 19 20 
3 21 22 23 
3 24 25 26 
3 27 28 29 
3 30 31 32 
3 33 34 35 
3 36 37 38 
3 39 40 41 
3 42 43 44 
3 45 46 47 
3 48 49 50 
3 51 52 53 
3 54 55 56 
3 57 58 59 
3 60 61 62 
3 63 64 65 
3 66 67 68 
3 69 70 71 
3 72 73 74 
3 75 76 77 
3 78 79 80 
3 81 82 83 
3 84 85 86 
3 87 88 89 
3 90 91 92 
3 93 94 95 
3 96 97 98 
3 99 100 101 
3 102 103 104 
3 105 106 107 
3 108 109 110 
3 111 112 113 
3 114 115 116 
3 117 118 119 
3 120 121 122 
3 123 124 125 
3 126 127 128 
3 129 130 131 
3 132 133 134 
3 135 136 137 
3 138 139 140 
3 141 142 143 
3 144 145 146 
3 147 148 149 
3 150 151 152 
3 153 154 155 
3 156 157 158 
3 159 160 161 
3 162 163 164 
3 165 166 167 
3 168 169 170 
3 171 172 173 
3 174 175 176 
3 177 178 179 
3 180 181 182 
3 183 184 185 
3 186 187 188 
3 189 190 191 
3 192 193 194 
3 195 196 197 
3 198 199 200 
3 201 202 203 
3 204 205 206 
3 207 208 209 
