ply
format ascii 1.0
element vertex 177
property float x
property float y
property float z
property float normal_x
property float normal_y
property float normal_z
property uchar red
property uchar green
property uchar blue
property uchar alpha
element face 59
property list uchar int vertex_indices
end_header
0.01 0.200502 0.89 0.66065 -0.744262 0.0980595 182 150 132 255
0.0206996 0.21 0.89 0.66065 -0.744262 0.0980595 158 96 53 255
0.01 0.203138 0.91 0.66065 -0.744262 0.0980595 175 148 128 255
0.01 0.203138 0.91 0.670596 -0.734084 0.106873 175 148 128 255
0.0206996 0.21 0.89 0.670596 -0.734084 0.106873 158 96 53 255
0.0175122 0.21 0.91 0.670596 -0.734084 0.106873 175 148 128 255
0.01 0.203138 0.91 0.672171 -0.735809 0.082282 175 148 128 255
0.0175122 0.21 0.91 0.672171 -0.735809 0.082282 175 148 128 255
0.01 0.205374 0.93 0.672171 -0.735809 0.082282 175 163 152 255
0.01 0.205374 0.93 0.571357 -0.820325 0.0248666 175 163 152 255
0.0175122 0.21 0.91 0.571357 -0.820325 0.0248666 175 148 128 255
0.0166418 0.21 0.93 0.571357 -0.820325 0.0248666 175 163 152 255
0.0166418 0.21 0.93 0.542273 -0.778568 0.315867 175 163 152 255
0.01 0.21 0.941402 0.542273 -0.778568 0.315867 175 166 166 255
0.01 0.205374 0.93 0.542273 -0.778568 0.315867 175 163 152 255
0.0275098 0.23 0.85 0.971052 -0.23079 0.0615972 160 104 63 255
0.0214878 0.21 0.87 0.971052 -0.23079 0.0615972 162 104 63 255
0.0227564 0.21 0.85 0.971052 -0.23079 0.0615972 162 103 61 255
0.0275098 0.23 0.85 0.964832 -0.261231 0.0292835 160 104 63 255
0.0269028 0.23 0.87 0.964832 -0.261231 0.0292835 157 106 65 255
0.0214878 0.21 0.87 0.964832 -0.261231 0.0292835 162 104 63 255
0.0269028 0.23 0.87 0.964548 -0.261154 0.038012 157 106 65 255
0.0206996 0.21 0.89 0.964548 -0.261154 0.038012 158 96 53 255
0.0214878 0.21 0.87 0.964548 -0.261154 0.038012 162 104 63 255
0.0269028 0.23 0.87 0.905052 -0.406328 -0.125616 157 106 65 255
0.0296787 0.23 0.89 0.905052 -0.406328 -0.125616 154 114 80 255
0.0206996 0.21 0.89 0.905052 -0.406328 -0.125616 158 96 53 255
0.0296787 0.23 0.89 0.902786 -0.405311 0.143877 154 114 80 255
0.0175122 0.21 0.91 0.902786 -0.405311 0.143877 175 148 128 255
0.0206996 0.21 0.89 0.902786 -0.405311 0.143877 158 96 53 255
0.0296787 0.23 0.89 0.885165 -0.458322 0.0801462 154 114 80 255
0.0278678 0.23 0.91 0.885165 -0.458322 0.0801462 133 127 115 216
0.0175122 0.21 0.91 0.885165 -0.458322 0.0801462 175 148 128 255
0.0278678 0.23 0.91 0.850199 -0.489559 -0.193635 133 127 115 216
0.03 0.23 0.919362 0.850199 -0.489559 -0.193635 133 127 115 216
0.03 0.225792 0.93 0.850199 -0.489559 -0.193635 171 148 132 255
0.0166418 0.21 0.93 0.746086 -0.631093 -0.212313 175 163 152 255
0.0278678 0.23 0.91 0.746086 -0.631093 -0.212313 133 127 115 216
0.03 0.225792 0.93 0.746086 -0.631093 -0.212313 171 148 132 255
0.0175122 0.21 0.91 0.887359 -0.459458 0.0386198 175 148 128 255
0.0278678 0.23 0.91 0.887359 -0.459458 0.0386198 133 127 115 216
0.0166418 0.21 0.93 0.887359 -0.459458 0.0386198 175 163 152 255
0.03 0.225792 0.93 0.7026 -0.594309 0.391345 171 148 132 255
0.03 0.23 0.93639 0.7026 -0.594309 0.391345 171 148 132 255
0.0166418 0.21 0.93 0.7026 -0.594309 0.391345 175 163 152 255
0.03 0.23 0.93639 0.695278 -0.593778 0.40499 171 148 132 255
0.01 0.21 0.941402 0.695278 -0.593778 0.40499 175 166 166 255
0.0166418 0.21 0.93 0.695278 -0.593778 0.40499 175 163 152 255
0.03 0.23 0.93639 0.489499 -0.282764 0.824885 171 148 132 255
0.01 0.23 0.948258 0.489499 -0.282764 0.824885 221 221 221 255
0.01 0.21 0.941402 0.489499 -0.282764 0.824885 175 166 166 255
0.03 0.25 0.944293 0.48319 -0.321744 0.814253 208 206 206 255
0.01 0.23 0.948258 0.48319 -0.321744 0.814253 221 221 221 255
0.03 0.23 0.93639 0.48319 -0.321744 0.814253 171 148 132 255
0.01 0.25 0.948474 0.20463 -0.0105625 0.978782 219 219 218 255
0.01 0.23 0.948258 0.20463 -0.0105625 0.978782 221 221 221 255
0.03 0.25 0.944293 0.20463 -0.0105625 0.978782 208 206 206 255
0.0326373 0.23 0.93 0.799823 -0.501311 0.330107 171 148 132 255
0.03 0.23 0.93639 0.799823 -0.501311 0.330107 171 148 132 255
0.03 0.225792 0.93 0.799823 -0.501311 0.330107 171 148 132 255
-0.05 0.230306 0.93 -0.895057 0.399007 0.199163 135 115 99 255
-0.05 0.23 0.930612 -0.895057 0.399007 0.199163 135 115 99 255
-0.0412204 0.25 0.93 -0.895057 0.399007 0.199163 138 103 82 255
-0.05 0.23 0.930612 -0.779407 0.357883 0.514241 135 115 99 255
-0.03 0.25 0.947006 -0.779407 0.357883 0.514241 196 192 190 255
-0.0412204 0.25 0.93 -0.779407 0.357883 0.514241 138 103 82 255
-0.05 0.23 0.930612 -0.666182 0.056622 0.743637 135 115 99 255
-0.03 0.23 0.948529 -0.666182 0.056622 0.743637 219 219 219 255
-0.03 0.25 0.947006 -0.666182 0.056622 0.743637 196 192 190 255
-0.01 0.20055 0.93 0.100419 -0.874896 0.473786 220 204 195 255
-0.01 0.21 0.94745 0.100419 -0.874896 0.473786 221 221 221 255
-0.03 0.198254 0.93 0.100419 -0.874896 0.473786 133 99 78 255
-0.03 0.198254 0.93 -0.0132133 -0.822433 0.568709 133 99 78 255
-0.01 0.21 0.94745 -0.0132133 -0.822433 0.568709 221 221 221 255
-0.03 0.21 0.946986 -0.0132133 -0.822433 0.568709 205 199 197 255
-0.01 0.23 0.947493 -0.0232276 -0.00215412 0.999728 221 221 221 255
-0.03 0.21 0.946986 -0.0232276 -0.00215412 0.999728 205 199 197 255
-0.01 0.21 0.94745 -0.0232276 -0.00215412 0.999728 221 221 221 255
-0.03 0.23 0.948529 0.0515594 -0.0768391 0.995709 219 219 219 255
-0.03 0.21 0.946986 0.0515594 -0.0768391 0.995709 205 199 197 255
-0.01 0.23 0.947493 0.0515594 -0.0768391 0.995709 221 221 221 255
-0.01 0.25 0.948477 0.05165 -0.0490519 0.99746 221 221 221 255
-0.03 0.23 0.948529 0.05165 -0.0490519 0.99746 219 219 219 255
-0.01 0.23 0.947493 0.05165 -0.0490519 0.99746 221 221 221 255
-0.03 0.25 0.947006 -0.0731287 0.0757189 0.994444 196 192 190 255
-0.03 0.23 0.948529 -0.0731287 0.0757189 0.994444 219 219 219 255
-0.01 0.25 0.948477 -0.0731287 0.0757189 0.994444 221 221 221 255
-0.03 0.265254 0.89 -0.448924 0.728997 -0.516751 158 126 104 255
-0.0222933 0.27 0.89 -0.448924 0.728997 -0.516751 158 126 104 255
-0.01 0.27 0.87932 -0.448924 0.728997 -0.516751 153 100 65 255
-0.01 0.264662 0.87 -0.426316 0.784963 -0.449541 153 100 65 255
-0.03 0.265254 0.89 -0.426316 0.784963 -0.449541 158 126 104 255
-0.01 0.27 0.87932 -0.426316 0.784963 -0.449541 153 100 65 255
-0.03 0.26039 0.87 -0.203219 0.951404 -0.231369 155 100 57 255
-0.03 0.265254 0.89 -0.203219 0.951404 -0.231369 158 126 104 255
-0.01 0.264662 0.87 -0.203219 0.951404 -0.231369 153 100 65 255
-0.0222933 0.27 0.89 -0.521672 0.84713 0.10114 158 126 104 255
-0.03 0.265254 0.89 -0.521672 0.84713 0.10114 158 126 104 255
-0.03 0.262866 0.91 -0.521672 0.84713 0.10114 170 151 132 255
-0.0222933 0.27 0.89 -0.56025 0.824619 0.078245 158 126 104 255
-0.03 0.262866 0.91 -0.56025 0.824619 0.078245 170 151 132 255
-0.0195001 0.27 0.91 -0.56025 0.824619 0.078245 190 181 178 251
-0.03 0.27 0.921292 -0.49807 0.733098 -0.463134 194 184 178 255
-0.0195001 0.27 0.91 -0.49807 0.733098 -0.463134 190 181 178 251
-0.03 0.262866 0.91 -0.49807 0.733098 -0.463134 170 151 132 255
-0.01 0.27 0.941539 -0.0693091 0.326928 0.942504 172 156 146 255
-0.03 0.25 0.947006 -0.0693091 0.326928 0.942504 196 192 190 255
-0.01 0.25 0.948477 -0.0693091 0.326928 0.942504 221 221 221 255
-0.03 0.27 0.937615 -0.174862 0.418468 0.891239 194 184 178 255
-0.03 0.25 0.947006 -0.174862 0.418468 0.891239 196 192 190 255
-0.01 0.27 0.941539 -0.174862 0.418468 0.891239 172 156 146 255
0.00999999 0.199759 0.87 0.159531 -0.985165 0.0632507 161 103 59 255
-0.01 0.195236 0.85 0.159531 -0.985165 0.0632507 161 103 60 255
0.00999999 0.198475 0.85 0.159531 -0.985165 0.0632507 159 100 56 255
0.00999999 0.199759 0.87 0.154569 -0.985617 0.0683152 161 103 59 255
-0.01 0.196622 0.87 0.154569 -0.985617 0.0683152 161 105 62 255
-0.01 0.195236 0.85 0.154569 -0.985617 0.0683152 161 103 60 255
0.00999999 0.200502 0.89 0.154826 -0.987259 0.0367092 182 150 132 255
-0.01 0.196622 0.87 0.154826 -0.987259 0.0367092 161 105 62 255
0.00999999 0.199759 0.87 0.154826 -0.987259 0.0367092 161 103 59 255
0.00999999 0.200502 0.89 0.146366 -0.98819 0.0453499 182 150 132 255
-0.01 0.19754 0.89 0.146366 -0.98819 0.0453499 171 119 80 255
-0.01 0.196622 0.87 0.146366 -0.98819 0.0453499 161 105 62 255
-0.01 0.264662 0.87 0.526745 0.737625 -0.422431 153 100 65 255
-0.01 0.27 0.87932 0.526745 0.737625 -0.422431 153 100 65 255
-0.00143525 0.27 0.89 0.526745 0.737625 -0.422431 181 162 150 255
0.00999999 0.261939 0.89 0.522482 0.741155 -0.421547 175 132 89 255
-0.01 0.264662 0.87 0.522482 0.741155 -0.421547 153 100 65 255
-0.00143525 0.27 0.89 0.522482 0.741155 -0.421547 181 162 150 255
0.00999999 0.26254 0.87 0.105475 0.993973 0.0298908 159 103 61 255
-0.01 0.264662 0.87 0.105475 0.993973 0.0298908 153 100 65 255
0.00999999 0.261939 0.89 0.105475 0.993973 0.0298908 175 132 89 255
0.00999999 0.203138 0.91 0.145288 -0.980912 0.129239 175 148 128 255
-0.01 0.19754 0.89 0.145288 -0.980912 0.129239 171 119 80 255
0.00999999 0.200502 0.89 0.145288 -0.980912 0.129239 182 150 132 255
0.00999999 0.203138 0.91 0.161554 -0.980393 0.112828 175 148 128 255
-0.01 0.199842 0.91 0.161554 -0.980393 0.112828 164 137 119 215
-0.01 0.19754 0.89 0.161554 -0.980393 0.112828 171 119 80 255
-0.00224124 0.27 0.91 0.590729 0.806036 0.0366752 190 181 178 251
0.00999999 0.261029 0.91 0.590729 0.806036 0.0366752 175 148 130 251
0.00999999 0.261939 0.89 0.590729 0.806036 0.0366752 175 132 89 255
-0.00224124 0.27 0.91 0.576023 0.817104 0.0232134 190 181 178 251
0.00999999 0.261939 0.89 0.576023 0.817104 0.0232134 175 132 89 255
-0.00143525 0.27 0.89 0.576023 0.817104 0.0232134 181 162 150 255
0.00999999 0.205374 0.93 0.161612 -0.980741 0.109672 175 163 152 255
-0.01 0.199842 0.91 0.161612 -0.980741 0.109672 164 137 119 215
0.00999999 0.203138 0.91 0.161612 -0.980741 0.109672 175 148 128 255
0.00999999 0.205374 0.93 0.234335 -0.971547 0.034405 175 163 152 255
-0.01 0.20055 0.93 0.234335 -0.971547 0.034405 220 204 195 255
-0.01 0.199842 0.91 0.234335 -0.971547 0.034405 164 137 119 215
-0.00224124 0.27 0.91 0.517997 0.706796 -0.481787 190 181 178 251
0.00999999 0.27 0.923161 0.517997 0.706796 -0.481787 194 184 179 255
0.00999999 0.261029 0.91 0.517997 0.706796 -0.481787 175 148 130 251
0.00999999 0.205374 0.93 0.218123 -0.904331 0.366889 175 163 152 255
0.00999999 0.21 0.941402 0.218123 -0.904331 0.366889 175 166 166 255
-0.01 0.20055 0.93 0.218123 -0.904331 0.366889 220 204 195 255
-0.01 0.20055 0.93 0.142528 -0.870363 0.471331 220 204 195 255
0.00999999 0.21 0.941402 0.142528 -0.870363 0.471331 175 166 166 255
-0.01 0.21 0.94745 0.142528 -0.870363 0.471331 221 221 221 255
0.00999999 0.23 0.948258 0.275024 -0.311765 0.909486 221 221 221 255
-0.01 0.21 0.94745 0.275024 -0.311765 0.909486 221 221 221 255
0.00999999 0.21 0.941402 0.275024 -0.311765 0.909486 175 166 166 255
-0.01 0.23 0.947493 -0.0382143 -0.00215313 0.999267 221 221 221 255
-0.01 0.21 0.94745 -0.0382143 -0.00215313 0.999267 221 221 221 255
0.00999999 0.23 0.948258 -0.0382143 -0.00215313 0.999267 221 221 221 255
0.00999999 0.25 0.948474 -0.0382122 -0.0107829 0.999211 219 219 218 255
-0.01 0.23 0.947493 -0.0382122 -0.0107829 0.999211 221 221 221 255
0.00999999 0.23 0.948258 -0.0382122 -0.0107829 0.999211 221 221 221 255
-0.01 0.25 0.948477 0.000142878 -0.0491175 0.998793 221 221 221 255
-0.01 0.23 0.947493 0.000142878 -0.0491175 0.998793 221 221 221 255
0.00999999 0.25 0.948474 0.000142878 -0.0491175 0.998793 219 219 218 255
0.00999999 0.27 0.942384 0.000136842 0.291284 0.956637 172 159 151 255
-0.01 0.25 0.948477 0.000136842 0.291284 0.956637 221 221 221 255
0.00999999 0.25 0.948474 0.000136842 0.291284 0.956637 219 219 218 255
-0.01 0.27 0.941539 -0.0398773 0.327456 0.944025 172 156 146 255
-0.01 0.25 0.948477 -0.0398773 0.327456 0.944025 221 221 221 255
0.00999999 0.27 0.942384 -0.0398773 0.327456 0.944025 172 159 151 255
3 0 1 2 
3 3 4 5 
3 6 7 8 
3 9 10 11 
3 12 13 14 
3 15 16 17 
3 18 19 20 
3 21 22 23 
3 24 25 26 
3 27 28 29 
3 30 31 32 
3 33 34 35 
3 36 37 38 
3 39 40 41 
3 42 43 44 
3 45 46 47 
3 48 49 50 
3 51 52 53 
3 54 55 56 
3 57 58 59 
3 60 61 62 
3 63 64 65 
3 66 67 68 
3 69 70 71 
3 72 73 74 
3 75 76 77 
3 78 79 80 
3 81 82 83 
3 84 85 86 
3 87 88 89 
3 90 91 92 
3 93 94 95 
3 96 97 98 
3 99 100 101 
3 102 103 104 
3 105 106 107 
3 108 109 110 
3 111 112 113 
3 114 115 116 
3 117 118 119 
3 120 121 122 
3 123 124 125 
3 126 127 128 
3 129 130 131 
3 132 133 134 
3 135 136 137 
3 138 139 140 
3 141 142 143 
3 144 145 146 
3 147 148 149 
3 150 151 152 
3 153 154 155 
3 156 157 158 
3 159 160 161 
3 162 163 164 
3 165 166 167 
3 168 169 170 
3 171 172 173 
3 174 175 176 
