ply
format ascii 1.0
element vertex 120
property float x
property float y
property float z
property float normal_x
property float normal_y
property float normal_z
property uchar red
property uchar green
property uchar blue
property uchar alpha
element face 40
property list uchar int vertex_indices
end_header
0.00999999 0.00999999 0.849899 0.254071 -0.435636 0.863521 134 114 118 255
0.00965865 0.00999999 0.85 0.254071 -0.435636 0.863521 134 114 118 255
-0.01 -0.00146531 0.85 0.254071 -0.435636 0.863521 133 109 88 255
-0.01 -0.01 0.847065 0.187789 -0.319441 0.928813 133 109 88 255
0.00999999 0.00999999 0.849899 0.187789 -0.319441 0.928813 134 114 118 255
-0.01 -0.00146531 0.85 0.187789 -0.319441 0.928813 133 109 88 255
0.00999999 0.00999999 0.849899 -0.299872 0.100401 0.948681 134 114 118 255
0.00362145 -0.01 0.85 -0.299872 0.100401 0.948681 134 111 97 255
0.00999999 0.009051 0.85 -0.299872 0.100401 0.948681 134 114 118 255
0.00999999 0.00999999 0.849899 -0.210109 0.0719059 0.97503 134 114 118 255
-0.01 -0.01 0.847065 -0.210109 0.0719059 0.97503 133 109 88 255
0.00362145 -0.01 0.85 -0.210109 0.0719059 0.97503 134 111 97 255
0.00362145 -0.01 0.85 -0.246415 0.0825031 0.965646 134 111 97 255
0.00999999 -0.01 0.851628 -0.246415 0.0825031 0.965646 134 111 97 255
0.00999999 0.009051 0.85 -0.246415 0.0825031 0.965646 134 114 118 255
-0.01 0.00999999 0.857664 0.308326 -0.528662 0.790855 133 110 112 255
-0.01 -0.00146531 0.85 0.308326 -0.528662 0.790855 133 109 88 255
0.00965865 0.00999999 0.85 0.308326 -0.528662 0.790855 134 114 118 255
0.01 -0.01 0.929019 0.751989 0.466532 -0.465683 132 107 107 255
0.01 -0.00902064 0.93 0.751989 0.466532 -0.465683 132 107 107 255
0.0106076 -0.01 0.93 0.751989 0.466532 -0.465683 132 107 107 255
0.01 -0.00902064 0.93 0.832884 0.516719 0.198258 132 107 107 255
0.01 -0.01 0.932552 0.832884 0.516719 0.198258 132 107 107 255
0.0106076 -0.01 0.93 0.832884 0.516719 0.198258 132 107 107 255
-0.05 0.05 0.839592 -0.540444 0.327864 0.774871 159 100 54 255
-0.0350773 0.05 0.85 -0.540444 0.327864 0.774871 157 100 59 255
-0.03 0.0583693 0.85 -0.540444 0.327864 0.774871 157 100 59 255
-0.03 0.07 0.844666 -0.543496 0.34992 0.763 158 100 54 255
-0.05 0.05 0.839592 -0.543496 0.34992 0.763 159 100 54 255
-0.03 0.0583693 0.85 -0.543496 0.34992 0.763 157 100 59 255
-0.05 0.07 0.835004 -0.426012 0.202293 0.881811 158 100 54 255
-0.05 0.05 0.839592 -0.426012 0.202293 0.881811 159 100 54 255
-0.03 0.07 0.844666 -0.426012 0.202293 0.881811 158 100 54 255
-0.0294462 0.03 0.87 0.710913 -0.665306 0.227969 147 102 91 255
-0.03 0.03 0.871727 0.710913 -0.665306 0.227969 147 102 91 255
-0.03 0.0294082 0.87 0.710913 -0.665306 0.227969 147 102 91 255
-0.0230438 0.03 0.85 0.745232 -0.296587 0.597215 156 100 80 255
-0.01 0.03 0.833723 0.745232 -0.296587 0.597215 140 123 133 255
-0.01 0.05 0.843656 0.745232 -0.296587 0.597215 142 116 120 255
-0.0230438 0.03 0.85 0.487024 -0.040883 0.872431 156 100 80 255
-0.01 0.05 0.843656 0.487024 -0.040883 0.872431 142 116 120 255
-0.0213649 0.05 0.85 0.487024 -0.040883 0.872431 157 100 59 255
-0.03 0.0489534 0.87 0.994451 0.0290565 0.101106 150 104 71 255
-0.0294462 0.03 0.87 0.994451 0.0290565 0.101106 147 102 91 255
-0.03 0.05 0.869699 0.994451 0.0290565 0.101106 150 104 71 255
-0.0294462 0.03 0.87 0.915421 0.0313822 0.401272 147 102 91 255
-0.0213649 0.05 0.85 0.915421 0.0313822 0.401272 157 100 59 255
-0.03 0.05 0.869699 0.915421 0.0313822 0.401272 150 104 71 255
-0.0294462 0.03 0.87 0.949362 -0.0796937 0.30391 147 102 91 255
-0.0230438 0.03 0.85 0.949362 -0.0796937 0.30391 156 100 80 255
-0.0213649 0.05 0.85 0.949362 -0.0796937 0.30391 157 100 59 255
-0.03 0.0489534 0.87 0.95187 0.0278124 0.305237 150 104 71 255
-0.03 0.03 0.871727 0.95187 0.0278124 0.305237 147 102 91 255
-0.0294462 0.03 0.87 0.95187 0.0278124 0.305237 147 102 91 255
-0.01 0.05 0.843656 -0.400583 -0.385849 0.831056 142 116 120 255
-0.01 0.0636646 0.85 -0.400583 -0.385849 0.831056 157 105 65 255
-0.0161024 0.07 0.85 -0.400583 -0.385849 0.831056 157 105 65 255
-0.03 0.07 0.844666 -0.332059 -0.375766 0.86518 158 100 54 255
-0.01 0.05 0.843656 -0.332059 -0.375766 0.86518 142 116 120 255
-0.0161024 0.07 0.85 -0.332059 -0.375766 0.86518 157 105 65 255
-0.01 0.05 0.843656 0.435464 0.449293 0.780069 142 116 120 255
-0.03 0.0583693 0.85 0.435464 0.449293 0.780069 157 100 59 255
-0.0213649 0.05 0.85 0.435464 0.449293 0.780069 157 100 59 255
-0.01 0.05 0.843656 0.419988 0.378316 0.824916 142 116 120 255
-0.03 0.07 0.844666 0.419988 0.378316 0.824916 158 100 54 255
-0.03 0.0583693 0.85 0.419988 0.378316 0.824916 157 100 59 255
-0.03 0.0583693 0.85 0.66568 0.686821 0.291799 157 100 59 255
-0.03 0.05 0.869699 0.66568 0.686821 0.291799 150 104 71 255
-0.0213649 0.05 0.85 0.66568 0.686821 0.291799 157 100 59 255
-0.01 0.07 0.860399 -0.663413 -0.639013 0.389288 150 109 79 255
-0.0161024 0.07 0.85 -0.663413 -0.639013 0.389288 157 105 65 255
-0.01 0.0636646 0.85 -0.663413 -0.639013 0.389288 157 105 65 255
-0.01 0.03 0.833723 0.142884 0.705431 0.694227 140 123 133 255
-0.01 0.0139818 0.85 0.142884 0.705431 0.694227 133 110 112 255
0.00965865 0.01 0.85 0.142884 0.705431 0.694227 134 114 118 255
0.00999999 0.01 0.849899 0.19387 0.726806 0.658913 134 114 118 255
-0.01 0.03 0.833723 0.19387 0.726806 0.658913 140 123 133 255
0.00965865 0.01 0.85 0.19387 0.726806 0.658913 134 114 118 255
0.00999999 0.03 0.832382 0.0503699 0.658032 0.751303 142 129 140 255
-0.01 0.03 0.833723 0.0503699 0.658032 0.751303 140 123 133 255
0.00999999 0.01 0.849899 0.0503699 0.658032 0.751303 134 114 118 255
0.00999999 0.05 0.833893 0.0667039 -0.0751723 0.994937 147 126 133 255
-0.01 0.03 0.833723 0.0667039 -0.0751723 0.994937 140 123 133 255
0.00999999 0.03 0.832382 0.0667039 -0.0751723 0.994937 142 129 140 255
-0.01 0.05 0.843656 0.400561 -0.407546 0.820644 142 116 120 255
-0.01 0.03 0.833723 0.400561 -0.407546 0.820644 140 123 133 255
0.00999999 0.05 0.833893 0.400561 -0.407546 0.820644 147 126 133 255
0.00999999 0.07 0.838016 0.559562 -0.321408 0.763929 159 102 61 255
-0.00636102 0.07 0.85 0.559562 -0.321408 0.763929 157 105 65 255
-0.01 0.0636646 0.85 0.559562 -0.321408 0.763929 157 105 65 255
-0.01 0.05 0.843656 0.560542 -0.348735 0.751117 142 116 120 255
0.00999999 0.07 0.838016 0.560542 -0.348735 0.751117 159 102 61 255
-0.01 0.0636646 0.85 0.560542 -0.348735 0.751117 157 105 65 255
0.00999999 0.05 0.833893 0.431305 -0.18213 0.883631 147 126 133 255
0.00999999 0.07 0.838016 0.431305 -0.18213 0.883631 159 102 61 255
-0.01 0.05 0.843656 0.431305 -0.18213 0.883631 142 116 120 255
-0.01 0.0139818 0.85 0.176904 0.873389 0.453759 133 110 112 255
-0.01 0.01 0.857664 0.176904 0.873389 0.453759 133 110 112 255
0.00965865 0.01 0.85 0.176904 0.873389 0.453759 134 114 118 255
-0.00636102 0.07 0.85 0.829777 -0.476617 0.290356 157 105 65 255
-0.01 0.07 0.860399 0.829777 -0.476617 0.290356 150 109 79 255
-0.01 0.0636646 0.85 0.829777 -0.476617 0.290356 157 105 65 255
0.01 0.01 0.849899 -0.145055 0.182279 0.972488 134 114 118 255
0.0106733 0.01 0.85 -0.145055 0.182279 0.972488 134 114 118 255
0.03 0.0253799 0.85 -0.145055 0.182279 0.972488 138 117 116 255
0.03 0.03 0.84906 -0.156326 0.196965 0.967867 138 117 116 255
0.01 0.01 0.849899 -0.156326 0.196965 0.967867 134 114 118 255
0.03 0.0253799 0.85 -0.156326 0.196965 0.967867 138 117 116 255
0.01 0.03 0.832382 -0.531389 0.558146 0.637259 142 129 140 255
0.01 0.01 0.849899 -0.531389 0.558146 0.637259 134 114 118 255
0.03 0.03 0.84906 -0.531389 0.558146 0.637259 138 117 116 255
0.03 0.01 0.854275 -0.208432 0.261919 0.942313 136 115 104 255
0.03 0.0253799 0.85 -0.208432 0.261919 0.942313 138 117 116 255
0.0106733 0.01 0.85 -0.208432 0.261919 0.942313 134 114 118 255
0.03 0.05 0.834239 -0.556597 0.494628 0.66749 154 102 85 255
0.01 0.03 0.832382 -0.556597 0.494628 0.66749 142 129 140 255
0.03 0.03 0.84906 -0.556597 0.494628 0.66749 138 117 116 255
0.01 0.05 0.833893 -0.0172337 -0.0753289 0.99701 147 126 133 255
0.01 0.03 0.832382 -0.0172337 -0.0753289 0.99701 142 129 140 255
0.03 0.05 0.834239 -0.0172337 -0.0753289 0.99701 154 102 85 255
3 0 1 2 
3 3 4 5 
3 6 7 8 
3 9 10 11 
3 12 13 14 
3 15 16 17 
3 18 19 20 
3 21 22 23 
3 24 25 26 
3 27 28 29 
3 30 31 32 
3 33 34 35 
3 36 37 38 
3 39 40 41 
3 42 43 44 
3 45 46 47 
3 48 49 50 
3 51 52 53 
3 54 55 56 
3 57 58 59 
3 60 61 62 
3 63 64 65 
3 66 67 68 
3 69 70 71 
3 72 73 74 
3 75 76 77 
3 78 79 80 
3 81 82 83 
3 84 85 86 
3 87 88 89 
3 90 91 92 
3 93 94 95 
3 96 97 98 
3 99 100 101 
3 102 103 104 
3 105 106 107 
3 108 109 110 
3 111 112 113 
3 114 115 116 
3 117 118 119 
