ply
format ascii 1.0
element vertex 129
property float x
property float y
property float z
property float normal_x
property float normal_y
property float normal_z
property uchar red
property uchar green
property uchar blue
property uchar alpha
element face 43
property list uchar int vertex_indices
end_header
-0.09 0.134675 0.89 0.32629 -0.590571 0.738079 184 172 167 255
-0.0984621 0.13 0.89 0.32629 -0.590571 0.738079 184 172 167 255
-0.09 0.13 0.886259 0.32629 -0.590571 0.738079 184 172 167 255
-0.09 0.134675 0.89 0.14606 -0.264363 0.953299 184 172 167 255
-0.09 0.15 0.89425 0.14606 -0.264363 0.953299 207 207 207 255
-0.0984621 0.13 0.89 0.14606 -0.264363 0.953299 184 172 167 255
-0.09 0.15 0.89425 0.191588 -0.28089 0.940423 207 207 207 255
-0.11 0.13 0.89235 0.191588 -0.28089 0.940423 182 169 169 255
-0.0984621 0.13 0.89 0.191588 -0.28089 0.940423 184 172 167 255
-0.09 0.15 0.89425 -0.0855924 -0.00901442 0.996289 207 207 207 255
-0.11 0.15 0.892531 -0.0855924 -0.00901442 0.996289 205 185 185 255
-0.11 0.13 0.89235 -0.0855924 -0.00901442 0.996289 182 169 169 255
-0.07 0.145792 0.87 0.689274 -0.701345 0.181704 193 174 171 255
-0.0860688 0.13 0.87 0.689274 -0.701345 0.181704 182 168 161 255
-0.0807965 0.13 0.85 0.689274 -0.701345 0.181704 183 164 143 255
-0.07 0.145792 0.87 0.680243 -0.707537 0.191469 193 174 171 255
-0.0807965 0.13 0.85 0.680243 -0.707537 0.191469 183 164 143 255
-0.07 0.14038 0.85 0.680243 -0.707537 0.191469 193 163 149 255
-0.0760093 0.15 0.89 0.530645 -0.484453 0.695501 194 179 172 255
-0.09 0.134675 0.89 0.530645 -0.484453 0.695501 184 172 167 255
-0.07 0.15 0.885415 0.530645 -0.484453 0.695501 194 179 172 255
-0.07 0.15 0.885415 0.624485 -0.753471 0.20567 194 179 172 255
-0.09 0.134675 0.89 0.624485 -0.753471 0.20567 184 172 167 255
-0.07 0.145792 0.87 0.624485 -0.753471 0.20567 193 174 171 255
-0.09 0.134675 0.89 0.748312 -0.414435 0.51795 184 172 167 255
-0.09 0.13 0.886259 0.748312 -0.414435 0.51795 184 172 167 255
-0.07 0.145792 0.87 0.748312 -0.414435 0.51795 193 174 171 255
-0.09 0.13 0.886259 0.691088 -0.703191 0.167094 184 172 167 255
-0.0860688 0.13 0.87 0.691088 -0.703191 0.167094 182 168 161 255
-0.07 0.145792 0.87 0.691088 -0.703191 0.167094 193 174 171 255
-0.0760093 0.15 0.89 0.280922 -0.256468 0.924828 194 179 172 255
-0.09 0.15 0.89425 0.280922 -0.256468 0.924828 207 207 207 255
-0.09 0.134675 0.89 0.280922 -0.256468 0.924828 184 172 167 255
-0.07 0.157434 0.89 0.544631 -0.440253 0.713831 194 179 172 255
-0.0760093 0.15 0.89 0.544631 -0.440253 0.713831 194 179 172 255
-0.07 0.15 0.885415 0.544631 -0.440253 0.713831 194 179 172 255
-0.11 0.17 0.892346 0.0126168 0.00928229 0.999877 219 192 192 255
-0.13 0.15 0.892784 0.0126168 0.00928229 0.999877 175 175 175 255
-0.11 0.15 0.892531 0.0126168 0.00928229 0.999877 205 185 185 255
-0.13 0.17 0.892491 0.00727378 0.014625 0.999867 198 198 198 255
-0.13 0.15 0.892784 0.00727378 0.014625 0.999867 175 175 175 255
-0.11 0.17 0.892346 0.00727378 0.014625 0.999867 219 192 192 255
-0.09 0.17 0.892547 -0.0852897 0.0845086 0.992766 220 220 220 255
-0.11 0.15 0.892531 -0.0852897 0.0845086 0.992766 205 185 185 255
-0.09 0.15 0.89425 -0.0852897 0.0845086 0.992766 207 207 207 255
-0.11 0.17 0.892346 -0.0100693 0.00928255 0.999906 219 192 192 255
-0.11 0.15 0.892531 -0.0100693 0.00928255 0.999906 205 185 185 255
-0.09 0.17 0.892547 -0.0100693 0.00928255 0.999906 220 220 220 255
-0.07 0.157434 0.89 0.31553 -0.255059 0.913994 194 179 172 255
-0.07 0.17 0.893507 0.31553 -0.255059 0.913994 208 206 204 255
-0.0760093 0.15 0.89 0.31553 -0.255059 0.913994 194 179 172 255
-0.07 0.17 0.893507 0.281624 -0.247177 0.927142 208 206 204 255
-0.09 0.15 0.89425 0.281624 -0.247177 0.927142 207 207 207 255
-0.0760093 0.15 0.89 0.281624 -0.247177 0.927142 194 179 172 255
-0.07 0.17 0.893507 -0.0477424 0.0847209 0.99526 208 206 204 255
-0.09 0.17 0.892547 -0.0477424 0.0847209 0.99526 220 220 220 255
-0.09 0.15 0.89425 -0.0477424 0.0847209 0.99526 207 207 207 255
-0.0686359 0.17 0.89 0.927237 -0.100655 0.360693 208 206 204 255
-0.07 0.17 0.893507 0.927237 -0.100655 0.360693 208 206 204 255
-0.07 0.157434 0.89 0.927237 -0.100655 0.360693 194 179 172 255
-0.15 0.17 0.884077 -0.343405 0.0408155 0.9383 180 177 171 255
-0.133816 0.17 0.89 -0.343405 0.0408155 0.9383 198 198 198 255
-0.131439 0.19 0.89 -0.343405 0.0408155 0.9383 191 191 191 255
-0.15 0.17 0.884077 -0.614653 0.363038 0.700289 180 177 171 255
-0.131439 0.19 0.89 -0.614653 0.363038 0.700289 191 191 191 255
-0.15 0.19 0.873709 -0.614653 0.363038 0.700289 186 182 176 255
-0.13 0.19 0.893382 -0.920066 -0.0174375 0.391374 191 191 191 255
-0.131439 0.19 0.89 -0.920066 -0.0174375 0.391374 191 191 191 255
-0.13 0.17 0.892491 -0.920066 -0.0174375 0.391374 198 198 198 255
-0.13 0.17 0.892491 -0.545535 0.0648398 0.835576 198 198 198 255
-0.131439 0.19 0.89 -0.545535 0.0648398 0.835576 191 191 191 255
-0.133816 0.17 0.89 -0.545535 0.0648398 0.835576 198 198 198 255
-0.11 0.19 0.893415 0.00726417 -0.0533996 0.998547 210 172 172 255
-0.13 0.17 0.892491 0.00726417 -0.0533996 0.998547 198 198 198 255
-0.11 0.17 0.892346 0.00726417 -0.0533996 0.998547 219 192 192 255
-0.13 0.19 0.893382 -0.00164643 -0.0445103 0.999008 191 191 191 255
-0.13 0.17 0.892491 -0.00164643 -0.0445103 0.999008 198 198 198 255
-0.11 0.19 0.893415 -0.00164643 -0.0445103 0.999008 210 172 172 255
-0.111715 0.21 0.89 -0.573184 0.569154 0.589511 184 163 156 255
-0.13 0.21 0.872221 -0.573184 0.569154 0.589511 166 124 102 255
-0.13 0.191585 0.89 -0.573184 0.569154 0.589511 191 191 191 255
-0.13 0.191585 0.89 -0.673801 0.669064 0.313602 191 191 191 255
-0.13 0.19 0.893382 -0.673801 0.669064 0.313602 191 191 191 255
-0.111715 0.21 0.89 -0.673801 0.669064 0.313602 184 163 156 255
-0.13 0.19 0.893382 -0.65271 0.659734 0.372452 191 191 191 255
-0.11 0.21 0.893005 -0.65271 0.659734 0.372452 184 163 156 255
-0.111715 0.21 0.89 -0.65271 0.659734 0.372452 184 163 156 255
-0.13 0.19 0.893382 -0.00164772 0.0205026 0.999788 191 191 191 255
-0.11 0.19 0.893415 -0.00164772 0.0205026 0.999788 210 172 172 255
-0.11 0.21 0.893005 -0.00164772 0.0205026 0.999788 184 163 156 255
-0.119865 0.23 0.85 -0.536085 0.775226 0.334123 157 104 67 255
-0.13 0.23 0.83374 -0.536085 0.775226 0.334123 159 103 57 255
-0.13 0.222992 0.85 -0.536085 0.775226 0.334123 160 121 78 255
-0.09 0.19 0.893271 -0.0100631 -0.0361486 0.999296 204 204 204 255
-0.11 0.17 0.892346 -0.0100631 -0.0361486 0.999296 219 192 192 255
-0.09 0.17 0.892547 -0.0100631 -0.0361486 0.999296 220 220 220 255
-0.11 0.19 0.893415 0.00722252 -0.0533996 0.998547 210 172 172 255
-0.11 0.17 0.892346 0.00722252 -0.0533996 0.998547 219 192 192 255
-0.09 0.19 0.893271 0.00722252 -0.0533996 0.998547 204 204 204 255
-0.09 0.21 0.890376 0.00715827 0.143224 0.989664 151 145 139 255
-0.11 0.19 0.893415 0.00715827 0.143224 0.989664 210 172 172 255
-0.09 0.19 0.893271 0.00715827 0.143224 0.989664 204 204 204 255
-0.11 0.21 0.893005 0.130298 0.0203279 0.991266 184 163 156 255
-0.11 0.19 0.893415 0.130298 0.0203279 0.991266 210 172 172 255
-0.09 0.21 0.890376 0.130298 0.0203279 0.991266 151 145 139 255
-0.0715919 0.19 0.85 0.847343 0.479901 0.227389 176 137 92 255
-0.07 0.187189 0.85 0.847343 0.479901 0.227389 176 137 92 255
-0.07 0.19 0.844068 0.847343 0.479901 0.227389 176 137 92 255
-0.0756694 0.19 0.87 0.777028 0.615075 0.133826 184 140 111 255
-0.07 0.182838 0.87 0.777028 0.615075 0.133826 184 140 111 255
-0.07 0.187189 0.85 0.777028 0.615075 0.133826 176 137 92 255
-0.0756694 0.19 0.87 0.856759 0.485234 0.174675 184 140 111 255
-0.07 0.187189 0.85 0.856759 0.485234 0.174675 176 137 92 255
-0.0715919 0.19 0.85 0.856759 0.485234 0.174675 176 137 92 255
-0.0873713 0.19 0.89 0.661921 0.670677 0.334743 204 204 204 255
-0.07 0.172856 0.89 0.661921 0.670677 0.334743 208 206 204 255
-0.07 0.182838 0.87 0.661921 0.670677 0.334743 184 140 111 255
-0.0873713 0.19 0.89 0.712666 0.564127 0.416975 204 204 204 255
-0.07 0.182838 0.87 0.712666 0.564127 0.416975 184 140 111 255
-0.0756694 0.19 0.87 0.712666 0.564127 0.416975 184 140 111 255
-0.0873713 0.19 0.89 0.611694 0.619786 0.491626 204 204 204 255
-0.09 0.19 0.893271 0.611694 0.619786 0.491626 204 204 204 255
-0.07 0.172856 0.89 0.611694 0.619786 0.491626 208 206 204 255
-0.09 0.19 0.893271 0.609086 0.614994 0.500796 204 204 204 255
-0.07 0.17 0.893507 0.609086 0.614994 0.500796 208 206 204 255
-0.07 0.172856 0.89 0.609086 0.614994 0.500796 208 206 204 255
-0.09 0.19 0.893271 -0.0478835 -0.036109 0.9982 204 204 204 255
-0.09 0.17 0.892547 -0.0478835 -0.036109 0.9982 220 220 220 255
-0.07 0.17 0.893507 -0.0478835 -0.036109 0.9982 208 206 204 255
3 0 1 2 
3 3 4 5 
3 6 7 8 
3 9 10 11 
3 12 13 14 
3 15 16 17 
3 18 19 20 
3 21 22 23 
3 24 25 26 
3 27 28 29 
3 30 31 32 
3 33 34 35 
3 36 37 38 
3 39 40 41 
3 42 43 44 
3 45 46 47 
3 48 49 50 
3 51 52 53 
3 54 55 56 
3 57 58 59 
3 60 61 62 
3 63 64 65 
3 66 67 68 
3 69 70 71 
3 72 73 74 
3 75 76 77 
3 78 79 80 
3 81 82 83 
3 84 85 86 
3 87 88 89 
3 90 91 92 
3 93 94 95 
3 96 97 98 
3 99 100 101 
3 102 103 104 
3 105 106 107 
3 108 109 110 
3 111 112 113 
3 114 115 116 
3 117 118 119 
3 120 121 122 
3 123 124 125 
3 126 127 128 
