ply
format ascii 1.0
element vertex 165
property float x
property float y
property float z
property float normal_x
property float normal_y
property float normal_z
property uchar red
property uchar green
property uchar blue
property uchar alpha
element face 55
property list uchar int vertex_indices
end_header
0.11 0.07 0.915489 -0.671424 -0.00146207 0.741072 214 159 33 255
0.103942 0.07 0.91 -0.671424 -0.00146207 0.741072 214 159 33 255
0.11 0.05 0.915449 -0.671424 -0.00146207 0.741072 216 157 29 255
0.11 0.05 0.915449 -0.938388 -0.209321 0.274977 216 157 29 255
0.103942 0.07 0.91 -0.938388 -0.209321 0.274977 214 159 33 255
0.108403 0.05 0.91 -0.938388 -0.209321 0.274977 216 157 29 255
0.09 0.07 0.834507 -0.982966 0.0231585 0.182324 151 107 72 255
0.0928738 0.07 0.85 -0.982966 0.0231585 0.182324 153 107 72 255
0.093345 0.09 0.85 -0.982966 0.0231585 0.182324 153 109 74 255
0.09 0.07 0.834507 -0.983905 0.0278188 0.176511 151 107 72 255
0.093345 0.09 0.85 -0.983905 0.0278188 0.176511 153 109 74 255
0.09 0.09 0.831354 -0.983905 0.0278188 0.176511 156 107 72 255
0.0922445 0.07 0.87 -0.999228 0.0235417 -0.0314373 164 112 73 255
0.093345 0.09 0.85 -0.999228 0.0235417 -0.0314373 153 109 74 255
0.0928738 0.07 0.85 -0.999228 0.0235417 -0.0314373 153 107 72 255
0.0923392 0.09 0.87 -0.998727 0.00472956 -0.0502219 162 117 81 255
0.093345 0.09 0.85 -0.998727 0.00472956 -0.0502219 153 109 74 255
0.0922445 0.07 0.87 -0.998727 0.00472956 -0.0502219 164 112 73 255
0.0922445 0.07 0.87 -0.896308 0.429721 -0.109417 164 112 73 255
0.09 0.07 0.888386 -0.896308 0.429721 -0.109417 174 137 85 255
0.09 0.0704108 0.89 -0.896308 0.429721 -0.109417 174 137 85 255
0.099992 0.09 0.89 -0.885533 0.451691 -0.108659 158 128 87 255
0.0922445 0.07 0.87 -0.885533 0.451691 -0.108659 164 112 73 255
0.09 0.0704108 0.89 -0.885533 0.451691 -0.108659 174 137 85 255
0.0923392 0.09 0.87 -0.933954 0.00442282 0.357367 162 117 81 255
0.0922445 0.07 0.87 -0.933954 0.00442282 0.357367 164 112 73 255
0.099992 0.09 0.89 -0.933954 0.00442282 0.357367 158 128 87 255
0.099992 0.09 0.89 -0.86442 0.440921 0.241593 158 128 87 255
0.09 0.0704108 0.89 -0.86442 0.440921 0.241593 174 137 85 255
0.09 0.07 0.89075 -0.86442 0.440921 0.241593 174 137 85 255
0.103942 0.07 0.91 -0.744943 0.392399 0.539522 214 159 33 255
0.099992 0.09 0.89 -0.744943 0.392399 0.539522 158 128 87 255
0.09 0.07 0.89075 -0.744943 0.392399 0.539522 174 137 85 255
0.107566 0.09 0.91 -0.922045 0.167071 0.34917 192 148 53 255
0.099992 0.09 0.89 -0.922045 0.167071 0.34917 158 128 87 255
0.103942 0.07 0.91 -0.922045 0.167071 0.34917 214 159 33 255
0.11 0.09 0.91605 -0.927666 -0.0104678 0.373265 192 148 53 255
0.107566 0.09 0.91 -0.927666 -0.0104678 0.373265 192 148 53 255
0.11 0.07 0.915489 -0.927666 -0.0104678 0.373265 214 159 33 255
0.11 0.07 0.915489 -0.66651 0.120769 0.735649 214 159 33 255
0.107566 0.09 0.91 -0.66651 0.120769 0.735649 192 148 53 255
0.103942 0.07 0.91 -0.66651 0.120769 0.735649 214 159 33 255
0.11 0.09 0.91605 -0.668316 0.693572 0.26891 192 148 53 255
0.11 0.0923456 0.91 -0.668316 0.693572 0.26891 192 148 53 255
0.107566 0.09 0.91 -0.668316 0.693572 0.26891 192 148 53 255
0.13 0.0376046 0.91 -0.259739 -0.478825 0.838607 178 139 69 255
0.13 0.05 0.917077 -0.259739 -0.478825 0.838607 215 159 32 255
0.11 0.0484536 0.91 -0.259739 -0.478825 0.838607 216 157 29 255
0.11 0.0484536 0.91 -0.0222202 -0.961775 0.272939 216 157 29 255
0.13 0.05 0.917077 -0.0222202 -0.961775 0.272939 215 159 32 255
0.11 0.05 0.915449 -0.0222202 -0.961775 0.272939 216 157 29 255
0.13 0.07 0.91564 -0.0809353 0.0714306 0.994157 221 161 24 255
0.11 0.05 0.915449 -0.0809353 0.0714306 0.994157 216 157 29 255
0.13 0.05 0.917077 -0.0809353 0.0714306 0.994157 215 159 32 255
0.11 0.07 0.915489 -0.00758744 -0.00197285 0.999969 214 159 33 255
0.11 0.05 0.915449 -0.00758744 -0.00197285 0.999969 216 157 29 255
0.13 0.07 0.91564 -0.00758744 -0.00197285 0.999969 221 161 24 255
0.13 0.09 0.915479 -0.00758721 0.00807295 0.999939 213 158 35 255
0.11 0.07 0.915489 -0.00758721 0.00807295 0.999939 214 159 33 255
0.13 0.07 0.91564 -0.00758721 0.00807295 0.999939 221 161 24 255
0.11 0.09 0.91605 0.028507 -0.0280216 0.999201 192 148 53 255
0.11 0.07 0.915489 0.028507 -0.0280216 0.999201 214 159 33 255
0.13 0.09 0.915479 0.028507 -0.0280216 0.999201 213 158 35 255
0.114409 0.11 0.83 -0.0709042 0.995996 0.0544457 155 109 70 255
0.11 0.109686 0.83 -0.0709042 0.995996 0.0544457 155 109 70 255
0.11 0.108593 0.85 -0.0709042 0.995996 0.0544457 153 111 76 255
0.114409 0.11 0.83 -0.201836 0.979115 0.0243915 155 109 70 255
0.11 0.108593 0.85 -0.201836 0.979115 0.0243915 153 111 76 255
0.116826 0.11 0.85 -0.201836 0.979115 0.0243915 153 111 76 255
0.116826 0.11 0.85 -0.201882 0.979338 -0.0118414 153 111 76 255
0.11 0.108593 0.85 -0.201882 0.979338 -0.0118414 153 111 76 255
0.11 0.108835 0.87 -0.201882 0.979338 -0.0118414 163 116 78 255
0.116826 0.11 0.85 -0.214874 0.976503 -0.0164408 153 111 76 255
0.11 0.108835 0.87 -0.214874 0.976503 -0.0164408 163 116 78 255
0.115296 0.11 0.87 -0.214874 0.976503 -0.0164408 163 116 78 255
0.13 0.105135 0.89 -0.233919 0.891157 0.388743 157 130 78 255
0.13 0.11 0.878848 -0.233919 0.891157 0.388743 174 114 71 255
0.115296 0.11 0.87 -0.233919 0.891157 0.388743 163 116 78 255
0.11 0.108835 0.87 -0.199837 0.908169 0.367824 163 116 78 255
0.13 0.105135 0.89 -0.199837 0.908169 0.367824 157 130 78 255
0.115296 0.11 0.87 -0.199837 0.908169 0.367824 163 116 78 255
0.11 0.0982534 0.89 -0.290985 0.845666 0.44741 190 142 55 255
0.13 0.105135 0.89 -0.290985 0.845666 0.44741 157 130 78 255
0.11 0.108835 0.87 -0.290985 0.845666 0.44741 163 116 78 255
0.11 0.0982534 0.89 -0.284941 0.8281 0.482762 190 142 55 255
0.13 0.0934757 0.91 -0.284941 0.8281 0.482762 213 158 35 255
0.13 0.105135 0.89 -0.284941 0.8281 0.482762 157 130 78 255
0.11 0.0923456 0.91 -0.0541121 0.957629 0.282876 192 148 53 255
0.13 0.0934757 0.91 -0.0541121 0.957629 0.282876 213 158 35 255
0.11 0.0982534 0.89 -0.0541121 0.957629 0.282876 190 142 55 255
0.11 0.0923456 0.91 -0.052612 0.931081 0.360997 192 148 53 255
0.11 0.09 0.91605 -0.052612 0.931081 0.360997 192 148 53 255
0.13 0.0934757 0.91 -0.052612 0.931081 0.360997 213 158 35 255
0.13 0.0934757 0.91 0.0152808 0.844329 0.535608 213 158 35 255
0.11 0.09 0.91605 0.0152808 0.844329 0.535608 192 148 53 255
0.13 0.09 0.915479 0.0152808 0.844329 0.535608 213 158 35 255
0.15 0.0307423 0.85 0.086121 -0.995261 0.0451577 176 121 42 255
0.141422 0.03 0.85 0.086121 -0.995261 0.0451577 176 121 42 255
0.15 0.03 0.833641 0.086121 -0.995261 0.0451577 159 100 54 255
0.15 0.0314637 0.87 0.30635 -0.949906 -0.0618728 187 134 40 255
0.145461 0.03 0.87 0.30635 -0.949906 -0.0618728 187 134 40 255
0.141422 0.03 0.85 0.30635 -0.949906 -0.0618728 176 121 42 255
0.15 0.0314637 0.87 0.0861533 -0.995634 0.0359147 187 134 40 255
0.141422 0.03 0.85 0.0861533 -0.995634 0.0359147 176 121 42 255
0.15 0.0307423 0.85 0.0861533 -0.995634 0.0359147 176 121 42 255
0.15 0.0368758 0.89 0.506657 -0.844151 0.175236 196 140 67 255
0.138544 0.03 0.89 0.506657 -0.844151 0.175236 205 154 40 255
0.145461 0.03 0.87 0.506657 -0.844151 0.175236 187 134 40 255
0.15 0.0368758 0.89 0.297239 -0.921654 0.249404 196 140 67 255
0.145461 0.03 0.87 0.297239 -0.921654 0.249404 187 134 40 255
0.15 0.0314637 0.87 0.297239 -0.921654 0.249404 187 134 40 255
0.13 0.0376046 0.91 0.765754 -0.420178 0.486899 178 139 69 255
0.13 0.03 0.903437 0.765754 -0.420178 0.486899 178 139 69 255
0.138544 0.03 0.89 0.765754 -0.420178 0.486899 205 154 40 255
0.15 0.0368758 0.89 0.451705 -0.752594 0.479129 196 140 67 255
0.13 0.0376046 0.91 0.451705 -0.752594 0.479129 178 139 69 255
0.138544 0.03 0.89 0.451705 -0.752594 0.479129 205 154 40 255
0.15 0.0474745 0.91 0.399705 -0.809943 0.429219 210 160 49 255
0.13 0.0376046 0.91 0.399705 -0.809943 0.429219 178 139 69 255
0.15 0.0368758 0.89 0.399705 -0.809943 0.429219 196 140 67 255
0.15 0.0474745 0.91 0.411809 -0.834469 0.366162 210 160 49 255
0.15 0.05 0.915755 0.411809 -0.834469 0.366162 210 160 49 255
0.13 0.0376046 0.91 0.411809 -0.834469 0.366162 178 139 69 255
0.13 0.0376046 0.91 0.057309 -0.495028 0.866985 178 139 69 255
0.15 0.05 0.915755 0.057309 -0.495028 0.866985 210 160 49 255
0.13 0.05 0.917077 0.057309 -0.495028 0.866985 215 159 32 255
0.15 0.07 0.915701 0.0659574 0.00271799 0.997819 219 161 26 255
0.13 0.05 0.917077 0.0659574 0.00271799 0.997819 215 159 32 255
0.15 0.05 0.915755 0.0659574 0.00271799 0.997819 210 160 49 255
0.13 0.07 0.91564 -0.00301714 0.0716654 0.997424 221 161 24 255
0.13 0.05 0.917077 -0.00301714 0.0716654 0.997424 215 159 32 255
0.15 0.07 0.915701 -0.00301714 0.0716654 0.997424 219 161 26 255
0.15 0.09 0.915508 -0.00302478 0.00963162 0.999949 216 159 30 255
0.13 0.07 0.91564 -0.00302478 0.00963162 0.999949 221 161 24 255
0.15 0.07 0.915701 -0.00302478 0.00963162 0.999949 219 161 26 255
0.13 0.09 0.915479 -0.00146623 0.00807318 0.999966 213 158 35 255
0.13 0.07 0.91564 -0.00146623 0.00807318 0.999966 221 161 24 255
0.15 0.09 0.915508 -0.00146623 0.00807318 0.999966 216 159 30 255
0.17 0.063526 0.87 0.967154 -0.168876 0.189986 211 165 58 255
0.167638 0.05 0.87 0.967154 -0.168876 0.189986 214 161 61 255
0.17 0.05 0.857977 0.967154 -0.168876 0.189986 199 153 75 255
0.167638 0.05 0.87 0.965015 -0.168503 0.200881 214 161 61 255
0.17 0.063526 0.87 0.965015 -0.168503 0.200881 211 165 58 255
0.17 0.07 0.87543 0.965015 -0.168503 0.200881 211 165 58 255
0.165915 0.07 0.89 0.946468 -0.183817 0.26535 212 165 77 255
0.167638 0.05 0.87 0.946468 -0.183817 0.26535 214 161 61 255
0.17 0.07 0.87543 0.946468 -0.183817 0.26535 211 165 58 255
0.160352 0.05 0.89 0.909047 -0.252879 0.331188 208 176 103 255
0.167638 0.05 0.87 0.909047 -0.252879 0.331188 214 161 61 255
0.165915 0.07 0.89 0.909047 -0.252879 0.331188 212 165 77 255
0.165915 0.07 0.89 0.896181 -0.2493 0.367026 212 165 77 255
0.152161 0.05 0.91 0.896181 -0.2493 0.367026 210 160 49 255
0.160352 0.05 0.89 0.896181 -0.2493 0.367026 208 176 103 255
0.165915 0.07 0.89 0.853836 -0.0716123 0.515592 212 165 77 255
0.153838 0.07 0.91 0.853836 -0.0716123 0.515592 219 161 26 255
0.152161 0.05 0.91 0.853836 -0.0716123 0.515592 210 160 49 255
0.152161 0.05 0.91 0.730679 -0.625182 0.274327 210 160 49 255
0.15 0.05 0.915755 0.730679 -0.625182 0.274327 210 160 49 255
0.15 0.0474745 0.91 0.730679 -0.625182 0.274327 210 160 49 255
0.153838 0.07 0.91 0.827516 -0.0694048 0.557135 219 161 26 255
0.15 0.07 0.915701 0.827516 -0.0694048 0.557135 219 161 26 255
0.152161 0.05 0.91 0.827516 -0.0694048 0.557135 210 160 49 255
0.152161 0.05 0.91 0.936193 0.000957419 0.351486 210 160 49 255
0.15 0.07 0.915701 0.936193 0.000957419 0.351486 219 161 26 255
0.15 0.05 0.915755 0.936193 0.000957419 0.351486 210 160 49 255
3 0 1 2 
3 3 4 5 
3 6 7 8 
3 9 10 11 
3 12 13 14 
3 15 16 17 
3 18 19 20 
3 21 22 23 
3 24 25 26 
3 27 28 29 
3 30 31 32 
3 33 34 35 
3 36 37 38 
3 39 40 41 
3 42 43 44 
3 45 46 47 
3 48 49 50 
3 51 52 53 
3 54 55 56 
3 57 58 59 
3 60 61 62 
3 63 64 65 
3 66 67 68 
3 69 70 71 
3 72 73 74 
3 75 76 77 
3 78 79 80 
3 81 82 83 
3 84 85 86 
3 87 88 89 
3 90 91 92 
3 93 94 95 
3 96 97 98 
3 99 100 101 
3 102 103 104 
3 105 106 107 
3 108 109 110 
3 111 112 113 
3 114 115 116 
3 117 118 119 
3 120 121 122 
3 123 124 125 
3 126 127 128 
3 129 130 131 
3 132 133 134 
3 135 136 137 
3 138 139 140 
3 141 142 143 
3 144 145 146 
3 147 148 149 
3 150 151 152 
3 153 154 155 
3 156 157 158 
3 159 160 161 
3 162 163 164 
