ply
format ascii 1.0
element vertex 429
property float x
property float y
property float z
property float normal_x
property float normal_y
property float normal_z
property uchar red
property uchar green
property uchar blue
property uchar alpha
element face 143
property list uchar int vertex_indices
end_header
-0.11 -0.0842559 0.93 -0.577123 -0.535492 -0.616585 148 148 159 255
-0.11 -0.07 0.917619 -0.577123 -0.535492 -0.616585 128 100 101 255
-0.10467 -0.09 0.93 -0.577123 -0.535492 -0.616585 148 148 159 255
-0.10467 -0.09 0.93 -0.566768 -0.537543 -0.624356 148 148 159 255
-0.11 -0.07 0.917619 -0.566768 -0.537543 -0.624356 128 100 101 255
-0.09 -0.09 0.916683 -0.566768 -0.537543 -0.624356 78 76 143 255
-0.11 -0.07 0.917619 -0.578053 -0.54983 -0.602944 128 100 101 255
-0.102053 -0.07 0.91 -0.578053 -0.54983 -0.602944 128 100 101 255
-0.09 -0.09 0.916683 -0.578053 -0.54983 -0.602944 78 76 143 255
-0.102053 -0.07 0.91 -0.569602 -0.547966 -0.612606 128 100 101 255
-0.09 -0.0825288 0.91 -0.569602 -0.547966 -0.612606 78 76 143 255
-0.09 -0.09 0.916683 -0.569602 -0.547966 -0.612606 78 76 143 255
-0.11 -0.0842559 0.93 -0.73305 -0.680172 0.00163523 148 148 159 255
-0.10467 -0.09 0.93 -0.73305 -0.680172 0.00163523 148 148 159 255
-0.104626 -0.09 0.95 -0.73305 -0.680172 0.00163523 155 155 158 255
-0.11 -0.0842559 0.93 -0.748404 -0.663158 0.0106477 148 148 159 255
-0.104626 -0.09 0.95 -0.748404 -0.663158 0.0106477 155 155 158 255
-0.11 -0.0839348 0.95 -0.748404 -0.663158 0.0106477 155 155 158 255
-0.11 -0.07 0.844967 -0.921229 0.21737 0.322625 155 108 71 255
-0.108238 -0.07 0.85 -0.921229 0.21737 0.322625 155 108 71 255
-0.103518 -0.05 0.85 -0.921229 0.21737 0.322625 156 105 67 255
-0.11 -0.07 0.844967 -0.912161 0.206541 0.353982 155 108 71 255
-0.103518 -0.05 0.85 -0.912161 0.206541 0.353982 156 105 67 255
-0.11 -0.05 0.833298 -0.912161 0.206541 0.353982 158 104 64 255
-0.104049 -0.07 0.87 -0.953664 0.225023 0.199726 157 108 73 255
-0.103518 -0.05 0.85 -0.953664 0.225023 0.199726 156 105 67 255
-0.108238 -0.07 0.85 -0.953664 0.225023 0.199726 155 108 71 255
-0.100064 -0.05 0.87 -0.966948 0.192661 0.167011 154 108 76 255
-0.103518 -0.05 0.85 -0.966948 0.192661 0.167011 156 105 67 255
-0.104049 -0.07 0.87 -0.966948 0.192661 0.167011 157 108 73 255
-0.11 -0.05 0.927765 -0.738006 0.259897 -0.622737 132 102 97 255
-0.0950097 -0.05 0.91 -0.738006 0.259897 -0.622737 135 102 91 255
-0.102053 -0.07 0.91 -0.738006 0.259897 -0.622737 128 100 101 255
-0.11 -0.05 0.927765 -0.649848 0.343864 -0.677831 132 102 97 255
-0.102053 -0.07 0.91 -0.649848 0.343864 -0.677831 128 100 101 255
-0.11 -0.07 0.917619 -0.649848 0.343864 -0.677831 128 100 101 255
-0.11 -0.05 0.927765 -0.652769 0.520093 -0.550813 132 102 97 255
-0.11 -0.0476331 0.93 -0.652769 0.520093 -0.550813 132 102 97 255
-0.0950097 -0.05 0.91 -0.652769 0.520093 -0.550813 135 102 91 255
-0.11 -0.0476331 0.93 -0.655144 0.515747 -0.552079 132 102 97 255
-0.09 -0.0436363 0.91 -0.655144 0.515747 -0.552079 135 102 91 255
-0.0950097 -0.05 0.91 -0.655144 0.515747 -0.552079 135 102 91 255
-0.11 -0.0476331 0.93 -0.337345 0.929081 -0.15168 132 102 97 255
-0.09 -0.0403711 0.93 -0.337345 0.929081 -0.15168 110 91 116 255
-0.09 -0.0436363 0.91 -0.337345 0.929081 -0.15168 135 102 91 255
-0.11 -0.0476331 0.93 -0.340266 0.937124 -0.0775671 132 102 97 255
-0.09 -0.0387157 0.95 -0.340266 0.937124 -0.0775671 121 94 106 255
-0.09 -0.0403711 0.93 -0.340266 0.937124 -0.0775671 110 91 116 255
-0.11 -0.0421604 0.95 -0.163883 0.951501 -0.260361 97 86 136 255
-0.09 -0.0387157 0.95 -0.163883 0.951501 -0.260361 121 94 106 255
-0.11 -0.0476331 0.93 -0.163883 0.951501 -0.260361 132 102 97 255
-0.09 -0.0848964 0.87 -0.306998 -0.913275 0.267734 154 103 65 255
-0.09 -0.09 0.852591 -0.306998 -0.913275 0.267734 152 106 68 255
-0.0748176 -0.09 0.87 -0.306998 -0.913275 0.267734 143 101 74 255
-0.09 -0.09 0.916683 -0.215799 -0.650981 -0.727773 78 76 143 255
-0.09 -0.0825288 0.91 -0.215799 -0.650981 -0.727773 78 76 143 255
-0.07 -0.0891588 0.91 -0.215799 -0.650981 -0.727773 126 99 93 255
-0.09 -0.09 0.916683 -0.161565 -0.795743 -0.583687 78 76 143 255
-0.07 -0.0891588 0.91 -0.161565 -0.795743 -0.583687 126 99 93 255
-0.07 -0.09 0.911147 -0.161565 -0.795743 -0.583687 126 99 93 255
-0.09 -0.0398237 0.87 -0.00566203 0.982666 0.185296 143 108 84 255
-0.07 -0.0434797 0.89 -0.00566203 0.982666 0.185296 140 103 81 255
-0.07 -0.0397084 0.87 -0.00566203 0.982666 0.185296 141 105 77 255
-0.09 -0.0431556 0.89 0.0159832 0.986279 0.164311 141 106 85 255
-0.07 -0.0434797 0.89 0.0159832 0.986279 0.164311 140 103 81 255
-0.09 -0.0398237 0.87 0.0159832 0.986279 0.164311 143 108 84 255
-0.09 -0.0431556 0.89 0.0162027 0.999825 -0.00936859 141 106 85 255
-0.07 -0.0432923 0.91 0.0162027 0.999825 -0.00936859 129 98 90 255
-0.07 -0.0434797 0.89 0.0162027 0.999825 -0.00936859 140 103 81 255
-0.09 -0.0436363 0.91 -0.0171925 0.999564 0.0240249 135 102 91 255
-0.07 -0.0432923 0.91 -0.0171925 0.999564 0.0240249 129 98 90 255
-0.09 -0.0431556 0.89 -0.0171925 0.999564 0.0240249 141 106 85 255
-0.09 -0.0436363 0.91 -0.0169591 0.98599 -0.16594 135 102 91 255
-0.07 -0.0399264 0.93 -0.0169591 0.98599 -0.16594 136 102 82 255
-0.07 -0.0432923 0.91 -0.0169591 0.98599 -0.16594 129 98 90 255
-0.09 -0.0403711 0.93 -0.0219428 0.986696 -0.161087 110 91 116 255
-0.07 -0.0399264 0.93 -0.0219428 0.986696 -0.161087 136 102 82 255
-0.09 -0.0436363 0.91 -0.0219428 0.986696 -0.161087 135 102 91 255
-0.09 -0.0403711 0.93 -0.0221591 0.996422 -0.0815617 110 91 116 255
-0.07 -0.0382893 0.95 -0.0221591 0.996422 -0.0815617 113 90 105 255
-0.07 -0.0399264 0.93 -0.0221591 0.996422 -0.0815617 136 102 82 255
-0.09 -0.0387157 0.95 -0.0212446 0.996367 -0.0824705 121 94 106 255
-0.07 -0.0382893 0.95 -0.0212446 0.996367 -0.0824705 113 90 105 255
-0.09 -0.0403711 0.93 -0.0212446 0.996367 -0.0824705 110 91 116 255
-0.07 -0.09 0.878352 0.593251 -0.778317 0.205612 143 101 74 255
-0.0671053 -0.09 0.87 0.593251 -0.778317 0.205612 143 101 74 255
-0.07 -0.0869229 0.89 0.593251 -0.778317 0.205612 143 102 76 255
-0.0671053 -0.09 0.87 0.767336 -0.607741 0.204565 143 101 74 255
-0.0565968 -0.07 0.89 0.767336 -0.607741 0.204565 154 101 62 255
-0.07 -0.0869229 0.89 0.767336 -0.607741 0.204565 143 102 76 255
-0.0671053 -0.09 0.87 0.820864 -0.557097 0.125796 143 101 74 255
-0.0535319 -0.07 0.87 0.820864 -0.557097 0.125796 152 102 68 255
-0.0565968 -0.07 0.89 0.820864 -0.557097 0.125796 154 101 62 255
-0.07 -0.0869229 0.89 0.782032 -0.61938 -0.0692421 143 102 76 255
-0.0565968 -0.07 0.89 0.782032 -0.61938 -0.0692421 154 101 62 255
-0.07 -0.0891588 0.91 0.782032 -0.61938 -0.0692421 126 99 93 255
-0.07 -0.0891588 0.91 0.820391 -0.571799 0.00204441 126 99 93 255
-0.0565968 -0.07 0.89 0.820391 -0.571799 0.00204441 154 101 62 255
-0.0566467 -0.07 0.91 0.820391 -0.571799 0.00204441 117 90 98 255
-0.07 -0.0891588 0.91 0.756544 -0.527298 -0.386779 126 99 93 255
-0.0566467 -0.07 0.91 0.756544 -0.527298 -0.386779 117 90 98 255
-0.07 -0.09 0.911147 0.756544 -0.527298 -0.386779 126 99 93 255
-0.0566467 -0.07 0.91 0.753181 -0.525559 -0.395607 117 90 98 255
-0.0600974 -0.09 0.93 0.753181 -0.525559 -0.395607 108 86 108 255
-0.07 -0.09 0.911147 0.753181 -0.525559 -0.395607 126 99 93 255
-0.0566467 -0.07 0.91 0.898014 -0.378775 -0.223833 117 90 98 255
-0.0516616 -0.07 0.93 0.898014 -0.378775 -0.223833 115 93 100 255
-0.0600974 -0.09 0.93 0.898014 -0.378775 -0.223833 108 86 108 255
-0.0516616 -0.07 0.93 0.796372 -0.543884 -0.264541 115 93 100 255
-0.05 -0.07 0.935002 0.796372 -0.543884 -0.264541 115 93 100 255
-0.05 -0.0772949 0.95 0.796372 -0.543884 -0.264541 110 90 105 255
-0.0572173 -0.09 0.95 0.843061 -0.478914 -0.244723 116 96 105 255
-0.0516616 -0.07 0.93 0.843061 -0.478914 -0.244723 115 93 100 255
-0.05 -0.0772949 0.95 0.843061 -0.478914 -0.244723 110 90 105 255
-0.0600974 -0.09 0.93 0.913386 -0.385259 -0.131532 108 86 108 255
-0.0516616 -0.07 0.93 0.913386 -0.385259 -0.131532 115 93 100 255
-0.0572173 -0.09 0.95 0.913386 -0.385259 -0.131532 116 96 105 255
-0.0519028 -0.05 0.85 0.940548 0.134715 0.311802 153 102 64 255
-0.05 -0.063285 0.85 0.940548 0.134715 0.311802 149 103 68 255
-0.05 -0.05 0.84426 0.940548 0.134715 0.311802 153 102 64 255
-0.0535319 -0.07 0.87 0.974488 0.0941986 0.203715 152 102 68 255
-0.05 -0.07 0.853105 0.974488 0.0941986 0.203715 149 103 68 255
-0.05 -0.063285 0.85 0.974488 0.0941986 0.203715 149 103 68 255
-0.0519028 -0.05 0.85 0.966286 0.138401 0.217108 153 102 64 255
-0.0535319 -0.07 0.87 0.966286 0.138401 0.217108 152 102 68 255
-0.05 -0.063285 0.85 0.966286 0.138401 0.217108 149 103 68 255
-0.0560645 -0.05 0.87 0.971591 0.123034 0.202173 149 103 70 255
-0.0535319 -0.07 0.87 0.971591 0.123034 0.202173 152 102 68 255
-0.0519028 -0.05 0.85 0.971591 0.123034 0.202173 153 102 64 255
-0.0560645 -0.05 0.87 0.980807 0.124201 0.150307 149 103 70 255
-0.0565968 -0.07 0.89 0.980807 0.124201 0.150307 154 101 62 255
-0.0535319 -0.07 0.87 0.980807 0.124201 0.150307 152 102 68 255
-0.0560645 -0.05 0.87 0.947739 0.212634 0.237859 149 103 70 255
-0.061084 -0.05 0.89 0.947739 0.212634 0.237859 140 103 81 255
-0.0565968 -0.07 0.89 0.947739 0.212634 0.237859 154 101 62 255
-0.061084 -0.05 0.89 0.975741 0.218916 0.00243158 140 103 81 255
-0.0566467 -0.07 0.91 0.975741 0.218916 0.00243158 117 90 98 255
-0.0565968 -0.07 0.89 0.975741 0.218916 0.00243158 154 101 62 255
-0.061084 -0.05 0.89 0.961678 0.268567 0.0552025 140 103 81 255
-0.062232 -0.05 0.91 0.961678 0.268567 0.0552025 129 98 90 255
-0.0566467 -0.07 0.91 0.961678 0.268567 0.0552025 117 90 98 255
-0.062232 -0.05 0.91 0.936537 0.261546 -0.233436 129 98 90 255
-0.0516616 -0.07 0.93 0.936537 0.261546 -0.233436 115 93 100 255
-0.0566467 -0.07 0.91 0.936537 0.261546 -0.233436 117 90 98 255
-0.062232 -0.05 0.91 0.923346 0.363075 -0.124935 129 98 90 255
-0.0595259 -0.05 0.93 0.923346 0.363075 -0.124935 127 95 91 255
-0.0516616 -0.07 0.93 0.923346 0.363075 -0.124935 115 93 100 255
-0.0543032 -0.05 0.95 0.847837 0.422599 -0.320284 115 89 101 255
-0.05 -0.0586332 0.95 0.847837 0.422599 -0.320284 115 89 101 255
-0.05 -0.07 0.935002 0.847837 0.422599 -0.320284 115 93 100 255
-0.0516616 -0.07 0.93 0.868455 0.40319 -0.288486 115 93 100 255
-0.0543032 -0.05 0.95 0.868455 0.40319 -0.288486 115 89 101 255
-0.05 -0.07 0.935002 0.868455 0.40319 -0.288486 115 93 100 255
-0.0595259 -0.05 0.93 0.904316 0.355592 -0.236151 127 95 91 255
-0.0543032 -0.05 0.95 0.904316 0.355592 -0.236151 115 89 101 255
-0.0516616 -0.07 0.93 0.904316 0.355592 -0.236151 115 93 100 255
-0.0560645 -0.05 0.87 0.587576 0.795618 0.147467 149 103 70 255
-0.07 -0.0397084 0.87 0.587576 0.795618 0.147467 141 105 77 255
-0.061084 -0.05 0.89 0.587576 0.795618 0.147467 140 103 81 255
-0.061084 -0.05 0.89 0.583576 0.797996 0.150474 140 103 81 255
-0.07 -0.0397084 0.87 0.583576 0.797996 0.150474 141 105 77 255
-0.07 -0.0434797 0.89 0.583576 0.797996 0.150474 140 103 81 255
-0.061084 -0.05 0.89 0.589958 0.806723 0.033865 140 103 81 255
-0.07 -0.0434797 0.89 0.589958 0.806723 0.033865 140 103 81 255
-0.062232 -0.05 0.91 0.589958 0.806723 0.033865 129 98 90 255
-0.062232 -0.05 0.91 0.653548 0.756852 -0.00709187 129 98 90 255
-0.07 -0.0434797 0.89 0.653548 0.756852 -0.00709187 140 103 81 255
-0.07 -0.0432923 0.91 0.653548 0.756852 -0.00709187 129 98 90 255
-0.062232 -0.05 0.91 0.651024 0.753929 -0.0880879 129 98 90 255
-0.07 -0.0432923 0.91 0.651024 0.753929 -0.0880879 129 98 90 255
-0.0595259 -0.05 0.93 0.651024 0.753929 -0.0880879 127 95 91 255
-0.0595259 -0.05 0.93 0.68815 0.715506 -0.120418 127 95 91 255
-0.07 -0.0432923 0.91 0.68815 0.715506 -0.120418 129 98 90 255
-0.07 -0.0399264 0.93 0.68815 0.715506 -0.120418 136 102 82 255
-0.0595259 -0.05 0.93 0.682109 0.709224 -0.178125 127 95 91 255
-0.07 -0.0399264 0.93 0.682109 0.709224 -0.178125 136 102 82 255
-0.0543032 -0.05 0.95 0.682109 0.709224 -0.178125 115 89 101 255
-0.0543032 -0.05 0.95 0.596692 0.799795 -0.0654669 115 89 101 255
-0.07 -0.0399264 0.93 0.596692 0.799795 -0.0654669 136 102 82 255
-0.07 -0.0382893 0.95 0.596692 0.799795 -0.0654669 113 90 105 255
-0.05 -0.07 0.935002 0.86061 -0.457965 -0.222751 115 93 100 255
-0.0461181 -0.07 0.95 0.86061 -0.457965 -0.222751 110 90 105 255
-0.05 -0.0772949 0.95 0.86061 -0.457965 -0.222751 110 90 105 255
-0.05 -0.07 0.935002 0.919165 0.313906 -0.237907 115 93 100 255
-0.05 -0.0586332 0.95 0.919165 0.313906 -0.237907 115 89 101 255
-0.0461181 -0.07 0.95 0.919165 0.313906 -0.237907 110 90 105 255
-0.11 -0.0839348 0.95 -0.74597 -0.661001 -0.0812721 155 155 158 255
-0.104626 -0.09 0.95 -0.74597 -0.661001 -0.0812721 155 155 158 255
-0.106805 -0.09 0.97 -0.74597 -0.661001 -0.0812721 147 146 158 255
-0.11 -0.0839348 0.95 -0.803192 -0.593477 -0.051652 155 155 158 255
-0.106805 -0.09 0.97 -0.803192 -0.593477 -0.051652 147 146 158 255
-0.11 -0.0856754 0.97 -0.803192 -0.593477 -0.051652 147 146 158 255
-0.05 -0.0772949 0.95 0.800972 -0.455004 -0.389122 110 90 105 255
-0.05 -0.09 0.964856 0.800972 -0.455004 -0.389122 110 99 120 255
-0.0572173 -0.09 0.95 0.800972 -0.455004 -0.389122 116 96 105 255
-0.05 -0.0772949 0.95 0.819155 -0.435905 -0.372788 110 90 105 255
-0.0461181 -0.07 0.95 0.819155 -0.435905 -0.372788 110 90 105 255
-0.05 -0.09 0.964856 0.819155 -0.435905 -0.372788 110 99 120 255
-0.0461181 -0.07 0.95 0.830741 -0.426746 -0.35743 110 90 105 255
-0.0477869 -0.09 0.97 0.830741 -0.426746 -0.35743 110 99 120 255
-0.05 -0.09 0.964856 0.830741 -0.426746 -0.35743 110 99 120 255
-0.0461181 -0.07 0.95 0.98226 -0.167087 -0.085128 110 90 105 255
-0.0443848 -0.07 0.97 0.98226 -0.167087 -0.085128 124 99 106 255
-0.0477869 -0.09 0.97 0.98226 -0.167087 -0.085128 110 99 120 255
-0.0543032 -0.05 0.95 0.807 0.402244 -0.432379 115 89 101 255
-0.05 -0.05 0.958031 0.807 0.402244 -0.432379 115 89 101 255
-0.05 -0.0586332 0.95 0.807 0.402244 -0.432379 115 89 101 255
-0.05 -0.05 0.958031 0.907596 0.28597 -0.307393 115 89 101 255
-0.0459464 -0.05 0.97 0.907596 0.28597 -0.307393 119 92 102 255
-0.05 -0.0586332 0.95 0.907596 0.28597 -0.307393 115 89 101 255
-0.0459464 -0.05 0.97 0.898317 0.306786 -0.314498 119 92 102 255
-0.0461181 -0.07 0.95 0.898317 0.306786 -0.314498 110 90 105 255
-0.05 -0.0586332 0.95 0.898317 0.306786 -0.314498 115 89 101 255
-0.0459464 -0.05 0.97 0.993265 0.0775549 -0.0860817 119 92 102 255
-0.0443848 -0.07 0.97 0.993265 0.0775549 -0.0860817 124 99 106 255
-0.0461181 -0.07 0.95 0.993265 0.0775549 -0.0860817 110 90 105 255
-0.11 -0.0421604 0.95 -0.16797 0.975234 -0.143888 97 86 136 255
-0.09 -0.0357649 0.97 -0.16797 0.975234 -0.143888 104 85 123 255
-0.09 -0.0387157 0.95 -0.16797 0.975234 -0.143888 121 94 106 255
-0.11 -0.0364013 0.97 -0.0305668 0.960504 -0.276582 105 89 125 255
-0.09 -0.0357649 0.97 -0.0305668 0.960504 -0.276582 104 85 123 255
-0.11 -0.0421604 0.95 -0.0305668 0.960504 -0.276582 97 86 136 255
-0.09 -0.0387157 0.95 -0.0211653 0.992648 -0.119175 121 94 106 255
-0.07 -0.0358881 0.97 -0.0211653 0.992648 -0.119175 99 82 119 255
-0.07 -0.0382893 0.95 -0.0211653 0.992648 -0.119175 113 90 105 255
-0.09 -0.0357649 0.97 0.00609682 0.989272 -0.14596 104 85 123 255
-0.07 -0.0358881 0.97 0.00609682 0.989272 -0.14596 99 82 119 255
-0.09 -0.0387157 0.95 0.00609682 0.989272 -0.14596 121 94 106 255
-0.0543032 -0.05 0.95 0.569462 0.763296 -0.305109 115 89 101 255
-0.07 -0.0382893 0.95 0.569462 0.763296 -0.305109 113 90 105 255
-0.05 -0.05 0.958031 0.569462 0.763296 -0.305109 115 89 101 255
-0.07 -0.0382893 0.95 0.570961 0.756685 -0.318483 113 90 105 255
-0.05 -0.0449625 0.97 0.570961 0.756685 -0.318483 119 92 102 255
-0.05 -0.05 0.958031 0.570961 0.756685 -0.318483 115 89 101 255
-0.07 -0.0382893 0.95 0.410733 0.905255 -0.108683 113 90 105 255
-0.07 -0.0358881 0.97 0.410733 0.905255 -0.108683 99 82 119 255
-0.05 -0.0449625 0.97 0.410733 0.905255 -0.108683 119 92 102 255
-0.11 -0.0856754 0.97 -0.80336 -0.593601 0.0474522 147 146 158 255
-0.106805 -0.09 0.97 -0.80336 -0.593601 0.0474522 147 146 158 255
-0.105623 -0.09 0.99 -0.80336 -0.593601 0.0474522 139 139 162 255
-0.11 -0.0856754 0.97 -0.805092 -0.591176 0.0483555 147 146 158 255
-0.105623 -0.09 0.99 -0.805092 -0.591176 0.0483555 139 139 162 255
-0.11 -0.0840395 0.99 -0.805092 -0.591176 0.0483555 139 139 162 255
-0.11 -0.09 0.99576 -0.687371 -0.504734 -0.522268 139 139 162 255
-0.11 -0.0840395 0.99 -0.687371 -0.504734 -0.522268 139 139 162 255
-0.105623 -0.09 0.99 -0.687371 -0.504734 -0.522268 139 139 162 255
-0.0930677 -0.05 1.05 -0.426309 0.828688 0.362681 127 149 148 255
-0.11 -0.05 1.0301 -0.426309 0.828688 0.362681 116 122 140 255
-0.11 -0.0587106 1.05 -0.426309 0.828688 0.362681 117 114 138 255
-0.11 -0.0364013 0.97 -0.0316145 0.993426 -0.110027 105 89 125 255
-0.09 -0.0335498 0.99 -0.0316145 0.993426 -0.110027 105 93 127 255
-0.09 -0.0357649 0.97 -0.0316145 0.993426 -0.110027 104 85 123 255
-0.11 -0.0350106 0.99 -0.0726752 0.994953 -0.0691843 106 101 143 255
-0.09 -0.0335498 0.99 -0.0726752 0.994953 -0.0691843 105 93 127 255
-0.11 -0.0364013 0.97 -0.0726752 0.994953 -0.0691843 105 89 125 255
-0.11 -0.0350106 0.99 -0.0726089 0.994045 0.0812543 106 101 143 255
-0.09 -0.0351846 1.01 -0.0726089 0.994045 0.0812543 124 113 119 255
-0.09 -0.0335498 0.99 -0.0726089 0.994045 0.0812543 105 93 127 255
-0.11 -0.0392168 1.01 -0.193563 0.960086 0.201912 119 116 137 255
-0.09 -0.0351846 1.01 -0.193563 0.960086 0.201912 124 113 119 255
-0.11 -0.0350106 0.99 -0.193563 0.960086 0.201912 106 101 143 255
-0.11 -0.0392168 1.01 -0.191807 0.95138 0.241009 119 116 137 255
-0.09 -0.0402511 1.03 -0.191807 0.95138 0.241009 128 134 135 255
-0.09 -0.0351846 1.01 -0.191807 0.95138 0.241009 124 113 119 255
-0.11 -0.0499285 1.03 -0.392343 0.810845 0.434277 116 122 140 255
-0.09 -0.0402511 1.03 -0.392343 0.810845 0.434277 128 134 135 255
-0.11 -0.0392168 1.01 -0.392343 0.810845 0.434277 119 116 137 255
-0.0930677 -0.05 1.05 -0.520565 0.729985 0.44287 127 149 148 255
-0.09 -0.0478124 1.05 -0.520565 0.729985 0.44287 127 149 148 255
-0.11 -0.05 1.0301 -0.520565 0.729985 0.44287 116 122 140 255
-0.09 -0.0478124 1.05 -0.561177 0.666593 0.490647 127 149 148 255
-0.11 -0.0499285 1.03 -0.561177 0.666593 0.490647 116 122 140 255
-0.11 -0.05 1.0301 -0.561177 0.666593 0.490647 116 122 140 255
-0.09 -0.0478124 1.05 -0.412336 0.852164 0.322172 127 149 148 255
-0.09 -0.0402511 1.03 -0.412336 0.852164 0.322172 128 134 135 255
-0.11 -0.0499285 1.03 -0.412336 0.852164 0.322172 116 122 140 255
-0.09 -0.05 1.05492 -0.54599 0.765638 0.340137 127 149 148 255
-0.09 -0.0478124 1.05 -0.54599 0.765638 0.340137 127 149 148 255
-0.0930677 -0.05 1.05 -0.54599 0.765638 0.340137 127 149 148 255
-0.09 -0.11 0.999602 0.00978976 -0.662145 -0.749311 169 171 171 255
-0.09 -0.0991334 0.99 0.00978976 -0.662145 -0.749311 127 126 140 255
-0.07 -0.0988377 0.99 0.00978976 -0.662145 -0.749311 129 129 124 255
-0.09 -0.11 0.999602 -0.0422792 -0.606958 -0.793608 169 171 171 255
-0.07 -0.0988377 0.99 -0.0422792 -0.606958 -0.793608 129 129 124 255
-0.07 -0.11 0.998537 -0.0422792 -0.606958 -0.793608 171 172 172 255
-0.07 -0.05 1.05303 0.180045 0.484821 0.855881 129 152 144 255
-0.09 -0.07 1.06857 0.180045 0.484821 0.855881 131 199 199 255
-0.07 -0.07 1.06436 0.180045 0.484821 0.855881 129 192 192 255
-0.09 -0.05 1.05492 0.077821 0.561913 0.823528 127 149 148 255
-0.09 -0.07 1.06857 0.077821 0.561913 0.823528 131 199 199 255
-0.07 -0.05 1.05303 0.077821 0.561913 0.823528 129 152 144 255
-0.09 -0.0357649 0.97 0.0060592 0.983168 -0.182602 104 85 123 255
-0.07 -0.0321736 0.99 0.0060592 0.983168 -0.182602 109 87 117 255
-0.07 -0.0358881 0.97 0.0060592 0.983168 -0.182602 99 82 119 255
-0.09 -0.0335498 0.99 -0.0682322 0.991606 -0.109826 105 93 127 255
-0.07 -0.0321736 0.99 -0.0682322 0.991606 -0.109826 109 87 117 255
-0.09 -0.0357649 0.97 -0.0682322 0.991606 -0.109826 104 85 123 255
-0.09 -0.0335498 0.99 -0.0676108 0.982575 0.173135 105 93 127 255
-0.07 -0.0356977 1.01 -0.0676108 0.982575 0.173135 122 102 104 255
-0.07 -0.0321736 0.99 -0.0676108 0.982575 0.173135 109 87 117 255
-0.09 -0.0351846 1.01 0.0255611 0.99635 0.0814427 124 113 119 255
-0.07 -0.0356977 1.01 0.0255611 0.99635 0.0814427 122 102 104 255
-0.09 -0.0335498 0.99 0.0255611 0.99635 0.0814427 105 93 127 255
-0.09 -0.0351846 1.01 0.0244776 0.954116 0.298436 124 113 119 255
-0.07 -0.0419534 1.03 0.0244776 0.954116 0.298436 130 142 136 255
-0.07 -0.0356977 1.01 0.0244776 0.954116 0.298436 122 102 104 255
-0.09 -0.0402511 1.03 0.0822311 0.966096 0.244737 128 134 135 255
-0.07 -0.0419534 1.03 0.0822311 0.966096 0.244737 130 142 136 255
-0.09 -0.0351846 1.01 0.0822311 0.966096 0.244737 124 113 119 255
-0.09 -0.0402511 1.03 0.0803272 0.943728 0.320819 128 134 135 255
-0.07 -0.0487524 1.05 0.0803272 0.943728 0.320819 129 152 144 255
-0.07 -0.0419534 1.03 0.0803272 0.943728 0.320819 130 142 136 255
-0.09 -0.0478124 1.05 0.0439225 0.934481 0.353293 127 149 148 255
-0.07 -0.0487524 1.05 0.0439225 0.934481 0.353293 129 152 144 255
-0.09 -0.0402511 1.03 0.0439225 0.934481 0.353293 128 134 135 255
-0.09 -0.0478124 1.05 0.0429144 0.913034 0.405619 127 149 148 255
-0.09 -0.05 1.05492 0.0429144 0.913034 0.405619 127 149 148 255
-0.07 -0.0487524 1.05 0.0429144 0.913034 0.405619 129 152 144 255
-0.07 -0.0487524 1.05 0.0359113 0.924279 0.380025 129 152 144 255
-0.09 -0.05 1.05492 0.0359113 0.924279 0.380025 127 149 148 255
-0.07 -0.05 1.05303 0.0359113 0.924279 0.380025 129 152 144 255
-0.05 -0.0807453 1.01 0.920408 -0.248622 0.301722 140 122 119 255
-0.0524999 -0.09 1.01 0.920408 -0.248622 0.301722 140 122 119 255
-0.05 -0.09 1.00237 0.920408 -0.248622 0.301722 140 122 119 255
-0.0524999 -0.09 1.01 0.923681 -0.249506 0.290791 140 122 119 255
-0.05 -0.0807453 1.01 0.923681 -0.249506 0.290791 140 122 119 255
-0.05 -0.07 1.01922 0.923681 -0.249506 0.290791 141 126 123 255
-0.0546029 -0.07 1.03 0.88186 -0.283805 0.376533 145 131 124 255
-0.0524999 -0.09 1.01 0.88186 -0.283805 0.376533 140 122 119 255
-0.05 -0.07 1.01922 0.88186 -0.283805 0.376533 141 126 123 255
-0.0584155 -0.09 1.03 0.943301 -0.179822 0.27901 141 126 122 255
-0.0524999 -0.09 1.01 0.943301 -0.179822 0.27901 140 122 119 255
-0.0546029 -0.07 1.03 0.943301 -0.179822 0.27901 145 131 124 255
-0.0546029 -0.07 1.03 0.908142 -0.173119 0.381193 145 131 124 255
-0.0668105 -0.09 1.05 0.908142 -0.173119 0.381193 130 167 173 255
-0.0584155 -0.09 1.03 0.908142 -0.173119 0.381193 141 126 122 255
-0.0546029 -0.07 1.03 0.911839 -0.195625 0.360943 145 131 124 255
-0.0625197 -0.07 1.05 0.911839 -0.195625 0.360943 119 180 180 255
-0.0668105 -0.09 1.05 0.911839 -0.195625 0.360943 130 167 173 255
-0.0625197 -0.07 1.05 0.871299 -0.186928 0.453759 119 180 180 255
-0.07 -0.07 1.06436 0.871299 -0.186928 0.453759 129 192 192 255
-0.0668105 -0.09 1.05 0.871299 -0.186928 0.453759 130 167 173 255
-0.0668105 -0.09 1.05 0.804343 -0.256598 0.535901 130 167 173 255
-0.07 -0.07 1.06436 0.804343 -0.256598 0.535901 129 192 192 255
-0.07 -0.09 1.05479 0.804343 -0.256598 0.535901 130 167 173 255
-0.0546029 -0.07 1.03 0.917751 0.0646694 0.391857 145 131 124 255
-0.05 -0.07 1.01922 0.917751 0.0646694 0.391857 141 126 123 255
-0.05 -0.05 1.01592 0.917751 0.0646694 0.391857 126 115 118 255
-0.0546029 -0.07 1.03 0.836373 0.173582 0.519951 145 131 124 255
-0.05 -0.05 1.01592 0.836373 0.173582 0.519951 126 115 118 255
-0.0587537 -0.05 1.03 0.836373 0.173582 0.519951 126 119 118 255
-0.0587537 -0.05 1.03 0.912961 0.189477 0.361387 126 119 118 255
-0.0625197 -0.07 1.05 0.912961 0.189477 0.361387 119 180 180 255
-0.0546029 -0.07 1.03 0.912961 0.189477 0.361387 145 131 124 255
-0.0587537 -0.05 1.03 0.871513 0.254844 0.41895 126 119 118 255
-0.068368 -0.05 1.05 0.871513 0.254844 0.41895 129 152 144 255
-0.0625197 -0.07 1.05 0.871513 0.254844 0.41895 119 180 180 255
-0.068368 -0.05 1.05 0.852873 0.249394 0.458705 129 152 144 255
-0.07 -0.05 1.05303 0.852873 0.249394 0.458705 129 152 144 255
-0.0625197 -0.07 1.05 0.852873 0.249394 0.458705 119 180 180 255
-0.0625197 -0.07 1.05 0.858047 0.253126 0.446858 119 180 180 255
-0.07 -0.05 1.05303 0.858047 0.253126 0.446858 129 152 144 255
-0.07 -0.07 1.06436 0.858047 0.253126 0.446858 129 192 192 255
-0.07 -0.0358881 0.97 0.394006 0.868389 -0.301096 99 82 119 255
-0.05 -0.0380279 0.99 0.394006 0.868389 -0.301096 95 81 117 255
-0.05 -0.0449625 0.97 0.394006 0.868389 -0.301096 119 92 102 255
-0.07 -0.0321736 0.99 0.276572 0.944835 -0.175483 109 87 117 255
-0.05 -0.0380279 0.99 0.276572 0.944835 -0.175483 95 81 117 255
-0.07 -0.0358881 0.97 0.276572 0.944835 -0.175483 99 82 119 255
-0.07 -0.0321736 0.99 0.263444 0.89999 0.347297 109 87 117 255
-0.05 -0.0457458 1.01 0.263444 0.89999 0.347297 126 115 118 255
-0.05 -0.0380279 0.99 0.263444 0.89999 0.347297 95 81 117 255
-0.07 -0.0356977 1.01 0.443468 0.882692 0.155535 122 102 104 255
-0.05 -0.0457458 1.01 0.443468 0.882692 0.155535 126 115 118 255
-0.07 -0.0321736 0.99 0.443468 0.882692 0.155535 109 87 117 255
-0.05 -0.05 1.01592 0.684444 0.592018 0.425501 126 115 118 255
-0.05 -0.0457458 1.01 0.684444 0.592018 0.425501 126 115 118 255
-0.0587537 -0.05 1.03 0.684444 0.592018 0.425501 126 119 118 255
-0.05 -0.0457458 1.01 0.53501 0.747756 0.393223 126 115 118 255
-0.07 -0.0419534 1.03 0.53501 0.747756 0.393223 130 142 136 255
-0.0587537 -0.05 1.03 0.53501 0.747756 0.393223 126 119 118 255
-0.05 -0.0457458 1.01 0.432361 0.860584 0.26918 126 115 118 255
-0.07 -0.0356977 1.01 0.432361 0.860584 0.26918 122 102 104 255
-0.07 -0.0419534 1.03 0.432361 0.860584 0.26918 130 142 136 255
-0.0587537 -0.05 1.03 0.560375 0.783207 0.269381 126 119 118 255
-0.07 -0.0419534 1.03 0.560375 0.783207 0.269381 130 142 136 255
-0.068368 -0.05 1.05 0.560375 0.783207 0.269381 129 152 144 255
-0.068368 -0.05 1.05 0.586325 0.76697 0.26073 129 152 144 255
-0.07 -0.0419534 1.03 0.586325 0.76697 0.26073 130 142 136 255
-0.07 -0.0487524 1.05 0.586325 0.76697 0.26073 129 152 144 255
-0.07 -0.0487524 1.05 0.577313 0.755182 0.310499 129 152 144 255
-0.07 -0.05 1.05303 0.577313 0.755182 0.310499 129 152 144 255
-0.068368 -0.05 1.05 0.577313 0.755182 0.310499 129 152 144 255
-0.0443848 -0.07 0.97 0.985404 -0.167622 -0.0297016 124 99 106 255
-0.047184 -0.09 0.99 0.985404 -0.167622 -0.0297016 122 108 118 255
-0.0477869 -0.09 0.97 0.985404 -0.167622 -0.0297016 110 99 120 255
-0.0443848 -0.07 0.97 0.99384 -0.105659 0.033442 124 99 106 255
-0.0450578 -0.07 0.99 0.99384 -0.105659 0.033442 131 113 117 255
-0.047184 -0.09 0.99 0.99384 -0.105659 0.033442 122 108 118 255
-0.05 -0.09 1.00237 0.959169 -0.179862 0.218277 140 122 119 255
-0.047184 -0.09 0.99 0.959169 -0.179862 0.218277 122 108 118 255
-0.05 -0.0807453 1.01 0.959169 -0.179862 0.218277 140 122 119 255
-0.047184 -0.09 0.99 0.945931 -0.222416 0.236104 122 108 118 255
-0.0474735 -0.07 1.01 0.945931 -0.222416 0.236104 141 126 123 255
-0.05 -0.0807453 1.01 0.945931 -0.222416 0.236104 140 122 119 255
-0.047184 -0.09 0.99 0.9873 -0.104963 0.119251 122 108 118 255
-0.0450578 -0.07 0.99 0.9873 -0.104963 0.119251 131 113 117 255
-0.0474735 -0.07 1.01 0.9873 -0.104963 0.119251 141 126 123 255
-0.0474735 -0.07 1.01 0.940562 -0.221153 0.257747 141 126 123 255
-0.05 -0.07 1.01922 0.940562 -0.221153 0.257747 141 126 123 255
-0.05 -0.0807453 1.01 0.940562 -0.221153 0.257747 140 122 119 255
-0.0459464 -0.05 0.97 0.996405 0.0778001 0.0335283 119 92 102 255
-0.0450578 -0.07 0.99 0.996405 0.0778001 0.0335283 131 113 117 255
-0.0443848 -0.07 0.97 0.996405 0.0778001 0.0335283 124 99 106 255
-0.0459464 -0.05 0.97 0.999171 0.00386067 -0.0405341 119 92 102 255
-0.045135 -0.05 0.99 0.999171 0.00386067 -0.0405341 126 103 112 255
-0.0450578 -0.07 0.99 0.999171 0.00386067 -0.0405341 131 113 117 255
-0.045135 -0.05 0.99 0.992777 0.00383596 0.119912 126 103 112 255
-0.0474735 -0.07 1.01 0.992777 0.00383596 0.119912 141 126 123 255
-0.0450578 -0.07 0.99 0.992777 0.00383596 0.119912 131 113 117 255
-0.045135 -0.05 0.99 0.992442 0.00650363 0.122541 126 103 112 255
-0.0476045 -0.05 1.01 0.992442 0.00650363 0.122541 126 115 118 255
-0.0474735 -0.07 1.01 0.992442 0.00650363 0.122541 141 126 123 255
-0.0476045 -0.05 1.01 0.926949 0.00607444 0.375138 126 115 118 255
-0.05 -0.05 1.01592 0.926949 0.00607444 0.375138 126 115 118 255
-0.0474735 -0.07 1.01 0.926949 0.00607444 0.375138 141 126 123 255
-0.0474735 -0.07 1.01 0.963527 0.0435754 0.26404 141 126 123 255
-0.05 -0.05 1.01592 0.963527 0.0435754 0.26404 126 115 118 255
-0.05 -0.07 1.01922 0.963527 0.0435754 0.26404 141 126 123 255
3 0 1 2 
3 3 4 5 
3 6 7 8 
3 9 10 11 
3 12 13 14 
3 15 16 17 
3 18 19 20 
3 21 22 23 
3 24 25 26 
3 27 28 29 
3 30 31 32 
3 33 34 35 
3 36 37 38 
3 39 40 41 
3 42 43 44 
3 45 46 47 
3 48 49 50 
3 51 52 53 
3 54 55 56 
3 57 58 59 
3 60 61 62 
3 63 64 65 
3 66 67 68 
3 69 70 71 
3 72 73 74 
3 75 76 77 
3 78 79 80 
3 81 82 83 
3 84 85 86 
3 87 88 89 
3 90 91 92 
3 93 94 95 
3 96 97 98 
3 99 100 101 
3 102 103 104 
3 105 106 107 
3 108 109 110 
3 111 112 113 
3 114 115 116 
3 117 118 119 
3 120 121 122 
3 123 124 125 
3 126 127 128 
3 129 130 131 
3 132 133 134 
3 135 136 137 
3 138 139 140 
3 141 142 143 
3 144 145 146 
3 147 148 149 
3 150 151 152 
3 153 154 155 
3 156 157 158 
3 159 160 161 
3 162 163 164 
3 165 166 167 
3 168 169 170 
3 171 172 173 
3 174 175 176 
3 177 178 179 
3 180 181 182 
3 183 184 185 
3 186 187 188 
3 189 190 191 
3 192 193 194 
3 195 196 197 
3 198 199 200 
3 201 202 203 
3 204 205 206 
3 207 208 209 
3 210 211 212 
3 213 214 215 
3 216 217 218 
3 219 220 221 
3 222 223 224 
3 225 226 227 
3 228 229 230 
3 231 232 233 
3 234 235 236 
3 237 238 239 
3 240 241 242 
3 243 244 245 
3 246 247 248 
3 249 250 251 
3 252 253 254 
3 255 256 257 
3 258 259 260 
3 261 262 263 
3 264 265 266 
3 267 268 269 
3 270 271 272 
3 273 274 275 
3 276 277 278 
3 279 280 281 
3 282 283 284 
3 285 286 287 
3 288 289 290 
3 291 292 293 
3 294 295 296 
3 297 298 299 
3 300 301 302 
3 303 304 305 
3 306 307 308 
3 309 310 311 
3 312 313 314 
3 315 316 317 
3 318 319 320 
3 321 322 323 
3 324 325 326 
3 327 328 329 
3 330 331 332 
3 333 334 335 
3 336 337 338 
3 339 340 341 
3 342 343 344 
3 345 346 347 
3 348 349 350 
3 351 352 353 
3 354 355 356 
3 357 358 359 
3 360 361 362 
3 363 364 365 
3 366 367 368 
3 369 370 371 
3 372 373 374 
3 375 376 377 
3 378 379 380 
3 381 382 383 
3 384 385 386 
3 387 388 389 
3 390 391 392 
3 393 394 395 
3 396 397 398 
3 399 400 401 
3 402 403 404 
3 405 406 407 
3 408 409 410 
3 411 412 413 
3 414 415 416 
3 417 418 419 
3 420 421 422 
3 423 424 425 
3 426 427 428 
