ply
format ascii 1.0
element vertex 162
property float x
property float y
property float z
property float normal_x
property float normal_y
property float normal_z
property uchar red
property uchar green
property uchar blue
property uchar alpha
element face 54
property list uchar int vertex_indices
end_header
0.07 0.31 0.920396 -0.967559 -0.0185476 0.251965 147 119 91 255
0.0672928 0.31 0.91 -0.967559 -0.0185476 0.251965 144 114 90 255
0.07 0.29 0.918923 -0.967559 -0.0185476 0.251965 152 128 102 255
0.07 0.29 0.918923 -0.967892 -0.0191865 0.250635 152 128 102 255
0.0672928 0.31 0.91 -0.967892 -0.0191865 0.250635 144 114 90 255
0.0676893 0.29 0.91 -0.967892 -0.0191865 0.250635 152 128 102 255
0.07 0.278426 0.85 -0.429145 -0.832321 0.350822 146 92 54 255
0.07 0.27 0.830008 -0.429145 -0.832321 0.350822 145 93 54 255
0.0863429 0.27 0.85 -0.429145 -0.832321 0.350822 107 72 58 255
0.07 0.278426 0.85 -0.457999 -0.888283 0.0345094 146 92 54 255
0.0863429 0.27 0.85 -0.457999 -0.888283 0.0345094 107 72 58 255
0.0878499 0.27 0.87 -0.457999 -0.888283 0.0345094 115 85 77 255
0.07 0.278426 0.85 -0.489684 -0.869012 0.0709065 146 92 54 255
0.0878499 0.27 0.87 -0.489684 -0.869012 0.0709065 115 85 77 255
0.07 0.280058 0.87 -0.489684 -0.869012 0.0709065 145 111 93 255
0.07 0.280058 0.87 -0.490889 -0.871151 -0.0111543 145 111 93 255
0.0878499 0.27 0.87 -0.490889 -0.871151 -0.0111543 115 85 77 255
0.0873954 0.27 0.89 -0.490889 -0.871151 -0.0111543 121 89 88 255
0.07 0.280058 0.87 -0.575914 -0.812271 0.09241 145 111 93 255
0.0873954 0.27 0.89 -0.575914 -0.812271 0.09241 121 89 88 255
0.07 0.282334 0.89 -0.575914 -0.812271 0.09241 149 124 100 255
0.07 0.282334 0.89 -0.576748 -0.813448 0.0752573 149 124 100 255
0.0873954 0.27 0.89 -0.576748 -0.813448 0.0752573 121 89 88 255
0.09 0.27 0.909961 -0.576748 -0.813448 0.0752573 123 93 88 255
0.09 0.270021 0.91 -0.713117 -0.616635 0.333505 123 93 88 255
0.07 0.282334 0.89 -0.713117 -0.616635 0.333505 149 124 100 255
0.09 0.27 0.909961 -0.713117 -0.616635 0.333505 123 93 88 255
0.07 0.284152 0.91 -0.575458 -0.814472 0.074055 152 128 102 255
0.07 0.282334 0.89 -0.575458 -0.814472 0.074055 149 124 100 255
0.09 0.270021 0.91 -0.575458 -0.814472 0.074055 123 93 88 255
0.09 0.270021 0.91 -0.294601 -0.416962 0.859856 123 93 88 255
0.09 0.29 0.919688 -0.294601 -0.416962 0.859856 164 141 108 255
0.07 0.284152 0.91 -0.294601 -0.416962 0.859856 152 128 102 255
0.07 0.284152 0.91 -0.0209521 -0.836213 0.548004 152 128 102 255
0.09 0.29 0.919688 -0.0209521 -0.836213 0.548004 164 141 108 255
0.07 0.29 0.918923 -0.0209521 -0.836213 0.548004 152 128 102 255
0.09 0.31 0.920535 -0.0381713 -0.0422981 0.998376 161 124 99 255
0.07 0.29 0.918923 -0.0381713 -0.0422981 0.998376 152 128 102 255
0.09 0.29 0.919688 -0.0381713 -0.0422981 0.998376 164 141 108 255
0.07 0.31 0.920396 -0.00696962 -0.0734113 0.997277 147 119 91 255
0.07 0.29 0.918923 -0.00696962 -0.0734113 0.997277 152 128 102 255
0.09 0.31 0.920535 -0.00696962 -0.0734113 0.997277 161 124 99 255
0.11 0.26905 0.89 0.0565914 -0.988131 0.142808 95 75 75 255
0.11 0.27 0.89657 0.0565914 -0.988131 0.142808 95 75 75 255
0.09 0.267905 0.89 0.0565914 -0.988131 0.142808 121 89 88 255
0.09 0.267905 0.89 0.0697155 -0.992117 0.10413 121 89 88 255
0.11 0.27 0.89657 0.0697155 -0.992117 0.10413 95 75 75 255
0.09 0.27 0.909961 0.0697155 -0.992117 0.10413 123 93 88 255
0.09 0.270021 0.91 0.303479 -0.83811 0.45329 123 93 88 255
0.09 0.27 0.909961 0.303479 -0.83811 0.45329 123 93 88 255
0.11 0.27 0.89657 0.303479 -0.83811 0.45329 95 75 75 255
0.09 0.270021 0.91 0.276626 -0.867539 0.413345 123 93 88 255
0.11 0.27 0.89657 0.276626 -0.867539 0.413345 95 75 75 255
0.11 0.276399 0.91 0.276626 -0.867539 0.413345 101 80 76 255
0.11 0.276399 0.91 0.173307 -0.543516 0.821313 101 80 76 255
0.11 0.29 0.919001 0.173307 -0.543516 0.821313 162 137 108 255
0.09 0.270021 0.91 0.173307 -0.543516 0.821313 123 93 88 255
0.09 0.270021 0.91 0.0308985 -0.436118 0.899359 123 93 88 255
0.11 0.29 0.919001 0.0308985 -0.436118 0.899359 162 137 108 255
0.09 0.29 0.919688 0.0308985 -0.436118 0.899359 164 141 108 255
0.11 0.31 0.92031 0.0342627 -0.065256 0.99728 167 129 105 255
0.09 0.29 0.919688 0.0342627 -0.065256 0.99728 164 141 108 255
0.11 0.29 0.919001 0.0342627 -0.065256 0.99728 162 137 108 255
0.09 0.31 0.920535 0.0112783 -0.0423263 0.99904 161 124 99 255
0.09 0.29 0.919688 0.0112783 -0.0423263 0.99904 164 141 108 255
0.11 0.31 0.92031 0.0112783 -0.0423263 0.99904 167 129 105 255
0.13 0.284647 0.87 0.607613 -0.794121 0.0133659 100 80 77 255
0.110857 0.27 0.87 0.607613 -0.794121 0.0133659 95 75 73 255
0.111297 0.27 0.85 0.607613 -0.794121 0.0133659 96 74 59 255
0.13 0.284647 0.87 0.685753 -0.718702 -0.114937 100 80 77 255
0.111297 0.27 0.85 0.685753 -0.718702 -0.114937 96 74 59 255
0.13 0.287845 0.85 0.685753 -0.718702 -0.114937 103 81 73 255
0.13 0.287897 0.89 0.686859 -0.726757 -0.00706393 116 92 79 255
0.111063 0.27 0.89 0.686859 -0.726757 -0.00706393 95 75 75 255
0.110857 0.27 0.87 0.686859 -0.726757 -0.00706393 95 75 73 255
0.13 0.287897 0.89 0.602668 -0.787657 0.128016 116 92 79 255
0.110857 0.27 0.87 0.602668 -0.787657 0.128016 95 75 73 255
0.13 0.284647 0.87 0.602668 -0.787657 0.128016 100 80 77 255
0.123679 0.29 0.91 0.641752 -0.645403 0.414258 132 114 97 251
0.11 0.276399 0.91 0.641752 -0.645403 0.414258 101 80 76 255
0.13 0.29 0.900207 0.641752 -0.645403 0.414258 132 114 97 251
0.13 0.29 0.900207 0.607534 -0.777959 0.160257 132 114 97 251
0.11 0.276399 0.91 0.607534 -0.777959 0.160257 101 80 76 255
0.13 0.287897 0.89 0.607534 -0.777959 0.160257 116 92 79 255
0.11 0.276399 0.91 0.688431 -0.654779 0.311974 101 80 76 255
0.11 0.27 0.89657 0.688431 -0.654779 0.311974 95 75 75 255
0.13 0.287897 0.89 0.688431 -0.654779 0.311974 116 92 79 255
0.11 0.27 0.89657 0.682673 -0.722328 0.110453 95 75 75 255
0.111063 0.27 0.89 0.682673 -0.722328 0.110453 95 75 75 255
0.13 0.287897 0.89 0.682673 -0.722328 0.110453 116 92 79 255
0.123679 0.29 0.91 0.481074 -0.483811 0.731092 132 114 97 251
0.11 0.29 0.919001 0.481074 -0.483811 0.731092 162 137 108 255
0.11 0.276399 0.91 0.481074 -0.483811 0.731092 101 80 76 255
0.13 0.299161 0.91 0.726849 -0.50155 0.469189 132 114 97 251
0.123679 0.29 0.91 0.726849 -0.50155 0.469189 132 114 97 251
0.13 0.29 0.900207 0.726849 -0.50155 0.469189 132 114 97 251
0.13 0.299161 0.91 0.631445 -0.435719 0.641425 132 114 97 251
0.13 0.31 0.917363 0.631445 -0.435719 0.641425 179 152 121 255
0.123679 0.29 0.91 0.631445 -0.435719 0.641425 132 114 97 251
0.13 0.31 0.917363 0.495311 -0.433669 0.752728 179 152 121 255
0.11 0.29 0.919001 0.495311 -0.433669 0.752728 162 137 108 255
0.123679 0.29 0.91 0.495311 -0.433669 0.752728 132 114 97 251
0.13 0.31 0.917363 0.145447 -0.0646 0.987255 179 152 121 255
0.11 0.31 0.92031 0.145447 -0.0646 0.987255 167 129 105 255
0.11 0.29 0.919001 0.145447 -0.0646 0.987255 162 137 108 255
0.128741 0.33 0.85 0.967238 0.248542 0.0517478 161 119 74 255
0.13 0.325102 0.85 0.967238 0.248542 0.0517478 161 119 74 255
0.13 0.329266 0.83 0.967238 0.248542 0.0517478 152 99 57 255
0.128741 0.33 0.85 0.956413 0.287771 0.0496272 161 119 74 255
0.13 0.329266 0.83 0.956413 0.287771 0.0496272 152 99 57 255
0.129779 0.33 0.83 0.956413 0.287771 0.0496272 152 99 57 255
0.129832 0.33 0.87 0.836909 0.533215 -0.123555 163 118 84 255
0.13 0.329736 0.87 0.836909 0.533215 -0.123555 163 118 84 255
0.13 0.325102 0.85 0.836909 0.533215 -0.123555 161 119 74 255
0.129832 0.33 0.87 0.967187 0.248529 -0.0527416 163 118 84 255
0.13 0.325102 0.85 0.967187 0.248529 -0.0527416 161 119 74 255
0.128741 0.33 0.85 0.967187 0.248529 -0.0527416 161 119 74 255
0.120734 0.33 0.89 0.729569 0.59897 0.330098 164 117 78 255
0.13 0.318714 0.89 0.729569 0.59897 0.330098 152 128 105 255
0.13 0.329736 0.87 0.729569 0.59897 0.330098 163 118 84 255
0.120734 0.33 0.89 0.787416 0.501681 0.35818 164 117 78 255
0.13 0.329736 0.87 0.787416 0.501681 0.35818 163 118 84 255
0.129832 0.33 0.87 0.787416 0.501681 0.35818 163 118 84 255
0.0715894 0.33 0.91 -0.524162 0.474607 0.707109 137 105 80 255
0.07 0.33 0.908822 -0.524162 0.474607 0.707109 137 105 80 255
0.07 0.328245 0.91 -0.524162 0.474607 0.707109 137 105 80 255
0.112944 0.33 0.91 0.713915 0.658903 0.237008 165 134 102 255
0.13 0.31152 0.91 0.713915 0.658903 0.237008 179 152 121 255
0.13 0.318714 0.89 0.713915 0.658903 0.237008 152 128 105 255
0.112944 0.33 0.91 0.740081 0.607601 0.288272 165 134 102 255
0.13 0.318714 0.89 0.740081 0.607601 0.288272 152 128 105 255
0.120734 0.33 0.89 0.740081 0.607601 0.288272 164 117 78 255
0.07 0.328245 0.91 -0.479732 0.434378 0.762347 137 105 80 255
0.07 0.31 0.920396 -0.479732 0.434378 0.762347 147 119 91 255
0.0715894 0.33 0.91 -0.479732 0.434378 0.762347 137 105 80 255
0.07 0.31 0.920396 -0.468949 0.436398 0.767883 147 119 91 255
0.09 0.33 0.921243 -0.468949 0.436398 0.767883 150 104 86 255
0.0715894 0.33 0.91 -0.468949 0.436398 0.767883 137 105 80 255
0.07 0.31 0.920396 -0.0069841 -0.0353791 0.99935 147 119 91 255
0.09 0.31 0.920535 -0.0069841 -0.0353791 0.99935 161 124 99 255
0.09 0.33 0.921243 -0.0069841 -0.0353791 0.99935 150 104 86 255
0.11 0.33 0.921677 0.0112621 -0.0681882 0.997609 165 136 103 255
0.09 0.31 0.920535 0.0112621 -0.0681882 0.997609 161 124 99 255
0.11 0.31 0.92031 0.0112621 -0.0681882 0.997609 167 129 105 255
0.09 0.33 0.921243 -0.0216417 -0.0353717 0.99914 150 104 86 255
0.09 0.31 0.920535 -0.0216417 -0.0353717 0.99914 161 124 99 255
0.11 0.33 0.921677 -0.0216417 -0.0353717 0.99914 165 136 103 255
0.112944 0.33 0.91 0.722554 0.666876 0.182186 165 134 102 255
0.11 0.33 0.921677 0.722554 0.666876 0.182186 165 136 103 255
0.13 0.31152 0.91 0.722554 0.666876 0.182186 179 152 121 255
0.11 0.33 0.921677 0.715084 0.6846 0.141342 165 136 103 255
0.13 0.31 0.917363 0.715084 0.6846 0.141342 179 152 121 255
0.13 0.31152 0.91 0.715084 0.6846 0.141342 179 152 121 255
0.11 0.33 0.921677 0.145419 -0.0674676 0.987067 165 136 103 255
0.11 0.31 0.92031 0.145419 -0.0674676 0.987067 167 129 105 255
0.13 0.31 0.917363 0.145419 -0.0674676 0.987067 179 152 121 255
0.09 0.348334 0.85 -0.0518535 0.981645 0.183535 156 99 56 255
0.11 0.345651 0.87 -0.0518535 0.981645 0.183535 161 103 58 255
0.11 0.34939 0.85 -0.0518535 0.981645 0.183535 160 105 58 255
0.09 0.34736 0.87 0.085064 0.995198 0.048435 156 102 59 255
0.11 0.345651 0.87 0.085064 0.995198 0.048435 161 103 58 255
0.09 0.348334 0.85 0.085064 0.995198 0.048435 156 99 56 255
3 0 1 2 
3 3 4 5 
3 6 7 8 
3 9 10 11 
3 12 13 14 
3 15 16 17 
3 18 19 20 
3 21 22 23 
3 24 25 26 
3 27 28 29 
3 30 31 32 
3 33 34 35 
3 36 37 38 
3 39 40 41 
3 42 43 44 
3 45 46 47 
3 48 49 50 
3 51 52 53 
3 54 55 56 
3 57 58 59 
3 60 61 62 
3 63 64 65 
3 66 67 68 
3 69 70 71 
3 72 73 74 
3 75 76 77 
3 78 79 80 
3 81 82 83 
3 84 85 86 
3 87 88 89 
3 90 91 92 
3 93 94 95 
3 96 97 98 
3 99 100 101 
3 102 103 104 
3 105 106 107 
3 108 109 110 
3 111 112 113 
3 114 115 116 
3 117 118 119 
3 120 121 122 
3 123 124 125 
3 126 127 128 
3 129 130 131 
3 132 133 134 
3 135 136 137 
3 138 139 140 
3 141 142 143 
3 144 145 146 
3 147 148 149 
3 150 151 152 
3 153 154 155 
3 156 157 158 
3 159 160 161 
