ply
format ascii 1.0
element vertex 198
property float x
property float y
property float z
property float normal_x
property float normal_y
property float normal_z
property uchar red
property uchar green
property uchar blue
property uchar alpha
element face 66
property list uchar int vertex_indices
end_header
0.11 -0.05 0.913173 -0.148681 0.976257 0.157531 211 167 101 255
0.11 -0.0494879 0.91 -0.148681 0.976257 0.157531 211 167 101 255
0.106638 -0.05 0.91 -0.148681 0.976257 0.157531 211 167 101 255
0.12241 -0.11 0.85 0.751574 -0.0612204 0.656802 199 155 92 255
0.13 -0.11 0.841314 0.751574 -0.0612204 0.656802 199 155 92 255
0.13 -0.09 0.843179 0.751574 -0.0612204 0.656802 217 172 104 255
0.12241 -0.11 0.85 0.599979 0.0447288 0.798764 199 155 92 255
0.13 -0.09 0.843179 0.599979 0.0447288 0.798764 217 172 104 255
0.120919 -0.09 0.85 0.599979 0.0447288 0.798764 217 172 104 255
0.11 -0.11 0.864014 0.709504 -0.319157 0.628285 199 159 107 255
0.12241 -0.11 0.85 0.709504 -0.319157 0.628285 199 155 92 255
0.11 -0.0982162 0.87 0.709504 -0.319157 0.628285 215 170 106 255
0.12241 -0.11 0.85 0.746565 -0.256019 0.614081 199 155 92 255
0.112818 -0.09 0.87 0.746565 -0.256019 0.614081 215 170 106 255
0.11 -0.0982162 0.87 0.746565 -0.256019 0.614081 215 170 106 255
0.12241 -0.11 0.85 0.924646 0.0689328 0.374538 199 155 92 255
0.120919 -0.09 0.85 0.924646 0.0689328 0.374538 217 172 104 255
0.112818 -0.09 0.87 0.924646 0.0689328 0.374538 215 170 106 255
0.112818 -0.09 0.87 0.88234 -0.302581 0.360446 215 170 106 255
0.11 -0.09 0.876897 0.88234 -0.302581 0.360446 215 170 106 255
0.11 -0.0982162 0.87 0.88234 -0.302581 0.360446 215 170 106 255
0.13 -0.0825647 0.85 0.484267 -0.591464 0.644714 217 172 104 255
0.120919 -0.09 0.85 0.484267 -0.591464 0.644714 217 172 104 255
0.13 -0.09 0.843179 0.484267 -0.591464 0.644714 217 172 104 255
0.13 -0.070614 0.87 0.716178 -0.63477 0.290096 217 171 104 255
0.112818 -0.09 0.87 0.716178 -0.63477 0.290096 215 170 106 255
0.120919 -0.09 0.85 0.716178 -0.63477 0.290096 217 172 104 255
0.13 -0.070614 0.87 0.575022 -0.702309 0.419655 217 171 104 255
0.120919 -0.09 0.85 0.575022 -0.702309 0.419655 217 172 104 255
0.13 -0.0825647 0.85 0.575022 -0.702309 0.419655 217 172 104 255
0.115702 -0.07 0.89 0.747588 -0.371472 0.550564 209 166 101 255
0.11 -0.0814744 0.89 0.747588 -0.371472 0.550564 218 172 106 255
0.13 -0.07 0.870585 0.747588 -0.371472 0.550564 217 171 104 255
0.13 -0.07 0.870585 0.73952 -0.464255 0.487418 217 171 104 255
0.11 -0.0814744 0.89 0.73952 -0.464255 0.487418 218 172 106 255
0.13 -0.070614 0.87 0.73952 -0.464255 0.487418 217 171 104 255
0.11 -0.0814744 0.89 0.707297 -0.59253 0.385538 218 172 106 255
0.11 -0.09 0.876897 0.707297 -0.59253 0.385538 215 170 106 255
0.13 -0.070614 0.87 0.707297 -0.59253 0.385538 217 171 104 255
0.11 -0.09 0.876897 0.715663 -0.634314 0.292356 215 170 106 255
0.112818 -0.09 0.87 0.715663 -0.634314 0.292356 215 170 106 255
0.13 -0.070614 0.87 0.715663 -0.634314 0.292356 217 171 104 255
0.115702 -0.07 0.89 0.851819 -0.423264 0.308629 209 166 101 255
0.11 -0.07 0.905736 0.851819 -0.423264 0.308629 211 167 102 255
0.11 -0.0814744 0.89 0.851819 -0.423264 0.308629 218 172 106 255
0.113166 -0.05 0.85 -0.26892 0.654013 0.70707 191 142 86 255
0.11 -0.05 0.848796 -0.26892 0.654013 0.70707 191 142 86 255
0.11 -0.0513018 0.85 -0.26892 0.654013 0.70707 191 142 86 255
0.13 -0.066827 0.87 -0.394826 0.511847 0.762971 217 171 104 255
0.13 -0.05 0.858711 -0.394826 0.511847 0.762971 204 159 98 255
0.113166 -0.05 0.85 -0.394826 0.511847 0.762971 191 142 86 255
0.11 -0.0513018 0.85 -0.256036 0.62268 0.739402 191 142 86 255
0.13 -0.066827 0.87 -0.256036 0.62268 0.739402 217 171 104 255
0.113166 -0.05 0.85 -0.256036 0.62268 0.739402 191 142 86 255
0.11 -0.0522628 0.87 0.588224 0.807766 0.0388166 204 162 99 255
0.13 -0.066827 0.87 0.588224 0.807766 0.0388166 217 171 104 255
0.11 -0.0513018 0.85 0.588224 0.807766 0.0388166 191 142 86 255
0.117369 -0.05 0.89 0.803396 -0.0669942 0.591664 212 167 103 255
0.115702 -0.07 0.89 0.803396 -0.0669942 0.591664 209 166 101 255
0.13 -0.07 0.870585 0.803396 -0.0669942 0.591664 217 171 104 255
0.11 -0.0522628 0.87 0.635105 0.705781 -0.31387 204 162 99 255
0.117369 -0.05 0.89 0.635105 0.705781 -0.31387 212 167 103 255
0.13 -0.07 0.870585 0.635105 0.705781 -0.31387 217 171 104 255
0.13 -0.066827 0.87 0.130853 0.179691 0.974981 217 171 104 255
0.11 -0.0522628 0.87 0.130853 0.179691 0.974981 204 162 99 255
0.13 -0.07 0.870585 0.130853 0.179691 0.974981 217 171 104 255
0.117369 -0.05 0.89 0.68211 0.654846 -0.325427 212 167 103 255
0.11 -0.0522628 0.87 0.68211 0.654846 -0.325427 204 162 99 255
0.11 -0.05 0.874553 0.68211 0.654846 -0.325427 204 162 99 255
0.11 -0.07 0.905736 0.933214 -0.121604 0.338119 211 167 102 255
0.115702 -0.07 0.89 0.933214 -0.121604 0.338119 209 166 101 255
0.11 -0.0581453 0.91 0.933214 -0.121604 0.338119 211 167 101 255
0.115702 -0.07 0.89 0.879593 -0.254763 0.401762 209 166 101 255
0.112359 -0.05 0.91 0.879593 -0.254763 0.401762 211 167 101 255
0.11 -0.0581453 0.91 0.879593 -0.254763 0.401762 211 167 101 255
0.115702 -0.07 0.89 0.966868 -0.0806259 0.242209 209 166 101 255
0.117369 -0.05 0.89 0.966868 -0.0806259 0.242209 212 167 103 255
0.112359 -0.05 0.91 0.966868 -0.0806259 0.242209 211 167 101 255
0.112359 -0.05 0.91 0.781678 -0.226404 0.581138 211 167 101 255
0.11 -0.05 0.913173 0.781678 -0.226404 0.581138 211 167 101 255
0.11 -0.0581453 0.91 0.781678 -0.226404 0.581138 211 167 101 255
0.11 -0.0494879 0.91 0.209518 0.965318 0.155766 211 167 101 255
0.11 -0.05 0.913173 0.209518 0.965318 0.155766 211 167 101 255
0.112359 -0.05 0.91 0.209518 0.965318 0.155766 211 167 101 255
0.15 -0.117576 0.85 -0.0363716 0.710127 0.703134 188 149 90 255
0.15 -0.11 0.842349 -0.0363716 0.710127 0.703134 188 149 90 255
0.13 -0.11 0.841314 -0.0363716 0.710127 0.703134 199 155 92 255
0.15 -0.117576 0.85 -0.111353 0.607618 0.786385 188 149 90 255
0.13 -0.11 0.841314 -0.111353 0.607618 0.786385 199 155 92 255
0.13 -0.121241 0.85 -0.111353 0.607618 0.786385 164 129 79 255
0.13 -0.121241 0.85 -0.139788 0.762777 0.631373 164 129 79 255
0.13 -0.13 0.860582 -0.139788 0.762777 0.631373 185 138 88 255
0.15 -0.117576 0.85 -0.139788 0.762777 0.631373 188 149 90 255
0.15 -0.117576 0.85 -0.236054 0.821744 0.518666 188 149 90 255
0.13 -0.13 0.860582 -0.236054 0.821744 0.518666 185 138 88 255
0.15 -0.13 0.869685 -0.236054 0.821744 0.518666 172 138 81 255
0.137473 -0.13 0.93 -0.0204968 0.856004 -0.516564 221 175 107 255
0.15 -0.1297 0.93 -0.0204968 0.856004 -0.516564 220 174 107 255
0.15 -0.13 0.929503 -0.0204968 0.856004 -0.516564 220 174 107 255
0.15 -0.09 0.840674 -0.0514792 0.083327 0.995192 216 172 105 255
0.13 -0.11 0.841314 -0.0514792 0.083327 0.995192 199 155 92 255
0.15 -0.11 0.842349 -0.0514792 0.083327 0.995192 188 149 90 255
0.13 -0.09 0.843179 0.123713 -0.0920945 0.988035 217 172 104 255
0.13 -0.11 0.841314 0.123713 -0.0920945 0.988035 199 155 92 255
0.15 -0.09 0.840674 0.123713 -0.0920945 0.988035 216 172 105 255
0.13 -0.0825647 0.85 0.091876 -0.673161 0.733766 217 172 104 255
0.13 -0.09 0.843179 0.091876 -0.673161 0.733766 217 172 104 255
0.15 -0.09 0.840674 0.091876 -0.673161 0.733766 216 172 105 255
0.13 -0.0825647 0.85 0.0931335 -0.671494 0.735134 217 172 104 255
0.15 -0.09 0.840674 0.0931335 -0.671494 0.735134 216 172 105 255
0.15 -0.0797907 0.85 0.0931335 -0.671494 0.735134 200 155 94 255
0.131349 -0.07 0.87 0.338028 -0.742887 0.577802 217 171 104 255
0.13 -0.070614 0.87 0.338028 -0.742887 0.577802 217 171 104 255
0.15 -0.07 0.859089 0.338028 -0.742887 0.577802 200 155 94 255
0.13 -0.070614 0.87 0.387794 -0.627109 0.675537 217 171 104 255
0.15 -0.0797907 0.85 0.387794 -0.627109 0.675537 200 155 94 255
0.15 -0.07 0.859089 0.387794 -0.627109 0.675537 200 155 94 255
0.13 -0.070614 0.87 0.118225 -0.852404 0.509343 217 171 104 255
0.13 -0.0825647 0.85 0.118225 -0.852404 0.509343 217 172 104 255
0.15 -0.0797907 0.85 0.118225 -0.852404 0.509343 200 155 94 255
0.131349 -0.07 0.87 0.299425 -0.658049 0.690881 217 171 104 255
0.13 -0.07 0.870585 0.299425 -0.658049 0.690881 217 171 104 255
0.13 -0.070614 0.87 0.299425 -0.658049 0.690881 217 171 104 255
0.13 -0.05 0.858711 0.79489 0.338027 0.503872 204 159 98 255
0.13 -0.066827 0.87 0.79489 0.338027 0.503872 217 171 104 255
0.131349 -0.07 0.87 0.79489 0.338027 0.503872 217 171 104 255
0.15 -0.07 0.859089 0.447779 0.462225 0.765403 200 155 94 255
0.13 -0.05 0.858711 0.447779 0.462225 0.765403 204 159 98 255
0.131349 -0.07 0.87 0.447779 0.462225 0.765403 217 171 104 255
0.15 -0.05 0.850125 0.364765 0.380801 0.849669 165 132 90 255
0.13 -0.05 0.858711 0.364765 0.380801 0.849669 204 159 98 255
0.15 -0.07 0.859089 0.364765 0.380801 0.849669 200 155 94 255
0.13 -0.066827 0.87 0.392089 0.166736 0.904691 217 171 104 255
0.13 -0.07 0.870585 0.392089 0.166736 0.904691 217 171 104 255
0.131349 -0.07 0.87 0.392089 0.166736 0.904691 217 171 104 255
0.15 -0.148929 0.85 0.235611 -0.694036 0.680296 175 119 71 255
0.15 -0.15 0.848908 0.235611 -0.694036 0.680296 175 119 71 255
0.17 -0.15 0.841981 0.235611 -0.694036 0.680296 190 146 98 255
0.15 -0.148929 0.85 0.182025 -0.807047 0.561732 175 119 71 255
0.17 -0.15 0.841981 0.182025 -0.807047 0.561732 190 146 98 255
0.17 -0.144419 0.85 0.182025 -0.807047 0.561732 190 146 98 255
0.163243 -0.11 0.85 -0.376576 0.658287 0.651805 164 128 75 255
0.15 -0.11 0.842349 -0.376576 0.658287 0.651805 188 149 90 255
0.15 -0.117576 0.85 -0.376576 0.658287 0.651805 188 149 90 255
0.15 -0.11 0.842349 -0.467039 0.358315 0.808384 188 149 90 255
0.163243 -0.11 0.85 -0.467039 0.358315 0.808384 164 128 75 255
0.17 -0.101192 0.85 -0.467039 0.358315 0.808384 164 128 75 255
0.17 -0.09 0.844546 -0.47296 0.385942 0.792059 191 152 92 255
0.15 -0.11 0.842349 -0.47296 0.385942 0.792059 188 149 90 255
0.17 -0.101192 0.85 -0.47296 0.385942 0.792059 164 128 75 255
0.15 -0.09 0.840674 -0.189425 0.0819271 0.978471 216 172 105 255
0.15 -0.11 0.842349 -0.189425 0.0819271 0.978471 188 149 90 255
0.17 -0.09 0.844546 -0.189425 0.0819271 0.978471 191 152 92 255
0.15 -0.0797907 0.85 -0.1415 -0.66764 0.730914 200 155 94 255
0.15 -0.09 0.840674 -0.1415 -0.66764 0.730914 216 172 105 255
0.17 -0.09 0.844546 -0.1415 -0.66764 0.730914 191 152 92 255
0.15 -0.0797907 0.85 -0.117353 -0.636914 0.761951 200 155 94 255
0.17 -0.09 0.844546 -0.117353 -0.636914 0.761951 191 152 92 255
0.17 -0.0834758 0.85 -0.117353 -0.636914 0.761951 191 152 92 255
0.17 -0.126453 0.87 -0.645115 0.468637 0.603495 198 151 95 255
0.17 -0.11 0.857223 -0.645115 0.468637 0.603495 164 128 75 255
0.163243 -0.11 0.85 -0.645115 0.468637 0.603495 164 128 75 255
0.17 -0.126453 0.87 -0.372424 0.651029 0.661409 198 151 95 255
0.163243 -0.11 0.85 -0.372424 0.651029 0.661409 164 128 75 255
0.15 -0.117576 0.85 -0.372424 0.651029 0.661409 188 149 90 255
0.15238 -0.13 0.87 -0.16677 0.828523 0.534544 172 138 81 255
0.17 -0.126453 0.87 -0.16677 0.828523 0.534544 198 151 95 255
0.15 -0.117576 0.85 -0.16677 0.828523 0.534544 188 149 90 255
0.15 -0.13 0.869685 -0.0705538 0.843535 0.53242 172 138 81 255
0.15238 -0.13 0.87 -0.0705538 0.843535 0.53242 172 138 81 255
0.15 -0.117576 0.85 -0.0705538 0.843535 0.53242 188 149 90 255
0.17 -0.11 0.857223 -0.637093 0.488782 0.595991 164 128 75 255
0.17 -0.101192 0.85 -0.637093 0.488782 0.595991 164 128 75 255
0.163243 -0.11 0.85 -0.637093 0.488782 0.595991 164 128 75 255
0.17 -0.0834758 0.85 -0.118231 -0.641684 0.757802 191 152 92 255
0.17 -0.07 0.861411 -0.118231 -0.641684 0.757802 191 149 94 255
0.15 -0.0797907 0.85 -0.118231 -0.641684 0.757802 200 155 94 255
0.15 -0.0797907 0.85 -0.0847826 -0.677899 0.73025 200 155 94 255
0.17 -0.07 0.861411 -0.0847826 -0.677899 0.73025 191 149 94 255
0.15 -0.07 0.859089 -0.0847826 -0.677899 0.73025 200 155 94 255
0.17 -0.13 0.870989 -0.0539824 0.268188 0.961853 198 151 95 255
0.17 -0.126453 0.87 -0.0539824 0.268188 0.961853 198 151 95 255
0.15238 -0.13 0.87 -0.0539824 0.268188 0.961853 172 138 81 255
0.15 -0.13 0.929503 0.587894 0.692599 -0.417956 220 174 107 255
0.15 -0.1297 0.93 0.587894 0.692599 -0.417956 220 174 107 255
0.150353 -0.13 0.93 0.587894 0.692599 -0.417956 220 174 107 255
0.19 -0.102491 0.85 0.276015 0.719948 0.636781 188 173 147 255
0.19 -0.09 0.835877 0.276015 0.719948 0.636781 196 186 172 255
0.17 -0.09 0.844546 0.276015 0.719948 0.636781 191 152 92 255
0.19 -0.102491 0.85 0.0284378 0.437853 0.898596 188 173 147 255
0.17 -0.09 0.844546 0.0284378 0.437853 0.898596 191 152 92 255
0.17 -0.101192 0.85 0.0284378 0.437853 0.898596 164 128 75 255
0.17 -0.101192 0.85 0.041151 0.633597 0.772568 164 128 75 255
0.17 -0.11 0.857223 0.041151 0.633597 0.772568 164 128 75 255
0.19 -0.102491 0.85 0.041151 0.633597 0.772568 188 173 147 255
0.19 -0.102491 0.85 -0.0123612 0.71013 0.703962 188 173 147 255
0.17 -0.11 0.857223 -0.0123612 0.71013 0.703962 164 128 75 255
0.19 -0.11 0.857575 -0.0123612 0.71013 0.703962 188 173 147 255
3 0 1 2 
3 3 4 5 
3 6 7 8 
3 9 10 11 
3 12 13 14 
3 15 16 17 
3 18 19 20 
3 21 22 23 
3 24 25 26 
3 27 28 29 
3 30 31 32 
3 33 34 35 
3 36 37 38 
3 39 40 41 
3 42 43 44 
3 45 46 47 
3 48 49 50 
3 51 52 53 
3 54 55 56 
3 57 58 59 
3 60 61 62 
3 63 64 65 
3 66 67 68 
3 69 70 71 
3 72 73 74 
3 75 76 77 
3 78 79 80 
3 81 82 83 
3 84 85 86 
3 87 88 89 
3 90 91 92 
3 93 94 95 
3 96 97 98 
3 99 100 101 
3 102 103 104 
3 105 106 107 
3 108 109 110 
3 111 112 113 
3 114 115 116 
3 117 118 119 
3 120 121 122 
3 123 124 125 
3 126 127 128 
3 129 130 131 
3 132 133 134 
3 135 136 137 
3 138 139 140 
3 141 142 143 
3 144 145 146 
3 147 148 149 
3 150 151 152 
3 153 154 155 
3 156 157 158 
3 159 160 161 
3 162 163 164 
3 165 166 167 
3 168 169 170 
3 171 172 173 
3 174 175 176 
3 177 178 179 
3 180 181 182 
3 183 184 185 
3 186 187 188 
3 189 190 191 
3 192 193 194 
3 195 196 197 
