ply
format ascii 1.0
element vertex 300
property float x
property float y
property float z
property float normal_x
property float normal_y
property float normal_z
property uchar red
property uchar green
property uchar blue
property uchar alpha
element face 100
property list uchar int vertex_indices
end_header
-0.0313177 0.21 0.93 -0.949437 -0.310479 0.0466166 191 176 170 255
-0.03884 0.23 0.91 -0.949437 -0.310479 0.0466166 206 202 200 255
-0.0322997 0.21 0.91 -0.949437 -0.310479 0.0466166 189 173 165 245
-0.0414402 0.23 0.93 -0.886287 -0.448572 -0.115228 141 113 100 255
-0.03884 0.23 0.91 -0.886287 -0.448572 -0.115228 206 202 200 255
-0.0313177 0.21 0.93 -0.886287 -0.448572 -0.115228 191 176 170 255
-0.0471158 0.23 0.85 -0.986568 0.088966 0.136996 160 101 60 255
-0.0480895 0.25 0.83 -0.986568 0.088966 0.136996 160 103 57 255
-0.049893 0.23 0.83 -0.986568 0.088966 0.136996 160 101 58 255
-0.0419875 0.25 0.85 -0.928943 0.238196 0.283421 159 103 56 255
-0.0480895 0.25 0.83 -0.928943 0.238196 0.283421 160 103 57 255
-0.0471158 0.23 0.85 -0.928943 0.238196 0.283421 160 101 60 255
-0.0441932 0.23 0.87 -0.959102 0.245929 0.140153 158 100 61 255
-0.0419875 0.25 0.85 -0.959102 0.245929 0.140153 159 103 56 255
-0.0471158 0.23 0.85 -0.959102 0.245929 0.140153 160 101 60 255
-0.0392687 0.25 0.87 -0.962649 0.237029 0.130862 140 111 95 255
-0.0419875 0.25 0.85 -0.962649 0.237029 0.130862 159 103 56 255
-0.0441932 0.23 0.87 -0.962649 0.237029 0.130862 158 100 61 255
-0.0416306 0.23 0.89 -0.96357 0.237256 0.123463 154 100 62 255
-0.0392687 0.25 0.87 -0.96357 0.237256 0.123463 140 111 95 255
-0.0441932 0.23 0.87 -0.96357 0.237256 0.123463 158 100 61 255
-0.0412789 0.25 0.89 -0.994835 0.0174951 -0.0999907 157 107 94 255
-0.0392687 0.25 0.87 -0.994835 0.0174951 -0.0999907 140 111 95 255
-0.0416306 0.23 0.89 -0.994835 0.0174951 -0.0999907 154 100 62 255
-0.03884 0.23 0.91 -0.990255 0.0174146 0.138174 206 202 200 255
-0.0412789 0.25 0.89 -0.990255 0.0174146 0.138174 157 107 94 255
-0.0416306 0.23 0.89 -0.990255 0.0174146 0.138174 154 100 62 255
-0.0386698 0.25 0.91 -0.991562 0.00843659 0.129356 188 181 178 255
-0.0412789 0.25 0.89 -0.991562 0.00843659 0.129356 157 107 94 255
-0.03884 0.23 0.91 -0.991562 0.00843659 0.129356 206 202 200 255
-0.0414402 0.23 0.93 -0.991619 0.00843707 -0.128923 141 113 100 255
-0.0386698 0.25 0.91 -0.991619 0.00843707 -0.128923 188 181 178 255
-0.03884 0.23 0.91 -0.991619 0.00843707 -0.128923 206 202 200 255
-0.0437358 0.25 0.93 -0.963439 -0.110584 -0.244041 170 154 143 255
-0.0386698 0.25 0.91 -0.963439 -0.110584 -0.244041 188 181 178 255
-0.0414402 0.23 0.93 -0.963439 -0.110584 -0.244041 141 113 100 255
-0.03 0.25 0.944693 -0.728887 0.0663511 0.681411 194 187 184 255
-0.0437358 0.25 0.93 -0.728887 0.0663511 0.681411 170 154 143 255
-0.03 0.23 0.94664 -0.728887 0.0663511 0.681411 211 210 210 255
-0.03 0.23 0.94664 -0.820381 -0.094164 0.564011 211 210 210 255
-0.0437358 0.25 0.93 -0.820381 -0.094164 0.564011 170 154 143 255
-0.0414402 0.23 0.93 -0.820381 -0.094164 0.564011 141 113 100 255
-0.03 0.27 0.931769 -0.807267 0.32032 0.495697 189 177 170 255
-0.0310861 0.27 0.93 -0.807267 0.32032 0.495697 189 177 170 255
-0.03 0.25 0.944693 -0.807267 0.32032 0.495697 194 187 184 255
-0.03 0.25 0.944693 -0.663138 0.419424 0.619944 194 187 184 255
-0.0310861 0.27 0.93 -0.663138 0.419424 0.619944 189 177 170 255
-0.0437358 0.25 0.93 -0.663138 0.419424 0.619944 170 154 143 255
-0.01 0.196212 0.87 -0.268054 -0.960694 0.0722044 160 109 67 255
-0.03 0.200289 0.85 -0.268054 -0.960694 0.0722044 150 105 68 255
-0.01 0.194709 0.85 -0.268054 -0.960694 0.0722044 160 103 59 255
-0.01 0.196212 0.87 -0.315055 -0.941042 0.123212 160 109 67 255
-0.03 0.202908 0.87 -0.315055 -0.941042 0.123212 156 124 99 255
-0.03 0.200289 0.85 -0.315055 -0.941042 0.123212 150 105 68 255
-0.01 0.19804 0.89 -0.316289 -0.944726 0.0863417 178 123 87 255
-0.03 0.202908 0.87 -0.316289 -0.944726 0.0863417 156 124 99 255
-0.01 0.196212 0.87 -0.316289 -0.944726 0.0863417 160 109 67 255
-0.01 0.19804 0.89 -0.389407 -0.905424 0.169026 178 123 87 255
-0.03 0.206641 0.89 -0.389407 -0.905424 0.169026 181 159 138 255
-0.03 0.202908 0.87 -0.389407 -0.905424 0.169026 156 124 99 255
-0.01 0.200332 0.91 -0.39292 -0.913592 0.104704 187 175 158 255
-0.03 0.206641 0.89 -0.39292 -0.913592 0.104704 181 159 138 255
-0.01 0.19804 0.89 -0.39292 -0.913592 0.104704 178 123 87 255
-0.01 0.200332 0.91 -0.333946 -0.941873 0.0368082 187 175 158 255
-0.03 0.207423 0.91 -0.333946 -0.941873 0.0368082 189 173 165 245
-0.03 0.206641 0.89 -0.333946 -0.941873 0.0368082 181 159 138 255
-0.01 0.203238 0.93 -0.331083 -0.933798 0.13567 217 194 184 255
-0.03 0.207423 0.91 -0.331083 -0.933798 0.13567 189 173 165 245
-0.01 0.200332 0.91 -0.331083 -0.933798 0.13567 187 175 158 255
-0.01 0.203238 0.93 -0.214047 -0.976776 0.00964057 217 194 184 255
-0.03 0.20762 0.93 -0.214047 -0.976776 0.00964057 191 176 170 255
-0.03 0.207423 0.91 -0.214047 -0.976776 0.00964057 189 173 165 245
-0.01 0.203238 0.93 -0.196168 -0.895188 0.400195 217 194 184 255
-0.01 0.21 0.945126 -0.196168 -0.895188 0.400195 217 216 214 255
-0.03 0.20762 0.93 -0.196168 -0.895188 0.400195 191 176 170 255
-0.03 0.20762 0.93 -0.191672 -0.89856 0.394781 191 176 170 255
-0.01 0.21 0.945126 -0.191672 -0.89856 0.394781 217 216 214 255
-0.03 0.21 0.935416 -0.191672 -0.89856 0.394781 191 176 170 255
-0.01 0.23 0.946813 -0.435508 -0.0756429 0.897001 221 221 221 255
-0.03 0.21 0.935416 -0.435508 -0.0756429 0.897001 191 176 170 255
-0.01 0.21 0.945126 -0.435508 -0.0756429 0.897001 217 216 214 255
-0.03 0.23 0.94664 -0.00753149 -0.489391 0.872032 211 210 210 255
-0.03 0.21 0.935416 -0.00753149 -0.489391 0.872032 191 176 170 255
-0.01 0.23 0.946813 -0.00753149 -0.489391 0.872032 221 221 221 255
-0.01 0.25 0.946644 -0.00863608 0.00844536 0.999927 221 221 221 255
-0.03 0.23 0.94664 -0.00863608 0.00844536 0.999927 211 210 210 255
-0.01 0.23 0.946813 -0.00863608 0.00844536 0.999927 221 221 221 255
-0.03 0.25 0.944693 -0.09665 0.0964611 0.990633 194 187 184 255
-0.03 0.23 0.94664 -0.09665 0.0964611 0.990633 211 210 210 255
-0.01 0.25 0.946644 -0.09665 0.0964611 0.990633 221 221 221 255
-0.01 0.268662 0.85 -0.06993 0.990449 0.11883 152 101 62 255
-0.01 0.27 0.83885 -0.06993 0.990449 0.11883 154 102 61 255
-0.025038 0.27 0.83 -0.06993 0.990449 0.11883 157 100 56 255
-0.03 0.268968 0.83 -0.198882 0.956481 0.213517 157 100 56 255
-0.01 0.268662 0.85 -0.198882 0.956481 0.213517 152 101 62 255
-0.025038 0.27 0.83 -0.198882 0.956481 0.213517 157 100 56 255
-0.03 0.262548 0.85 -0.279487 0.914199 0.293475 156 100 58 255
-0.01 0.268662 0.85 -0.279487 0.914199 0.293475 152 101 62 255
-0.03 0.268968 0.83 -0.279487 0.914199 0.293475 157 100 56 255
-0.03 0.262548 0.85 -0.292276 0.95603 0.024117 156 100 58 255
-0.01 0.268158 0.87 -0.292276 0.95603 0.024117 149 102 64 255
-0.01 0.268662 0.85 -0.292276 0.95603 0.024117 152 101 62 255
-0.03 0.260178 0.87 -0.368362 0.923222 0.109406 154 100 59 255
-0.01 0.268158 0.87 -0.368362 0.923222 0.109406 149 102 64 255
-0.03 0.262548 0.85 -0.368362 0.923222 0.109406 156 100 58 255
-0.03 0.266673 0.89 -0.402647 0.839526 -0.36479 152 128 122 255
-0.0230641 0.27 0.89 -0.402647 0.839526 -0.36479 152 128 122 255
-0.01 0.27 0.87558 -0.402647 0.839526 -0.36479 149 102 64 255
-0.01 0.268158 0.87 -0.358463 0.886479 -0.292676 149 102 64 255
-0.03 0.266673 0.89 -0.358463 0.886479 -0.292676 152 128 122 255
-0.01 0.27 0.87558 -0.358463 0.886479 -0.292676 149 102 64 255
-0.03 0.260178 0.87 -0.354796 0.88922 -0.288805 154 100 59 255
-0.03 0.266673 0.89 -0.354796 0.88922 -0.288805 152 128 122 255
-0.01 0.268158 0.87 -0.354796 0.88922 -0.288805 149 102 64 255
-0.0230641 0.27 0.89 -0.432255 0.901259 0.0298008 152 128 122 255
-0.03 0.266673 0.89 -0.432255 0.901259 0.0298008 152 128 122 255
-0.03 0.266012 0.91 -0.432255 0.901259 0.0298008 171 162 149 255
-0.0230641 0.27 0.89 -0.496917 0.867798 0.000704645 152 128 122 255
-0.03 0.266012 0.91 -0.496917 0.867798 0.000704645 171 162 149 255
-0.0230358 0.27 0.91 -0.496917 0.867798 0.000704645 171 162 149 255
-0.03 0.27 0.923684 -0.481749 0.841309 -0.245186 189 177 170 255
-0.0230358 0.27 0.91 -0.481749 0.841309 -0.245186 171 162 149 255
-0.03 0.266012 0.91 -0.481749 0.841309 -0.245186 171 162 149 255
-0.01 0.27 0.938408 -0.0898491 0.379239 0.920926 192 191 191 255
-0.03 0.25 0.944693 -0.0898491 0.379239 0.920926 194 187 184 255
-0.01 0.25 0.946644 -0.0898491 0.379239 0.920926 221 221 221 255
-0.03 0.27 0.931769 -0.268571 0.522803 0.809041 189 177 170 255
-0.03 0.25 0.944693 -0.268571 0.522803 0.809041 194 187 184 255
-0.01 0.27 0.938408 -0.268571 0.522803 0.809041 192 191 191 255
0.00999999 0.265076 0.85 0.0900704 0.960664 0.2627 157 101 60 255
0.00999999 0.27 0.831992 0.0900704 0.960664 0.2627 158 101 60 255
-0.01 0.27 0.83885 0.0900704 0.960664 0.2627 154 102 61 255
0.00999999 0.265076 0.85 0.175293 0.977506 0.117277 157 101 60 255
-0.01 0.27 0.83885 0.175293 0.977506 0.117277 154 102 61 255
-0.01 0.268662 0.85 0.175293 0.977506 0.117277 152 101 62 255
0.00999999 0.199585 0.87 0.185263 -0.981206 0.0539556 161 103 59 255
-0.01 0.194709 0.85 0.185263 -0.981206 0.0539556 160 103 59 255
0.00999999 0.198485 0.85 0.185263 -0.981206 0.0539556 159 100 56 255
0.00999999 0.199585 0.87 0.165839 -0.983379 0.0739094 161 103 59 255
-0.01 0.196212 0.87 0.165839 -0.983379 0.0739094 160 109 67 255
-0.01 0.194709 0.85 0.165839 -0.983379 0.0739094 160 103 59 255
-0.01 0.268662 0.85 0.17628 0.98301 0.0511596 152 101 62 255
0.00999999 0.264035 0.87 0.17628 0.98301 0.0511596 156 101 62 255
0.00999999 0.265076 0.85 0.17628 0.98301 0.0511596 157 101 60 255
-0.01 0.268158 0.87 0.201837 0.979108 0.0246992 149 102 64 255
0.00999999 0.264035 0.87 0.201837 0.979108 0.0246992 156 101 62 255
-0.01 0.268662 0.85 0.201837 0.979108 0.0246992 152 101 62 255
0.00999999 0.200591 0.89 0.16609 -0.984866 0.049534 181 148 126 255
-0.01 0.196212 0.87 0.16609 -0.984866 0.049534 160 109 67 255
0.00999999 0.199585 0.87 0.16609 -0.984866 0.049534 161 103 59 255
0.00999999 0.200591 0.89 0.126003 -0.987913 0.0902887 181 148 126 255
-0.01 0.19804 0.89 0.126003 -0.987913 0.0902887 178 123 87 255
-0.01 0.196212 0.87 0.126003 -0.987913 0.0902887 160 109 67 255
-0.01 0.268158 0.87 0.488961 0.828328 -0.273477 149 102 64 255
-0.01 0.27 0.87558 0.488961 0.828328 -0.273477 149 102 64 255
-0.00193491 0.27 0.89 0.488961 0.828328 -0.273477 165 147 130 255
0.00999999 0.26309 0.89 0.482256 0.832993 -0.271203 165 135 103 255
-0.01 0.268158 0.87 0.482256 0.832993 -0.271203 149 102 64 255
-0.00193491 0.27 0.89 0.482256 0.832993 -0.271203 165 147 130 255
0.00999999 0.264035 0.87 0.201683 0.97836 0.0462014 156 101 62 255
-0.01 0.268158 0.87 0.201683 0.97836 0.0462014 149 102 64 255
0.00999999 0.26309 0.89 0.201683 0.97836 0.0462014 165 135 103 255
0.00999999 0.203591 0.91 0.125141 -0.981161 0.147185 171 143 129 255
-0.01 0.19804 0.89 0.125141 -0.981161 0.147185 178 123 87 255
0.00999999 0.200591 0.89 0.125141 -0.981161 0.147185 181 148 126 255
0.00999999 0.203591 0.91 0.159808 -0.980728 0.112399 171 143 129 255
-0.01 0.200332 0.91 0.159808 -0.980728 0.112399 187 175 158 255
-0.01 0.19804 0.89 0.159808 -0.980728 0.112399 178 123 87 255
-0.000560366 0.27 0.91 0.54773 0.836655 0.000162068 182 180 176 255
0.00999999 0.263086 0.91 0.54773 0.836655 0.000162068 173 146 131 252
0.00999999 0.26309 0.89 0.54773 0.836655 0.000162068 165 135 103 255
-0.000560366 0.27 0.91 0.500737 0.864915 -0.0344144 182 180 176 255
0.00999999 0.26309 0.89 0.500737 0.864915 -0.0344144 165 135 103 255
-0.00193491 0.27 0.89 0.500737 0.864915 -0.0344144 165 147 130 255
0.00999999 0.206483 0.93 0.159213 -0.977081 0.141293 171 163 149 255
-0.01 0.200332 0.91 0.159213 -0.977081 0.141293 187 175 158 255
0.00999999 0.203591 0.91 0.159213 -0.977081 0.141293 171 143 129 255
0.00999999 0.206483 0.93 0.158549 -0.977092 0.14196 171 163 149 255
-0.01 0.203238 0.93 0.158549 -0.977092 0.14196 217 194 184 255
-0.01 0.200332 0.91 0.158549 -0.977092 0.14196 187 175 158 255
-0.000560366 0.27 0.91 0.487961 0.745359 -0.454241 182 180 176 255
0.00999999 0.27 0.921344 0.487961 0.745359 -0.454241 200 195 192 255
0.00999999 0.263086 0.91 0.487961 0.745359 -0.454241 173 146 131 252
0.00999999 0.206483 0.93 0.148478 -0.91503 0.375066 171 163 149 255
0.00999999 0.21 0.93858 0.148478 -0.91503 0.375066 171 163 149 255
-0.01 0.203238 0.93 0.148478 -0.91503 0.375066 217 194 184 255
-0.01 0.203238 0.93 0.132408 -0.904888 0.404532 217 194 184 255
0.00999999 0.21 0.93858 0.132408 -0.904888 0.404532 171 163 149 255
-0.01 0.21 0.945126 0.132408 -0.904888 0.404532 217 216 214 255
0.00999999 0.23 0.946927 0.289158 -0.368696 0.883431 221 221 221 255
-0.01 0.21 0.945126 0.289158 -0.368696 0.883431 217 216 214 255
0.00999999 0.21 0.93858 0.289158 -0.368696 0.883431 171 163 149 255
-0.01 0.23 0.946813 -0.0056839 -0.0840291 0.996447 221 221 221 255
-0.01 0.21 0.945126 -0.0056839 -0.0840291 0.996447 217 216 214 255
0.00999999 0.23 0.946927 -0.0056839 -0.0840291 0.996447 221 221 221 255
0.00999999 0.25 0.94634 -0.00570162 0.0293303 0.999554 213 210 209 255
-0.01 0.23 0.946813 -0.00570162 0.0293303 0.999554 221 221 221 255
0.00999999 0.23 0.946927 -0.00570162 0.0293303 0.999554 221 221 221 255
-0.01 0.25 0.946644 0.0151909 0.0084447 0.999849 221 221 221 255
-0.01 0.23 0.946813 0.0151909 0.0084447 0.999849 221 221 221 255
0.00999999 0.25 0.94634 0.0151909 0.0084447 0.999849 213 210 209 255
0.00999999 0.27 0.93781 0.0139737 0.392297 0.919733 200 195 192 255
-0.01 0.25 0.946644 0.0139737 0.392297 0.919733 221 221 221 255
0.00999999 0.25 0.94634 0.0139737 0.392297 0.919733 213 210 209 255
-0.01 0.27 0.938408 0.0276596 0.380634 0.924312 192 191 191 255
-0.01 0.25 0.946644 0.0276596 0.380634 0.924312 221 221 221 255
0.00999999 0.27 0.93781 0.0276596 0.380634 0.924312 200 195 192 255
0.01 0.199585 0.87 0.663609 -0.747136 0.0375773 161 103 59 255
0.0217262 0.21 0.87 0.663609 -0.747136 0.0375773 159 105 64 255
0.01 0.200591 0.89 0.663609 -0.747136 0.0375773 181 148 126 255
0.01 0.200591 0.89 0.654623 -0.755421 0.028411 181 148 126 255
0.0217262 0.21 0.87 0.654623 -0.755421 0.028411 159 105 64 255
0.0208582 0.21 0.89 0.654623 -0.755421 0.028411 161 102 60 255
0.01 0.200591 0.89 0.650719 -0.750916 0.112646 181 148 126 255
0.0208582 0.21 0.89 0.650719 -0.750916 0.112646 161 102 60 255
0.01 0.203591 0.91 0.650719 -0.750916 0.112646 171 143 129 255
0.01 0.203591 0.91 0.670535 -0.730403 0.129978 171 143 129 255
0.0208582 0.21 0.89 0.670535 -0.730403 0.129978 161 102 60 255
0.0169814 0.21 0.91 0.670535 -0.730403 0.129978 171 143 129 255
0.01 0.203591 0.91 0.672467 -0.732508 0.105926 171 143 129 255
0.0169814 0.21 0.91 0.672467 -0.732508 0.105926 171 143 129 255
0.01 0.206483 0.93 0.672467 -0.732508 0.105926 171 163 149 255
0.01 0.206483 0.93 0.601825 -0.795538 0.0701829 171 163 149 255
0.0169814 0.21 0.91 0.601825 -0.795538 0.0701829 171 143 129 255
0.014649 0.21 0.93 0.601825 -0.795538 0.0701829 171 163 149 255
0.014649 0.21 0.93 0.573451 -0.758031 0.310713 171 163 149 255
0.01 0.21 0.93858 0.573451 -0.758031 0.310713 171 163 149 255
0.01 0.206483 0.93 0.573451 -0.758031 0.310713 171 163 149 255
0.0230109 0.21 0.85 0.914384 -0.182351 0.361454 162 103 62 255
0.03 0.21 0.832319 0.914384 -0.182351 0.361454 162 103 62 255
0.03 0.23 0.842409 0.914384 -0.182351 0.361454 158 104 66 255
0.0230109 0.21 0.85 0.939151 -0.232072 0.253253 162 103 62 255
0.03 0.23 0.842409 0.939151 -0.232072 0.253253 158 104 66 255
0.0279531 0.23 0.85 0.939151 -0.232072 0.253253 158 104 66 255
0.0279531 0.23 0.85 0.968917 -0.239427 0.0622406 158 104 66 255
0.0217262 0.21 0.87 0.968917 -0.239427 0.0622406 159 105 64 255
0.0230109 0.21 0.85 0.968917 -0.239427 0.0622406 162 103 62 255
0.0279531 0.23 0.85 0.961386 -0.274042 0.0252814 158 104 66 255
0.0274272 0.23 0.87 0.961386 -0.274042 0.0252814 156 113 76 255
0.0217262 0.21 0.87 0.961386 -0.274042 0.0252814 159 105 64 255
0.0274272 0.23 0.87 0.960856 -0.273891 0.0417016 156 113 76 255
0.0208582 0.21 0.89 0.960856 -0.273891 0.0417016 161 102 60 255
0.0217262 0.21 0.87 0.960856 -0.273891 0.0417016 159 105 64 255
0.0274272 0.23 0.87 0.957273 -0.287975 0.0264406 156 113 76 255
0.0268747 0.23 0.89 0.957273 -0.287975 0.0264406 160 115 86 255
0.0208582 0.21 0.89 0.957273 -0.287975 0.0264406 161 102 60 255
0.0268747 0.23 0.89 0.941524 -0.283237 0.182506 160 115 86 255
0.0169814 0.21 0.91 0.941524 -0.283237 0.182506 171 143 129 255
0.0208582 0.21 0.89 0.941524 -0.283237 0.182506 161 102 60 255
0.0268747 0.23 0.89 0.934945 -0.328531 0.133958 160 115 86 255
0.0240092 0.23 0.91 0.934945 -0.328531 0.133958 137 137 128 203
0.0169814 0.21 0.91 0.934945 -0.328531 0.133958 171 143 129 255
0.0240092 0.23 0.91 0.93779 -0.329531 0.109362 137 137 128 203
0.014649 0.21 0.93 0.93779 -0.329531 0.109362 171 163 149 255
0.0169814 0.21 0.91 0.93779 -0.329531 0.109362 171 143 129 255
0.0240092 0.23 0.91 0.836373 -0.530283 -0.138854 137 137 128 203
0.0273296 0.23 0.93 0.836373 -0.530283 -0.138854 183 149 137 255
0.014649 0.21 0.93 0.836373 -0.530283 -0.138854 171 163 149 255
0.0273296 0.23 0.93 0.638863 -0.405057 0.654052 183 149 137 255
0.01 0.23 0.946927 0.638863 -0.405057 0.654052 221 221 221 255
0.014649 0.21 0.93 0.638863 -0.405057 0.654052 171 163 149 255
0.014649 0.21 0.93 0.862353 -0.195004 0.467249 171 163 149 255
0.01 0.23 0.946927 0.862353 -0.195004 0.467249 221 221 221 255
0.01 0.21 0.93858 0.862353 -0.195004 0.467249 171 163 149 255
0.0279531 0.23 0.85 0.961522 0.090816 0.259285 158 104 66 255
0.03 0.23 0.842409 0.961522 0.090816 0.259285 158 104 66 255
0.03 0.25 0.835404 0.961522 0.090816 0.259285 160 102 59 255
0.0279531 0.23 0.85 0.956934 0.100755 0.272261 158 104 66 255
0.03 0.25 0.835404 0.956934 0.100755 0.272261 160 102 59 255
0.0258473 0.25 0.85 0.956934 0.100755 0.272261 160 102 60 255
0.0258473 0.25 0.85 0.994163 0.104674 0.0261433 160 102 60 255
0.0274272 0.23 0.87 0.994163 0.104674 0.0261433 156 113 76 255
0.0279531 0.23 0.85 0.994163 0.104674 0.0261433 158 104 66 255
0.0258473 0.25 0.85 0.986978 0.145833 0.0678698 160 102 60 255
0.024472 0.25 0.87 0.986978 0.145833 0.0678698 159 102 62 255
0.0274272 0.23 0.87 0.986978 0.145833 0.0678698 156 113 76 255
0.024472 0.25 0.87 0.98889 0.146116 0.027314 159 102 62 255
0.0268747 0.23 0.89 0.98889 0.146116 0.027314 160 115 86 255
0.0274272 0.23 0.87 0.98889 0.146116 0.027314 156 113 76 255
0.024472 0.25 0.87 0.960856 0.244923 0.129489 159 102 62 255
0.0217767 0.25 0.89 0.960856 0.244923 0.129489 154 96 53 255
0.0268747 0.23 0.89 0.960856 0.244923 0.129489 160 115 86 255
0.0217767 0.25 0.89 0.959808 0.244656 0.13752 154 96 53 255
0.0240092 0.23 0.91 0.959808 0.244656 0.13752 137 137 128 203
0.0268747 0.23 0.89 0.959808 0.244656 0.13752 160 115 86 255
0.0217767 0.25 0.89 0.94477 0.278393 0.172936 154 96 53 255
0.0181158 0.25 0.91 0.94477 0.278393 0.172936 200 185 183 255
0.0240092 0.23 0.91 0.94477 0.278393 0.172936 137 137 128 203
0.0181158 0.25 0.91 0.947286 0.279134 -0.157268 200 185 183 255
0.0273296 0.23 0.93 0.947286 0.279134 -0.157268 183 149 137 255
0.0240092 0.23 0.91 0.947286 0.279134 -0.157268 137 137 128 203
0.0181158 0.25 0.91 0.903 -0.0134288 -0.42943 200 185 183 255
0.027627 0.25 0.93 0.903 -0.0134288 -0.42943 170 139 123 255
0.0273296 0.23 0.93 0.903 -0.0134288 -0.42943 183 149 137 255
0.027627 0.25 0.93 0.679798 -0.0101095 0.73333 170 139 123 255
0.01 0.25 0.94634 0.679798 -0.0101095 0.73333 213 210 209 255
0.0273296 0.23 0.93 0.679798 -0.0101095 0.73333 183 149 137 255
0.0273296 0.23 0.93 0.698598 0.0209866 0.715207 183 149 137 255
0.01 0.25 0.94634 0.698598 0.0209866 0.715207 213 210 209 255
0.01 0.23 0.946927 0.698598 0.0209866 0.715207 221 221 221 255
3 0 1 2 
3 3 4 5 
3 6 7 8 
3 9 10 11 
3 12 13 14 
3 15 16 17 
3 18 19 20 
3 21 22 23 
3 24 25 26 
3 27 28 29 
3 30 31 32 
3 33 34 35 
3 36 37 38 
3 39 40 41 
3 42 43 44 
3 45 46 47 
3 48 49 50 
3 51 52 53 
3 54 55 56 
3 57 58 59 
3 60 61 62 
3 63 64 65 
3 66 67 68 
3 69 70 71 
3 72 73 74 
3 75 76 77 
3 78 79 80 
3 81 82 83 
3 84 85 86 
3 87 88 89 
3 90 91 92 
3 93 94 95 
3 96 97 98 
3 99 100 101 
3 102 103 104 
3 105 106 107 
3 108 109 110 
3 111 112 113 
3 114 115 116 
3 117 118 119 
3 120 121 122 
3 123 124 125 
3 126 127 128 
3 129 130 131 
3 132 133 134 
3 135 136 137 
3 138 139 140 
3 141 142 143 
3 144 145 146 
3 147 148 149 
3 150 151 152 
3 153 154 155 
3 156 157 158 
3 159 160 161 
3 162 163 164 
3 165 166 167 
3 168 169 170 
3 171 172 173 
3 174 175 176 
3 177 178 179 
3 180 181 182 
3 183 184 185 
3 186 187 188 
3 189 190 191 
3 192 193 194 
3 195 196 197 
3 198 199 200 
3 201 202 203 
3 204 205 206 
3 207 208 209 
3 210 211 212 
3 213 214 215 
3 216 217 218 
3 219 220 221 
3 222 223 224 
3 225 226 227 
3 228 229 230 
3 231 232 233 
3 234 235 236 
3 237 238 239 
3 240 241 242 
3 243 244 245 
3 246 247 248 
3 249 250 251 
3 252 253 254 
3 255 256 257 
3 258 259 260 
3 261 262 263 
3 264 265 266 
3 267 268 269 
3 270 271 272 
3 273 274 275 
3 276 277 278 
3 279 280 281 
3 282 283 284 
3 285 286 287 
3 288 289 290 
3 291 292 293 
3 294 295 296 
3 297 298 299 
