ply
format ascii 1.0
element vertex 501
property float x
property float y
property float z
property float normal_x
property float normal_y
property float normal_z
property uchar red
property uchar green
property uchar blue
property uchar alpha
element face 167
property list uchar int vertex_indices
end_header
-0.11 -0.0898538 0.99 -0.820533 -0.55487 0.137276 167 167 170 255
-0.11 -0.09 0.989409 -0.820533 -0.55487 0.137276 167 167 170 255
-0.109901 -0.09 0.99 -0.820533 -0.55487 0.137276 167 167 170 255
-0.11 -0.09 0.990146 -0.723078 -0.488968 -0.487923 167 167 170 255
-0.11 -0.0898538 0.99 -0.723078 -0.488968 -0.487923 167 167 170 255
-0.109901 -0.09 0.99 -0.723078 -0.488968 -0.487923 167 167 170 255
-0.105846 -0.05 1.03 -0.681073 0.649354 0.338349 131 128 141 255
-0.11 -0.05 1.02164 -0.681073 0.649354 0.338349 131 128 141 255
-0.11 -0.0543571 1.03 -0.681073 0.649354 0.338349 131 128 141 255
-0.105846 -0.05 1.03 -0.671861 0.640571 0.371848 131 128 141 255
-0.11 -0.0543571 1.03 -0.671861 0.640571 0.371848 131 128 141 255
-0.11 -0.065967 1.05 -0.671861 0.640571 0.371848 128 162 165 255
-0.105846 -0.05 1.03 -0.64823 0.655008 0.388282 131 128 141 255
-0.11 -0.065967 1.05 -0.64823 0.655008 0.388282 128 162 165 255
-0.0938661 -0.05 1.05 -0.64823 0.655008 0.388282 126 150 151 255
-0.11 -0.0424828 0.97 -0.427963 0.903726 0.0112318 99 94 139 255
-0.09 -0.0332603 0.99 -0.427963 0.903726 0.0112318 97 89 131 255
-0.09 -0.0330117 0.97 -0.427963 0.903726 0.0112318 100 84 127 255
-0.11 -0.044792 0.99 -0.497021 0.862012 0.099525 106 105 138 255
-0.09 -0.0332603 0.99 -0.497021 0.862012 0.099525 97 89 131 255
-0.11 -0.0424828 0.97 -0.497021 0.862012 0.099525 99 94 139 255
-0.11 -0.044792 0.99 -0.49507 0.858629 0.132895 106 105 138 255
-0.09 -0.0363558 1.01 -0.49507 0.858629 0.132895 122 113 119 255
-0.09 -0.0332603 0.99 -0.49507 0.858629 0.132895 97 89 131 255
-0.11 -0.0462122 1.01 -0.441157 0.895176 0.0635665 119 118 138 255
-0.09 -0.0363558 1.01 -0.441157 0.895176 0.0635665 122 113 119 255
-0.11 -0.044792 0.99 -0.441157 0.895176 0.0635665 106 105 138 255
-0.105846 -0.05 1.03 -0.477752 0.845826 0.237341 131 128 141 255
-0.09 -0.0410497 1.03 -0.477752 0.845826 0.237341 126 142 142 255
-0.11 -0.05 1.02164 -0.477752 0.845826 0.237341 131 128 141 255
-0.09 -0.0410497 1.03 -0.485232 0.831454 0.270616 126 142 142 255
-0.11 -0.0462122 1.01 -0.485232 0.831454 0.270616 119 118 138 255
-0.11 -0.05 1.02164 -0.485232 0.831454 0.270616 131 128 141 255
-0.09 -0.0410497 1.03 -0.43257 0.877751 0.206003 126 142 142 255
-0.09 -0.0363558 1.01 -0.43257 0.877751 0.206003 122 113 119 255
-0.11 -0.0462122 1.01 -0.43257 0.877751 0.206003 119 118 138 255
-0.0938661 -0.05 1.05 -0.563972 0.753537 0.337812 126 150 151 255
-0.09 -0.0471065 1.05 -0.563972 0.753537 0.337812 126 150 151 255
-0.105846 -0.05 1.03 -0.563972 0.753537 0.337812 131 128 141 255
-0.105846 -0.05 1.03 -0.47555 0.841928 0.254969 131 128 141 255
-0.09 -0.0471065 1.05 -0.47555 0.841928 0.254969 126 150 151 255
-0.09 -0.0410497 1.03 -0.47555 0.841928 0.254969 126 142 142 255
-0.09 -0.05 1.05534 -0.549622 0.734365 0.398275 126 150 151 255
-0.09 -0.0471065 1.05 -0.549622 0.734365 0.398275 126 150 151 255
-0.0938661 -0.05 1.05 -0.549622 0.734365 0.398275 126 150 151 255
-0.09 -0.11 1.01333 -0.292792 -0.616232 -0.731116 126 188 188 255
-0.09 -0.106049 1.01 -0.292792 -0.616232 -0.731116 126 188 188 255
-0.0816852 -0.11 1.01 -0.292792 -0.616232 -0.731116 126 188 188 255
-0.07 -0.0838308 1.05 0.7899 -0.440744 0.426383 125 163 165 255
-0.0734422 -0.09 1.05 0.7899 -0.440744 0.426383 125 163 165 255
-0.07 -0.09 1.04362 0.7899 -0.440744 0.426383 125 163 165 255
-0.07 -0.0838308 1.05 0.753039 -0.420176 0.506344 125 163 165 255
-0.07 -0.07 1.06148 0.753039 -0.420176 0.506344 125 182 185 255
-0.0734422 -0.09 1.05 0.753039 -0.420176 0.506344 125 163 165 255
-0.07 -0.07 1.06148 0.670896 -0.452571 0.587433 125 182 185 255
-0.09 -0.09 1.06891 0.670896 -0.452571 0.587433 120 182 182 255
-0.0734422 -0.09 1.05 0.670896 -0.452571 0.587433 125 163 165 255
-0.07 -0.07 1.06148 0.281997 0.0735297 0.956594 125 182 185 255
-0.09 -0.07 1.06737 0.281997 0.0735297 0.956594 124 191 191 255
-0.09 -0.09 1.06891 0.281997 0.0735297 0.956594 120 182 182 255
-0.0741114 -0.05 1.05 0.461828 0.639475 0.614643 132 148 147 255
-0.07 -0.0529692 1.05 0.461828 0.639475 0.614643 132 148 147 255
-0.07 -0.05 1.04691 0.461828 0.639475 0.614643 132 148 147 255
-0.0741114 -0.05 1.05 0.291282 0.403327 0.867457 132 148 147 255
-0.09 -0.05 1.05534 0.291282 0.403327 0.867457 126 150 151 255
-0.07 -0.0529692 1.05 0.291282 0.403327 0.867457 132 148 147 255
-0.09 -0.05 1.05534 0.291018 0.53466 0.793377 126 150 151 255
-0.07 -0.07 1.06148 0.291018 0.53466 0.793377 125 182 185 255
-0.07 -0.0529692 1.05 0.291018 0.53466 0.793377 132 148 147 255
-0.09 -0.05 1.05534 0.244882 0.499983 0.830692 126 150 151 255
-0.09 -0.07 1.06737 0.244882 0.499983 0.830692 124 191 191 255
-0.07 -0.07 1.06148 0.244882 0.499983 0.830692 125 182 185 255
-0.09 -0.0330117 0.97 0.0731581 0.996396 -0.0429248 100 84 127 255
-0.07 -0.0336186 0.99 0.0731581 0.996396 -0.0429248 98 81 125 255
-0.07 -0.0344802 0.97 0.0731581 0.996396 -0.0429248 94 80 123 255
-0.09 -0.0332603 0.99 0.0179099 0.999762 0.0124256 97 89 131 255
-0.07 -0.0336186 0.99 0.0179099 0.999762 0.0124256 98 81 125 255
-0.09 -0.0330117 0.97 0.0179099 0.999762 0.0124256 100 84 127 255
-0.09 -0.0332603 0.99 0.0175449 0.979388 0.201226 97 89 131 255
-0.07 -0.0377278 1.01 0.0175449 0.979388 0.201226 118 99 107 255
-0.07 -0.0336186 0.99 0.0175449 0.979388 0.201226 98 81 125 255
-0.09 -0.0363558 1.01 0.0676367 0.98597 0.152605 122 113 119 255
-0.07 -0.0377278 1.01 0.0676367 0.98597 0.152605 118 99 107 255
-0.09 -0.0332603 0.99 0.0676367 0.98597 0.152605 97 89 131 255
-0.09 -0.0363558 1.01 0.0643249 0.937692 0.341462 122 113 119 255
-0.07 -0.0450108 1.03 0.0643249 0.937692 0.341462 132 144 132 255
-0.07 -0.0377278 1.01 0.0643249 0.937692 0.341462 118 99 107 255
-0.09 -0.0410497 1.03 0.189329 0.955939 0.224354 126 142 142 255
-0.07 -0.0450108 1.03 0.189329 0.955939 0.224354 132 144 132 255
-0.09 -0.0363558 1.01 0.189329 0.955939 0.224354 122 113 119 255
-0.07 -0.05 1.04691 0.207968 0.938158 0.276783 132 148 147 255
-0.07 -0.0450108 1.03 0.207968 0.938158 0.276783 132 144 132 255
-0.0741114 -0.05 1.05 0.207968 0.938158 0.276783 132 148 147 255
-0.07 -0.0450108 1.03 0.172428 0.946827 0.271639 132 144 132 255
-0.09 -0.0471065 1.05 0.172428 0.946827 0.271639 126 150 151 255
-0.0741114 -0.05 1.05 0.172428 0.946827 0.271639 132 148 147 255
-0.07 -0.0450108 1.03 0.186238 0.940331 0.284769 132 144 132 255
-0.09 -0.0410497 1.03 0.186238 0.940331 0.284769 126 142 142 255
-0.09 -0.0471065 1.05 0.186238 0.940331 0.284769 126 150 151 255
-0.09 -0.0471065 1.05 0.158071 0.867993 0.470747 126 150 151 255
-0.09 -0.05 1.05534 0.158071 0.867993 0.470747 126 150 151 255
-0.0741114 -0.05 1.05 0.158071 0.867993 0.470747 132 148 147 255
-0.05 -0.0734651 1.01 0.845614 -0.327303 0.421676 139 130 128 255
-0.0564 -0.09 1.01 0.845614 -0.327303 0.421676 141 136 124 255
-0.05 -0.09 0.997166 0.845614 -0.327303 0.421676 136 125 133 255
-0.0564 -0.09 1.01 0.87783 -0.339772 0.337593 141 136 124 255
-0.05 -0.0734651 1.01 0.87783 -0.339772 0.337593 139 130 128 255
-0.05 -0.07 1.01349 0.87783 -0.339772 0.337593 139 130 128 255
-0.056396 -0.07 1.03 0.876983 -0.339867 0.339692 144 136 134 255
-0.0564 -0.09 1.01 0.876983 -0.339867 0.339692 141 136 124 255
-0.05 -0.07 1.01349 0.876983 -0.339867 0.339692 139 130 128 255
-0.0655755 -0.09 1.03 0.838847 -0.38501 0.384842 121 160 163 255
-0.0564 -0.09 1.01 0.838847 -0.38501 0.384842 141 136 124 255
-0.056396 -0.07 1.03 0.838847 -0.38501 0.384842 144 136 134 255
-0.07 -0.09 1.04362 0.906029 -0.304173 0.294262 125 163 165 255
-0.0655755 -0.09 1.03 0.906029 -0.304173 0.294262 121 160 163 255
-0.07 -0.0838308 1.05 0.906029 -0.304173 0.294262 125 163 165 255
-0.0655755 -0.09 1.03 0.861551 -0.399139 0.313716 121 160 163 255
-0.0635925 -0.07 1.05 0.861551 -0.399139 0.313716 121 173 184 255
-0.07 -0.0838308 1.05 0.861551 -0.399139 0.313716 125 163 165 255
-0.0655755 -0.09 1.03 0.863826 -0.396475 0.310826 121 160 163 255
-0.056396 -0.07 1.03 0.863826 -0.396475 0.310826 144 136 134 255
-0.0635925 -0.07 1.05 0.863826 -0.396475 0.310826 121 173 184 255
-0.0635925 -0.07 1.05 0.809428 -0.374991 0.451893 121 173 184 255
-0.07 -0.07 1.06148 0.809428 -0.374991 0.451893 125 182 185 255
-0.07 -0.0838308 1.05 0.809428 -0.374991 0.451893 125 163 165 255
-0.0507088 -0.05 0.97 0.919649 0.390124 -0.0452586 96 80 121 255
-0.05 -0.05 0.984403 0.919649 0.390124 -0.0452586 120 105 124 255
-0.05 -0.0516709 0.97 0.919649 0.390124 -0.0452586 96 80 121 255
-0.0552 -0.05 1.01 0.916573 0.307663 0.255417 124 115 125 255
-0.05 -0.0654914 1.01 0.916573 0.307663 0.255417 139 130 128 255
-0.05 -0.05 0.99134 0.916573 0.307663 0.255417 120 105 124 255
-0.056396 -0.07 1.03 0.898098 0.269084 0.347871 144 136 134 255
-0.05 -0.07 1.01349 0.898098 0.269084 0.347871 139 130 128 255
-0.05 -0.0654914 1.01 0.898098 0.269084 0.347871 139 130 128 255
-0.0552 -0.05 1.01 0.887682 0.297966 0.351051 124 115 125 255
-0.056396 -0.07 1.03 0.887682 0.297966 0.351051 144 136 134 255
-0.05 -0.0654914 1.01 0.887682 0.297966 0.351051 139 130 128 255
-0.0638385 -0.05 1.03 0.868731 0.323278 0.37523 132 144 132 255
-0.056396 -0.07 1.03 0.868731 0.323278 0.37523 144 136 134 255
-0.0552 -0.05 1.01 0.868731 0.323278 0.37523 124 115 125 255
-0.07 -0.0529692 1.05 0.886547 0.333547 0.320595 132 148 147 255
-0.0635925 -0.07 1.05 0.886547 0.333547 0.320595 121 173 184 255
-0.07 -0.05 1.04691 0.886547 0.333547 0.320595 132 148 147 255
-0.0635925 -0.07 1.05 0.885747 0.33362 0.322724 121 173 184 255
-0.0638385 -0.05 1.03 0.885747 0.33362 0.322724 132 144 132 255
-0.07 -0.05 1.04691 0.885747 0.33362 0.322724 132 148 147 255
-0.0635925 -0.07 1.05 0.888073 0.330476 0.319551 121 173 184 255
-0.056396 -0.07 1.03 0.888073 0.330476 0.319551 144 136 134 255
-0.0638385 -0.05 1.03 0.888073 0.330476 0.319551 132 144 132 255
-0.07 -0.0529692 1.05 0.82953 0.312096 0.463116 132 148 147 255
-0.07 -0.07 1.06148 0.82953 0.312096 0.463116 125 182 185 255
-0.0635925 -0.07 1.05 0.82953 0.312096 0.463116 121 173 184 255
-0.0507088 -0.05 0.97 0.626534 0.778784 -0.0308335 96 80 121 255
-0.07 -0.0344802 0.97 0.626534 0.778784 -0.0308335 94 80 123 255
-0.05 -0.05 0.984403 0.626534 0.778784 -0.0308335 120 105 124 255
-0.07 -0.0344802 0.97 0.629305 0.776258 -0.0374035 94 80 123 255
-0.05 -0.0497303 0.99 0.629305 0.776258 -0.0374035 120 105 124 255
-0.05 -0.05 0.984403 0.629305 0.776258 -0.0374035 120 105 124 255
-0.07 -0.0344802 0.97 0.626991 0.778305 -0.0335294 94 80 123 255
-0.07 -0.0336186 0.99 0.626991 0.778305 -0.0335294 98 81 125 255
-0.05 -0.0497303 0.99 0.626991 0.778305 -0.0335294 120 105 124 255
-0.05 -0.05 0.99134 0.577888 0.80007 0.161038 120 105 124 255
-0.05 -0.0497303 0.99 0.577888 0.80007 0.161038 120 105 124 255
-0.0552 -0.05 1.01 0.577888 0.80007 0.161038 124 115 125 255
-0.05 -0.0497303 0.99 0.628606 0.758088 0.173658 120 105 124 255
-0.07 -0.0377278 1.01 0.628606 0.758088 0.173658 118 99 107 255
-0.0552 -0.05 1.01 0.628606 0.758088 0.173658 124 115 125 255
-0.05 -0.0497303 0.99 0.619465 0.768962 0.157992 120 105 124 255
-0.07 -0.0336186 0.99 0.619465 0.768962 0.157992 98 81 125 255
-0.07 -0.0377278 1.01 0.619465 0.768962 0.157992 118 99 107 255
-0.0552 -0.05 1.01 0.615346 0.742097 0.265785 124 115 125 255
-0.07 -0.0377278 1.01 0.615346 0.742097 0.265785 118 99 107 255
-0.0638385 -0.05 1.03 0.615346 0.742097 0.265785 132 144 132 255
-0.0638385 -0.05 1.03 0.605514 0.747796 0.272311 132 144 132 255
-0.07 -0.0377278 1.01 0.605514 0.747796 0.272311 118 99 107 255
-0.07 -0.0450108 1.03 0.605514 0.747796 0.272311 132 144 132 255
-0.07 -0.0450108 1.03 0.613379 0.757509 0.223486 132 144 132 255
-0.07 -0.05 1.04691 0.613379 0.757509 0.223486 132 148 147 255
-0.0638385 -0.05 1.03 0.613379 0.757509 0.223486 132 144 132 255
-0.0459277 -0.07 0.97 0.993407 -0.114596 0.00327496 114 97 118 255
-0.0483008 -0.09 0.99 0.993407 -0.114596 0.00327496 136 125 133 255
-0.0482349 -0.09 0.97 0.993407 -0.114596 0.00327496 131 121 127 255
-0.0459277 -0.07 0.97 0.996006 -0.0813198 0.0368593 114 97 118 255
-0.0466679 -0.07 0.99 0.996006 -0.0813198 0.0368593 130 119 126 255
-0.0483008 -0.09 0.99 0.996006 -0.0813198 0.0368593 136 125 133 255
-0.05 -0.09 0.997166 0.957779 -0.176288 0.227118 136 125 133 255
-0.0483008 -0.09 0.99 0.957779 -0.176288 0.227118 136 125 133 255
-0.05 -0.0734651 1.01 0.957779 -0.176288 0.227118 139 130 128 255
-0.0483008 -0.09 0.99 0.929803 -0.240965 0.278212 136 125 133 255
-0.049102 -0.07 1.01 0.929803 -0.240965 0.278212 139 130 128 255
-0.05 -0.0734651 1.01 0.929803 -0.240965 0.278212 139 130 128 255
-0.0483008 -0.09 0.99 0.989431 -0.0807829 0.120419 136 125 133 255
-0.0466679 -0.07 0.99 0.989431 -0.0807829 0.120419 130 119 126 255
-0.049102 -0.07 1.01 0.989431 -0.0807829 0.120419 139 130 128 255
-0.049102 -0.07 1.01 0.939282 -0.243421 0.24186 139 130 128 255
-0.05 -0.07 1.01349 0.939282 -0.243421 0.24186 139 130 128 255
-0.05 -0.0734651 1.01 0.939282 -0.243421 0.24186 139 130 128 255
-0.05 -0.05 0.984403 0.953861 0.298248 -0.0346 120 105 124 255
-0.049797 -0.05 0.99 0.953861 0.298248 -0.0346 120 105 124 255
-0.05 -0.0516709 0.97 0.953861 0.298248 -0.0346 96 80 121 255
-0.049797 -0.05 0.99 0.975814 0.216801 -0.0280183 120 105 124 255
-0.0459277 -0.07 0.97 0.975814 0.216801 -0.0280183 114 97 118 255
-0.05 -0.0516709 0.97 0.975814 0.216801 -0.0280183 96 80 121 255
-0.049797 -0.05 0.99 0.987321 0.154471 0.0365379 120 105 124 255
-0.0466679 -0.07 0.99 0.987321 0.154471 0.0365379 130 119 126 255
-0.0459277 -0.07 0.97 0.987321 0.154471 0.0365379 114 97 118 255
-0.05 -0.0654914 1.01 0.968089 0.19282 0.160076 139 130 128 255
-0.049102 -0.07 1.01 0.968089 0.19282 0.160076 139 130 128 255
-0.05 -0.05 0.99134 0.968089 0.19282 0.160076 120 105 124 255
-0.049102 -0.07 1.01 0.972361 0.181126 0.147337 139 130 128 255
-0.049797 -0.05 0.99 0.972361 0.181126 0.147337 120 105 124 255
-0.05 -0.05 0.99134 0.972361 0.181126 0.147337 120 105 124 255
-0.049102 -0.07 1.01 0.980915 0.153469 0.119383 139 130 128 255
-0.0466679 -0.07 0.99 0.980915 0.153469 0.119383 130 119 126 255
-0.049797 -0.05 0.99 0.980915 0.153469 0.119383 120 105 124 255
-0.05 -0.0654914 1.01 0.950884 0.189393 0.244847 139 130 128 255
-0.05 -0.07 1.01349 0.950884 0.189393 0.244847 139 130 128 255
-0.049102 -0.07 1.01 0.950884 0.189393 0.244847 139 130 128 255
-0.11 -0.0754918 0.91 -0.690545 -0.650798 -0.315611 111 93 120 255
-0.0963269 -0.09 0.91 -0.690545 -0.650798 -0.315611 80 74 128 255
-0.105468 -0.09 0.93 -0.690545 -0.650798 -0.315611 147 142 156 255
-0.11 -0.0754918 0.91 -0.701486 -0.642958 -0.307445 111 93 120 255
-0.105468 -0.09 0.93 -0.701486 -0.642958 -0.307445 147 142 156 255
-0.11 -0.0850553 0.93 -0.701486 -0.642958 -0.307445 147 142 156 255
-0.11 -0.09 0.94776 -0.724483 -0.664036 -0.184881 147 147 157 255
-0.11 -0.0850553 0.93 -0.724483 -0.664036 -0.184881 147 142 156 255
-0.105468 -0.09 0.93 -0.724483 -0.664036 -0.184881 147 142 156 255
-0.11 -0.07 0.848376 -0.911528 0.226499 0.343241 155 106 73 255
-0.109389 -0.07 0.85 -0.911528 0.226499 0.343241 155 106 73 255
-0.104419 -0.05 0.85 -0.911528 0.226499 0.343241 155 105 70 255
-0.11 -0.07 0.848376 -0.901874 0.221564 0.370853 155 106 73 255
-0.104419 -0.05 0.85 -0.901874 0.221564 0.370853 155 105 70 255
-0.11 -0.05 0.836428 -0.901874 0.221564 0.370853 157 103 66 255
-0.10533 -0.07 0.87 -0.952193 0.236604 0.193254 156 106 69 255
-0.104419 -0.05 0.85 -0.952193 0.236604 0.193254 155 105 70 255
-0.109389 -0.07 0.85 -0.952193 0.236604 0.193254 155 106 73 255
-0.100138 -0.05 0.87 -0.947786 0.246041 0.202891 154 106 76 255
-0.104419 -0.05 0.85 -0.947786 0.246041 0.202891 155 105 70 255
-0.10533 -0.07 0.87 -0.947786 0.246041 0.202891 156 106 69 255
-0.101521 -0.07 0.89 -0.951882 0.247104 0.181274 156 105 67 255
-0.100138 -0.05 0.87 -0.951882 0.247104 0.181274 154 106 76 255
-0.10533 -0.07 0.87 -0.951882 0.247104 0.181274 156 106 69 255
-0.0964374 -0.05 0.89 -0.95397 0.242468 0.176494 144 109 88 255
-0.100138 -0.05 0.87 -0.95397 0.242468 0.176494 154 106 76 255
-0.101521 -0.07 0.89 -0.95397 0.242468 0.176494 156 105 67 255
-0.101521 -0.07 0.89 -0.771384 0.479911 -0.417915 156 105 67 255
-0.11 -0.07 0.905651 -0.771384 0.479911 -0.417915 111 93 120 255
-0.11 -0.0662127 0.91 -0.771384 0.479911 -0.417915 111 93 120 255
-0.0959383 -0.05 0.91 -0.690356 0.598763 -0.406069 132 103 96 255
-0.101521 -0.07 0.89 -0.690356 0.598763 -0.406069 156 105 67 255
-0.11 -0.0662127 0.91 -0.690356 0.598763 -0.406069 111 93 120 255
-0.0964374 -0.05 0.89 -0.968901 0.246263 0.02418 144 109 88 255
-0.101521 -0.07 0.89 -0.968901 0.246263 0.02418 156 105 67 255
-0.0959383 -0.05 0.91 -0.968901 0.246263 0.02418 132 103 96 255
-0.0959383 -0.05 0.91 -0.673905 0.584495 -0.451903 132 103 96 255
-0.11 -0.0662127 0.91 -0.673905 0.584495 -0.451903 111 93 120 255
-0.11 -0.0507497 0.93 -0.673905 0.584495 -0.451903 123 102 109 255
-0.0959383 -0.05 0.91 -0.461657 0.837201 -0.293202 132 103 96 255
-0.11 -0.0507497 0.93 -0.461657 0.837201 -0.293202 123 102 109 255
-0.10864 -0.05 0.93 -0.461657 0.837201 -0.293202 123 102 109 255
-0.11 -0.05 0.932025 -0.459335 0.832991 -0.308443 123 102 109 255
-0.10864 -0.05 0.93 -0.459335 0.832991 -0.308443 123 102 109 255
-0.11 -0.0507497 0.93 -0.459335 0.832991 -0.308443 123 102 109 255
-0.10864 -0.05 0.93 -0.439287 0.853925 -0.278995 123 102 109 255
-0.09 -0.0404107 0.93 -0.439287 0.853925 -0.278995 108 89 119 255
-0.0959383 -0.05 0.91 -0.439287 0.853925 -0.278995 132 103 96 255
-0.0959383 -0.05 0.91 -0.732417 0.672701 -0.10507 132 103 96 255
-0.09 -0.0404107 0.93 -0.732417 0.672701 -0.10507 108 89 119 255
-0.09 -0.0435346 0.91 -0.732417 0.672701 -0.10507 132 103 96 255
-0.11 -0.05 0.932025 -0.356985 0.902828 -0.239715 123 102 109 255
-0.11 -0.0452273 0.95 -0.356985 0.902828 -0.239715 94 84 137 255
-0.10864 -0.05 0.93 -0.356985 0.902828 -0.239715 123 102 109 255
-0.11 -0.0452273 0.95 -0.444485 0.864029 -0.236404 94 84 137 255
-0.09 -0.0404107 0.93 -0.444485 0.864029 -0.236404 108 89 119 255
-0.10864 -0.05 0.93 -0.444485 0.864029 -0.236404 123 102 109 255
-0.11 -0.0452273 0.95 -0.346751 0.929882 -0.122811 94 84 137 255
-0.09 -0.0377693 0.95 -0.346751 0.929882 -0.122811 126 101 101 255
-0.09 -0.0404107 0.93 -0.346751 0.929882 -0.122811 108 89 119 255
-0.09 -0.0863148 0.87 -0.252824 -0.942533 0.21843 156 105 62 255
-0.09 -0.09 0.854098 -0.252824 -0.942533 0.21843 153 106 66 255
-0.0762614 -0.09 0.87 -0.252824 -0.942533 0.21843 144 100 73 255
-0.09 -0.0863148 0.87 -0.254111 -0.947334 0.194901 156 105 62 255
-0.0762614 -0.09 0.87 -0.254111 -0.947334 0.194901 144 100 73 255
-0.07 -0.09 0.878164 -0.254111 -0.947334 0.194901 144 100 73 255
-0.07 -0.0867919 0.89 -0.27375 -0.928309 0.251603 137 100 81 255
-0.09 -0.0863148 0.87 -0.27375 -0.928309 0.251603 156 105 62 255
-0.07 -0.09 0.878164 -0.27375 -0.928309 0.251603 144 100 73 255
-0.09 -0.0806736 0.89 -0.28244 -0.923262 0.260413 157 102 62 255
-0.09 -0.0863148 0.87 -0.28244 -0.923262 0.260413 156 105 62 255
-0.07 -0.0867919 0.89 -0.28244 -0.923262 0.260413 137 100 81 255
-0.09 -0.09 0.90555 -0.253762 -0.829517 -0.497499 80 74 128 255
-0.09 -0.0806736 0.89 -0.253762 -0.829517 -0.497499 157 102 62 255
-0.07 -0.0867919 0.89 -0.253762 -0.829517 -0.497499 137 100 81 255
-0.09 -0.09 0.90555 0.0123018 -0.982315 -0.186829 80 74 128 255
-0.07 -0.0867919 0.89 0.0123018 -0.982315 -0.186829 137 100 81 255
-0.07 -0.09 0.906867 0.0123018 -0.982315 -0.186829 122 95 97 255
-0.07 -0.0350797 0.85 -0.0231739 0.948179 0.31689 153 100 61 255
-0.07 -0.03 0.834801 -0.0231739 0.948179 0.31689 154 98 59 255
-0.09 -0.03 0.833338 -0.0231739 0.948179 0.31689 157 103 66 255
-0.07 -0.0350797 0.85 -0.0590453 0.93289 0.355288 153 100 61 255
-0.09 -0.03 0.833338 -0.0590453 0.93289 0.355288 157 103 66 255
-0.09 -0.0363455 0.85 -0.0590453 0.93289 0.355288 153 104 68 255
-0.09 -0.0363455 0.85 -0.0619758 0.979191 0.193244 153 104 68 255
-0.07 -0.0390267 0.87 -0.0619758 0.979191 0.193244 142 105 76 255
-0.07 -0.0350797 0.85 -0.0619758 0.979191 0.193244 153 100 61 255
-0.09 -0.040806 0.87 -0.0865067 0.972363 0.216859 146 111 91 255
-0.07 -0.0390267 0.87 -0.0865067 0.972363 0.216859 142 105 76 255
-0.09 -0.0363455 0.85 -0.0865067 0.972363 0.216859 153 104 68 255
-0.09 -0.040806 0.87 -0.086733 0.974906 0.205025 146 111 91 255
-0.07 -0.0432327 0.89 -0.086733 0.974906 0.205025 140 102 80 255
-0.07 -0.0390267 0.87 -0.086733 0.974906 0.205025 142 105 76 255
-0.09 -0.0435113 0.89 -0.0138028 0.990881 0.134033 144 109 88 255
-0.07 -0.0432327 0.89 -0.0138028 0.990881 0.134033 140 102 80 255
-0.09 -0.040806 0.87 -0.0138028 0.990881 0.134033 146 111 91 255
-0.09 -0.0435113 0.89 -0.013918 0.999155 -0.0386813 144 109 88 255
-0.07 -0.0424584 0.91 -0.013918 0.999155 -0.0386813 126 96 92 255
-0.07 -0.0432327 0.89 -0.013918 0.999155 -0.0386813 140 102 80 255
-0.09 -0.0435346 0.91 -0.0537277 0.998555 0.00116005 132 103 96 255
-0.07 -0.0424584 0.91 -0.0537277 0.998555 0.00116005 126 96 92 255
-0.09 -0.0435113 0.89 -0.0537277 0.998555 0.00116005 144 109 88 255
-0.09 -0.0435346 0.91 -0.0530451 0.985868 -0.158907 132 103 96 255
-0.07 -0.0392348 0.93 -0.0530451 0.985868 -0.158907 139 102 80 255
-0.07 -0.0424584 0.91 -0.0530451 0.985868 -0.158907 126 96 92 255
-0.09 -0.0404107 0.93 -0.0579969 0.986358 -0.15406 108 89 119 255
-0.07 -0.0392348 0.93 -0.0579969 0.986358 -0.15406 139 102 80 255
-0.09 -0.0435346 0.91 -0.0579969 0.986358 -0.15406 132 103 96 255
-0.09 -0.0404107 0.93 -0.0584051 0.993301 -0.0997112 108 89 119 255
-0.07 -0.0372271 0.95 -0.0584051 0.993301 -0.0997112 116 92 101 255
-0.07 -0.0392348 0.93 -0.0584051 0.993301 -0.0997112 139 102 80 255
-0.09 -0.0377693 0.95 -0.0268681 0.991033 -0.130887 126 101 101 255
-0.07 -0.0372271 0.95 -0.0268681 0.991033 -0.130887 116 92 101 255
-0.09 -0.0404107 0.93 -0.0268681 0.991033 -0.130887 108 89 119 255
-0.05 -0.0751514 0.85 0.685882 -0.556746 0.468614 151 103 69 255
-0.0620529 -0.09 0.85 0.685882 -0.556746 0.468614 149 99 66 255
-0.05 -0.09 0.832359 0.685882 -0.556746 0.468614 156 103 60 255
-0.0620529 -0.09 0.85 0.744289 -0.604157 0.284656 149 99 66 255
-0.05 -0.0751514 0.85 0.744289 -0.604157 0.284656 151 103 69 255
-0.05 -0.07 0.860933 0.744289 -0.604157 0.284656 153 102 66 255
-0.0519354 -0.07 0.87 0.799865 -0.575379 0.170748 153 102 66 255
-0.0620529 -0.09 0.85 0.799865 -0.575379 0.170748 149 99 66 255
-0.05 -0.07 0.860933 0.799865 -0.575379 0.170748 153 102 66 255
-0.0672253 -0.09 0.87 0.778185 -0.594916 0.201252 144 100 73 255
-0.0620529 -0.09 0.85 0.778185 -0.594916 0.201252 149 99 66 255
-0.0519354 -0.07 0.87 0.778185 -0.594916 0.201252 153 102 66 255
-0.07 -0.09 0.878164 0.609917 -0.76487 0.207305 144 100 73 255
-0.0672253 -0.09 0.87 0.609917 -0.76487 0.207305 144 100 73 255
-0.07 -0.0867919 0.89 0.609917 -0.76487 0.207305 137 100 81 255
-0.0672253 -0.09 0.87 0.7481 -0.631119 0.205022 144 100 73 255
-0.0558338 -0.07 0.89 0.7481 -0.631119 0.205022 152 100 65 255
-0.07 -0.0867919 0.89 0.7481 -0.631119 0.205022 137 100 81 255
-0.0672253 -0.09 0.87 0.785083 -0.600189 0.153028 144 100 73 255
-0.0519354 -0.07 0.87 0.785083 -0.600189 0.153028 153 102 66 255
-0.0558338 -0.07 0.89 0.785083 -0.600189 0.153028 152 100 65 255
-0.07 -0.0867919 0.89 0.758653 -0.640022 -0.121727 137 100 81 255
-0.0558338 -0.07 0.89 0.758653 -0.640022 -0.121727 152 100 65 255
-0.07 -0.09 0.906867 0.758653 -0.640022 -0.121727 122 95 97 255
-0.0558338 -0.07 0.89 0.754841 -0.643166 -0.128657 152 100 65 255
-0.0694661 -0.09 0.91 0.754841 -0.643166 -0.128657 122 95 97 255
-0.07 -0.09 0.906867 0.754841 -0.643166 -0.128657 122 95 97 255
-0.0558338 -0.07 0.89 0.796468 -0.601804 -0.0589211 152 100 65 255
-0.0543543 -0.07 0.91 0.796468 -0.601804 -0.0589211 104 84 109 255
-0.0694661 -0.09 0.91 0.796468 -0.601804 -0.0589211 122 95 97 255
-0.0543543 -0.07 0.91 0.808028 -0.528335 -0.260679 104 84 109 255
-0.05 -0.07 0.923497 0.808028 -0.528335 -0.260679 91 76 127 255
-0.05 -0.0732086 0.93 0.808028 -0.528335 -0.260679 91 76 127 255
-0.062511 -0.09 0.93 0.774082 -0.576755 -0.261057 96 79 113 255
-0.0543543 -0.07 0.91 0.774082 -0.576755 -0.261057 104 84 109 255
-0.05 -0.0732086 0.93 0.774082 -0.576755 -0.261057 91 76 127 255
-0.0694661 -0.09 0.91 0.76881 -0.580905 -0.267358 122 95 97 255
-0.0543543 -0.07 0.91 0.76881 -0.580905 -0.267358 104 84 109 255
-0.062511 -0.09 0.93 0.76881 -0.580905 -0.267358 96 79 113 255
-0.05 -0.0796754 0.95 0.825041 -0.503724 -0.256067 91 80 125 255
-0.0563036 -0.09 0.95 0.825041 -0.503724 -0.256067 113 98 116 255
-0.062511 -0.09 0.93 0.825041 -0.503724 -0.256067 96 79 113 255
-0.05 -0.0796754 0.95 0.787331 -0.586626 -0.189681 91 80 125 255
-0.062511 -0.09 0.93 0.787331 -0.586626 -0.189681 96 79 113 255
-0.05 -0.0732086 0.93 0.787331 -0.586626 -0.189681 91 76 127 255
-0.0518219 -0.05 0.85 0.923656 0.228628 0.307552 152 102 64 255
-0.05 -0.0573603 0.85 0.923656 0.228628 0.307552 152 102 64 255
-0.05 -0.05 0.844528 0.923656 0.228628 0.307552 152 102 64 255
-0.0519354 -0.07 0.87 0.962399 0.177711 0.205444 153 102 66 255
-0.05 -0.07 0.860933 0.962399 0.177711 0.205444 153 102 66 255
-0.05 -0.0573603 0.85 0.962399 0.177711 0.205444 152 102 64 255
-0.0518219 -0.05 0.85 0.942649 0.23333 0.238684 152 102 64 255
-0.0519354 -0.07 0.87 0.942649 0.23333 0.238684 153 102 66 255
-0.05 -0.0573603 0.85 0.942649 0.23333 0.238684 152 102 64 255
-0.0550233 -0.05 0.87 0.976151 0.15071 0.156255 150 104 71 255
-0.0519354 -0.07 0.87 0.976151 0.15071 0.156255 153 102 66 255
-0.0518219 -0.05 0.85 0.976151 0.15071 0.156255 152 102 64 255
-0.0550233 -0.05 0.87 0.970448 0.14983 0.189159 150 104 71 255
-0.0558338 -0.07 0.89 0.970448 0.14983 0.189159 152 100 65 255
-0.0519354 -0.07 0.87 0.970448 0.14983 0.189159 153 102 66 255
-0.0550233 -0.05 0.87 0.968582 0.155128 0.194382 150 104 71 255
-0.059037 -0.05 0.89 0.968582 0.155128 0.194382 148 104 71 255
-0.0558338 -0.07 0.89 0.968582 0.155128 0.194382 152 100 65 255
-0.059037 -0.05 0.89 0.984792 0.157724 -0.0728531 148 104 71 255
-0.0543543 -0.07 0.91 0.984792 0.157724 -0.0728531 104 84 109 255
-0.0558338 -0.07 0.89 0.984792 0.157724 -0.0728531 152 100 65 255
-0.059037 -0.05 0.89 0.970085 0.242292 0.0151583 148 104 71 255
-0.0593495 -0.05 0.91 0.970085 0.242292 0.0151583 139 103 81 255
-0.0543543 -0.07 0.91 0.970085 0.242292 0.0151583 104 84 109 255
-0.0571347 -0.05 0.93 0.843801 0.412596 -0.34317 114 92 100 255
-0.05 -0.0645912 0.93 0.843801 0.412596 -0.34317 91 76 127 255
-0.05 -0.07 0.923497 0.843801 0.412596 -0.34317 91 76 127 255
-0.0543543 -0.07 0.91 0.871319 0.402229 -0.281097 104 84 109 255
-0.0571347 -0.05 0.93 0.871319 0.402229 -0.281097 114 92 100 255
-0.05 -0.07 0.923497 0.871319 0.402229 -0.281097 91 76 127 255
-0.0593495 -0.05 0.91 0.964645 0.240933 -0.106827 139 103 81 255
-0.0571347 -0.05 0.93 0.964645 0.240933 -0.106827 114 92 100 255
-0.0543543 -0.07 0.91 0.964645 0.240933 -0.106827 104 84 109 255
-0.0543224 -0.05 0.95 0.890392 0.437246 -0.126565 89 77 124 255
-0.05 -0.058802 0.95 0.890392 0.437246 -0.126565 89 77 124 255
-0.05 -0.0645912 0.93 0.890392 0.437246 -0.126565 91 76 127 255
-0.0543224 -0.05 0.95 0.891272 0.435808 -0.125325 89 77 124 255
-0.05 -0.0645912 0.93 0.891272 0.435808 -0.125325 91 76 127 255
-0.0571347 -0.05 0.93 0.891272 0.435808 -0.125325 114 92 100 255
-0.0550233 -0.05 0.87 0.586913 0.801037 0.117786 150 104 71 255
-0.07 -0.0390267 0.87 0.586913 0.801037 0.117786 142 105 76 255
-0.059037 -0.05 0.89 0.586913 0.801037 0.117786 148 104 71 255
-0.059037 -0.05 0.89 0.517056 0.837629 0.176155 148 104 71 255
-0.07 -0.0390267 0.87 0.517056 0.837629 0.176155 142 105 76 255
-0.07 -0.0432327 0.89 0.517056 0.837629 0.176155 140 102 80 255
-0.059037 -0.05 0.89 0.525252 0.850907 0.00820745 148 104 71 255
-0.07 -0.0432327 0.89 0.525252 0.850907 0.00820745 140 102 80 255
-0.0593495 -0.05 0.91 0.525252 0.850907 0.00820745 139 103 81 255
-0.0593495 -0.05 0.91 0.5776 0.815709 -0.0315792 139 103 81 255
-0.07 -0.0432327 0.89 0.5776 0.815709 -0.0315792 140 102 80 255
-0.07 -0.0424584 0.91 0.5776 0.815709 -0.0315792 126 96 92 255
-0.0593495 -0.05 0.91 0.576709 0.81445 -0.0638659 139 103 81 255
-0.07 -0.0424584 0.91 0.576709 0.81445 -0.0638659 126 96 92 255
-0.0571347 -0.05 0.93 0.576709 0.81445 -0.0638659 114 92 100 255
-0.0571347 -0.05 0.93 0.636889 0.761132 -0.122683 114 92 100 255
-0.07 -0.0424584 0.91 0.636889 0.761132 -0.122683 126 96 92 255
-0.07 -0.0392348 0.93 0.636889 0.761132 -0.122683 139 102 80 255
-0.0571347 -0.05 0.93 0.63914 0.763822 -0.0898721 114 92 100 255
-0.07 -0.0392348 0.93 0.63914 0.763822 -0.0898721 139 102 80 255
-0.0543224 -0.05 0.95 0.63914 0.763822 -0.0898721 89 77 124 255
-0.0543224 -0.05 0.95 0.629727 0.772932 -0.0775897 89 77 124 255
-0.07 -0.0392348 0.93 0.629727 0.772932 -0.0775897 139 102 80 255
-0.07 -0.0372271 0.95 0.629727 0.772932 -0.0775897 116 92 101 255
-0.05 -0.07 0.923497 0.809377 -0.526671 -0.259858 91 76 127 255
-0.0479121 -0.07 0.93 0.809377 -0.526671 -0.259858 91 76 127 255
-0.05 -0.0732086 0.93 0.809377 -0.526671 -0.259858 91 76 127 255
-0.05 -0.0732086 0.93 0.825434 -0.537119 -0.173673 91 76 127 255
-0.0479121 -0.07 0.93 0.825434 -0.537119 -0.173673 91 76 127 255
-0.05 -0.0796754 0.95 0.825434 -0.537119 -0.173673 91 80 125 255
-0.05 -0.0796754 0.95 0.935269 -0.346907 -0.0701883 91 80 125 255
-0.0479121 -0.07 0.93 0.935269 -0.346907 -0.0701883 91 76 127 255
-0.0464112 -0.07 0.95 0.935269 -0.346907 -0.0701883 91 80 125 255
-0.05 -0.07 0.923497 0.893683 0.344972 -0.286925 91 76 127 255
-0.05 -0.0645912 0.93 0.893683 0.344972 -0.286925 91 76 127 255
-0.0479121 -0.07 0.93 0.893683 0.344972 -0.286925 91 76 127 255
-0.0479121 -0.07 0.93 0.93063 0.359234 -0.0698403 91 76 127 255
-0.05 -0.0645912 0.93 0.93063 0.359234 -0.0698403 91 76 127 255
-0.0464112 -0.07 0.95 0.93063 0.359234 -0.0698403 91 80 125 255
-0.0464112 -0.07 0.95 0.948596 0.304011 -0.0879987 91 80 125 255
-0.05 -0.0645912 0.93 0.948596 0.304011 -0.0879987 91 76 127 255
-0.05 -0.058802 0.95 0.948596 0.304011 -0.0879987 89 77 124 255
-0.05 -0.0796754 0.95 0.791326 -0.48314 -0.374672 91 80 125 255
-0.05 -0.09 0.963313 0.791326 -0.48314 -0.374672 131 121 127 255
-0.0563036 -0.09 0.95 0.791326 -0.48314 -0.374672 113 98 116 255
-0.05 -0.0796754 0.95 0.905239 -0.335769 -0.260387 91 80 125 255
-0.0464112 -0.07 0.95 0.905239 -0.335769 -0.260387 91 80 125 255
-0.05 -0.09 0.963313 0.905239 -0.335769 -0.260387 131 121 127 255
-0.0464112 -0.07 0.95 0.914459 -0.324788 -0.241406 91 80 125 255
-0.0482349 -0.09 0.97 0.914459 -0.324788 -0.241406 131 121 127 255
-0.05 -0.09 0.963313 0.914459 -0.324788 -0.241406 131 121 127 255
-0.0464112 -0.07 0.95 0.993126 -0.114563 -0.024008 91 80 125 255
-0.0459277 -0.07 0.97 0.993126 -0.114563 -0.024008 114 97 118 255
-0.0482349 -0.09 0.97 0.993126 -0.114563 -0.024008 131 121 127 255
-0.0507088 -0.05 0.97 0.911796 0.386792 -0.137913 96 80 121 255
-0.05 -0.0516709 0.97 0.911796 0.386792 -0.137913 96 80 121 255
-0.05 -0.058802 0.95 0.911796 0.386792 -0.137913 89 77 124 255
-0.0507088 -0.05 0.97 0.886033 0.435105 -0.160089 96 80 121 255
-0.05 -0.058802 0.95 0.886033 0.435105 -0.160089 89 77 124 255
-0.0543224 -0.05 0.95 0.886033 0.435105 -0.160089 89 77 124 255
-0.0464112 -0.07 0.95 0.952038 0.305114 -0.0230146 91 80 125 255
-0.05 -0.058802 0.95 0.952038 0.305114 -0.0230146 89 77 124 255
-0.0459277 -0.07 0.97 0.952038 0.305114 -0.0230146 114 97 118 255
-0.0459277 -0.07 0.97 0.973291 0.216241 -0.0771019 114 97 118 255
-0.05 -0.058802 0.95 0.973291 0.216241 -0.0771019 89 77 124 255
-0.05 -0.0516709 0.97 0.973291 0.216241 -0.0771019 96 80 121 255
-0.11 -0.0452273 0.95 -0.341028 0.914534 -0.217548 94 84 137 255
-0.09 -0.0330117 0.97 -0.341028 0.914534 -0.217548 100 84 127 255
-0.09 -0.0377693 0.95 -0.341028 0.914534 -0.217548 126 101 101 255
-0.11 -0.0424828 0.97 -0.424736 0.896912 -0.123076 99 94 139 255
-0.09 -0.0330117 0.97 -0.424736 0.896912 -0.123076 100 84 127 255
-0.11 -0.0452273 0.95 -0.424736 0.896912 -0.123076 94 84 137 255
-0.09 -0.0377693 0.95 -0.0268493 0.990342 -0.136018 126 101 101 255
-0.07 -0.0344802 0.97 -0.0268493 0.990342 -0.136018 94 80 123 255
-0.07 -0.0372271 0.95 -0.0268493 0.990342 -0.136018 116 92 101 255
-0.09 -0.0330117 0.97 0.071248 0.970381 -0.230833 100 84 127 255
-0.07 -0.0344802 0.97 0.071248 0.970381 -0.230833 94 80 123 255
-0.09 -0.0377693 0.95 0.071248 0.970381 -0.230833 126 101 101 255
-0.0543224 -0.05 0.95 0.627557 0.770269 -0.113387 89 77 124 255
-0.07 -0.0372271 0.95 0.627557 0.770269 -0.113387 116 92 101 255
-0.0507088 -0.05 0.97 0.627557 0.770269 -0.113387 96 80 121 255
-0.0507088 -0.05 0.97 0.623273 0.774731 -0.106405 96 80 121 255
-0.07 -0.0372271 0.95 0.623273 0.774731 -0.106405 116 92 101 255
-0.07 -0.0344802 0.97 0.623273 0.774731 -0.106405 94 80 123 255
3 0 1 2 
3 3 4 5 
3 6 7 8 
3 9 10 11 
3 12 13 14 
3 15 16 17 
3 18 19 20 
3 21 22 23 
3 24 25 26 
3 27 28 29 
3 30 31 32 
3 33 34 35 
3 36 37 38 
3 39 40 41 
3 42 43 44 
3 45 46 47 
3 48 49 50 
3 51 52 53 
3 54 55 56 
3 57 58 59 
3 60 61 62 
3 63 64 65 
3 66 67 68 
3 69 70 71 
3 72 73 74 
3 75 76 77 
3 78 79 80 
3 81 82 83 
3 84 85 86 
3 87 88 89 
3 90 91 92 
3 93 94 95 
3 96 97 98 
3 99 100 101 
3 102 103 104 
3 105 106 107 
3 108 109 110 
3 111 112 113 
3 114 115 116 
3 117 118 119 
3 120 121 122 
3 123 124 125 
3 126 127 128 
3 129 130 131 
3 132 133 134 
3 135 136 137 
3 138 139 140 
3 141 142 143 
3 144 145 146 
3 147 148 149 
3 150 151 152 
3 153 154 155 
3 156 157 158 
3 159 160 161 
3 162 163 164 
3 165 166 167 
3 168 169 170 
3 171 172 173 
3 174 175 176 
3 177 178 179 
3 180 181 182 
3 183 184 185 
3 186 187 188 
3 189 190 191 
3 192 193 194 
3 195 196 197 
3 198 199 200 
3 201 202 203 
3 204 205 206 
3 207 208 209 
3 210 211 212 
3 213 214 215 
3 216 217 218 
3 219 220 221 
3 222 223 224 
3 225 226 227 
3 228 229 230 
3 231 232 233 
3 234 235 236 
3 237 238 239 
3 240 241 242 
3 243 244 245 
3 246 247 248 
3 249 250 251 
3 252 253 254 
3 255 256 257 
3 258 259 260 
3 261 262 263 
3 264 265 266 
3 267 268 269 
3 270 271 272 
3 273 274 275 
3 276 277 278 
3 279 280 281 
3 282 283 284 
3 285 286 287 
3 288 289 290 
3 291 292 293 
3 294 295 296 
3 297 298 299 
3 300 301 302 
3 303 304 305 
3 306 307 308 
3 309 310 311 
3 312 313 314 
3 315 316 317 
3 318 319 320 
3 321 322 323 
3 324 325 326 
3 327 328 329 
3 330 331 332 
3 333 334 335 
3 336 337 338 
3 339 340 341 
3 342 343 344 
3 345 346 347 
3 348 349 350 
3 351 352 353 
3 354 355 356 
3 357 358 359 
3 360 361 362 
3 363 364 365 
3 366 367 368 
3 369 370 371 
3 372 373 374 
3 375 376 377 
3 378 379 380 
3 381 382 383 
3 384 385 386 
3 387 388 389 
3 390 391 392 
3 393 394 395 
3 396 397 398 
3 399 400 401 
3 402 403 404 
3 405 406 407 
3 408 409 410 
3 411 412 413 
3 414 415 416 
3 417 418 419 
3 420 421 422 
3 423 424 425 
3 426 427 428 
3 429 430 431 
3 432 433 434 
3 435 436 437 
3 438 439 440 
3 441 442 443 
3 444 445 446 
3 447 448 449 
3 450 451 452 
3 453 454 455 
3 456 457 458 
3 459 460 461 
3 462 463 464 
3 465 466 467 
3 468 469 470 
3 471 472 473 
3 474 475 476 
3 477 478 479 
3 480 481 482 
3 483 484 485 
3 486 487 488 
3 489 490 491 
3 492 493 494 
3 495 496 497 
3 498 499 500 
