ply
format ascii 1.0
element vertex 270
property float x
property float y
property float z
property float normal_x
property float normal_y
property float normal_z
property uchar red
property uchar green
property uchar blue
property uchar alpha
element face 90
property list uchar int vertex_indices
end_header
0.09 0.05 0.830306 -0.938078 -0.225938 0.262604 156 106 68 255
0.0955132 0.05 0.85 -0.938078 -0.225938 0.262604 157 104 66 255
0.0906961 0.07 0.85 -0.938078 -0.225938 0.262604 153 106 73 255
0.09 0.05 0.830306 -0.986385 -0.0966722 0.133038 156 106 68 255
0.0906961 0.07 0.85 -0.986385 -0.0966722 0.133038 153 106 73 255
0.09 0.07 0.844839 -0.986385 -0.0966722 0.133038 153 106 73 255
0.0995914 0.05 0.87 -0.896731 -0.44129 -0.0337196 157 107 64 255
0.09 0.0694904 0.87 -0.896731 -0.44129 -0.0337196 158 112 75 255
0.09 0.07 0.863331 -0.896731 -0.44129 -0.0337196 158 112 75 255
0.0906961 0.07 0.85 -0.894528 -0.444565 -0.0467106 153 106 73 255
0.0995914 0.05 0.87 -0.894528 -0.444565 -0.0467106 157 107 64 255
0.09 0.07 0.863331 -0.894528 -0.444565 -0.0467106 158 112 75 255
0.0955132 0.05 0.85 -0.95364 -0.229687 0.194459 157 104 66 255
0.0995914 0.05 0.87 -0.95364 -0.229687 0.194459 157 107 64 255
0.0906961 0.07 0.85 -0.95364 -0.229687 0.194459 153 106 73 255
0.0931093 0.07 0.89 -0.570415 -0.814036 0.109421 166 131 88 255
0.09 0.07 0.873791 -0.570415 -0.814036 0.109421 158 112 75 255
0.09 0.0694904 0.87 -0.570415 -0.814036 0.109421 158 112 75 255
0.0995914 0.05 0.87 -0.887218 -0.436608 0.149055 157 107 64 255
0.0931093 0.07 0.89 -0.887218 -0.436608 0.149055 166 131 88 255
0.09 0.0694904 0.87 -0.887218 -0.436608 0.149055 158 112 75 255
0.103079 0.05 0.89 -0.884264 -0.440795 0.154199 207 154 39 255
0.0931093 0.07 0.89 -0.884264 -0.440795 0.154199 166 131 88 255
0.0995914 0.05 0.87 -0.884264 -0.440795 0.154199 157 107 64 255
0.108011 0.05 0.91 -0.873941 -0.435649 0.215494 210 153 38 255
0.0931093 0.07 0.89 -0.873941 -0.435649 0.215494 166 131 88 255
0.103079 0.05 0.89 -0.873941 -0.435649 0.215494 207 154 39 255
0.106715 0.07 0.91 -0.825638 -0.0534954 0.561659 215 159 33 255
0.0931093 0.07 0.89 -0.825638 -0.0534954 0.561659 166 131 88 255
0.108011 0.05 0.91 -0.825638 -0.0534954 0.561659 210 153 38 255
0.11 0.07 0.91415 -0.783256 0.045979 0.619997 215 159 33 255
0.106715 0.07 0.91 -0.783256 0.045979 0.619997 215 159 33 255
0.11 0.05 0.915634 -0.783256 0.045979 0.619997 210 153 38 255
0.11 0.05 0.915634 -0.941177 -0.0609816 0.332366 210 153 38 255
0.106715 0.07 0.91 -0.941177 -0.0609816 0.332366 215 159 33 255
0.108011 0.05 0.91 -0.941177 -0.0609816 0.332366 210 153 38 255
0.09 0.07 0.844839 -0.987387 0.0856243 0.133173 153 106 73 255
0.0906961 0.07 0.85 -0.987387 0.0856243 0.133173 153 106 73 255
0.0924305 0.09 0.85 -0.987387 0.0856243 0.133173 154 109 75 255
0.09 0.07 0.844839 -0.988511 0.0885082 0.122527 153 106 73 255
0.0924305 0.09 0.85 -0.988511 0.0885082 0.122527 154 109 75 255
0.09 0.09 0.830392 -0.988511 0.0885082 0.122527 155 107 73 255
0.0906961 0.07 0.85 -0.995404 0.0804352 -0.0519782 153 106 73 255
0.09 0.07 0.863331 -0.995404 0.0804352 -0.0519782 158 112 75 255
0.09 0.0743097 0.87 -0.995404 0.0804352 -0.0519782 158 112 75 255
0.0917745 0.09 0.87 -0.991952 0.112186 -0.0586999 162 117 82 255
0.0906961 0.07 0.85 -0.991952 0.112186 -0.0586999 153 106 73 255
0.09 0.0743097 0.87 -0.991952 0.112186 -0.0586999 158 112 75 255
0.0924305 0.09 0.85 -0.99573 0.0863477 -0.0326578 154 109 75 255
0.0906961 0.07 0.85 -0.99573 0.0863477 -0.0326578 153 106 73 255
0.0917745 0.09 0.87 -0.99573 0.0863477 -0.0326578 162 117 82 255
0.0917745 0.09 0.87 -0.985655 0.111474 0.12672 162 117 82 255
0.09 0.0743097 0.87 -0.985655 0.111474 0.12672 158 112 75 255
0.09 0.07 0.873791 -0.985655 0.111474 0.12672 158 112 75 255
0.0931093 0.07 0.89 -0.974766 0.121932 0.186986 166 131 88 255
0.0917745 0.09 0.87 -0.974766 0.121932 0.186986 162 117 82 255
0.09 0.07 0.873791 -0.974766 0.121932 0.186986 158 112 75 255
0.101468 0.09 0.89 -0.842282 0.352013 0.408225 193 145 52 255
0.0917745 0.09 0.87 -0.842282 0.352013 0.408225 162 117 82 255
0.0931093 0.07 0.89 -0.842282 0.352013 0.408225 166 131 88 255
0.106715 0.07 0.91 -0.78148 0.326602 0.53162 215 159 33 255
0.101468 0.09 0.89 -0.78148 0.326602 0.53162 193 145 52 255
0.0931093 0.07 0.89 -0.78148 0.326602 0.53162 166 131 88 255
0.107884 0.09 0.91 -0.95073 0.0555771 0.304996 195 149 51 255
0.101468 0.09 0.89 -0.95073 0.0555771 0.304996 193 145 52 255
0.106715 0.07 0.91 -0.95073 0.0555771 0.304996 215 159 33 255
0.11 0.09 0.915545 -0.933992 -0.0248575 0.356429 195 149 51 255
0.107884 0.09 0.91 -0.933992 -0.0248575 0.356429 195 149 51 255
0.11 0.07 0.91415 -0.933992 -0.0248575 0.356429 215 159 33 255
0.11 0.07 0.91415 -0.783263 0.0457874 0.620002 215 159 33 255
0.107884 0.09 0.91 -0.783263 0.0457874 0.620002 195 149 51 255
0.106715 0.07 0.91 -0.783263 0.0457874 0.620002 215 159 33 255
0.11 0.09 0.915545 -0.699061 0.663435 0.266775 195 149 51 255
0.11 0.0922298 0.91 -0.699061 0.663435 0.266775 195 149 51 255
0.107884 0.09 0.91 -0.699061 0.663435 0.266775 195 149 51 255
0.11 0.0305963 0.83 -0.148988 -0.89892 0.412002 160 103 63 255
0.11 0.03 0.828699 -0.148988 -0.89892 0.412002 160 103 63 255
0.113598 0.03 0.83 -0.148988 -0.89892 0.412002 160 103 63 255
0.11 0.0305963 0.83 -0.162684 -0.981554 0.100429 160 103 63 255
0.113598 0.03 0.83 -0.162684 -0.981554 0.100429 160 103 63 255
0.125944 0.03 0.85 -0.162684 -0.981554 0.100429 183 125 38 255
0.11 0.0305963 0.83 -0.322455 -0.918296 0.229686 160 103 63 255
0.125944 0.03 0.85 -0.322455 -0.918296 0.229686 183 125 38 255
0.11 0.0355988 0.85 -0.322455 -0.918296 0.229686 161 107 60 255
0.11 0.0355988 0.85 -0.331249 -0.943338 0.0196648 161 107 60 255
0.125944 0.03 0.85 -0.331249 -0.943338 0.0196648 183 125 38 255
0.127132 0.03 0.87 -0.331249 -0.943338 0.0196648 205 149 36 255
0.11 0.0355988 0.85 -0.446169 -0.884785 0.134494 161 107 60 255
0.127132 0.03 0.87 -0.446169 -0.884785 0.134494 205 149 36 255
0.11 0.0386389 0.87 -0.446169 -0.884785 0.134494 183 127 45 255
0.11 0.0386389 0.87 -0.449611 -0.891611 0.0536695 183 127 45 255
0.127132 0.03 0.87 -0.449611 -0.891611 0.0536695 205 149 36 255
0.129519 0.03 0.89 -0.449611 -0.891611 0.0536695 194 149 59 255
0.11 0.0386389 0.87 -0.522186 -0.840112 0.146744 183 127 45 255
0.129519 0.03 0.89 -0.522186 -0.840112 0.146744 194 149 59 255
0.11 0.0421323 0.89 -0.522186 -0.840112 0.146744 207 154 39 255
0.11 0.0421323 0.89 -0.523144 -0.841652 0.133952 207 154 39 255
0.129519 0.03 0.89 -0.523144 -0.841652 0.133952 194 149 59 255
0.13 0.03 0.891879 -0.523144 -0.841652 0.133952 194 149 59 255
0.13 0.0413238 0.91 -0.491397 -0.738588 0.461537 215 160 34 255
0.11 0.0421323 0.89 -0.491397 -0.738588 0.461537 207 154 39 255
0.13 0.03 0.891879 -0.491397 -0.738588 0.461537 194 149 59 255
0.11 0.04795 0.91 -0.303157 -0.915015 0.266164 210 153 38 255
0.11 0.0421323 0.89 -0.303157 -0.915015 0.266164 207 154 39 255
0.13 0.0413238 0.91 -0.303157 -0.915015 0.266164 215 160 34 255
0.13 0.0413238 0.91 -0.197482 -0.596058 0.778278 215 160 34 255
0.13 0.05 0.916645 -0.197482 -0.596058 0.778278 215 160 34 255
0.11 0.04795 0.91 -0.197482 -0.596058 0.778278 210 153 38 255
0.11 0.04795 0.91 -0.0172872 -0.939579 0.341897 210 153 38 255
0.13 0.05 0.916645 -0.0172872 -0.939579 0.341897 215 160 34 255
0.11 0.05 0.915634 -0.0172872 -0.939579 0.341897 210 153 38 255
0.13 0.07 0.913956 -0.0500489 0.133084 0.98984 221 161 24 255
0.11 0.05 0.915634 -0.0500489 0.133084 0.98984 210 153 38 255
0.13 0.05 0.916645 -0.0500489 0.133084 0.98984 215 160 34 255
0.11 0.07 0.91415 0.00970038 0.0739535 0.997215 215 159 33 255
0.11 0.05 0.915634 0.00970038 0.0739535 0.997215 210 153 38 255
0.13 0.07 0.913956 0.00970038 0.0739535 0.997215 221 161 24 255
0.13 0.09 0.91422 0.00972617 -0.0132304 0.999865 213 159 38 255
0.11 0.07 0.91415 0.00972617 -0.0132304 0.999865 215 159 33 255
0.13 0.07 0.913956 0.00972617 -0.0132304 0.999865 221 161 24 255
0.11 0.09 0.915545 0.0659314 -0.06942 0.995406 195 149 51 255
0.11 0.07 0.91415 0.0659314 -0.06942 0.995406 215 159 33 255
0.13 0.09 0.91422 0.0659314 -0.06942 0.995406 213 159 38 255
0.114661 0.11 0.83 -0.147432 0.988967 -0.0144383 156 107 70 255
0.11 0.109305 0.83 -0.147432 0.988967 -0.0144383 156 107 70 255
0.11 0.109597 0.85 -0.147432 0.988967 -0.0144383 153 109 74 255
0.114661 0.11 0.83 -0.285342 0.957262 -0.0472191 156 107 70 255
0.11 0.109597 0.85 -0.285342 0.957262 -0.0472191 153 109 74 255
0.111352 0.11 0.85 -0.285342 0.957262 -0.0472191 153 109 74 255
0.11 0.11 0.852902 -0.283165 0.949958 -0.131899 153 109 74 255
0.111352 0.11 0.85 -0.283165 0.949958 -0.131899 153 109 74 255
0.11 0.109597 0.85 -0.283165 0.949958 -0.131899 153 109 74 255
0.13 0.10587 0.89 -0.328625 0.759573 0.561298 153 130 78 255
0.13 0.11 0.884411 -0.328625 0.759573 0.561298 153 130 78 255
0.11 0.11 0.872701 -0.328625 0.759573 0.561298 167 116 77 255
0.13 0.10587 0.89 -0.27905 0.809867 0.515991 153 130 78 255
0.11 0.11 0.872701 -0.27905 0.809867 0.515991 167 116 77 255
0.11 0.0989784 0.89 -0.27905 0.809867 0.515991 193 145 52 255
0.11 0.0989784 0.89 -0.278388 0.807945 0.51935 193 145 52 255
0.13 0.0930136 0.91 -0.278388 0.807945 0.51935 213 159 38 255
0.13 0.10587 0.89 -0.278388 0.807945 0.51935 153 130 78 255
0.11 0.0922298 0.91 -0.0371061 0.94686 0.319498 195 149 51 255
0.13 0.0930136 0.91 -0.0371061 0.94686 0.319498 213 159 38 255
0.11 0.0989784 0.89 -0.0371061 0.94686 0.319498 193 145 52 255
0.11 0.0922298 0.91 -0.0363351 0.927187 0.372832 195 149 51 255
0.11 0.09 0.915545 -0.0363351 0.927187 0.372832 195 149 51 255
0.13 0.0930136 0.91 -0.0363351 0.927187 0.372832 213 159 38 255
0.13 0.0930136 0.91 0.0384611 0.813229 0.580671 213 159 38 255
0.11 0.09 0.915545 0.0384611 0.813229 0.580671 195 149 51 255
0.13 0.09 0.91422 0.0384611 0.813229 0.580671 213 159 38 255
0.13 0.0185783 0.93 0.710158 0.340445 0.616257 132 114 101 255
0.13 0.01 0.934739 0.710158 0.340445 0.616257 132 114 101 255
0.134112 0.01 0.93 0.710158 0.340445 0.616257 132 114 101 255
0.15 0.030456 0.83 0.175562 -0.846105 0.503273 157 99 52 255
0.147802 0.03 0.83 0.175562 -0.846105 0.503273 157 99 52 255
0.15 0.03 0.829233 0.175562 -0.846105 0.503273 157 99 52 255
0.15 0.0310653 0.85 0.156109 -0.987104 0.0354252 178 121 42 255
0.143264 0.03 0.85 0.156109 -0.987104 0.0354252 178 121 42 255
0.147802 0.03 0.83 0.156109 -0.987104 0.0354252 157 99 52 255
0.15 0.0310653 0.85 0.203077 -0.978709 0.0298165 178 121 42 255
0.147802 0.03 0.83 0.203077 -0.978709 0.0298165 157 99 52 255
0.15 0.030456 0.83 0.203077 -0.978709 0.0298165 157 99 52 255
0.15 0.0326643 0.87 0.253229 -0.96643 0.0434493 189 135 46 255
0.139832 0.03 0.87 0.253229 -0.96643 0.0434493 205 149 36 255
0.143264 0.03 0.85 0.253229 -0.96643 0.0434493 178 121 42 255
0.15 0.0326643 0.87 0.155722 -0.984659 0.0787199 189 135 46 255
0.143264 0.03 0.85 0.155722 -0.984659 0.0787199 178 121 42 255
0.15 0.0310653 0.85 0.155722 -0.984659 0.0787199 178 121 42 255
0.15 0.0391932 0.89 0.42678 -0.88428 0.189494 196 139 71 255
0.130952 0.03 0.89 0.42678 -0.88428 0.189494 194 149 59 255
0.139832 0.03 0.87 0.42678 -0.88428 0.189494 205 149 36 255
0.15 0.0391932 0.89 0.241703 -0.922443 0.301128 196 139 71 255
0.139832 0.03 0.87 0.241703 -0.922443 0.301128 205 149 36 255
0.15 0.0326643 0.87 0.241703 -0.922443 0.301128 189 135 46 255
0.13 0.0413238 0.91 0.722815 -0.586031 0.366206 215 160 34 255
0.13 0.03 0.891879 0.722815 -0.586031 0.366206 194 149 59 255
0.130952 0.03 0.89 0.722815 -0.586031 0.366206 194 149 59 255
0.15 0.0391932 0.89 0.383955 -0.795547 0.468704 196 139 71 255
0.13 0.0413238 0.91 0.383955 -0.795547 0.468704 215 160 34 255
0.130952 0.03 0.89 0.383955 -0.795547 0.468704 194 149 59 255
0.15 0.0473613 0.91 0.269154 -0.891606 0.364136 204 163 50 255
0.13 0.0413238 0.91 0.269154 -0.891606 0.364136 215 160 34 255
0.15 0.0391932 0.89 0.269154 -0.891606 0.364136 196 139 71 255
0.15 0.0473613 0.91 0.25972 -0.860354 0.438562 204 163 50 255
0.15 0.05 0.915177 0.25972 -0.860354 0.438562 204 163 50 255
0.13 0.0413238 0.91 0.25972 -0.860354 0.438562 215 160 34 255
0.13 0.0413238 0.91 0.0581864 -0.607002 0.792568 215 160 34 255
0.15 0.05 0.915177 0.0581864 -0.607002 0.792568 204 163 50 255
0.13 0.05 0.916645 0.0581864 -0.607002 0.792568 215 160 34 255
0.15 0.07 0.914098 0.0731123 0.053705 0.995877 221 161 24 255
0.13 0.05 0.916645 0.0731123 0.053705 0.995877 215 160 34 255
0.15 0.05 0.915177 0.0731123 0.053705 0.995877 204 163 50 255
0.13 0.07 0.913956 -0.00704429 0.133248 0.991058 221 161 24 255
0.13 0.05 0.916645 -0.00704429 0.133248 0.991058 215 160 34 255
0.15 0.07 0.914098 -0.00704429 0.133248 0.991058 221 161 24 255
0.15 0.09 0.915525 -0.00708964 -0.0711936 0.997437 209 157 45 255
0.13 0.07 0.913956 -0.00708964 -0.0711936 0.997437 221 161 24 255
0.15 0.07 0.914098 -0.00708964 -0.0711936 0.997437 221 161 24 255
0.13 0.09 0.91422 -0.0651081 -0.013203 0.997791 213 159 38 255
0.13 0.07 0.913956 -0.0651081 -0.013203 0.997791 221 161 24 255
0.15 0.09 0.915525 -0.0651081 -0.013203 0.997791 209 157 45 255
0.138334 0.11 0.85 0.313695 0.944041 0.101887 150 109 73 255
0.15 0.106124 0.85 0.313695 0.944041 0.101887 167 117 73 255
0.15 0.108282 0.83 0.313695 0.944041 0.101887 157 102 56 255
0.138334 0.11 0.85 0.159229 0.987209 0.00807894 150 109 73 255
0.15 0.108282 0.83 0.159229 0.987209 0.00807894 157 102 56 255
0.139349 0.11 0.83 0.159229 0.987209 0.00807894 152 106 69 255
0.138421 0.11 0.87 0.495952 0.859956 0.120448 175 117 68 255
0.15 0.103322 0.87 0.495952 0.859956 0.120448 170 121 76 255
0.15 0.106124 0.85 0.495952 0.859956 0.120448 167 117 73 255
0.138421 0.11 0.87 0.315336 0.948979 -0.00137301 175 117 68 255
0.15 0.106124 0.85 0.315336 0.948979 -0.00137301 167 117 73 255
0.138334 0.11 0.85 0.315336 0.948979 -0.00137301 150 109 73 255
0.15 0.103322 0.87 0.479569 0.83155 0.280246 170 121 76 255
0.138421 0.11 0.87 0.479569 0.83155 0.280246 175 117 68 255
0.13 0.11 0.884411 0.479569 0.83155 0.280246 153 130 78 255
0.13 0.10587 0.89 0.571665 0.659868 0.48762 153 130 78 255
0.15 0.103322 0.87 0.571665 0.659868 0.48762 170 121 76 255
0.13 0.11 0.884411 0.571665 0.659868 0.48762 153 130 78 255
0.15 0.0964362 0.89 0.407307 0.86354 0.29732 208 158 46 255
0.15 0.103322 0.87 0.407307 0.86354 0.29732 170 121 76 255
0.13 0.10587 0.89 0.407307 0.86354 0.29732 153 130 78 255
0.13 0.10587 0.89 0.417095 0.884291 0.209908 153 130 78 255
0.15 0.0916887 0.91 0.417095 0.884291 0.209908 209 157 45 255
0.15 0.0964362 0.89 0.417095 0.884291 0.209908 208 158 46 255
0.13 0.0930136 0.91 0.0556364 0.839896 0.539888 213 159 38 255
0.15 0.0916887 0.91 0.0556364 0.839896 0.539888 209 157 45 255
0.13 0.10587 0.89 0.0556364 0.839896 0.539888 153 130 78 255
0.13 0.0930136 0.91 0.0538317 0.812651 0.580258 213 159 38 255
0.13 0.09 0.91422 0.0538317 0.812651 0.580258 213 159 38 255
0.15 0.0916887 0.91 0.0538317 0.812651 0.580258 209 157 45 255
0.15 0.0916887 0.91 -0.0190682 0.95616 0.292223 209 157 45 255
0.13 0.09 0.91422 -0.0190682 0.95616 0.292223 213 159 38 255
0.15 0.09 0.915525 -0.0190682 0.95616 0.292223 209 157 45 255
0.17 0.0586007 0.83 0.982834 -0.130675 -0.130237 184 141 103 255
0.17 0.05 0.83863 0.982834 -0.130675 -0.130237 184 141 103 255
0.168856 0.05 0.83 0.982834 -0.130675 -0.130237 184 141 103 255
0.166513 0.05 0.87 0.967009 -0.133177 0.21716 212 166 63 255
0.17 0.05 0.854474 0.967009 -0.133177 0.21716 202 149 67 255
0.17 0.07 0.866739 0.967009 -0.133177 0.21716 211 169 49 255
0.166513 0.05 0.87 0.927522 -0.103127 0.359259 212 166 63 255
0.17 0.07 0.866739 0.927522 -0.103127 0.359259 211 169 49 255
0.168737 0.07 0.87 0.927522 -0.103127 0.359259 211 169 49 255
0.168737 0.07 0.87 0.93397 -0.103844 0.34193 211 169 49 255
0.159191 0.05 0.89 0.93397 -0.103844 0.34193 218 161 35 255
0.166513 0.05 0.87 0.93397 -0.103844 0.34193 212 166 63 255
0.168737 0.07 0.87 0.942215 -0.150315 0.299394 211 169 49 255
0.162382 0.07 0.89 0.942215 -0.150315 0.299394 204 168 118 255
0.159191 0.05 0.89 0.942215 -0.150315 0.299394 218 161 35 255
0.162382 0.07 0.89 0.935048 -0.149171 0.32161 204 168 118 255
0.152312 0.05 0.91 0.935048 -0.149171 0.32161 204 163 50 255
0.159191 0.05 0.89 0.935048 -0.149171 0.32161 218 161 35 255
0.162382 0.07 0.89 0.906025 -0.0343414 0.421828 204 168 118 255
0.15307 0.07 0.91 0.906025 -0.0343414 0.421828 221 161 24 255
0.152312 0.05 0.91 0.906025 -0.0343414 0.421828 204 163 50 255
0.152312 0.05 0.91 0.712943 -0.624738 0.318457 204 163 50 255
0.15 0.05 0.915177 0.712943 -0.624738 0.318457 204 163 50 255
0.15 0.0473613 0.91 0.712943 -0.624738 0.318457 204 163 50 255
0.15307 0.07 0.91 0.799929 -0.03032 0.599328 221 161 24 255
0.15 0.07 0.914098 0.799929 -0.03032 0.599328 221 161 24 255
0.152312 0.05 0.91 0.799929 -0.03032 0.599328 204 163 50 255
0.152312 0.05 0.91 0.912832 0.0219885 0.407744 204 163 50 255
0.15 0.07 0.914098 0.912832 0.0219885 0.407744 221 161 24 255
0.15 0.05 0.915177 0.912832 0.0219885 0.407744 204 163 50 255
0.151609 0.09 0.91 0.95776 0.0699707 0.278927 209 157 45 255
0.15 0.09 0.915525 0.95776 0.0699707 0.278927 209 157 45 255
0.15307 0.07 0.91 0.95776 0.0699707 0.278927 221 161 24 255
0.15307 0.07 0.91 0.799565 -0.0427585 0.599055 221 161 24 255
0.15 0.09 0.915525 0.799565 -0.0427585 0.599055 209 157 45 255
0.15 0.07 0.914098 0.799565 -0.0427585 0.599055 221 161 24 255
3 0 1 2 
3 3 4 5 
3 6 7 8 
3 9 10 11 
3 12 13 14 
3 15 16 17 
3 18 19 20 
3 21 22 23 
3 24 25 26 
3 27 28 29 
3 30 31 32 
3 33 34 35 
3 36 37 38 
3 39 40 41 
3 42 43 44 
3 45 46 47 
3 48 49 50 
3 51 52 53 
3 54 55 56 
3 57 58 59 
3 60 61 62 
3 63 64 65 
3 66 67 68 
3 69 70 71 
3 72 73 74 
3 75 76 77 
3 78 79 80 
3 81 82 83 
3 84 85 86 
3 87 88 89 
3 90 91 92 
3 93 94 95 
3 96 97 98 
3 99 100 101 
3 102 103 104 
3 105 106 107 
3 108 109 110 
3 111 112 113 
3 114 115 116 
3 117 118 119 
3 120 121 122 
3 123 124 125 
3 126 127 128 
3 129 130 131 
3 132 133 134 
3 135 136 137 
3 138 139 140 
3 141 142 143 
3 144 145 146 
3 147 148 149 
3 150 151 152 
3 153 154 155 
3 156 157 158 
3 159 160 161 
3 162 163 164 
3 165 166 167 
3 168 169 170 
3 171 172 173 
3 174 175 176 
3 177 178 179 
3 180 181 182 
3 183 184 185 
3 186 187 188 
3 189 190 191 
3 192 193 194 
3 195 196 197 
3 198 199 200 
3 201 202 203 
3 204 205 206 
3 207 208 209 
3 210 211 212 
3 213 214 215 
3 216 217 218 
3 219 220 221 
3 222 223 224 
3 225 226 227 
3 228 229 230 
3 231 232 233 
3 234 235 236 
3 237 238 239 
3 240 241 242 
3 243 244 245 
3 246 247 248 
3 249 250 251 
3 252 253 254 
3 255 256 257 
3 258 259 260 
3 261 262 263 
3 264 265 266 
3 267 268 269 
