ply
format ascii 1.0
element vertex 210
property float x
property float y
property float z
property float normal_x
property float normal_y
property float normal_z
property uchar red
property uchar green
property uchar blue
property uchar alpha
element face 70
property list uchar int vertex_indices
end_header
-0.15 0.17 0.882506 -0.379451 -0.0185491 0.925026 184 181 176 255
-0.131731 0.17 0.89 -0.379451 -0.0185491 0.925026 198 198 198 255
-0.132708 0.19 0.89 -0.379451 -0.0185491 0.925026 194 194 194 255
-0.15 0.17 0.882506 -0.625158 0.265479 0.733961 184 181 176 255
-0.132708 0.19 0.89 -0.625158 0.265479 0.733961 194 194 194 255
-0.15 0.19 0.875272 -0.625158 0.265479 0.733961 191 187 177 255
-0.13 0.19 0.894796 -0.867604 -0.0849574 0.489945 194 194 194 255
-0.132708 0.19 0.89 -0.867604 -0.0849574 0.489945 194 194 194 255
-0.13 0.17 0.891328 -0.867604 -0.0849574 0.489945 198 198 198 255
-0.13 0.17 0.891328 -0.608469 -0.0297444 0.79302 198 198 198 255
-0.132708 0.19 0.89 -0.608469 -0.0297444 0.79302 194 194 194 255
-0.131731 0.17 0.89 -0.608469 -0.0297444 0.79302 198 198 198 255
-0.11 0.19 0.892367 0.00163975 -0.0535167 0.998566 212 175 175 255
-0.13 0.17 0.891328 0.00163975 -0.0535167 0.998566 198 198 198 255
-0.11 0.17 0.891295 0.00163975 -0.0535167 0.998566 215 195 195 255
-0.13 0.19 0.894796 0.118817 -0.169642 0.978317 194 194 194 255
-0.13 0.17 0.891328 0.118817 -0.169642 0.978317 198 198 198 255
-0.11 0.19 0.892367 0.118817 -0.169642 0.978317 212 175 175 255
-0.111803 0.21 0.89 -0.572862 0.597255 0.561352 180 157 142 255
-0.13 0.21 0.871429 -0.572862 0.597255 0.561352 164 134 106 255
-0.13 0.192546 0.89 -0.572862 0.597255 0.561352 194 194 194 255
-0.13 0.192546 0.89 -0.646408 0.673932 0.357732 194 194 194 255
-0.13 0.19 0.894796 -0.646408 0.673932 0.357732 194 194 194 255
-0.111803 0.21 0.89 -0.646408 0.673932 0.357732 180 157 142 255
-0.13 0.19 0.894796 -0.614087 0.661843 0.429955 194 194 194 255
-0.11 0.21 0.892574 -0.614087 0.661843 0.429955 180 157 142 255
-0.111803 0.21 0.89 -0.614087 0.661843 0.429955 180 157 142 255
-0.13 0.19 0.894796 0.120558 -0.0103009 0.992653 194 194 194 255
-0.11 0.19 0.892367 0.120558 -0.0103009 0.992653 212 175 175 255
-0.11 0.21 0.892574 0.120558 -0.0103009 0.992653 180 157 142 255
-0.09 0.19 0.89239 -0.00615872 -0.0485256 0.998803 205 205 205 255
-0.11 0.17 0.891295 -0.00615872 -0.0485256 0.998803 215 195 195 255
-0.09 0.17 0.891418 -0.00615872 -0.0485256 0.998803 220 220 220 255
-0.11 0.19 0.892367 -0.00115467 -0.0535167 0.998566 212 175 175 255
-0.11 0.17 0.891295 -0.00115467 -0.0535167 0.998566 215 195 195 255
-0.09 0.19 0.89239 -0.00115467 -0.0535167 0.998566 205 205 205 255
-0.102677 0.21 0.89 0.495982 0.489137 0.717459 180 157 142 255
-0.09 0.197146 0.89 0.495982 0.489137 0.717459 205 205 205 255
-0.09 0.21 0.881237 0.495982 0.489137 0.717459 151 146 130 255
-0.102677 0.21 0.89 0.315211 0.310861 0.896665 180 157 142 255
-0.11 0.21 0.892574 0.315211 0.310861 0.896665 180 157 142 255
-0.09 0.197146 0.89 0.315211 0.310861 0.896665 205 205 205 255
-0.11 0.21 0.892574 0.309887 0.301572 0.901679 180 157 142 255
-0.09 0.19 0.89239 0.309887 0.301572 0.901679 205 205 205 255
-0.09 0.197146 0.89 0.309887 0.301572 0.901679 205 205 205 255
-0.11 0.21 0.892574 -0.00115627 -0.0103766 0.999946 180 157 142 255
-0.11 0.19 0.892367 -0.00115627 -0.0103766 0.999946 212 175 175 255
-0.09 0.19 0.89239 -0.00115627 -0.0103766 0.999946 205 205 205 255
-0.0945799 0.23 0.87 -0.388877 0.820121 0.419734 104 90 79 255
-0.11 0.23 0.855713 -0.388877 0.820121 0.419734 158 103 57 255
-0.11 0.222688 0.87 -0.388877 0.820121 0.419734 151 101 64 255
-0.09 0.21 0.881237 -0.931736 -0.00940899 0.363014 151 146 130 255
-0.09 0.23 0.881755 -0.931736 -0.00940899 0.363014 100 89 80 255
-0.0945799 0.23 0.87 -0.931736 -0.00940899 0.363014 104 90 79 255
-0.11 0.211761 0.89 0.381207 0.517645 0.76598 180 157 142 255
-0.09 0.21 0.881237 0.381207 0.517645 0.76598 151 146 130 255
-0.0945799 0.23 0.87 0.381207 0.517645 0.76598 104 90 79 255
-0.11 0.222688 0.87 -0.38418 0.810215 0.442671 151 101 64 255
-0.11 0.211761 0.89 -0.38418 0.810215 0.442671 180 157 142 255
-0.0945799 0.23 0.87 -0.38418 0.810215 0.442671 104 90 79 255
-0.102677 0.21 0.89 0.221474 0.921038 0.320371 180 157 142 255
-0.09 0.21 0.881237 0.221474 0.921038 0.320371 151 146 130 255
-0.11 0.211761 0.89 0.221474 0.921038 0.320371 180 157 142 255
-0.11 0.211761 0.89 0.194674 0.809587 0.553779 180 157 142 255
-0.11 0.21 0.892574 0.194674 0.809587 0.553779 180 157 142 255
-0.102677 0.21 0.89 0.194674 0.809587 0.553779 180 157 142 255
-0.0987672 0.25 0.85 0.502652 0.645456 0.57509 134 102 60 255
-0.09 0.243172 0.85 0.502652 0.645456 0.57509 134 102 60 255
-0.09 0.25 0.842337 0.502652 0.645456 0.57509 134 102 60 255
-0.09 0.237913 0.87 0.60161 0.772528 0.203142 104 90 79 255
-0.09 0.243172 0.85 0.60161 0.772528 0.203142 134 102 60 255
-0.0987672 0.25 0.85 0.60161 0.772528 0.203142 134 102 60 255
-0.11 0.23 0.855713 -0.623424 0.517562 0.586065 158 103 57 255
-0.09 0.237913 0.87 -0.623424 0.517562 0.586065 104 90 79 255
-0.0987672 0.25 0.85 -0.623424 0.517562 0.586065 134 102 60 255
-0.11 0.25 0.854681 0.384201 0.0476145 0.922021 138 103 57 255
-0.11 0.23 0.855713 0.384201 0.0476145 0.922021 158 103 57 255
-0.0987672 0.25 0.85 0.384201 0.0476145 0.922021 134 102 60 255
-0.09 0.237913 0.87 -0.632462 0.366039 0.682647 104 90 79 255
-0.11 0.23 0.855713 -0.632462 0.366039 0.682647 158 103 57 255
-0.0945799 0.23 0.87 -0.632462 0.366039 0.682647 104 90 79 255
-0.0708651 0.19 0.85 0.846413 0.478146 0.234438 172 135 101 255
-0.07 0.188469 0.85 0.846413 0.478146 0.234438 172 135 101 255
-0.07 0.19 0.846877 0.846413 0.478146 0.234438 172 135 101 255
-0.0745932 0.19 0.87 0.790469 0.597256 0.135809 178 144 106 255
-0.07 0.183921 0.87 0.790469 0.597256 0.135809 178 144 106 255
-0.07 0.188469 0.85 0.790469 0.597256 0.135809 172 135 101 255
-0.0745932 0.19 0.87 0.859432 0.4855 0.160204 178 144 106 255
-0.07 0.188469 0.85 0.859432 0.4855 0.160204 172 135 101 255
-0.0708651 0.19 0.85 0.859432 0.4855 0.160204 172 135 101 255
-0.087805 0.19 0.89 0.676615 0.606104 0.418126 205 205 205 255
-0.07 0.170124 0.89 0.676615 0.606104 0.418126 203 194 185 255
-0.07 0.183921 0.87 0.676615 0.606104 0.418126 178 144 106 255
-0.087805 0.19 0.89 0.705826 0.533302 0.46626 205 205 205 255
-0.07 0.183921 0.87 0.705826 0.533302 0.46626 178 144 106 255
-0.0745932 0.19 0.87 0.705826 0.533302 0.46626 178 144 106 255
-0.087805 0.19 0.89 0.614768 0.550701 0.564614 205 205 205 255
-0.09 0.19 0.89239 0.614768 0.550701 0.564614 205 205 205 255
-0.07 0.170124 0.89 0.614768 0.550701 0.564614 203 194 185 255
-0.09 0.19 0.89239 0.624845 0.563789 0.540102 205 205 205 255
-0.07 0.17 0.890129 0.624845 0.563789 0.540102 203 194 185 255
-0.07 0.170124 0.89 0.624845 0.563789 0.540102 203 194 185 255
-0.09 0.19 0.89239 0.0642534 -0.0484262 0.996758 205 205 205 255
-0.09 0.17 0.891418 0.0642534 -0.0484262 0.996758 220 220 220 255
-0.07 0.17 0.890129 0.0642534 -0.0484262 0.996758 203 194 185 255
-0.13 0.13073 0.85 -0.446351 -0.813296 0.373256 168 149 129 255
-0.13 0.13 0.84841 -0.446351 -0.813296 0.373256 168 149 129 255
-0.12867 0.13 0.85 -0.446351 -0.813296 0.373256 168 149 129 255
-0.13 0.13073 0.85 -0.477068 -0.869265 0.129551 168 149 129 255
-0.12867 0.13 0.85 -0.477068 -0.869265 0.129551 168 149 129 255
-0.123239 0.13 0.87 -0.477068 -0.869265 0.129551 166 153 131 255
-0.13 0.13073 0.85 -0.62256 -0.760949 0.182688 168 149 129 255
-0.123239 0.13 0.87 -0.62256 -0.760949 0.182688 166 153 131 255
-0.13 0.135531 0.87 -0.62256 -0.760949 0.182688 166 153 131 255
-0.13 0.135531 0.87 -0.573263 -0.700693 0.424734 166 153 131 255
-0.123239 0.13 0.87 -0.573263 -0.700693 0.424734 166 153 131 255
-0.11 0.13 0.887869 -0.573263 -0.700693 0.424734 172 166 154 255
-0.11 0.141836 0.89 -0.680345 -0.129884 0.721291 205 185 185 255
-0.13 0.135531 0.87 -0.680345 -0.129884 0.721291 166 153 131 255
-0.11 0.13 0.887869 -0.680345 -0.129884 0.721291 172 166 154 255
-0.13 0.148415 0.89 -0.266519 -0.810268 0.521952 174 174 174 255
-0.13 0.135531 0.87 -0.266519 -0.810268 0.521952 166 153 131 255
-0.11 0.141836 0.89 -0.266519 -0.810268 0.521952 205 185 185 255
-0.11 0.141836 0.89 -0.0516139 -0.156916 0.986262 205 185 185 255
-0.11 0.15 0.891299 -0.0516139 -0.156916 0.986262 205 185 185 255
-0.13 0.148415 0.89 -0.0516139 -0.156916 0.986262 174 174 174 255
-0.13 0.148415 0.89 0.0372563 -0.871201 0.489511 174 174 174 255
-0.11 0.15 0.891299 0.0372563 -0.871201 0.489511 205 185 185 255
-0.13 0.15 0.892821 0.0372563 -0.871201 0.489511 174 174 174 255
-0.11 0.141836 0.89 0.270223 -0.170629 0.947558 205 185 185 255
-0.11 0.13 0.887869 0.270223 -0.170629 0.947558 172 166 154 255
-0.09 0.13 0.882165 0.270223 -0.170629 0.947558 173 166 149 255
-0.11 0.141836 0.89 -0.0327868 -0.589603 0.807027 205 185 185 255
-0.09 0.13 0.882165 -0.0327868 -0.589603 0.807027 173 166 149 255
-0.09 0.140724 0.89 -0.0327868 -0.589603 0.807027 207 207 207 255
-0.09 0.140724 0.89 -0.0181206 -0.325863 0.945243 207 207 207 255
-0.09 0.15 0.893198 -0.0181206 -0.325863 0.945243 207 207 207 255
-0.11 0.141836 0.89 -0.0181206 -0.325863 0.945243 205 185 185 255
-0.11 0.141836 0.89 -0.0933554 -0.156439 0.983266 205 185 185 255
-0.09 0.15 0.893198 -0.0933554 -0.156439 0.983266 207 207 207 255
-0.11 0.15 0.891299 -0.0933554 -0.156439 0.983266 205 185 185 255
-0.07 0.139918 0.85 0.652635 -0.669443 0.354843 167 115 75 255
-0.0801733 0.13 0.85 0.652635 -0.669443 0.354843 184 164 145 255
-0.07 0.13 0.831289 0.652635 -0.669443 0.354843 164 110 65 255
-0.07 0.145926 0.87 0.697796 -0.689493 0.194115 185 164 147 255
-0.0857369 0.13 0.87 0.697796 -0.689493 0.194115 180 167 154 255
-0.0801733 0.13 0.85 0.697796 -0.689493 0.194115 184 164 145 255
-0.07 0.145926 0.87 0.682449 -0.700024 0.210308 185 164 147 255
-0.0801733 0.13 0.85 0.682449 -0.700024 0.210308 184 164 145 255
-0.07 0.139918 0.85 0.682449 -0.700024 0.210308 167 115 75 255
-0.0810443 0.15 0.89 0.52333 -0.50527 0.686169 207 207 207 255
-0.09 0.140724 0.89 0.52333 -0.50527 0.686169 207 207 207 255
-0.07 0.15 0.881577 0.52333 -0.50527 0.686169 183 165 150 255
-0.07 0.15 0.881577 0.499961 -0.816947 0.287464 183 165 150 255
-0.09 0.140724 0.89 0.499961 -0.816947 0.287464 207 207 207 255
-0.07 0.145926 0.87 0.499961 -0.816947 0.287464 185 164 147 255
-0.09 0.140724 0.89 0.692872 -0.425369 0.582229 207 207 207 255
-0.09 0.13 0.882165 0.692872 -0.425369 0.582229 173 166 149 255
-0.07 0.145926 0.87 0.692872 -0.425369 0.582229 185 164 147 255
-0.09 0.13 0.882165 0.690205 -0.681992 0.241873 173 166 149 255
-0.0857369 0.13 0.87 0.690205 -0.681992 0.241873 180 167 154 255
-0.07 0.145926 0.87 0.690205 -0.681992 0.241873 185 164 147 255
-0.0810443 0.15 0.89 0.319835 -0.308797 0.89574 207 207 207 255
-0.09 0.15 0.893198 0.319835 -0.308797 0.89574 207 207 207 255
-0.09 0.140724 0.89 0.319835 -0.308797 0.89574 207 207 207 255
-0.15 0.152879 0.87 -0.703225 -0.630009 0.329489 188 185 180 255
-0.15 0.15 0.864495 -0.703225 -0.630009 0.329489 188 185 180 255
-0.147421 0.15 0.87 -0.703225 -0.630009 0.329489 188 185 180 255
-0.131731 0.17 0.89 -0.314448 -0.559916 0.766561 198 198 198 255
-0.15 0.17 0.882506 -0.314448 -0.559916 0.766561 184 181 176 255
-0.15 0.152879 0.87 -0.314448 -0.559916 0.766561 188 185 180 255
-0.147421 0.15 0.87 -0.464922 -0.416517 0.781256 188 185 180 255
-0.131731 0.17 0.89 -0.464922 -0.416517 0.781256 198 198 198 255
-0.15 0.152879 0.87 -0.464922 -0.416517 0.781256 188 185 180 255
-0.131518 0.15 0.89 -0.782692 -0.0083204 0.622354 174 174 174 255
-0.131731 0.17 0.89 -0.782692 -0.0083204 0.622354 198 198 198 255
-0.147421 0.15 0.87 -0.782692 -0.0083204 0.622354 188 185 180 255
-0.07 0.169473 0.89 0.573464 -0.325241 0.751903 203 194 185 255
-0.0810443 0.15 0.89 0.573464 -0.325241 0.751903 207 207 207 255
-0.07 0.15 0.881577 0.573464 -0.325241 0.751903 183 165 150 255
-0.13 0.17 0.891328 -0.607673 0.0591277 0.791983 198 198 198 255
-0.131731 0.17 0.89 -0.607673 0.0591277 0.791983 198 198 198 255
-0.13 0.15 0.892821 -0.607673 0.0591277 0.791983 174 174 174 255
-0.13 0.15 0.892821 -0.880563 -0.00936082 0.473836 174 174 174 255
-0.131731 0.17 0.89 -0.880563 -0.00936082 0.473836 198 198 198 255
-0.131518 0.15 0.89 -0.880563 -0.00936082 0.473836 174 174 174 255
-0.11 0.17 0.891295 0.0758897 0.000190185 0.997116 215 195 195 255
-0.13 0.15 0.892821 0.0758897 0.000190185 0.997116 174 174 174 255
-0.11 0.15 0.891299 0.0758897 0.000190185 0.997116 205 185 185 255
-0.13 0.17 0.891328 0.00163755 0.0744505 0.997223 198 198 198 255
-0.13 0.15 0.892821 0.00163755 0.0744505 0.997223 174 174 174 255
-0.11 0.17 0.891295 0.00163755 0.0744505 0.997223 215 195 195 255
-0.09 0.17 0.891418 -0.0941506 0.0882252 0.991641 220 220 220 255
-0.11 0.15 0.891299 -0.0941506 0.0882252 0.991641 205 185 185 255
-0.09 0.15 0.893198 -0.0941506 0.0882252 0.991641 207 207 207 255
-0.11 0.17 0.891295 -0.00616598 0.000190731 0.999981 215 195 195 255
-0.11 0.15 0.891299 -0.00616598 0.000190731 0.999981 205 185 185 255
-0.09 0.17 0.891418 -0.00616598 0.000190731 0.999981 220 220 220 255
-0.07 0.169473 0.89 0.387059 -0.219521 0.895542 203 194 185 255
-0.07 0.17 0.890129 0.387059 -0.219521 0.895542 203 194 185 255
-0.0810443 0.15 0.89 0.387059 -0.219521 0.895542 207 207 207 255
-0.07 0.17 0.890129 0.330251 -0.18834 0.924912 203 194 185 255
-0.09 0.15 0.893198 0.330251 -0.18834 0.924912 207 207 207 255
-0.0810443 0.15 0.89 0.330251 -0.18834 0.924912 207 207 207 255
-0.07 0.17 0.890129 0.0640768 0.0884367 0.994019 203 194 185 255
-0.09 0.17 0.891418 0.0640768 0.0884367 0.994019 220 220 220 255
-0.09 0.15 0.893198 0.0640768 0.0884367 0.994019 207 207 207 255
-0.0699518 0.17 0.89 0.933457 -0.0853963 0.348376 203 194 185 255
-0.07 0.17 0.890129 0.933457 -0.0853963 0.348376 203 194 185 255
-0.07 0.169473 0.89 0.933457 -0.0853963 0.348376 203 194 185 255
3 0 1 2 
3 3 4 5 
3 6 7 8 
3 9 10 11 
3 12 13 14 
3 15 16 17 
3 18 19 20 
3 21 22 23 
3 24 25 26 
3 27 28 29 
3 30 31 32 
3 33 34 35 
3 36 37 38 
3 39 40 41 
3 42 43 44 
3 45 46 47 
3 48 49 50 
3 51 52 53 
3 54 55 56 
3 57 58 59 
3 60 61 62 
3 63 64 65 
3 66 67 68 
3 69 70 71 
3 72 73 74 
3 75 76 77 
3 78 79 80 
3 81 82 83 
3 84 85 86 
3 87 88 89 
3 90 91 92 
3 93 94 95 
3 96 97 98 
3 99 100 101 
3 102 103 104 
3 105 106 107 
3 108 109 110 
3 111 112 113 
3 114 115 116 
3 117 118 119 
3 120 121 122 
3 123 124 125 
3 126 127 128 
3 129 130 131 
3 132 133 134 
3 135 136 137 
3 138 139 140 
3 141 142 143 
3 144 145 146 
3 147 148 149 
3 150 151 152 
3 153 154 155 
3 156 157 158 
3 159 160 161 
3 162 163 164 
3 165 166 167 
3 168 169 170 
3 171 172 173 
3 174 175 176 
3 177 178 179 
3 180 181 182 
3 183 184 185 
3 186 187 188 
3 189 190 191 
3 192 193 194 
3 195 196 197 
3 198 199 200 
3 201 202 203 
3 204 205 206 
3 207 208 209 
