ply
format ascii 1.0
element vertex 273
property float x
property float y
property float z
property float normal_x
property float normal_y
property float normal_z
property uchar red
property uchar green
property uchar blue
property uchar alpha
element face 91
property list uchar int vertex_indices
end_header
-0.01 0.00423081 0.85 -0.0838139 -0.296962 0.951204 133 112 113 255
-0.01 -0.01 0.845557 -0.0838139 -0.296962 0.951204 132 110 91 255
0.00999999 -0.01 0.847319 -0.0838139 -0.296962 0.951204 133 111 96 255
-0.01 0.00423081 0.85 -0.0402801 -0.239339 0.9701 133 112 113 255
0.00999999 -0.01 0.847319 -0.0402801 -0.239339 0.9701 133 111 96 255
0.00999999 0.000864871 0.85 -0.0402801 -0.239339 0.9701 135 112 119 255
0.00999999 0.000864871 0.85 -0.142688 -0.847832 0.510706 135 112 119 255
0.00999999 0.00999999 0.865165 -0.142688 -0.847832 0.510706 135 112 117 255
-0.01 0.00423081 0.85 -0.142688 -0.847832 0.510706 133 112 113 255
-0.01 0.00423081 0.85 -0.246106 -0.752533 0.61084 133 112 113 255
0.00999999 0.00999999 0.865165 -0.246106 -0.752533 0.61084 135 112 117 255
-0.01 0.00999999 0.857107 -0.246106 -0.752533 0.61084 133 112 113 255
-0.01 -0.01 0.92624 0.0689222 0.610164 -0.789271 134 110 111 255
-0.01 -0.00513694 0.93 0.0689222 0.610164 -0.789271 134 110 111 255
0.00999999 -0.01 0.927987 0.0689222 0.610164 -0.789271 134 111 112 255
0.00999999 -0.01 0.927987 0.094386 0.686585 -0.720897 134 111 112 255
-0.01 -0.00513694 0.93 0.094386 0.686585 -0.720897 134 110 111 255
0.00999999 -0.00788638 0.93 0.094386 0.686585 -0.720897 134 111 112 255
-0.01 -0.00513694 0.93 0.118716 0.863566 0.490062 134 110 111 255
-0.01 -0.01 0.938569 0.118716 0.863566 0.490062 134 110 111 255
0.00999999 -0.00788638 0.93 0.118716 0.863566 0.490062 134 111 112 255
0.00999999 -0.00788638 0.93 0.131597 0.846475 0.51591 134 111 112 255
-0.01 -0.01 0.938569 0.131597 0.846475 0.51591 134 110 111 255
0.00999999 -0.01 0.933468 0.131597 0.846475 0.51591 134 111 112 255
-0.05 0.03 0.834387 -0.771631 -0.0294207 0.63539 158 101 55 255
-0.0371434 0.03 0.85 -0.771631 -0.0294207 0.63539 155 101 63 255
-0.037906 0.05 0.85 -0.771631 -0.0294207 0.63539 158 103 64 255
-0.05 0.03 0.834387 -0.687848 -0.140057 0.712214 158 101 55 255
-0.037906 0.05 0.85 -0.687848 -0.140057 0.712214 158 103 64 255
-0.05 0.05 0.83832 -0.687848 -0.140057 0.712214 158 101 53 255
-0.0315855 0.03 0.87 -0.962838 -0.0367111 0.267572 148 102 72 255
-0.037906 0.05 0.85 -0.962838 -0.0367111 0.267572 158 103 64 255
-0.0371434 0.03 0.85 -0.962838 -0.0367111 0.267572 155 101 63 255
-0.031496 0.05 0.87 -0.952276 0.00426144 0.305207 151 105 72 255
-0.037906 0.05 0.85 -0.952276 0.00426144 0.305207 158 103 64 255
-0.0315855 0.03 0.87 -0.952276 0.00426144 0.305207 148 102 72 255
-0.05 0.05 0.83832 -0.610651 0.476787 0.632281 158 101 53 255
-0.037906 0.05 0.85 -0.610651 0.476787 0.632281 158 103 64 255
-0.03 0.0601257 0.85 -0.610651 0.476787 0.632281 160 101 56 255
-0.03 0.07 0.842324 -0.610993 0.485865 0.624999 160 101 56 255
-0.05 0.05 0.83832 -0.610993 0.485865 0.624999 158 101 53 255
-0.03 0.0601257 0.85 -0.610993 0.485865 0.624999 160 101 56 255
-0.05 0.07 0.834332 -0.364868 0.182062 0.913085 159 100 55 255
-0.05 0.05 0.83832 -0.364868 0.182062 0.913085 158 101 53 255
-0.03 0.07 0.842324 -0.364868 0.182062 0.913085 160 101 56 255
-0.031496 0.05 0.87 -0.768641 0.590341 0.246351 151 105 72 255
-0.03 0.0519478 0.87 -0.768641 0.590341 0.246351 151 105 72 255
-0.037906 0.05 0.85 -0.768641 0.590341 0.246351 158 103 64 255
-0.037906 0.05 0.85 -0.764372 0.596811 0.244034 158 103 64 255
-0.03 0.0519478 0.87 -0.764372 0.596811 0.244034 151 105 72 255
-0.03 0.0601257 0.85 -0.764372 0.596811 0.244034 160 101 56 255
-0.01 0.03 0.83186 0.710886 -0.478736 0.515222 140 122 131 255
-0.0231469 0.03 0.85 0.710886 -0.478736 0.515222 155 101 63 255
-0.03 0.0198237 0.85 0.710886 -0.478736 0.515222 153 99 66 255
-0.03 0.01 0.840534 0.70928 -0.489123 0.507623 153 99 66 255
-0.01 0.03 0.83186 0.70928 -0.489123 0.507623 140 122 131 255
-0.03 0.0198237 0.85 0.70928 -0.489123 0.507623 153 99 66 255
-0.01 0.03 0.83186 -0.364517 0.66035 0.656555 140 122 131 255
-0.013559 0.01 0.85 -0.364517 0.66035 0.656555 133 112 113 255
-0.01 0.0119646 0.85 -0.364517 0.66035 0.656555 133 112 113 255
-0.01 0.03 0.83186 -0.375533 0.658423 0.652269 140 122 131 255
-0.03 0.01 0.840534 -0.375533 0.658423 0.652269 153 99 66 255
-0.013559 0.01 0.85 -0.375533 0.658423 0.652269 133 112 113 255
-0.0285008 0.03 0.87 0.824569 -0.520924 0.220734 148 102 72 255
-0.03 0.027627 0.87 0.824569 -0.520924 0.220734 148 102 72 255
-0.0231469 0.03 0.85 0.824569 -0.520924 0.220734 155 101 63 255
-0.03 0.027627 0.87 0.810427 -0.54577 0.21294 148 102 72 255
-0.03 0.0198237 0.85 0.810427 -0.54577 0.21294 153 99 66 255
-0.0231469 0.03 0.85 0.810427 -0.54577 0.21294 155 101 63 255
-0.01 0.01 0.857107 -0.469709 0.850913 0.235204 133 112 113 255
-0.01 0.0119646 0.85 -0.469709 0.850913 0.235204 133 112 113 255
-0.013559 0.01 0.85 -0.469709 0.850913 0.235204 133 112 113 255
-0.0285008 0.03 0.87 0.832659 -0.526034 0.173111 148 102 72 255
-0.03 0.03 0.877211 0.832659 -0.526034 0.173111 148 102 72 255
-0.03 0.027627 0.87 0.832659 -0.526034 0.173111 148 102 72 255
-0.0231469 0.03 0.85 0.753726 -0.365357 0.54627 155 101 63 255
-0.01 0.03 0.83186 0.753726 -0.365357 0.54627 140 122 131 255
-0.01 0.05 0.845237 0.753726 -0.365357 0.54627 135 113 117 255
-0.0231469 0.03 0.85 0.595438 -0.206496 0.77641 155 101 63 255
-0.01 0.05 0.845237 0.595438 -0.206496 0.77641 135 113 117 255
-0.0162109 0.05 0.85 0.595438 -0.206496 0.77641 135 113 117 255
-0.0162109 0.05 0.85 0.915956 -0.317651 0.245198 135 113 117 255
-0.0285008 0.03 0.87 0.915956 -0.317651 0.245198 148 102 72 255
-0.0231469 0.03 0.85 0.915956 -0.317651 0.245198 155 101 63 255
-0.0162109 0.05 0.85 0.862993 -0.0257438 0.50456 135 113 117 255
-0.0279042 0.05 0.87 0.862993 -0.0257438 0.50456 151 105 72 255
-0.0285008 0.03 0.87 0.862993 -0.0257438 0.50456 148 102 72 255
-0.0279042 0.05 0.87 0.989518 -0.0295181 0.141359 151 105 72 255
-0.03 0.05 0.884671 0.989518 -0.0295181 0.141359 149 104 80 255
-0.0285008 0.03 0.87 0.989518 -0.0295181 0.141359 148 102 72 255
-0.0285008 0.03 0.87 0.976255 -0.0757021 0.202964 148 102 72 255
-0.03 0.05 0.884671 0.976255 -0.0757021 0.202964 149 104 80 255
-0.03 0.03 0.877211 0.976255 -0.0757021 0.202964 148 102 72 255
-0.01 0.05 0.845237 -0.619154 -0.438387 0.65151 135 113 117 255
-0.01 0.0570789 0.85 -0.619154 -0.438387 0.65151 135 113 117 255
-0.0191487 0.07 0.85 -0.619154 -0.438387 0.65151 155 103 67 255
-0.03 0.07 0.842324 -0.524936 -0.416857 0.742073 160 101 56 255
-0.01 0.05 0.845237 -0.524936 -0.416857 0.742073 135 113 117 255
-0.0191487 0.07 0.85 -0.524936 -0.416857 0.742073 155 103 67 255
-0.01 0.05 0.845237 0.468565 0.638086 0.610977 135 113 117 255
-0.03 0.0601257 0.85 0.468565 0.638086 0.610977 160 101 56 255
-0.0162109 0.05 0.85 0.468565 0.638086 0.610977 135 113 117 255
-0.01 0.05 0.845237 0.446326 0.549224 0.706502 135 113 117 255
-0.03 0.07 0.842324 0.446326 0.549224 0.706502 160 101 56 255
-0.03 0.0601257 0.85 0.446326 0.549224 0.706502 160 101 56 255
-0.01 0.0686913 0.87 -0.773747 -0.547845 0.31809 148 109 82 255
-0.0191487 0.07 0.85 -0.773747 -0.547845 0.31809 155 103 67 255
-0.01 0.0570789 0.85 -0.773747 -0.547845 0.31809 135 113 117 255
-0.0112125 0.07 0.87 -0.704318 -0.652555 0.279479 148 109 82 255
-0.0191487 0.07 0.85 -0.704318 -0.652555 0.279479 155 103 67 255
-0.01 0.0686913 0.87 -0.704318 -0.652555 0.279479 148 109 82 255
-0.0279042 0.05 0.87 0.559341 0.761703 0.327026 151 105 72 255
-0.0162109 0.05 0.85 0.559341 0.761703 0.327026 135 113 117 255
-0.03 0.0601257 0.85 0.559341 0.761703 0.327026 160 101 56 255
-0.03 0.0519478 0.87 0.652145 0.701699 0.286922 151 105 72 255
-0.0279042 0.05 0.87 0.652145 0.701699 0.286922 151 105 72 255
-0.03 0.0601257 0.85 0.652145 0.701699 0.286922 160 101 56 255
-0.03 0.0519478 0.87 0.677572 0.729059 0.0967954 151 105 72 255
-0.03 0.05 0.884671 0.677572 0.729059 0.0967954 149 104 80 255
-0.0279042 0.05 0.87 0.677572 0.729059 0.0967954 151 105 72 255
-0.01 0.07 0.887409 -0.732593 -0.678752 0.0510231 144 112 95 255
-0.0112125 0.07 0.87 -0.732593 -0.678752 0.0510231 148 109 82 255
-0.01 0.0686913 0.87 -0.732593 -0.678752 0.0510231 148 109 82 255
0.00999999 0.0122211 0.85 -0.0236507 0.700814 0.712952 135 112 119 255
0.00999999 0.03 0.832524 -0.0236507 0.700814 0.712952 142 128 139 255
-0.01 0.03 0.83186 -0.0236507 0.700814 0.712952 140 122 131 255
0.00999999 0.0122211 0.85 -0.00909553 0.709112 0.705037 135 112 119 255
-0.01 0.03 0.83186 -0.00909553 0.709112 0.705037 140 122 131 255
-0.01 0.0119646 0.85 -0.00909553 0.709112 0.705037 133 112 113 255
0.00999999 0.05 0.836641 -0.0324743 -0.201553 0.978939 146 122 129 255
-0.01 0.03 0.83186 -0.0324743 -0.201553 0.978939 140 122 131 255
0.00999999 0.03 0.832524 -0.0324743 -0.201553 0.978939 142 128 139 255
-0.01 0.05 0.845237 0.336405 -0.523538 0.782777 135 113 117 255
-0.01 0.03 0.83186 0.336405 -0.523538 0.782777 140 122 131 255
0.00999999 0.05 0.836641 0.336405 -0.523538 0.782777 146 122 129 255
-0.01 0.0570789 0.85 0.335845 -0.525837 0.781475 135 113 117 255
-0.01 0.05 0.845237 0.335845 -0.525837 0.781475 135 113 117 255
0.00999999 0.05 0.836641 0.335845 -0.525837 0.781475 146 122 129 255
-0.01 0.0570789 0.85 0.308145 -0.568644 0.762686 135 113 117 255
0.00999999 0.05 0.836641 0.308145 -0.568644 0.762686 146 122 129 255
0.00999999 0.0679168 0.85 0.308145 -0.568644 0.762686 155 103 68 255
-0.01 0.0119646 0.85 -0.0123621 0.963783 0.266403 133 112 113 255
-0.01 0.01 0.857107 -0.0123621 0.963783 0.266403 133 112 113 255
0.00999999 0.0122211 0.85 -0.0123621 0.963783 0.266403 135 112 119 255
0.00999999 0.0122211 0.85 -0.0582863 0.987762 0.144668 135 112 119 255
-0.01 0.01 0.857107 -0.0582863 0.987762 0.144668 133 112 113 255
0.00999999 0.01 0.865165 -0.0582863 0.987762 0.144668 135 112 117 255
-0.00294197 0.07 0.87 0.179446 -0.967791 0.176577 148 109 82 255
-0.01 0.0686913 0.87 0.179446 -0.967791 0.176577 148 109 82 255
0.00999999 0.07 0.856848 0.179446 -0.967791 0.176577 155 103 68 255
-0.01 0.0686913 0.87 0.246181 -0.927265 0.28209 148 109 82 255
0.00999999 0.0679168 0.85 0.246181 -0.927265 0.28209 155 103 68 255
0.00999999 0.07 0.856848 0.246181 -0.927265 0.28209 155 103 68 255
-0.01 0.0686913 0.87 0.424344 -0.783076 0.45467 148 109 82 255
-0.01 0.0570789 0.85 0.424344 -0.783076 0.45467 135 113 117 255
0.00999999 0.0679168 0.85 0.424344 -0.783076 0.45467 155 103 68 255
-0.01 0.07 0.887409 0.181815 -0.980566 0.073711 144 112 95 255
-0.01 0.0686913 0.87 0.181815 -0.980566 0.073711 148 109 82 255
-0.00294197 0.07 0.87 0.181815 -0.980566 0.073711 148 109 82 255
0.00999999 0.0694539 0.89 -0.0311874 -0.996606 -0.0761856 139 113 99 255
-0.00745127 0.07 0.89 -0.0311874 -0.996606 -0.0761856 144 112 95 255
0.00999999 0.07 0.882856 -0.0311874 -0.996606 -0.0761856 139 113 99 255
0.00999999 0.07 0.894338 -0.0310335 -0.99169 0.124849 139 113 99 255
-0.00745127 0.07 0.89 -0.0310335 -0.99169 0.124849 144 112 95 255
0.00999999 0.0694539 0.89 -0.0310335 -0.99169 0.124849 139 113 99 255
0.028358 0.03 0.85 -0.561685 0.579982 0.590026 136 116 122 255
0.01 0.03 0.832524 -0.561685 0.579982 0.590026 142 128 139 255
0.01 0.0122211 0.85 -0.561685 0.579982 0.590026 135 112 119 255
0.01 0.0122211 0.85 -0.691867 0.714404 0.104632 135 112 119 255
0.01 0.01 0.865165 -0.691867 0.714404 0.104632 135 112 117 255
0.028358 0.03 0.85 -0.691867 0.714404 0.104632 136 116 122 255
0.01 0.01 0.865165 -0.695876 0.71169 0.0962004 135 112 117 255
0.03 0.03 0.861878 -0.695876 0.71169 0.0962004 136 114 121 255
0.028358 0.03 0.85 -0.695876 0.71169 0.0962004 136 116 122 255
0.01 0.01 0.865165 0.447029 -0.309034 0.839442 135 112 117 255
0.03 0.01 0.854515 0.447029 -0.309034 0.839442 136 115 103 255
0.03 0.03 0.861878 0.447029 -0.309034 0.839442 136 114 121 255
0.0183441 0.01 0.89 -0.406885 0.657986 -0.633639 133 110 114 255
0.03 0.0172078 0.89 -0.406885 0.657986 -0.633639 133 111 107 255
0.03 0.01 0.882515 -0.406885 0.657986 -0.633639 133 111 107 255
0.0295472 0.01 0.91 -0.617971 0.705894 0.346159 133 110 114 255
0.03 0.0103964 0.91 -0.617971 0.705894 0.346159 133 110 114 255
0.0183441 0.01 0.89 -0.617971 0.705894 0.346159 133 110 114 255
0.0183441 0.01 0.89 -0.505178 0.816938 0.278223 133 110 114 255
0.03 0.0103964 0.91 -0.505178 0.816938 0.278223 133 110 114 255
0.03 0.0172078 0.89 -0.505178 0.816938 0.278223 133 111 107 255
0.03 0.01 0.911158 -0.637879 0.728634 0.249404 133 110 114 255
0.03 0.0103964 0.91 -0.637879 0.728634 0.249404 133 110 114 255
0.0295472 0.01 0.91 -0.637879 0.728634 0.249404 133 110 114 255
0.01 0.03 0.832524 -0.686539 -0.092536 0.72118 142 128 139 255
0.028358 0.03 0.85 -0.686539 -0.092536 0.72118 136 116 122 255
0.0256623 0.05 0.85 -0.686539 -0.092536 0.72118 153 105 81 255
0.01 0.03 0.832524 -0.641112 -0.154763 0.751681 142 128 139 255
0.0256623 0.05 0.85 -0.641112 -0.154763 0.751681 153 105 81 255
0.01 0.05 0.836641 -0.641112 -0.154763 0.751681 146 122 129 255
0.03 0.0312511 0.87 -0.939474 -0.338626 0.0521586 136 114 121 255
0.0232421 0.05 0.87 -0.939474 -0.338626 0.0521586 136 112 119 255
0.03 0.03 0.861878 -0.939474 -0.338626 0.0521586 136 114 121 255
0.0232421 0.05 0.87 -0.922776 -0.363609 0.127568 136 112 119 255
0.028358 0.03 0.85 -0.922776 -0.363609 0.127568 136 116 122 255
0.03 0.03 0.861878 -0.922776 -0.363609 0.127568 136 114 121 255
0.0232421 0.05 0.87 -0.983988 -0.132628 -0.119071 136 112 119 255
0.0256623 0.05 0.85 -0.983988 -0.132628 -0.119071 153 105 81 255
0.028358 0.03 0.85 -0.983988 -0.132628 -0.119071 136 116 122 255
0.03 0.05 0.889789 -0.895666 -0.322836 0.305875 136 112 118 255
0.0232421 0.05 0.87 -0.895666 -0.322836 0.305875 136 112 119 255
0.03 0.0312511 0.87 -0.895666 -0.322836 0.305875 136 114 121 255
0.03 0.07 0.833415 0.576862 -0.519423 0.630421 161 102 59 255
0.0118758 0.07 0.85 0.576862 -0.519423 0.630421 155 103 68 255
0.01 0.0679168 0.85 0.576862 -0.519423 0.630421 155 103 68 255
0.01 0.05 0.836641 0.588051 -0.483458 0.648432 146 122 129 255
0.03 0.07 0.833415 0.588051 -0.483458 0.648432 161 102 59 255
0.01 0.0679168 0.85 0.588051 -0.483458 0.648432 155 103 68 255
0.03 0.07 0.833415 -0.548133 0.60112 0.581554 161 102 59 255
0.0256623 0.05 0.85 -0.548133 0.60112 0.581554 153 105 81 255
0.03 0.0539554 0.85 -0.548133 0.60112 0.581554 153 105 81 255
0.03 0.07 0.833415 -0.513755 0.610917 0.602359 161 102 59 255
0.01 0.05 0.836641 -0.513755 0.610917 0.602359 146 122 129 255
0.0256623 0.05 0.85 -0.513755 0.610917 0.602359 153 105 81 255
0.0232421 0.05 0.87 -0.810278 0.577785 -0.0980505 136 112 119 255
0.03 0.0594772 0.87 -0.810278 0.577785 -0.0980505 136 112 119 255
0.0256623 0.05 0.85 -0.810278 0.577785 -0.0980505 153 105 81 255
0.03 0.0594772 0.87 -0.66019 0.724011 -0.199893 136 112 119 255
0.03 0.0539554 0.85 -0.66019 0.724011 -0.199893 153 105 81 255
0.0256623 0.05 0.85 -0.66019 0.724011 -0.199893 153 105 81 255
0.01 0.07 0.856848 0.728201 -0.655693 0.199473 155 103 68 255
0.01 0.0679168 0.85 0.728201 -0.655693 0.199473 155 103 68 255
0.0118758 0.07 0.85 0.728201 -0.655693 0.199473 155 103 68 255
0.03 0.05 0.889789 -0.784442 0.559362 0.267891 136 112 118 255
0.03 0.0594772 0.87 -0.784442 0.559362 0.267891 136 112 119 255
0.0232421 0.05 0.87 -0.784442 0.559362 0.267891 136 112 119 255
0.0111566 0.07 0.89 0.425948 -0.902116 -0.0689623 139 113 99 255
0.01 0.0694539 0.89 0.425948 -0.902116 -0.0689623 139 113 99 255
0.01 0.07 0.882856 0.425948 -0.902116 -0.0689623 139 113 99 255
0.0111566 0.07 0.89 0.424224 -0.898465 0.113112 139 113 99 255
0.01 0.07 0.894338 0.424224 -0.898465 0.113112 139 113 99 255
0.01 0.0694539 0.89 0.424224 -0.898465 0.113112 139 113 99 255
0.031021 0.01 0.89 0.989115 0.140111 0.0449598 133 111 107 255
0.03 0.0172078 0.89 0.989115 0.140111 0.0449598 133 111 107 255
0.0301119 0.01 0.91 0.989115 0.140111 0.0449598 133 110 114 255
0.0301119 0.01 0.91 0.958295 0.270523 0.0921316 133 110 114 255
0.03 0.0172078 0.89 0.958295 0.270523 0.0921316 133 111 107 255
0.03 0.0103964 0.91 0.958295 0.270523 0.0921316 133 110 114 255
0.03 0.0103964 0.91 0.958254 0.270512 0.0925933 133 110 114 255
0.03 0.01 0.911158 0.958254 0.270512 0.0925933 133 110 114 255
0.0301119 0.01 0.91 0.958254 0.270512 0.0925933 133 110 114 255
0.0361846 0.05 0.87 0.910412 -0.300314 0.284536 136 112 119 255
0.03 0.05 0.889789 0.910412 -0.300314 0.284536 136 112 118 255
0.03 0.0312511 0.87 0.910412 -0.300314 0.284536 136 114 121 255
0.0329658 0.05 0.85 0.793521 0.59499 -0.127712 153 105 81 255
0.03 0.0539554 0.85 0.793521 0.59499 -0.127712 153 105 81 255
0.0361846 0.05 0.87 0.793521 0.59499 -0.127712 136 112 119 255
0.0361846 0.05 0.87 0.828082 0.54039 -0.149197 136 112 119 255
0.03 0.0539554 0.85 0.828082 0.54039 -0.149197 153 105 81 255
0.03 0.0594772 0.87 0.828082 0.54039 -0.149197 136 112 119 255
0.03 0.0594772 0.87 0.810165 0.528697 0.253205 136 112 119 255
0.03 0.05 0.889789 0.810165 0.528697 0.253205 136 112 118 255
0.0361846 0.05 0.87 0.810165 0.528697 0.253205 136 112 119 255
0.01 0.000864871 0.85 0.304286 -0.228175 0.924849 135 112 119 255
0.01 -0.01 0.847319 0.304286 -0.228175 0.924849 133 111 96 255
0.03 -0.01 0.840739 0.304286 -0.228175 0.924849 145 113 86 255
0.01 0.000864871 0.85 0.130418 -0.493084 0.860151 135 112 119 255
0.03 -0.01 0.840739 0.130418 -0.493084 0.860151 145 113 86 255
0.03 0.00615477 0.85 0.130418 -0.493084 0.860151 136 115 103 255
0.03 0.00999999 0.911158 -0.246663 -0.96429 0.0964427 133 110 114 255
0.0295472 0.00999999 0.91 -0.246663 -0.96429 0.0964427 133 110 114 255
0.03 0.00988416 0.91 -0.246663 -0.96429 0.0964427 133 110 114 255
0.01 -0.00788638 0.93 0.652074 0.522872 -0.549003 134 111 112 255
0.0116948 -0.01 0.93 0.652074 0.522872 -0.549003 134 111 112 255
0.01 -0.01 0.927987 0.652074 0.522872 -0.549003 134 111 112 255
0.01 -0.00788638 0.93 0.728971 0.584533 0.356262 134 111 112 255
0.01 -0.01 0.933468 0.728971 0.584533 0.356262 134 111 112 255
0.0116948 -0.01 0.93 0.728971 0.584533 0.356262 134 111 112 255
3 0 1 2 
3 3 4 5 
3 6 7 8 
3 9 10 11 
3 12 13 14 
3 15 16 17 
3 18 19 20 
3 21 22 23 
3 24 25 26 
3 27 28 29 
3 30 31 32 
3 33 34 35 
3 36 37 38 
3 39 40 41 
3 42 43 44 
3 45 46 47 
3 48 49 50 
3 51 52 53 
3 54 55 56 
3 57 58 59 
3 60 61 62 
3 63 64 65 
3 66 67 68 
3 69 70 71 
3 72 73 74 
3 75 76 77 
3 78 79 80 
3 81 82 83 
3 84 85 86 
3 87 88 89 
3 90 91 92 
3 93 94 95 
3 96 97 98 
3 99 100 101 
3 102 103 104 
3 105 106 107 
3 108 109 110 
3 111 112 113 
3 114 115 116 
3 117 118 119 
3 120 121 122 
3 123 124 125 
3 126 127 128 
3 129 130 131 
3 132 133 134 
3 135 136 137 
3 138 139 140 
3 141 142 143 
3 144 145 146 
3 147 148 149 
3 150 151 152 
3 153 154 155 
3 156 157 158 
3 159 160 161 
3 162 163 164 
3 165 166 167 
3 168 169 170 
3 171 172 173 
3 174 175 176 
3 177 178 179 
3 180 181 182 
3 183 184 185 
3 186 187 188 
3 189 190 191 
3 192 193 194 
3 195 196 197 
3 198 199 200 
3 201 202 203 
3 204 205 206 
3 207 208 209 
3 210 211 212 
3 213 214 215 
3 216 217 218 
3 219 220 221 
3 222 223 224 
3 225 226 227 
3 228 229 230 
3 231 232 233 
3 234 235 236 
3 237 238 239 
3 240 241 242 
3 243 244 245 
3 246 247 248 
3 249 250 251 
3 252 253 254 
3 255 256 257 
3 258 259 260 
3 261 262 263 
3 264 265 266 
3 267 268 269 
3 270 271 272 
