ply
format ascii 1.0
element vertex 198
property float x
property float y
property float z
property float normal_x
property float normal_y
property float normal_z
property uchar red
property uchar green
property uchar blue
property uchar alpha
element face 66
property list uchar int vertex_indices
end_header
0.11 -0.05 0.909504 -0.326539 0.932533 0.154129 213 169 102 255
0.11 -0.0467764 0.89 -0.326539 0.932533 0.154129 215 169 103 255
0.100794 -0.05 0.89 -0.326539 0.932533 0.154129 215 169 103 255
0.122072 -0.11 0.85 0.73596 0.0181487 0.676781 200 158 93 255
0.13 -0.11 0.841378 0.73596 0.0181487 0.676781 200 158 93 255
0.13 -0.09 0.840842 0.73596 0.0181487 0.676781 218 173 105 255
0.122072 -0.11 0.85 0.667682 0.0744877 0.740711 200 158 93 255
0.13 -0.09 0.840842 0.667682 0.0744877 0.740711 218 173 105 255
0.119841 -0.09 0.85 0.667682 0.0744877 0.740711 200 154 90 255
0.11 -0.11 0.862262 0.65924 -0.379682 0.649034 184 127 81 255
0.122072 -0.11 0.85 0.65924 -0.379682 0.649034 200 158 93 255
0.11 -0.0967718 0.87 0.65924 -0.379682 0.649034 206 161 95 255
0.122072 -0.11 0.85 0.744269 -0.254434 0.617517 200 158 93 255
0.112315 -0.09 0.87 0.744269 -0.254434 0.617517 206 161 95 255
0.11 -0.0967718 0.87 0.744269 -0.254434 0.617517 206 161 95 255
0.122072 -0.11 0.85 0.930875 0.10385 0.350266 200 158 93 255
0.119841 -0.09 0.85 0.930875 0.10385 0.350266 200 154 90 255
0.112315 -0.09 0.87 0.930875 0.10385 0.350266 206 161 95 255
0.112315 -0.09 0.87 0.904425 -0.309185 0.293972 206 161 95 255
0.11 -0.09 0.877122 0.904425 -0.309185 0.293972 206 161 95 255
0.11 -0.0967718 0.87 0.904425 -0.309185 0.293972 206 161 95 255
0.13 -0.0798557 0.85 0.556095 -0.556929 0.616918 216 172 105 255
0.119841 -0.09 0.85 0.556095 -0.556929 0.616918 200 154 90 255
0.13 -0.09 0.840842 0.556095 -0.556929 0.616918 218 173 105 255
0.119841 -0.09 0.85 0.646403 -0.647374 0.403819 200 154 90 255
0.13 -0.0798557 0.85 0.646403 -0.647374 0.403819 216 172 105 255
0.13 -0.07 0.8658 0.646403 -0.647374 0.403819 217 172 105 255
0.126577 -0.07 0.87 0.578248 -0.666009 0.471234 217 172 105 255
0.119841 -0.09 0.85 0.578248 -0.666009 0.471234 200 154 90 255
0.13 -0.07 0.8658 0.578248 -0.666009 0.471234 217 172 105 255
0.112315 -0.09 0.87 0.778472 -0.555139 0.29292 206 161 95 255
0.119841 -0.09 0.85 0.778472 -0.555139 0.29292 200 154 90 255
0.126577 -0.07 0.87 0.778472 -0.555139 0.29292 217 172 105 255
0.11 -0.09 0.877122 0.878942 -0.381894 0.285689 206 161 95 255
0.112315 -0.09 0.87 0.878942 -0.381894 0.285689 206 161 95 255
0.11 -0.0803664 0.89 0.878942 -0.381894 0.285689 208 163 98 255
0.112315 -0.09 0.87 0.920806 -0.298895 0.250556 206 161 95 255
0.113365 -0.07 0.89 0.920806 -0.298895 0.250556 213 169 102 255
0.11 -0.0803664 0.89 0.920806 -0.298895 0.250556 208 163 98 255
0.112315 -0.09 0.87 0.717045 -0.511334 0.473692 206 161 95 255
0.126577 -0.07 0.87 0.717045 -0.511334 0.473692 217 172 105 255
0.113365 -0.07 0.89 0.717045 -0.511334 0.473692 213 169 102 255
0.113365 -0.07 0.89 0.891076 -0.289245 0.349743 213 169 102 255
0.11 -0.07 0.898573 0.891076 -0.289245 0.349743 213 169 102 255
0.11 -0.0803664 0.89 0.891076 -0.289245 0.349743 208 163 98 255
0.126577 -0.07 0.87 0.770776 -0.106559 0.628132 217 172 105 255
0.13 -0.07 0.8658 0.770776 -0.106559 0.628132 217 172 105 255
0.13 -0.05 0.869193 0.770776 -0.106559 0.628132 211 167 103 255
0.126577 -0.07 0.87 0.823241 -0.118481 0.555191 217 172 105 255
0.13 -0.05 0.869193 0.823241 -0.118481 0.555191 211 167 103 255
0.129456 -0.05 0.87 0.823241 -0.118481 0.555191 211 167 103 255
0.129456 -0.05 0.87 0.828421 -0.119226 0.547269 211 167 103 255
0.113365 -0.07 0.89 0.828421 -0.119226 0.547269 213 169 102 255
0.126577 -0.07 0.87 0.828421 -0.119226 0.547269 217 172 105 255
0.129456 -0.05 0.87 0.858941 -0.453795 0.237256 211 167 103 255
0.123931 -0.05 0.89 0.858941 -0.453795 0.237256 218 173 106 255
0.113365 -0.07 0.89 0.858941 -0.453795 0.237256 213 169 102 255
0.123931 -0.05 0.89 0.747575 -0.394958 0.533986 218 173 106 255
0.11 -0.05 0.909504 0.747575 -0.394958 0.533986 213 169 102 255
0.113365 -0.07 0.89 0.747575 -0.394958 0.533986 213 169 102 255
0.113365 -0.07 0.89 0.912846 -0.195813 0.358287 213 169 102 255
0.11 -0.05 0.909504 0.912846 -0.195813 0.358287 213 169 102 255
0.11 -0.07 0.898573 0.912846 -0.195813 0.358287 213 169 102 255
0.11 -0.0467764 0.89 0.222567 0.961868 0.158977 215 169 103 255
0.11 -0.05 0.909504 0.222567 0.961868 0.158977 213 169 102 255
0.123931 -0.05 0.89 0.222567 0.961868 0.158977 218 173 106 255
0.15 -0.120252 0.85 0.00422222 0.648413 0.761277 156 125 74 255
0.15 -0.11 0.841267 0.00422222 0.648413 0.761277 199 159 96 255
0.13 -0.11 0.841378 0.00422222 0.648413 0.761277 200 158 93 255
0.15 -0.120252 0.85 -0.0796847 0.545919 0.83404 156 125 74 255
0.13 -0.11 0.841378 -0.0796847 0.545919 0.83404 200 158 93 255
0.13 -0.123172 0.85 -0.0796847 0.545919 0.83404 161 125 75 255
0.13 -0.123172 0.85 -0.0796435 0.545637 0.834229 161 125 75 255
0.13 -0.13 0.854466 -0.0796435 0.545637 0.834229 161 125 75 255
0.15 -0.120252 0.85 -0.0796435 0.545637 0.834229 156 125 74 255
0.15 -0.120252 0.85 -0.255537 0.783701 0.566139 156 125 74 255
0.13 -0.13 0.854466 -0.255537 0.783701 0.566139 161 125 75 255
0.15 -0.13 0.863493 -0.255537 0.783701 0.566139 173 138 81 255
0.13 -0.13 0.926943 0.0353844 0.714658 -0.698578 213 169 103 255
0.13 -0.127012 0.93 0.0353844 0.714658 -0.698578 213 169 103 255
0.15 -0.13 0.927956 0.0353844 0.714658 -0.698578 214 170 104 255
0.15 -0.13 0.927956 0.0166532 0.638033 -0.769829 214 170 104 255
0.13 -0.127012 0.93 0.0166532 0.638033 -0.769829 213 169 103 255
0.15 -0.127534 0.93 0.0166532 0.638033 -0.769829 214 170 104 255
0.13 -0.127012 0.93 0.0234791 0.89955 0.436186 213 169 103 255
0.13 -0.13 0.936163 0.0234791 0.89955 0.436186 213 169 103 255
0.15 -0.127534 0.93 0.0234791 0.89955 0.436186 214 170 104 255
0.15 -0.127534 0.93 0.0938477 0.7812 0.617186 214 170 104 255
0.13 -0.13 0.936163 0.0938477 0.7812 0.617186 213 169 103 255
0.15 -0.13 0.933122 0.0938477 0.7812 0.617186 214 170 104 255
0.15 -0.09 0.838593 0.00549719 0.132553 0.991161 219 174 105 255
0.13 -0.11 0.841378 0.00549719 0.132553 0.991161 200 158 93 255
0.15 -0.11 0.841267 0.00549719 0.132553 0.991161 199 159 96 255
0.13 -0.09 0.840842 0.111721 0.0266387 0.993383 218 173 105 255
0.13 -0.11 0.841378 0.111721 0.0266387 0.993383 200 158 93 255
0.15 -0.09 0.838593 0.111721 0.0266387 0.993383 219 174 105 255
0.13 -0.0798557 0.85 0.0831906 -0.667773 0.739702 216 172 105 255
0.13 -0.09 0.840842 0.0831906 -0.667773 0.739702 218 173 105 255
0.15 -0.09 0.838593 0.0831906 -0.667773 0.739702 219 174 105 255
0.13 -0.0798557 0.85 0.0798609 -0.671228 0.736936 216 172 105 255
0.15 -0.09 0.838593 0.0798609 -0.671228 0.736936 219 174 105 255
0.15 -0.0774762 0.85 0.0798609 -0.671228 0.736936 202 156 93 255
0.15 -0.0774762 0.85 0.0708191 -0.595232 0.800427 202 156 93 255
0.15 -0.07 0.85556 0.0708191 -0.595232 0.800427 202 156 93 255
0.13 -0.0798557 0.85 0.0708191 -0.595232 0.800427 216 172 105 255
0.13 -0.0798557 0.85 0.261555 -0.818927 0.510831 216 172 105 255
0.15 -0.07 0.85556 0.261555 -0.818927 0.510831 202 156 93 255
0.13 -0.07 0.8658 0.261555 -0.818927 0.510831 217 172 105 255
0.15 -0.05 0.853149 0.453152 0.106664 0.885029 162 129 84 255
0.13 -0.07 0.8658 0.453152 0.106664 0.885029 217 172 105 255
0.15 -0.07 0.85556 0.453152 0.106664 0.885029 202 156 93 255
0.13 -0.05 0.869193 0.620325 -0.131185 0.773296 211 167 103 255
0.13 -0.07 0.8658 0.620325 -0.131185 0.773296 217 172 105 255
0.15 -0.05 0.853149 0.620325 -0.131185 0.773296 162 129 84 255
0.161554 -0.11 0.85 -0.498705 0.562031 0.65986 166 132 78 255
0.15 -0.11 0.841267 -0.498705 0.562031 0.65986 199 159 96 255
0.15 -0.120252 0.85 -0.498705 0.562031 0.65986 156 125 74 255
0.15 -0.11 0.841267 -0.580876 0.268069 0.768585 199 159 96 255
0.161554 -0.11 0.85 -0.580876 0.268069 0.768585 166 132 78 255
0.17 -0.0916991 0.85 -0.580876 0.268069 0.768585 192 152 91 255
0.17 -0.09 0.849248 -0.609956 0.320848 0.724576 192 152 91 255
0.15 -0.11 0.841267 -0.609956 0.320848 0.724576 199 159 96 255
0.17 -0.0916991 0.85 -0.609956 0.320848 0.724576 192 152 91 255
0.15 -0.09 0.838593 -0.466937 0.117217 0.876487 219 174 105 255
0.15 -0.11 0.841267 -0.466937 0.117217 0.876487 199 159 96 255
0.17 -0.09 0.849248 -0.466937 0.117217 0.876487 192 152 91 255
0.15 -0.0774762 0.85 -0.366454 -0.626536 0.687869 202 156 93 255
0.15 -0.09 0.838593 -0.366454 -0.626536 0.687869 219 174 105 255
0.17 -0.09 0.849248 -0.366454 -0.626536 0.687869 192 152 91 255
0.15 -0.0774762 0.85 -0.384767 -0.65361 0.651727 202 156 93 255
0.17 -0.09 0.849248 -0.384767 -0.65361 0.651727 192 152 91 255
0.17 -0.0892498 0.85 -0.384767 -0.65361 0.651727 192 152 91 255
0.15202 -0.05 0.85 0.428686 0.787091 0.443528 162 129 84 255
0.17 -0.0597925 0.85 0.428686 0.787091 0.443528 195 162 132 255
0.17 -0.05 0.832622 0.428686 0.787091 0.443528 174 136 107 255
0.15 -0.120252 0.85 -0.583919 0.658066 0.475381 156 125 74 255
0.15 -0.13 0.863493 -0.583919 0.658066 0.475381 173 138 81 255
0.161554 -0.11 0.85 -0.583919 0.658066 0.475381 166 132 78 255
0.15 -0.13 0.863493 -0.667482 0.641125 0.378717 173 138 81 255
0.17 -0.11 0.864885 -0.667482 0.641125 0.378717 167 132 80 255
0.161554 -0.11 0.85 -0.667482 0.641125 0.378717 166 132 78 255
0.15 -0.13 0.863493 0.0485995 -0.117628 0.991868 173 138 81 255
0.17 -0.13 0.862513 0.0485995 -0.117628 0.991868 201 150 99 255
0.17 -0.11 0.864885 0.0485995 -0.117628 0.991868 167 132 80 255
0.17 -0.11 0.864885 -0.807162 0.372498 0.457969 167 132 80 255
0.17 -0.0916991 0.85 -0.807162 0.372498 0.457969 192 152 91 255
0.161554 -0.11 0.85 -0.807162 0.372498 0.457969 166 132 78 255
0.17 -0.0892498 0.85 -0.370723 -0.629753 0.682624 192 152 91 255
0.17 -0.07 0.867759 -0.370723 -0.629753 0.682624 192 158 114 255
0.15 -0.0774762 0.85 -0.370723 -0.629753 0.682624 202 156 93 255
0.15 -0.0774762 0.85 -0.439623 -0.535973 0.720739 202 156 93 255
0.17 -0.07 0.867759 -0.439623 -0.535973 0.720739 192 158 114 255
0.15 -0.07 0.85556 -0.439623 -0.535973 0.720739 202 156 93 255
0.15202 -0.05 0.85 0.45726 0.839555 0.293361 162 129 84 255
0.15 -0.05 0.853149 0.45726 0.839555 0.293361 162 129 84 255
0.17 -0.0597925 0.85 0.45726 0.839555 0.293361 195 162 132 255
0.15 -0.05 0.853149 0.449332 0.774536 0.445191 162 129 84 255
0.17 -0.07 0.867759 0.449332 0.774536 0.445191 192 158 114 255
0.17 -0.0597925 0.85 0.449332 0.774536 0.445191 195 162 132 255
0.15 -0.05 0.853149 -0.518 0.10235 0.849235 162 129 84 255
0.15 -0.07 0.85556 -0.518 0.10235 0.849235 202 156 93 255
0.17 -0.07 0.867759 -0.518 0.10235 0.849235 192 158 114 255
0.15 -0.13 0.927956 0.822729 0.36273 -0.437658 214 170 104 255
0.15 -0.127534 0.93 0.822729 0.36273 -0.437658 214 170 104 255
0.151087 -0.13 0.93 0.822729 0.36273 -0.437658 214 170 104 255
0.15 -0.127534 0.93 0.871807 0.384368 0.303669 214 170 104 255
0.15 -0.13 0.933122 0.871807 0.384368 0.303669 214 170 104 255
0.151087 -0.13 0.93 0.871807 0.384368 0.303669 214 170 104 255
0.19 -0.12931 0.85 0.610838 -0.206224 0.764427 195 179 158 255
0.189767 -0.13 0.85 0.610838 -0.206224 0.764427 195 179 158 255
0.19 -0.13 0.849814 0.610838 -0.206224 0.764427 195 179 158 255
0.19 -0.100291 0.85 0.227489 0.503063 0.833773 187 172 149 255
0.19 -0.09 0.843791 0.227489 0.503063 0.833773 181 172 157 255
0.17 -0.09 0.849248 0.227489 0.503063 0.833773 192 152 91 255
0.19 -0.100291 0.85 0.171368 0.398899 0.90084 187 172 149 255
0.17 -0.09 0.849248 0.171368 0.398899 0.90084 192 152 91 255
0.17 -0.0916991 0.85 0.171368 0.398899 0.90084 192 152 91 255
0.17 -0.0916991 0.85 0.261636 0.609019 0.748761 192 152 91 255
0.17 -0.11 0.864885 0.261636 0.609019 0.748761 167 132 80 255
0.19 -0.100291 0.85 0.261636 0.609019 0.748761 187 172 149 255
0.19 -0.100291 0.85 0.483664 0.27674 0.830352 187 172 149 255
0.17 -0.11 0.864885 0.483664 0.27674 0.830352 167 132 80 255
0.19 -0.11 0.853236 0.483664 0.27674 0.830352 187 172 149 255
0.189246 -0.07 0.83 0.80362 0.375543 0.461696 208 198 183 255
0.177755 -0.07 0.85 0.80362 0.375543 0.461696 188 148 86 255
0.19 -0.0716138 0.83 0.80362 0.375543 0.461696 208 198 183 255
0.177755 -0.07 0.85 0.793944 -0.327149 0.512471 188 148 86 255
0.17 -0.09 0.849248 0.793944 -0.327149 0.512471 192 152 91 255
0.19 -0.0716138 0.83 0.793944 -0.327149 0.512471 208 198 183 255
0.17 -0.09 0.849248 0.213248 0.586227 0.781577 192 152 91 255
0.19 -0.09 0.843791 0.213248 0.586227 0.781577 181 172 157 255
0.19 -0.0716138 0.83 0.213248 0.586227 0.781577 208 198 183 255
0.177755 -0.07 0.85 0.869171 -0.350177 0.349168 188 148 86 255
0.17 -0.0892498 0.85 0.869171 -0.350177 0.349168 192 152 91 255
0.17 -0.09 0.849248 0.869171 -0.350177 0.349168 192 152 91 255
0.177755 -0.07 0.85 0.859698 -0.34636 0.375439 188 148 86 255
0.17 -0.07 0.867759 0.859698 -0.34636 0.375439 192 158 114 255
0.17 -0.0892498 0.85 0.859698 -0.34636 0.375439 192 152 91 255
3 0 1 2 
3 3 4 5 
3 6 7 8 
3 9 10 11 
3 12 13 14 
3 15 16 17 
3 18 19 20 
3 21 22 23 
3 24 25 26 
3 27 28 29 
3 30 31 32 
3 33 34 35 
3 36 37 38 
3 39 40 41 
3 42 43 44 
3 45 46 47 
3 48 49 50 
3 51 52 53 
3 54 55 56 
3 57 58 59 
3 60 61 62 
3 63 64 65 
3 66 67 68 
3 69 70 71 
3 72 73 74 
3 75 76 77 
3 78 79 80 
3 81 82 83 
3 84 85 86 
3 87 88 89 
3 90 91 92 
3 93 94 95 
3 96 97 98 
3 99 100 101 
3 102 103 104 
3 105 106 107 
3 108 109 110 
3 111 112 113 
3 114 115 116 
3 117 118 119 
3 120 121 122 
3 123 124 125 
3 126 127 128 
3 129 130 131 
3 132 133 134 
3 135 136 137 
3 138 139 140 
3 141 142 143 
3 144 145 146 
3 147 148 149 
3 150 151 152 
3 153 154 155 
3 156 157 158 
3 159 160 161 
3 162 163 164 
3 165 166 167 
3 168 169 170 
3 171 172 173 
3 174 175 176 
3 177 178 179 
3 180 181 182 
3 183 184 185 
3 186 187 188 
3 189 190 191 
3 192 193 194 
3 195 196 197 
