ply
format ascii 1.0
element vertex 330
property float x
property float y
property float z
property float normal_x
property float normal_y
property float normal_z
property uchar red
property uchar green
property uchar blue
property uchar alpha
element face 110
property list uchar int vertex_indices
end_header
-0.15 -0.228461 0.85 -0.321634 -0.806892 0.495456 178 175 168 255
-0.15 -0.23 0.847494 -0.321634 -0.806892 0.495456 178 175 168 255
-0.146139 -0.23 0.85 -0.321634 -0.806892 0.495456 178 175 168 255
-0.135905 -0.19 0.85 0.703659 0.62173 0.34397 186 186 186 255
-0.13 -0.196684 0.85 0.703659 0.62173 0.34397 186 186 186 255
-0.13 -0.19 0.837919 0.703659 0.62173 0.34397 195 195 195 255
-0.140983 -0.19 0.87 0.696504 0.702162 0.147821 168 168 168 255
-0.13 -0.200894 0.87 0.696504 0.702162 0.147821 167 167 167 255
-0.13 -0.196684 0.85 0.696504 0.702162 0.147821 186 186 186 255
-0.140983 -0.19 0.87 0.736183 0.650468 0.186885 168 168 168 255
-0.13 -0.196684 0.85 0.736183 0.650468 0.186885 186 186 186 255
-0.135905 -0.19 0.85 0.736183 0.650468 0.186885 186 186 186 255
-0.144535 -0.19 0.89 0.695723 0.708243 0.119836 171 171 171 255
-0.13 -0.204278 0.89 0.695723 0.708243 0.119836 162 162 162 255
-0.13 -0.200894 0.87 0.695723 0.708243 0.119836 167 167 167 255
-0.144535 -0.19 0.89 0.698795 0.704471 0.124122 171 171 171 255
-0.13 -0.200894 0.87 0.698795 0.704471 0.124122 167 167 167 255
-0.140983 -0.19 0.87 0.698795 0.704471 0.124122 168 168 168 255
-0.13 -0.209709 0.91 0.687985 0.700366 0.190166 172 172 172 255
-0.13 -0.204278 0.89 0.687985 0.700366 0.190166 162 162 162 255
-0.144535 -0.19 0.89 0.687985 0.700366 0.190166 171 171 171 255
-0.15 -0.21 0.898294 -0.457313 0.444421 0.770296 174 174 174 255
-0.13 -0.209709 0.91 -0.457313 0.444421 0.770296 172 172 172 255
-0.144535 -0.19 0.89 -0.457313 0.444421 0.770296 171 171 171 255
-0.15 -0.19 0.909569 0.952261 -0.149914 0.265941 176 176 176 255
-0.15 -0.21 0.898294 0.952261 -0.149914 0.265941 174 174 174 255
-0.144535 -0.19 0.89 0.952261 -0.149914 0.265941 171 171 171 255
-0.13 -0.209709 0.91 -0.213943 0.914735 0.342764 172 172 172 255
-0.15 -0.21 0.898294 -0.213943 0.914735 0.342764 174 174 174 255
-0.131246 -0.21 0.91 -0.213943 0.914735 0.342764 172 172 172 255
-0.13 -0.21 0.910755 -0.213162 0.911396 0.352022 172 172 172 255
-0.13 -0.209709 0.91 -0.213162 0.911396 0.352022 172 172 172 255
-0.131246 -0.21 0.91 -0.213162 0.911396 0.352022 172 172 172 255
-0.135905 -0.19 0.85 0.897897 0.0336113 0.438921 186 186 186 255
-0.13 -0.19 0.837919 0.897897 0.0336113 0.438921 195 195 195 255
-0.13 -0.17 0.836388 0.897897 0.0336113 0.438921 200 200 200 255
-0.135905 -0.19 0.85 0.817608 0.13889 0.558773 186 186 186 255
-0.13 -0.17 0.836388 0.817608 0.13889 0.558773 200 200 200 255
-0.139303 -0.17 0.85 0.817608 0.13889 0.558773 193 193 193 255
-0.139303 -0.17 0.85 0.95638 0.162464 0.242783 193 193 193 255
-0.140983 -0.19 0.87 0.95638 0.162464 0.242783 168 168 168 255
-0.135905 -0.19 0.85 0.95638 0.162464 0.242783 186 186 186 255
-0.139303 -0.17 0.85 0.942742 0.192904 0.272077 193 193 193 255
-0.145075 -0.17 0.87 0.942742 0.192904 0.272077 180 180 180 255
-0.140983 -0.19 0.87 0.942742 0.192904 0.272077 168 168 168 255
-0.145075 -0.17 0.87 0.965195 0.197498 0.171441 180 180 180 255
-0.144535 -0.19 0.89 0.965195 0.197498 0.171441 171 171 171 255
-0.140983 -0.19 0.87 0.965195 0.197498 0.171441 168 168 168 255
-0.145075 -0.17 0.87 0.949582 0.234138 0.208503 180 180 180 255
-0.149466 -0.17 0.89 0.949582 0.234138 0.208503 178 178 178 255
-0.144535 -0.19 0.89 0.949582 0.234138 0.208503 171 171 171 255
-0.149466 -0.17 0.89 0.947922 0.233729 0.216366 178 178 178 255
-0.15 -0.17 0.892338 0.947922 0.233729 0.216366 178 178 178 255
-0.144535 -0.19 0.89 0.947922 0.233729 0.216366 171 171 171 255
-0.144535 -0.19 0.89 0.938281 0.225756 0.262036 171 171 171 255
-0.15 -0.17 0.892338 0.938281 0.225756 0.262036 178 178 178 255
-0.15 -0.19 0.909569 0.938281 0.225756 0.262036 176 176 176 255
-0.11 -0.200515 0.85 0.123834 0.840866 0.526886 177 177 163 255
-0.11 -0.19 0.833219 0.123834 0.840866 0.526886 200 200 200 255
-0.13 -0.19 0.837919 0.123834 0.840866 0.526886 195 195 195 255
-0.11 -0.200515 0.85 0.165326 0.862972 0.477437 177 177 163 255
-0.13 -0.19 0.837919 0.165326 0.862972 0.477437 195 195 195 255
-0.13 -0.196684 0.85 0.165326 0.862972 0.477437 186 186 186 255
-0.13 -0.196684 0.85 0.185592 0.96876 0.1645 186 186 186 255
-0.11 -0.203911 0.87 0.185592 0.96876 0.1645 173 173 173 255
-0.11 -0.200515 0.85 0.185592 0.96876 0.1645 177 177 163 255
-0.13 -0.200894 0.87 0.14604 0.968059 0.203799 167 167 167 255
-0.11 -0.203911 0.87 0.14604 0.968059 0.203799 173 173 173 255
-0.13 -0.196684 0.85 0.14604 0.968059 0.203799 186 186 186 255
-0.13 -0.200894 0.87 0.146774 0.972926 0.178529 167 167 167 255
-0.11 -0.207581 0.89 0.146774 0.972926 0.178529 170 170 170 255
-0.11 -0.203911 0.87 0.146774 0.972926 0.178529 173 173 173 255
-0.13 -0.204278 0.89 0.160723 0.973167 0.164661 162 162 162 255
-0.11 -0.207581 0.89 0.160723 0.973167 0.164661 170 170 170 255
-0.13 -0.200894 0.87 0.160723 0.973167 0.164661 167 167 167 255
-0.11 -0.21 0.899814 0.130839 0.962596 0.237257 170 170 170 255
-0.11 -0.207581 0.89 0.130839 0.962596 0.237257 170 170 170 255
-0.128471 -0.21 0.91 0.130839 0.962596 0.237257 172 172 172 255
-0.11 -0.207581 0.89 0.179787 0.942987 0.280092 170 170 170 255
-0.13 -0.209709 0.91 0.179787 0.942987 0.280092 172 172 172 255
-0.128471 -0.21 0.91 0.179787 0.942987 0.280092 172 172 172 255
-0.11 -0.207581 0.89 0.157397 0.953029 0.25877 170 170 170 255
-0.13 -0.204278 0.89 0.157397 0.953029 0.25877 162 162 162 255
-0.13 -0.209709 0.91 0.157397 0.953029 0.25877 172 172 172 255
-0.13 -0.209709 0.91 0.175104 0.918423 0.354736 172 172 172 255
-0.13 -0.21 0.910755 0.175104 0.918423 0.354736 172 172 172 255
-0.128471 -0.21 0.91 0.175104 0.918423 0.354736 172 172 172 255
-0.11 -0.17 0.830546 0.226885 0.128985 0.965343 219 219 219 255
-0.13 -0.19 0.837919 0.226885 0.128985 0.965343 195 195 195 255
-0.11 -0.19 0.833219 0.226885 0.128985 0.965343 200 200 200 255
-0.13 -0.17 0.836388 0.279601 0.0733083 0.957313 200 200 200 255
-0.13 -0.19 0.837919 0.279601 0.0733083 0.957313 195 195 195 255
-0.11 -0.17 0.830546 0.279601 0.0733083 0.957313 219 219 219 255
-0.09 -0.218466 0.85 0.517152 -0.527665 0.673887 178 155 129 255
-0.101768 -0.23 0.85 0.517152 -0.527665 0.673887 174 154 120 255
-0.09 -0.23 0.840969 0.517152 -0.527665 0.673887 173 135 96 255
-0.11 -0.220993 0.87 0.489764 -0.701626 0.517545 172 149 120 255
-0.11 -0.23 0.85779 0.489764 -0.701626 0.517545 174 154 120 255
-0.101768 -0.23 0.85 0.489764 -0.701626 0.517545 174 154 120 255
-0.09 -0.218466 0.85 0.597631 -0.609781 0.520581 178 155 129 255
-0.11 -0.220993 0.87 0.597631 -0.609781 0.520581 172 149 120 255
-0.101768 -0.23 0.85 0.597631 -0.609781 0.520581 174 154 120 255
-0.09 -0.214084 0.87 0.319746 -0.925547 0.202795 174 158 154 255
-0.11 -0.220993 0.87 0.319746 -0.925547 0.202795 172 149 120 255
-0.09 -0.218466 0.85 0.319746 -0.925547 0.202795 178 155 129 255
-0.0970678 -0.19 0.85 -0.567371 0.697793 0.437236 190 190 190 255
-0.11 -0.19 0.833219 -0.567371 0.697793 0.437236 200 200 200 255
-0.11 -0.200515 0.85 -0.567371 0.697793 0.437236 177 177 163 255
-0.09 -0.200101 0.87 -0.723856 0.478229 0.497322 174 158 154 255
-0.09 -0.19 0.860287 -0.723856 0.478229 0.497322 178 178 178 255
-0.0970678 -0.19 0.85 -0.723856 0.478229 0.497322 190 190 190 255
-0.11 -0.200515 0.85 -0.537429 0.660968 0.523729 177 177 163 255
-0.09 -0.200101 0.87 -0.537429 0.660968 0.523729 174 158 154 255
-0.0970678 -0.19 0.85 -0.537429 0.660968 0.523729 190 190 190 255
-0.11 -0.203911 0.87 -0.184615 0.968941 0.164531 173 173 173 255
-0.09 -0.200101 0.87 -0.184615 0.968941 0.164531 174 158 154 255
-0.11 -0.200515 0.85 -0.184615 0.968941 0.164531 177 177 163 255
-0.09 -0.21 0.879822 0.53436 0.595329 0.600035 174 158 154 255
-0.09 -0.200101 0.87 0.53436 0.595329 0.600035 174 158 154 255
-0.101429 -0.21 0.89 0.53436 0.595329 0.600035 170 170 170 255
-0.09 -0.200101 0.87 0.229642 0.813705 0.533993 174 158 154 255
-0.11 -0.207581 0.89 0.229642 0.813705 0.533993 170 170 170 255
-0.101429 -0.21 0.89 0.229642 0.813705 0.533993 170 170 170 255
-0.09 -0.200101 0.87 -0.184197 0.966748 0.177396 174 158 154 255
-0.11 -0.203911 0.87 -0.184197 0.966748 0.177396 173 173 173 255
-0.11 -0.207581 0.89 -0.184197 0.966748 0.177396 170 170 170 255
-0.11 -0.207581 0.89 0.264275 0.936423 0.230806 170 170 170 255
-0.11 -0.21 0.899814 0.264275 0.936423 0.230806 170 170 170 255
-0.101429 -0.21 0.89 0.264275 0.936423 0.230806 170 170 170 255
-0.11 -0.19 0.833219 -0.789301 0.0837907 0.608263 200 200 200 255
-0.0970678 -0.19 0.85 -0.789301 0.0837907 0.608263 190 190 190 255
-0.0949446 -0.17 0.85 -0.789301 0.0837907 0.608263 212 212 212 255
-0.11 -0.19 0.833219 -0.788199 0.0815054 0.609999 200 200 200 255
-0.0949446 -0.17 0.85 -0.788199 0.0815054 0.609999 212 212 212 255
-0.11 -0.17 0.830546 -0.788199 0.0815054 0.609999 219 219 219 255
-0.09 -0.17 0.856331 -0.782315 0.120883 0.611041 212 212 212 255
-0.0949446 -0.17 0.85 -0.782315 0.120883 0.611041 212 212 212 255
-0.09 -0.19 0.860287 -0.782315 0.120883 0.611041 178 178 178 255
-0.09 -0.19 0.860287 -0.821079 0.0871643 0.56412 178 178 178 255
-0.0949446 -0.17 0.85 -0.821079 0.0871643 0.56412 212 212 212 255
-0.0970678 -0.19 0.85 -0.821079 0.0871643 0.56412 190 190 190 255
-0.07 -0.181426 0.85 0.537974 -0.811931 0.22661 166 120 77 255
-0.0829399 -0.19 0.85 0.537974 -0.811931 0.22661 190 190 190 255
-0.0745153 -0.19 0.83 0.537974 -0.811931 0.22661 165 109 62 255
-0.07 -0.181426 0.85 0.640203 -0.747767 0.176024 166 120 77 255
-0.0745153 -0.19 0.83 0.640203 -0.747767 0.176024 165 109 62 255
-0.07 -0.186134 0.83 0.640203 -0.747767 0.176024 165 109 62 255
-0.09 -0.17 0.856331 0.819385 0.111249 0.562344 212 212 212 255
-0.09 -0.19 0.860287 0.819385 0.111249 0.562344 178 178 178 255
-0.0829399 -0.19 0.85 0.819385 0.111249 0.562344 190 190 190 255
-0.07 -0.181405 0.87 -0.663518 -0.42838 0.61338 175 131 98 255
-0.09 -0.17 0.856331 -0.663518 -0.42838 0.61338 212 212 212 255
-0.0829399 -0.19 0.85 -0.663518 -0.42838 0.61338 190 190 190 255
-0.07 -0.181426 0.85 0.552342 -0.833617 0.000867668 166 120 77 255
-0.07 -0.181405 0.87 0.552342 -0.833617 0.000867668 175 131 98 255
-0.0829399 -0.19 0.85 0.552342 -0.833617 0.000867668 190 190 190 255
-0.0821509 -0.17 0.87 -0.636967 -0.678599 0.365755 201 201 201 255
-0.09 -0.17 0.856331 -0.636967 -0.678599 0.365755 212 212 212 255
-0.07 -0.181405 0.87 -0.636967 -0.678599 0.365755 175 131 98 255
-0.07 -0.177443 0.89 -0.825973 -0.552964 0.109545 186 169 161 255
-0.0749831 -0.17 0.89 -0.825973 -0.552964 0.109545 186 169 161 255
-0.07 -0.181405 0.87 -0.825973 -0.552964 0.109545 175 131 98 255
-0.07 -0.181405 0.87 -0.664685 -0.708129 0.238216 175 131 98 255
-0.0749831 -0.17 0.89 -0.664685 -0.708129 0.238216 186 169 161 255
-0.0821509 -0.17 0.87 -0.664685 -0.708129 0.238216 201 201 201 255
-0.07 -0.17 0.909453 -0.812765 -0.544122 0.208194 199 199 199 255
-0.0749831 -0.17 0.89 -0.812765 -0.544122 0.208194 186 169 161 255
-0.07 -0.177443 0.89 -0.812765 -0.544122 0.208194 186 169 161 255
-0.13 -0.15858 0.85 0.685091 -0.558061 0.468207 168 168 168 255
-0.139303 -0.17 0.85 0.685091 -0.558061 0.468207 193 193 193 255
-0.13 -0.17 0.836388 0.685091 -0.558061 0.468207 200 200 200 255
-0.11 -0.15 0.845419 0.43675 -0.767983 0.468456 192 192 192 255
-0.114914 -0.15 0.85 0.43675 -0.767983 0.468456 192 192 192 255
-0.13 -0.15858 0.85 0.43675 -0.767983 0.468456 168 168 168 255
-0.13 -0.17 0.836388 0.429687 -0.691759 0.580378 200 200 200 255
-0.11 -0.15 0.845419 0.429687 -0.691759 0.580378 192 192 192 255
-0.13 -0.15858 0.85 0.429687 -0.691759 0.580378 168 168 168 255
-0.11 -0.17 0.830546 0.228187 -0.580976 0.781279 219 219 219 255
-0.11 -0.15 0.845419 0.228187 -0.580976 0.781279 192 192 192 255
-0.13 -0.17 0.836388 0.228187 -0.580976 0.781279 200 200 200 255
-0.11 -0.17 0.830546 -0.70939 -0.441993 0.549007 219 219 219 255
-0.0949446 -0.17 0.85 -0.70939 -0.441993 0.549007 212 212 212 255
-0.107406 -0.15 0.85 -0.70939 -0.441993 0.549007 192 192 192 255
-0.11 -0.17 0.830546 -0.817046 -0.344052 0.46267 219 219 219 255
-0.107406 -0.15 0.85 -0.817046 -0.344052 0.46267 192 192 192 255
-0.11 -0.15 0.845419 -0.817046 -0.344052 0.46267 192 192 192 255
-0.139303 -0.17 0.85 0.712297 -0.580222 0.394937 193 193 193 255
-0.13 -0.15858 0.85 0.712297 -0.580222 0.394937 168 168 168 255
-0.13 -0.15 0.862605 0.712297 -0.580222 0.394937 185 185 185 255
-0.138945 -0.15 0.87 0.501922 -0.616064 0.607075 185 185 185 255
-0.139303 -0.17 0.85 0.501922 -0.616064 0.607075 193 193 193 255
-0.13 -0.15 0.862605 0.501922 -0.616064 0.607075 185 185 185 255
-0.145075 -0.17 0.87 0.921652 -0.282499 0.265992 180 180 180 255
-0.139303 -0.17 0.85 0.921652 -0.282499 0.265992 193 193 193 255
-0.138945 -0.15 0.87 0.921652 -0.282499 0.265992 185 185 185 255
-0.114914 -0.15 0.85 0.425454 -0.74812 0.50922 192 192 192 255
-0.13 -0.15 0.862605 0.425454 -0.74812 0.50922 185 185 185 255
-0.13 -0.15858 0.85 0.425454 -0.74812 0.50922 168 168 168 255
-0.09 -0.16043 0.87 -0.710848 -0.576175 0.403382 201 201 201 255
-0.098454 -0.15 0.87 -0.710848 -0.576175 0.403382 193 191 189 255
-0.09 -0.17 0.856331 -0.710848 -0.576175 0.403382 212 212 212 255
-0.098454 -0.15 0.87 -0.629313 -0.601961 0.491536 193 191 189 255
-0.0949446 -0.17 0.85 -0.629313 -0.601961 0.491536 212 212 212 255
-0.09 -0.17 0.856331 -0.629313 -0.601961 0.491536 212 212 212 255
-0.098454 -0.15 0.87 -0.793415 -0.494346 0.355126 193 191 189 255
-0.107406 -0.15 0.85 -0.793415 -0.494346 0.355126 192 192 192 255
-0.0949446 -0.17 0.85 -0.793415 -0.494346 0.355126 212 212 212 255
-0.09 -0.17 0.856331 0.864445 -0.491302 0.106572 212 212 212 255
-0.0778527 -0.15 0.85 0.864445 -0.491302 0.106572 167 119 81 255
-0.0803183 -0.15 0.87 0.864445 -0.491302 0.106572 193 191 189 255
-0.09 -0.16043 0.87 0.661689 -0.614213 0.430013 201 201 201 255
-0.09 -0.17 0.856331 0.661689 -0.614213 0.430013 212 212 212 255
-0.0803183 -0.15 0.87 0.661689 -0.614213 0.430013 193 191 189 255
-0.09 -0.17 0.856331 0.203587 0.180913 0.962197 212 212 212 255
-0.07 -0.158837 0.85 0.203587 0.180913 0.962197 167 119 81 255
-0.0778527 -0.15 0.85 0.203587 0.180913 0.962197 167 119 81 255
-0.07 -0.158574 0.87 -0.637507 0.677924 0.366065 176 137 102 255
-0.09 -0.17 0.856331 -0.637507 0.677924 0.366065 212 212 212 255
-0.0821509 -0.17 0.87 -0.637507 0.677924 0.366065 201 201 201 255
-0.09 -0.17 0.856331 -0.490113 0.871584 -0.0114759 212 212 212 255
-0.07 -0.158574 0.87 -0.490113 0.871584 -0.0114759 176 137 102 255
-0.07 -0.158837 0.85 -0.490113 0.871584 -0.0114759 167 119 81 255
-0.07 -0.158837 0.85 0.158746 0.98642 -0.0421378 167 119 81 255
-0.05 -0.161201 0.87 0.158746 0.98642 -0.0421378 189 173 167 255
-0.05 -0.162055 0.85 0.158746 0.98642 -0.0421378 178 163 123 255
-0.07 -0.158574 0.87 0.130249 0.991395 -0.0130534 176 137 102 255
-0.05 -0.161201 0.87 0.130249 0.991395 -0.0130534 189 173 167 255
-0.07 -0.158837 0.85 0.130249 0.991395 -0.0130534 167 119 81 255
-0.15 -0.155054 0.89 0.984441 0.0351471 0.172162 184 183 181 255
-0.149466 -0.17 0.89 0.984441 0.0351471 0.172162 178 178 178 255
-0.15 -0.15 0.888968 0.984441 0.0351471 0.172162 184 183 181 255
-0.149466 -0.17 0.89 0.86293 0.0489684 0.502945 178 178 178 255
-0.138945 -0.15 0.87 0.86293 0.0489684 0.502945 185 185 185 255
-0.15 -0.15 0.888968 0.86293 0.0489684 0.502945 184 183 181 255
-0.149466 -0.17 0.89 0.935699 -0.286804 0.205454 178 178 178 255
-0.145075 -0.17 0.87 0.935699 -0.286804 0.205454 180 180 180 255
-0.138945 -0.15 0.87 0.935699 -0.286804 0.205454 185 185 185 255
-0.09 -0.15 0.87805 -0.601934 -0.487895 0.632166 193 191 189 255
-0.098454 -0.15 0.87 -0.601934 -0.487895 0.632166 193 191 189 255
-0.09 -0.16043 0.87 -0.601934 -0.487895 0.632166 201 201 201 255
-0.0749831 -0.17 0.89 -0.865708 0.392794 0.310261 186 169 161 255
-0.07 -0.159017 0.89 -0.865708 0.392794 0.310261 186 164 150 255
-0.0821509 -0.17 0.87 -0.865708 0.392794 0.310261 201 201 201 255
-0.07 -0.159017 0.89 -0.684968 0.728393 0.0161653 186 164 150 255
-0.07 -0.158574 0.87 -0.684968 0.728393 0.0161653 176 137 102 255
-0.0821509 -0.17 0.87 -0.684968 0.728393 0.0161653 201 201 201 255
-0.09 -0.15 0.87805 0.549798 -0.51035 0.66126 193 191 189 255
-0.09 -0.16043 0.87 0.549798 -0.51035 0.66126 201 201 201 255
-0.0803183 -0.15 0.87 0.549798 -0.51035 0.66126 193 191 189 255
-0.05 -0.17 0.887065 0.355456 0.830763 0.428351 196 164 144 255
-0.05 -0.161201 0.87 0.355456 0.830763 0.428351 189 173 167 255
-0.053537 -0.17 0.89 0.355456 0.830763 0.428351 196 164 144 255
-0.05 -0.161201 0.87 0.503379 0.754571 0.42099 189 173 167 255
-0.07 -0.159017 0.89 0.503379 0.754571 0.42099 186 164 150 255
-0.053537 -0.17 0.89 0.503379 0.754571 0.42099 196 164 144 255
-0.05 -0.161201 0.87 0.130229 0.99124 0.0219987 189 173 167 255
-0.07 -0.158574 0.87 0.130229 0.99124 0.0219987 176 137 102 255
-0.07 -0.159017 0.89 0.130229 0.99124 0.0219987 186 164 150 255
-0.15 -0.155054 0.89 0.974336 0.0347863 0.222395 184 183 181 255
-0.15 -0.17 0.892338 0.974336 0.0347863 0.222395 178 178 178 255
-0.149466 -0.17 0.89 0.974336 0.0347863 0.222395 178 178 178 255
-0.07 -0.17 0.909453 -0.886839 0.402381 0.227169 199 199 199 255
-0.07 -0.159017 0.89 -0.886839 0.402381 0.227169 186 164 150 255
-0.0749831 -0.17 0.89 -0.886839 0.402381 0.227169 186 169 161 255
-0.07 -0.159017 0.89 0.502314 0.752975 0.4251 186 164 150 255
-0.07 -0.17 0.909453 0.502314 0.752975 0.4251 199 199 199 255
-0.053537 -0.17 0.89 0.502314 0.752975 0.4251 196 164 144 255
-0.17 -0.21 0.83318 -0.903155 -0.258909 0.342456 212 206 196 255
-0.163622 -0.21 0.85 -0.903155 -0.258909 0.342456 212 206 196 255
-0.169356 -0.19 0.85 -0.903155 -0.258909 0.342456 212 206 196 255
-0.17 -0.21 0.83318 -0.792934 -0.377009 0.478665 212 206 196 255
-0.169356 -0.19 0.85 -0.792934 -0.377009 0.478665 212 206 196 255
-0.17 -0.19 0.848933 -0.792934 -0.377009 0.478665 212 206 196 255
-0.17 -0.19 0.848933 -0.84248 0.177705 0.508575 212 206 196 255
-0.169356 -0.19 0.85 -0.84248 0.177705 0.508575 212 206 196 255
-0.165137 -0.17 0.85 -0.84248 0.177705 0.508575 212 206 196 255
-0.17 -0.19 0.848933 -0.775758 0.155994 0.611445 212 206 196 255
-0.165137 -0.17 0.85 -0.775758 0.155994 0.611445 212 206 196 255
-0.17 -0.17 0.84383 -0.775758 0.155994 0.611445 212 206 196 255
-0.17 -0.17 0.84383 -0.711701 0.422859 0.560956 212 206 196 255
-0.165137 -0.17 0.85 -0.711701 0.422859 0.560956 212 206 196 255
-0.153254 -0.15 0.85 -0.711701 0.422859 0.560956 194 186 177 255
-0.17 -0.17 0.84383 -0.585708 0.252857 0.770071 212 206 196 255
-0.153254 -0.15 0.85 -0.585708 0.252857 0.770071 194 186 177 255
-0.17 -0.15 0.837263 -0.585708 0.252857 0.770071 193 188 179 255
-0.159121 -0.19 0.87 -0.874922 0.184548 0.447721 168 168 168 255
-0.165137 -0.17 0.85 -0.874922 0.184548 0.447721 212 206 196 255
-0.169356 -0.19 0.85 -0.874922 0.184548 0.447721 212 206 196 255
-0.157289 -0.17 0.87 -0.927531 0.084963 0.36396 180 180 180 255
-0.165137 -0.17 0.85 -0.927531 0.084963 0.36396 212 206 196 255
-0.159121 -0.19 0.87 -0.927531 0.084963 0.36396 168 168 168 255
-0.15 -0.146234 0.87 0.31691 0.930297 0.184706 191 189 184 255
-0.15 -0.15 0.888968 0.31691 0.930297 0.184706 184 183 181 255
-0.138945 -0.15 0.87 0.31691 0.930297 0.184706 185 185 185 255
-0.11 -0.15 0.845419 -0.322055 0.44508 0.835575 192 192 192 255
-0.11 -0.13 0.834766 -0.322055 0.44508 0.835575 162 110 68 255
-0.122364 -0.13 0.83 -0.322055 0.44508 0.835575 161 109 67 255
-0.13 -0.139428 0.85 0.489514 0.701716 0.517659 163 127 104 255
-0.11 -0.15 0.845419 0.489514 0.701716 0.517659 192 192 192 255
-0.122364 -0.13 0.83 0.489514 0.701716 0.517659 161 109 67 255
-0.13 -0.131528 0.83 -0.182964 0.914376 0.361166 161 109 67 255
-0.13 -0.139428 0.85 -0.182964 0.914376 0.361166 163 127 104 255
-0.122364 -0.13 0.83 -0.182964 0.914376 0.361166 161 109 67 255
-0.114914 -0.15 0.85 0.488727 0.69739 0.524207 192 192 192 255
-0.11 -0.15 0.845419 0.488727 0.69739 0.524207 192 192 192 255
-0.13 -0.139428 0.85 0.488727 0.69739 0.524207 163 127 104 255
-0.13 -0.139428 0.85 0.473051 0.675021 0.566188 163 127 104 255
-0.13 -0.15 0.862605 0.473051 0.675021 0.566188 185 185 185 255
-0.114914 -0.15 0.85 0.473051 0.675021 0.566188 192 192 192 255
-0.09 -0.138346 0.85 0.185726 0.933996 0.305216 156 110 71 255
-0.09 -0.131811 0.83 0.185726 0.933996 0.305216 159 104 60 255
-0.0991055 -0.13 0.83 0.185726 0.933996 0.305216 159 104 60 255
-0.11 -0.15 0.845419 -0.515934 0.681336 0.519224 192 192 192 255
-0.09 -0.138346 0.85 -0.515934 0.681336 0.519224 156 110 71 255
-0.0991055 -0.13 0.83 -0.515934 0.681336 0.519224 159 104 60 255
-0.11 -0.13 0.834766 0.360167 0.438576 0.823365 162 110 68 255
-0.11 -0.15 0.845419 0.360167 0.438576 0.823365 192 192 192 255
-0.0991055 -0.13 0.83 0.360167 0.438576 0.823365 159 104 60 255
-0.09 -0.138346 0.85 -0.530634 0.792552 0.300482 156 110 71 255
-0.11 -0.15 0.845419 -0.530634 0.792552 0.300482 192 192 192 255
-0.107406 -0.15 0.85 -0.530634 0.792552 0.300482 192 192 192 255
-0.098454 -0.15 0.87 -0.68911 0.655738 0.308441 193 191 189 255
-0.09 -0.141116 0.87 -0.68911 0.655738 0.308441 193 191 189 255
-0.107406 -0.15 0.85 -0.68911 0.655738 0.308441 192 192 192 255
-0.107406 -0.15 0.85 -0.552697 0.825505 0.114308 192 192 192 255
-0.09 -0.141116 0.87 -0.552697 0.825505 0.114308 193 191 189 255
-0.09 -0.138346 0.85 -0.552697 0.825505 0.114308 156 110 71 255
-0.09 -0.15 0.87805 -0.576538 0.548617 0.605494 193 191 189 255
-0.09 -0.141116 0.87 -0.576538 0.548617 0.605494 193 191 189 255
-0.098454 -0.15 0.87 -0.576538 0.548617 0.605494 193 191 189 255
3 0 1 2 
3 3 4 5 
3 6 7 8 
3 9 10 11 
3 12 13 14 
3 15 16 17 
3 18 19 20 
3 21 22 23 
3 24 25 26 
3 27 28 29 
3 30 31 32 
3 33 34 35 
3 36 37 38 
3 39 40 41 
3 42 43 44 
3 45 46 47 
3 48 49 50 
3 51 52 53 
3 54 55 56 
3 57 58 59 
3 60 61 62 
3 63 64 65 
3 66 67 68 
3 69 70 71 
3 72 73 74 
3 75 76 77 
3 78 79 80 
3 81 82 83 
3 84 85 86 
3 87 88 89 
3 90 91 92 
3 93 94 95 
3 96 97 98 
3 99 100 101 
3 102 103 104 
3 105 106 107 
3 108 109 110 
3 111 112 113 
3 114 115 116 
3 117 118 119 
3 120 121 122 
3 123 124 125 
3 126 127 128 
3 129 130 131 
3 132 133 134 
3 135 136 137 
3 138 139 140 
3 141 142 143 
3 144 145 146 
3 147 148 149 
3 150 151 152 
3 153 154 155 
3 156 157 158 
3 159 160 161 
3 162 163 164 
3 165 166 167 
3 168 169 170 
3 171 172 173 
3 174 175 176 
3 177 178 179 
3 180 181 182 
3 183 184 185 
3 186 187 188 
3 189 190 191 
3 192 193 194 
3 195 196 197 
3 198 199 200 
3 201 202 203 
3 204 205 206 
3 207 208 209 
3 210 211 212 
3 213 214 215 
3 216 217 218 
3 219 220 221 
3 222 223 224 
3 225 226 227 
3 228 229 230 
3 231 232 233 
3 234 235 236 
3 237 238 239 
3 240 241 242 
3 243 244 245 
3 246 247 248 
3 249 250 251 
3 252 253 254 
3 255 256 257 
3 258 259 260 
3 261 262 263 
3 264 265 266 
3 267 268 269 
3 270 271 272 
3 273 274 275 
3 276 277 278 
3 279 280 281 
3 282 283 284 
3 285 286 287 
3 288 289 290 
3 291 292 293 
3 294 295 296 
3 297 298 299 
3 300 301 302 
3 303 304 305 
3 306 307 308 
3 309 310 311 
3 312 313 314 
3 315 316 317 
3 318 319 320 
3 321 322 323 
3 324 325 326 
3 327 328 329 
