ply
format ascii 1.0
element vertex 156
property float x
property float y
property float z
property float normal_x
property float normal_y
property float normal_z
property uchar red
property uchar green
property uchar blue
property uchar alpha
element face 52
property list uchar int vertex_indices
end_header
0.09 0.349767 0.85 0.14106 0.989573 -0.0291279 155 98 56 255
0.09 0.35 0.857911 0.14106 0.989573 -0.0291279 155 98 56 255
0.0924964 0.35 0.87 0.14106 0.989573 -0.0291279 155 100 58 255
0.11 0.347265 0.87 0.15428 0.987548 -0.0307545 160 104 57 255
0.09 0.349767 0.85 0.15428 0.987548 -0.0307545 155 98 56 255
0.0924964 0.35 0.87 0.15428 0.987548 -0.0307545 155 100 58 255
0.11 0.349948 0.85 -0.00895109 0.991086 0.13292 159 104 57 255
0.09 0.349767 0.85 -0.00895109 0.991086 0.13292 155 98 56 255
0.11 0.347265 0.87 -0.00895109 0.991086 0.13292 160 104 57 255
0.0666824 0.29 0.89 -0.958322 -0.232046 0.166655 141 113 89 255
0.0583615 0.31 0.87 -0.958322 -0.232046 0.166655 146 86 52 255
0.0632043 0.29 0.87 -0.958322 -0.232046 0.166655 138 105 85 255
0.0630028 0.31 0.89 -0.958838 -0.176406 0.22251 139 104 82 255
0.0583615 0.31 0.87 -0.958838 -0.176406 0.22251 146 86 52 255
0.0666824 0.29 0.89 -0.958838 -0.176406 0.22251 141 113 89 255
0.0681822 0.29 0.91 -0.98083 -0.180452 0.0735566 144 116 94 255
0.0630028 0.31 0.89 -0.98083 -0.180452 0.0735566 139 104 82 255
0.0666824 0.29 0.89 -0.98083 -0.180452 0.0735566 141 113 89 255
0.0673577 0.31 0.91 -0.976312 -0.0402479 0.212591 140 110 84 255
0.0630028 0.31 0.89 -0.976312 -0.0402479 0.212591 139 104 82 255
0.0681822 0.29 0.91 -0.976312 -0.0402479 0.212591 144 116 94 255
0.07 0.31 0.919065 -0.959313 -0.0391765 0.279614 140 110 84 255
0.0673577 0.31 0.91 -0.959313 -0.0391765 0.279614 140 110 84 255
0.07 0.29 0.916263 -0.959313 -0.0391765 0.279614 144 116 94 255
0.07 0.29 0.916263 -0.959616 -0.0395596 0.278518 144 116 94 255
0.0673577 0.31 0.91 -0.959616 -0.0395596 0.278518 140 110 84 255
0.0681822 0.29 0.91 -0.959616 -0.0395596 0.278518 144 116 94 255
0.07 0.277677 0.85 -0.42933 -0.84067 0.330076 151 95 55 255
0.07 0.27 0.830447 -0.42933 -0.84067 0.330076 149 94 55 255
0.0850325 0.27 0.85 -0.42933 -0.84067 0.330076 119 83 70 255
0.07 0.277677 0.85 -0.453921 -0.888822 0.0628605 151 95 55 255
0.0850325 0.27 0.85 -0.453921 -0.888822 0.0628605 119 83 70 255
0.0878021 0.27 0.87 -0.453921 -0.888822 0.0628605 130 96 87 255
0.07 0.277677 0.85 -0.525037 -0.838557 0.145456 151 95 55 255
0.0878021 0.27 0.87 -0.525037 -0.838557 0.145456 130 96 87 255
0.07 0.281146 0.87 -0.525037 -0.838557 0.145456 138 105 85 255
0.07 0.281146 0.87 -0.530627 -0.847484 -0.0143302 138 105 85 255
0.0878021 0.27 0.87 -0.530627 -0.847484 -0.0143302 130 96 87 255
0.087262 0.27 0.89 -0.530627 -0.847484 -0.0143302 130 96 96 255
0.07 0.281146 0.87 -0.655581 -0.739293 0.153815 138 105 85 255
0.087262 0.27 0.89 -0.655581 -0.739293 0.153815 130 96 96 255
0.07 0.285307 0.89 -0.655581 -0.739293 0.153815 141 113 89 255
0.07 0.285307 0.89 -0.655737 -0.739469 0.152299 141 113 89 255
0.087262 0.27 0.89 -0.655737 -0.739469 0.152299 130 96 96 255
0.09 0.27 0.901789 -0.655737 -0.739469 0.152299 131 96 96 255
0.09 0.277636 0.91 -0.693234 -0.527789 0.49078 131 96 96 255
0.07 0.285307 0.89 -0.693234 -0.527789 0.49078 141 113 89 255
0.09 0.27 0.901789 -0.693234 -0.527789 0.49078 131 96 96 255
0.07 0.286053 0.91 -0.387684 -0.921153 0.034339 144 116 94 255
0.07 0.285307 0.89 -0.387684 -0.921153 0.034339 141 113 89 255
0.09 0.277636 0.91 -0.387684 -0.921153 0.034339 131 96 96 255
0.09 0.277636 0.91 -0.20524 -0.487659 0.848567 131 96 96 255
0.09 0.29 0.917106 -0.20524 -0.487659 0.848567 165 142 108 255
0.07 0.286053 0.91 -0.20524 -0.487659 0.848567 144 116 94 255
0.07 0.286053 0.91 -0.0224593 -0.845794 0.533037 144 116 94 255
0.09 0.29 0.917106 -0.0224593 -0.845794 0.533037 165 142 108 255
0.07 0.29 0.916263 -0.0224593 -0.845794 0.533037 144 116 94 255
0.09 0.31 0.918114 -0.0420439 -0.0502903 0.997849 161 123 99 255
0.07 0.29 0.916263 -0.0420439 -0.0502903 0.997849 144 116 94 255
0.09 0.29 0.917106 -0.0420439 -0.0502903 0.997849 165 142 108 255
0.07 0.31 0.919065 0.047064 -0.138601 0.989229 140 110 84 255
0.07 0.29 0.916263 0.047064 -0.138601 0.989229 144 116 94 255
0.09 0.31 0.918114 0.047064 -0.138601 0.989229 161 123 99 255
0.11 0.268536 0.89 0.038648 -0.976443 0.212288 97 77 76 255
0.11 0.27 0.896733 0.038648 -0.976443 0.212288 97 77 76 255
0.09 0.267744 0.89 0.038648 -0.976443 0.212288 130 96 96 255
0.09 0.267744 0.89 0.0474451 -0.981078 0.187711 130 96 96 255
0.11 0.27 0.896733 0.0474451 -0.981078 0.187711 97 77 76 255
0.09 0.27 0.901789 0.0474451 -0.981078 0.187711 131 96 96 255
0.09 0.277636 0.91 0.169624 -0.721703 0.671098 131 96 96 255
0.09 0.27 0.901789 0.169624 -0.721703 0.671098 131 96 96 255
0.11 0.27 0.896733 0.169624 -0.721703 0.671098 97 77 76 255
0.09 0.277636 0.91 0.0948242 -0.794281 0.600105 131 96 96 255
0.11 0.27 0.896733 0.0948242 -0.794281 0.600105 97 77 76 255
0.11 0.280023 0.91 0.0948242 -0.794281 0.600105 161 136 107 255
0.11 0.280023 0.91 0.0688597 -0.576793 0.813983 161 136 107 255
0.11 0.29 0.91707 0.0688597 -0.576793 0.813983 161 136 107 255
0.09 0.277636 0.91 0.0688597 -0.576793 0.813983 131 96 96 255
0.09 0.277636 0.91 0.00156328 -0.498265 0.867023 131 96 96 255
0.11 0.29 0.91707 0.00156328 -0.498265 0.867023 161 136 107 255
0.09 0.29 0.917106 0.00156328 -0.498265 0.867023 165 142 108 255
0.11 0.31 0.918223 0.00180005 -0.0575777 0.998339 163 121 103 255
0.09 0.29 0.917106 0.00180005 -0.0575777 0.998339 165 142 108 255
0.11 0.29 0.91707 0.00180005 -0.0575777 0.998339 161 136 107 255
0.09 0.31 0.918114 -0.00546469 -0.050334 0.998717 161 123 99 255
0.09 0.29 0.917106 -0.00546469 -0.050334 0.998717 165 142 108 255
0.11 0.31 0.918223 -0.00546469 -0.050334 0.998717 163 121 103 255
0.11159 0.27 0.89 0.668771 -0.726497 0.157947 97 77 76 255
0.11 0.27 0.896733 0.668771 -0.726497 0.157947 97 77 76 255
0.11 0.268536 0.89 0.668771 -0.726497 0.157947 97 77 76 255
0.13 0.286795 0.87 0.662696 -0.747263 0.0493111 96 78 76 255
0.111062 0.27 0.87 0.662696 -0.747263 0.0493111 97 76 76 255
0.11255 0.27 0.85 0.662696 -0.747263 0.0493111 97 76 73 255
0.13 0.286795 0.87 0.728087 -0.682677 -0.0619792 96 78 76 255
0.11255 0.27 0.85 0.728087 -0.682677 -0.0619792 97 76 73 255
0.13 0.288611 0.85 0.728087 -0.682677 -0.0619792 104 85 77 255
0.13 0.289677 0.89 0.730088 -0.683081 -0.0192948 104 79 76 255
0.11159 0.27 0.89 0.730088 -0.683081 -0.0192948 97 77 76 255
0.111062 0.27 0.87 0.730088 -0.683081 -0.0192948 97 76 76 255
0.13 0.289677 0.89 0.659681 -0.743864 0.107174 104 79 76 255
0.111062 0.27 0.87 0.659681 -0.743864 0.107174 97 76 76 255
0.13 0.286795 0.87 0.659681 -0.743864 0.107174 96 78 76 255
0.118681 0.29 0.91 0.685701 -0.596621 0.416962 161 136 107 255
0.11 0.280023 0.91 0.685701 -0.596621 0.416962 161 136 107 255
0.13 0.29 0.891385 0.685701 -0.596621 0.416962 104 79 76 255
0.13 0.29 0.891385 0.572032 -0.798746 0.186505 104 79 76 255
0.11 0.280023 0.91 0.572032 -0.798746 0.186505 161 136 107 255
0.13 0.289677 0.89 0.572032 -0.798746 0.186505 104 79 76 255
0.11 0.280023 0.91 0.7028 -0.567599 0.428839 161 136 107 255
0.11 0.27 0.896733 0.7028 -0.567599 0.428839 97 77 76 255
0.13 0.289677 0.89 0.7028 -0.567599 0.428839 104 79 76 255
0.11 0.27 0.896733 0.719601 -0.673269 0.169952 97 77 76 255
0.11159 0.27 0.89 0.719601 -0.673269 0.169952 97 77 76 255
0.13 0.289677 0.89 0.719601 -0.673269 0.169952 104 79 76 255
0.118681 0.29 0.91 0.553445 -0.481546 0.679568 161 136 107 255
0.11 0.29 0.91707 0.553445 -0.481546 0.679568 161 136 107 255
0.11 0.280023 0.91 0.553445 -0.481546 0.679568 161 136 107 255
0.118681 0.29 0.91 0.789161 -0.383335 0.479874 161 136 107 255
0.13 0.29 0.891385 0.789161 -0.383335 0.479874 104 79 76 255
0.13 0.31 0.907362 0.789161 -0.383335 0.479874 183 161 131 255
0.118681 0.29 0.91 0.713083 -0.321386 0.623076 161 136 107 255
0.13 0.31 0.907362 0.713083 -0.321386 0.623076 183 161 131 255
0.127695 0.31 0.91 0.713083 -0.321386 0.623076 183 161 131 255
0.127695 0.31 0.91 0.414033 -0.186604 0.890929 183 161 131 255
0.11 0.31 0.918223 0.414033 -0.186604 0.890929 163 121 103 255
0.118681 0.29 0.91 0.414033 -0.186604 0.890929 161 136 107 255
0.118681 0.29 0.91 0.630853 -0.0446747 0.774615 161 136 107 255
0.11 0.31 0.918223 0.630853 -0.0446747 0.774615 163 121 103 255
0.11 0.29 0.91707 0.630853 -0.0446747 0.774615 161 136 107 255
0.129586 0.33 0.85 0.972383 0.217336 0.0850691 158 122 81 255
0.13 0.328148 0.85 0.972383 0.217336 0.0850691 158 122 81 255
0.13 0.33 0.845268 0.972383 0.217336 0.0850691 158 122 81 255
0.126091 0.33 0.87 0.841988 0.526929 0.115767 162 119 80 255
0.13 0.323754 0.87 0.841988 0.526929 0.115767 162 119 80 255
0.13 0.328148 0.85 0.841988 0.526929 0.115767 158 122 81 255
0.126091 0.33 0.87 0.962031 0.215022 0.168111 162 119 80 255
0.13 0.328148 0.85 0.962031 0.215022 0.168111 158 122 81 255
0.129586 0.33 0.85 0.962031 0.215022 0.168111 158 122 81 255
0.0802406 0.33 0.91 -0.49854 0.482273 0.720327 144 104 82 255
0.07 0.33 0.902912 -0.49854 0.482273 0.720327 129 97 75 255
0.07 0.319414 0.91 -0.49854 0.482273 0.720327 140 110 84 255
0.07 0.319414 0.91 -0.582714 0.563701 0.585394 140 110 84 255
0.07 0.31 0.919065 -0.582714 0.563701 0.585394 140 110 84 255
0.0802406 0.33 0.91 -0.582714 0.563701 0.585394 144 104 82 255
0.07 0.31 0.919065 -0.585478 0.563813 0.582521 140 110 84 255
0.09 0.33 0.919809 -0.585478 0.563813 0.582521 144 104 82 255
0.0802406 0.33 0.91 -0.585478 0.563813 0.582521 144 104 82 255
0.07 0.31 0.919065 0.0473532 -0.084369 0.995309 140 110 84 255
0.09 0.31 0.918114 0.0473532 -0.084369 0.995309 161 123 99 255
0.09 0.33 0.919809 0.0473532 -0.084369 0.995309 144 104 82 255
0.11 0.33 0.919816 -0.00545434 -0.0794177 0.996827 160 131 99 255
0.09 0.31 0.918114 -0.00545434 -0.0794177 0.996827 161 123 99 255
0.11 0.31 0.918223 -0.00545434 -0.0794177 0.996827 163 121 103 255
0.09 0.33 0.919809 -0.000374167 -0.0844638 0.996427 144 104 82 255
0.09 0.31 0.918114 -0.000374167 -0.0844638 0.996427 161 123 99 255
0.11 0.33 0.919816 -0.000374167 -0.0844638 0.996427 160 131 99 255
3 0 1 2 
3 3 4 5 
3 6 7 8 
3 9 10 11 
3 12 13 14 
3 15 16 17 
3 18 19 20 
3 21 22 23 
3 24 25 26 
3 27 28 29 
3 30 31 32 
3 33 34 35 
3 36 37 38 
3 39 40 41 
3 42 43 44 
3 45 46 47 
3 48 49 50 
3 51 52 53 
3 54 55 56 
3 57 58 59 
3 60 61 62 
3 63 64 65 
3 66 67 68 
3 69 70 71 
3 72 73 74 
3 75 76 77 
3 78 79 80 
3 81 82 83 
3 84 85 86 
3 87 88 89 
3 90 91 92 
3 93 94 95 
3 96 97 98 
3 99 100 101 
3 102 103 104 
3 105 106 107 
3 108 109 110 
3 111 112 113 
3 114 115 116 
3 117 118 119 
3 120 121 122 
3 123 124 125 
3 126 127 128 
3 129 130 131 
3 132 133 134 
3 135 136 137 
3 138 139 140 
3 141 142 143 
3 144 145 146 
3 147 148 149 
3 150 151 152 
3 153 154 155 
