ply
format ascii 1.0
element vertex 159
property float x
property float y
property float z
property float normal_x
property float normal_y
property float normal_z
property uchar red
property uchar green
property uchar blue
property uchar alpha
element face 53
property list uchar int vertex_indices
end_header
0.05 -0.09 0.909445 0.0354462 -0.275536 0.960637 171 170 170 255
0.0349481 -0.09 0.91 0.0354462 -0.275536 0.960637 175 175 174 255
0.03 -0.0906365 0.91 0.0354462 -0.275536 0.960637 175 175 174 255
0.03 -0.11 0.90358 0.0363506 -0.314483 0.948567 177 177 176 255
0.05 -0.09 0.909445 0.0363506 -0.314483 0.948567 171 170 170 255
0.03 -0.0906365 0.91 0.0363506 -0.314483 0.948567 175 175 174 255
0.05 -0.11 0.909264 -0.273349 -0.00868584 0.961876 155 154 153 255
0.05 -0.09 0.909445 -0.273349 -0.00868584 0.961876 171 170 170 255
0.03 -0.11 0.90358 -0.273349 -0.00868584 0.961876 177 177 176 255
0.0349481 -0.09 0.91 0.038047 -0.295753 0.954506 175 175 174 255
0.03 -0.09 0.910197 0.038047 -0.295753 0.954506 175 175 174 255
0.03 -0.0906365 0.91 0.038047 -0.295753 0.954506 175 175 174 255
0.0310579 -0.07 0.89 -0.642545 0.649542 0.406487 179 171 157 255
0.03 -0.07 0.888328 -0.642545 0.649542 0.406487 179 171 157 255
0.03 -0.0710465 0.89 -0.642545 0.649542 0.406487 179 171 157 255
0.05 -0.09 0.909445 0.0265132 0.729334 0.683644 171 170 170 255
0.03 -0.0710465 0.89 0.0265132 0.729334 0.683644 179 171 157 255
0.03 -0.0897935 0.91 0.0265132 0.729334 0.683644 175 175 174 255
0.0349481 -0.09 0.91 0.0276298 0.662218 0.748801 175 175 174 255
0.05 -0.09 0.909445 0.0276298 0.662218 0.748801 171 170 170 255
0.03 -0.0897935 0.91 0.0276298 0.662218 0.748801 175 175 174 255
0.05 -0.09 0.909445 -0.405627 0.410044 0.816903 171 170 170 255
0.0310579 -0.07 0.89 -0.405627 0.410044 0.816903 179 171 157 255
0.03 -0.0710465 0.89 -0.405627 0.410044 0.816903 179 171 157 255
0.0489769 -0.07 0.91 -0.676994 -0.0550121 0.73393 175 174 174 255
0.05 -0.09 0.909445 -0.676994 -0.0550121 0.73393 171 170 170 255
0.05 -0.0825903 0.91 -0.676994 -0.0550121 0.73393 171 170 170 255
0.05 -0.09 0.909445 -0.7436 -0.0565393 0.66623 171 170 170 255
0.0489769 -0.07 0.91 -0.7436 -0.0565393 0.66623 175 174 174 255
0.0310579 -0.07 0.89 -0.7436 -0.0565393 0.66623 179 171 157 255
0.03 -0.0897935 0.91 0.0288096 0.690496 0.722762 175 175 174 255
0.03 -0.09 0.910197 0.0288096 0.690496 0.722762 175 175 174 255
0.0349481 -0.09 0.91 0.0288096 0.690496 0.722762 175 175 174 255
0.05 -0.07 0.910906 -0.661835 -0.0537804 0.747718 175 174 174 255
0.0489769 -0.07 0.91 -0.661835 -0.0537804 0.747718 175 174 174 255
0.05 -0.0825903 0.91 -0.661835 -0.0537804 0.747718 171 170 170 255
0.0310579 -0.07 0.89 -0.353085 0.908536 0.223369 179 171 157 255
0.05 -0.0626385 0.89 -0.353085 0.908536 0.223369 175 174 174 255
0.03 -0.07 0.888328 -0.353085 0.908536 0.223369 179 171 157 255
0.05 -0.0626385 0.89 -0.353082 0.908428 0.223813 175 174 174 255
0.03 -0.0654845 0.87 -0.353082 0.908428 0.223813 170 168 147 255
0.03 -0.07 0.888328 -0.353082 0.908428 0.223813 179 171 157 255
0.05 -0.0626385 0.89 -0.344924 0.913698 0.214904 175 174 174 255
0.05 -0.0579345 0.87 -0.344924 0.913698 0.214904 165 139 113 255
0.03 -0.0654845 0.87 -0.344924 0.913698 0.214904 170 168 147 255
0.0489769 -0.07 0.91 -0.365292 0.871462 0.327285 175 174 174 255
0.05 -0.0695712 0.91 -0.365292 0.871462 0.327285 175 174 174 255
0.0310579 -0.07 0.89 -0.365292 0.871462 0.327285 179 171 157 255
0.0310579 -0.07 0.89 -0.344693 0.886942 0.307443 179 171 157 255
0.05 -0.0695712 0.91 -0.344693 0.886942 0.307443 175 174 174 255
0.05 -0.0626385 0.89 -0.344693 0.886942 0.307443 175 174 174 255
0.05 -0.07 0.910906 -0.354269 0.845164 0.40024 175 174 174 255
0.05 -0.0695712 0.91 -0.354269 0.845164 0.40024 175 174 174 255
0.0489769 -0.07 0.91 -0.354269 0.845164 0.40024 175 174 174 255
0.05 -0.13 0.831405 -0.339133 -0.813851 -0.471843 156 96 51 255
0.05 -0.129185 0.83 -0.339133 -0.813851 -0.471843 156 96 51 255
0.0519551 -0.13 0.83 -0.339133 -0.813851 -0.471843 156 96 51 255
0.07 -0.11 0.909381 -0.361883 -0.410656 0.836901 158 157 156 255
0.05 -0.13 0.890919 -0.361883 -0.410656 0.836901 160 149 136 255
0.07 -0.13 0.899567 -0.361883 -0.410656 0.836901 168 167 157 255
0.05 -0.11 0.909264 -0.00430681 -0.675952 0.736933 155 154 153 255
0.05 -0.13 0.890919 -0.00430681 -0.675952 0.736933 160 149 136 255
0.07 -0.11 0.909381 -0.00430681 -0.675952 0.736933 158 157 156 255
0.07 -0.09 0.909466 -0.00584408 -0.00424076 0.999974 164 163 163 255
0.05 -0.11 0.909264 -0.00584408 -0.00424076 0.999974 155 154 153 255
0.07 -0.11 0.909381 -0.00584408 -0.00424076 0.999974 158 157 156 255
0.05 -0.09 0.909445 -0.00105496 -0.00902973 0.999959 171 170 170 255
0.05 -0.11 0.909264 -0.00105496 -0.00902973 0.999959 155 154 153 255
0.07 -0.09 0.909466 -0.00105496 -0.00902973 0.999959 164 163 163 255
0.05 -0.0825903 0.91 -0.00105205 -0.0747459 0.997202 171 170 170 255
0.05 -0.09 0.909445 -0.00105205 -0.0747459 0.997202 171 170 170 255
0.07 -0.09 0.909466 -0.00105205 -0.0747459 0.997202 164 163 163 255
0.05 -0.0825903 0.91 0.00216065 -0.066118 0.997809 171 170 170 255
0.07 -0.09 0.909466 0.00216065 -0.066118 0.997809 164 163 163 255
0.07 -0.0819368 0.91 0.00216065 -0.066118 0.997809 164 163 163 255
0.07 -0.0819368 0.91 0.00208943 -0.0639387 0.997952 164 163 163 255
0.07 -0.07 0.910765 0.00208943 -0.0639387 0.997952 169 169 169 255
0.05 -0.0825903 0.91 0.00208943 -0.0639387 0.997952 171 170 170 255
0.05 -0.0825903 0.91 0.007021 -0.071739 0.997399 171 170 170 255
0.07 -0.07 0.910765 0.007021 -0.071739 0.997399 169 169 169 255
0.05 -0.07 0.910906 0.007021 -0.071739 0.997399 175 174 174 255
0.05 -0.0512374 0.83 -0.00512105 0.966274 0.257465 160 110 76 255
0.07 -0.0564604 0.85 -0.00512105 0.966274 0.257465 146 112 80 255
0.07 -0.0511314 0.83 -0.00512105 0.966274 0.257465 161 112 72 255
0.05 -0.0557932 0.85 0.0325101 0.974508 0.221984 163 120 91 255
0.07 -0.0564604 0.85 0.0325101 0.974508 0.221984 146 112 80 255
0.05 -0.0512374 0.83 0.0325101 0.974508 0.221984 160 110 76 255
0.05 -0.0557932 0.85 0.0329346 0.987231 0.155852 163 120 91 255
0.07 -0.0596178 0.87 0.0329346 0.987231 0.155852 131 116 94 255
0.07 -0.0564604 0.85 0.0329346 0.987231 0.155852 146 112 80 255
0.05 -0.0579345 0.87 0.0833966 0.990854 0.106082 165 139 113 255
0.07 -0.0596178 0.87 0.0833966 0.990854 0.106082 131 116 94 255
0.05 -0.0557932 0.85 0.0833966 0.990854 0.106082 163 120 91 255
0.05 -0.0579345 0.87 0.0823705 0.978662 0.188244 165 139 113 255
0.07 -0.0634647 0.89 0.0823705 0.978662 0.188244 164 163 163 255
0.07 -0.0596178 0.87 0.0823705 0.978662 0.188244 131 116 94 255
0.05 -0.0626385 0.89 0.0401821 0.972651 0.22877 175 174 174 255
0.07 -0.0634647 0.89 0.0401821 0.972651 0.22877 164 163 163 255
0.05 -0.0579345 0.87 0.0401821 0.972651 0.22877 165 139 113 255
0.05 -0.0626385 0.89 0.0394238 0.954295 0.296256 175 174 174 255
0.07 -0.0696736 0.91 0.0394238 0.954295 0.296256 169 169 169 255
0.07 -0.0634647 0.89 0.0394238 0.954295 0.296256 164 163 163 255
0.05 -0.0695712 0.91 0.00484217 0.944835 0.327511 175 174 174 255
0.07 -0.0696736 0.91 0.00484217 0.944835 0.327511 169 169 169 255
0.05 -0.0626385 0.89 0.00484217 0.944835 0.327511 175 174 174 255
0.05 -0.0695712 0.91 0.00463171 0.90377 0.427994 175 174 174 255
0.05 -0.07 0.910906 0.00463171 0.90377 0.427994 175 174 174 255
0.07 -0.0696736 0.91 0.00463171 0.90377 0.427994 169 169 169 255
0.07 -0.0696736 0.91 0.00276278 0.919757 0.392479 169 169 169 255
0.05 -0.07 0.910906 0.00276278 0.919757 0.392479 175 174 174 255
0.07 -0.07 0.910765 0.00276278 0.919757 0.392479 169 169 169 255
0.09 -0.117529 0.89 0.599383 -0.65305 0.462888 175 173 173 255
0.0764128 -0.13 0.89 0.599383 -0.65305 0.462888 168 167 157 255
0.09 -0.13 0.872406 0.599383 -0.65305 0.462888 164 153 108 255
0.09 -0.117529 0.89 0.638717 -0.695906 0.328262 175 173 173 255
0.09 -0.11 0.905962 0.638717 -0.695906 0.328262 184 183 182 255
0.0764128 -0.13 0.89 0.638717 -0.695906 0.328262 168 167 157 255
0.09 -0.11 0.905962 0.584819 -0.710158 0.391999 184 183 182 255
0.07 -0.13 0.899567 0.584819 -0.710158 0.391999 168 167 157 255
0.0764128 -0.13 0.89 0.584819 -0.710158 0.391999 168 167 157 255
0.09 -0.11 0.905962 0.151688 -0.435415 0.887358 184 183 182 255
0.07 -0.11 0.909381 0.151688 -0.435415 0.887358 158 157 156 255
0.07 -0.13 0.899567 0.151688 -0.435415 0.887358 168 167 157 255
0.09 -0.11 0.905962 -0.0559606 -0.22207 0.973424 184 183 182 255
0.09 -0.0922999 0.91 -0.0559606 -0.22207 0.973424 180 171 160 255
0.0808733 -0.09 0.91 -0.0559606 -0.22207 0.973424 180 171 160 255
0.07 -0.09 0.909466 -0.047892 -0.218632 0.974631 164 163 163 255
0.09 -0.11 0.905962 -0.047892 -0.218632 0.974631 184 183 182 255
0.0808733 -0.09 0.91 -0.047892 -0.218632 0.974631 180 171 160 255
0.07 -0.11 0.909381 0.168497 -0.0041802 0.985693 158 157 156 255
0.09 -0.11 0.905962 0.168497 -0.0041802 0.985693 184 183 182 255
0.07 -0.09 0.909466 0.168497 -0.0041802 0.985693 164 163 163 255
0.09 -0.09 0.91046 -0.0493774 -0.195946 0.979371 180 171 160 255
0.0808733 -0.09 0.91 -0.0493774 -0.195946 0.979371 180 171 160 255
0.09 -0.0922999 0.91 -0.0493774 -0.195946 0.979371 180 171 160 255
0.0866678 -0.07 0.89 0.713601 0.687681 0.133669 158 147 129 255
0.09 -0.0734578 0.89 0.713601 0.687681 0.133669 158 147 129 255
0.09 -0.07 0.872211 0.713601 0.687681 0.133669 144 121 101 255
0.07 -0.09 0.909466 0.781015 -0.0446157 0.622917 164 163 163 255
0.0866678 -0.07 0.89 0.781015 -0.0446157 0.622917 158 147 129 255
0.0707164 -0.07 0.91 0.781015 -0.0446157 0.622917 169 169 169 255
0.07 -0.0819368 0.91 0.740464 -0.0444378 0.670625 164 163 163 255
0.07 -0.09 0.909466 0.740464 -0.0444378 0.670625 164 163 163 255
0.0707164 -0.07 0.91 0.740464 -0.0444378 0.670625 169 169 169 255
0.07 -0.09 0.909466 0.432829 0.417108 0.799175 164 163 163 255
0.09 -0.0734578 0.89 0.432829 0.417108 0.799175 158 147 129 255
0.0866678 -0.07 0.89 0.432829 0.417108 0.799175 158 147 129 255
0.09 -0.0895874 0.91 -0.0332502 0.735542 0.676662 180 171 160 255
0.07 -0.09 0.909466 -0.0332502 0.735542 0.676662 164 163 163 255
0.0808732 -0.09 0.91 -0.0332502 0.735542 0.676662 180 171 160 255
0.07 -0.09 0.909466 -0.0328105 0.777982 0.62743 164 163 163 255
0.09 -0.0895874 0.91 -0.0328105 0.777982 0.62743 180 171 160 255
0.09 -0.0734578 0.89 -0.0328105 0.777982 0.62743 158 147 129 255
0.0808732 -0.09 0.91 -0.0336382 0.744124 0.667194 180 171 160 255
0.09 -0.09 0.91046 -0.0336382 0.744124 0.667194 180 171 160 255
0.09 -0.0895874 0.91 -0.0336382 0.744124 0.667194 180 171 160 255
0.07 -0.07 0.910765 0.729134 -0.0437578 0.68297 169 169 169 255
0.07 -0.0819368 0.91 0.729134 -0.0437578 0.68297 164 163 163 255
0.0707164 -0.07 0.91 0.729134 -0.0437578 0.68297 169 169 169 255
3 0 1 2 
3 3 4 5 
3 6 7 8 
3 9 10 11 
3 12 13 14 
3 15 16 17 
3 18 19 20 
3 21 22 23 
3 24 25 26 
3 27 28 29 
3 30 31 32 
3 33 34 35 
3 36 37 38 
3 39 40 41 
3 42 43 44 
3 45 46 47 
3 48 49 50 
3 51 52 53 
3 54 55 56 
3 57 58 59 
3 60 61 62 
3 63 64 65 
3 66 67 68 
3 69 70 71 
3 72 73 74 
3 75 76 77 
3 78 79 80 
3 81 82 83 
3 84 85 86 
3 87 88 89 
3 90 91 92 
3 93 94 95 
3 96 97 98 
3 99 100 101 
3 102 103 104 
3 105 106 107 
3 108 109 110 
3 111 112 113 
3 114 115 116 
3 117 118 119 
3 120 121 122 
3 123 124 125 
3 126 127 128 
3 129 130 131 
3 132 133 134 
3 135 136 137 
3 138 139 140 
3 141 142 143 
3 144 145 146 
3 147 148 149 
3 150 151 152 
3 153 154 155 
3 156 157 158 
